<?xml version="1.0" encoding="UTF-8" standalone="no"?>
<!-- Created with Inkscape (http://www.inkscape.org/) -->

<svg
   xmlns:dc="http://purl.org/dc/elements/1.1/"
   xmlns:cc="http://creativecommons.org/ns#"
   xmlns:rdf="http://www.w3.org/1999/02/22-rdf-syntax-ns#"
   xmlns:svg="http://www.w3.org/2000/svg"
   xmlns="http://www.w3.org/2000/svg"
   xmlns:sodipodi="http://sodipodi.sourceforge.net/DTD/sodipodi-0.dtd"
   xmlns:inkscape="http://www.inkscape.org/namespaces/inkscape"
   width="619.20758"
   height="60.655666"
   viewBox="0 0 619.20749 60.65566"
   id="svg2"
   version="1.1"
   inkscape:version="0.48.4 r9939"
   sodipodi:docname="albhabet.svg">
  <defs
     id="defs4" />
  <sodipodi:namedview
     id="base"
     pagecolor="#ffffff"
     bordercolor="#666666"
     borderopacity="1.0"
     inkscape:pageopacity="0.0"
     inkscape:pageshadow="2"
     inkscape:zoom="0.7071068"
     inkscape:cx="85.027423"
     inkscape:cy="87.079092"
     inkscape:document-units="px"
     inkscape:current-layer="layer1"
     showgrid="false"
     inkscape:snap-to-guides="false"
     inkscape:snap-page="false"
     inkscape:snap-grids="false"
     inkscape:snap-intersection-paths="false"
     inkscape:snap-smooth-nodes="false"
     inkscape:object-nodes="true"
     showguides="true"
     inkscape:window-width="1855"
     inkscape:window-height="1176"
     inkscape:window-x="65"
     inkscape:window-y="24"
     inkscape:window-maximized="1"
     inkscape:snap-nodes="true"
     showborder="true"
     borderlayer="false"
     fit-margin-top="0"
     fit-margin-left="0"
     fit-margin-right="0"
     fit-margin-bottom="0"
     inkscape:object-paths="false"
     inkscape:snap-midpoints="false"
     inkscape:guide-bbox="true">
    <inkscape:grid
       type="xygrid"
       id="grid3336"
       originx="170.9308px"
       originy="-1454.6911px"
       empspacing="5"
       visible="true"
       enabled="true"
       snapvisiblegridlinesonly="true" />
    <sodipodi:guide
       orientation="0,1"
       position="105.31364,-104.04331"
       id="guide3045" />
    <sodipodi:guide
       orientation="0,1"
       position="-116.71788,-123.13519"
       id="guide3047" />
  </sodipodi:namedview>
  <metadata
     id="metadata7">
    <rdf:RDF>
      <cc:Work
         rdf:about="">
        <dc:format>image/svg+xml</dc:format>
        <dc:type
           rdf:resource="http://purl.org/dc/dcmitype/StillImage" />
        <dc:title />
      </cc:Work>
    </rdf:RDF>
  </metadata>
  <g
     inkscape:label="Layer 1"
     inkscape:groupmode="layer"
     id="layer1"
     transform="translate(170.93065,462.98484)">
    <rect
       style="fill:#99ff55;fill-opacity:1;stroke:none"
       id="rect3275"
       width="1099.3749"
       height="776.87494"
       x="-434.87479"
       y="-679.21887" />
    <path
       style="fill:#ffffa5;fill-opacity:1;fill-rule:evenodd;stroke:none"
       d="m -170.93065,-409.67107 9.99633,0 1.99926,-21.32551 4.66496,-1.99926 6.66422,23.32477 9.99633,0 -16.66055,-53.31377 -9.99633,1.33285 z"
       id="path3382"
       inkscape:connector-curvature="0"
       sodipodi:nodetypes="ccccccccc" />
    <path
       style="fill:#ffffa5;fill-opacity:1;stroke:none"
       d="m -106.77741,-458.49916 0,40 c 1.26417,0.84278 2.96413,0.25496 4.29139,0.34491 3.060424,0.20742 5.665462,-0.1787 7.279168,-1.09444 5.776719,-3.27814 6.085705,-11.41033 1.53459,-16.49969 -1.737515,-1.943 -4.769073,-3.49769 -7.672478,-1.67656 l -0.96303,-21.63231 z"
       id="path3189"
       inkscape:connector-curvature="0"
       sodipodi:nodetypes="ccsssccc" />
    <path
       style="fill:#ffffa5;fill-opacity:1;fill-rule:evenodd;stroke:none"
       d="m 151.65949,-435.44279 c 0.24301,-1.82208 0.59656,-1.73369 2.97173,-5.14345 2.37516,-3.40975 7.04261,-2.59119 9.81001,-0.76927 2.7674,1.82194 3.53386,5.74166 3.97735,9.84435 0.002,3.4165 -1.74997,8.3559 -4.56234,9.80845 -1.43511,0.71567 -6.32953,0.94146 -9.44563,-1.17197 -3.55834,-3.59912 -3.40137,-8.01465 -2.75112,-12.56811 z"
       id="path3351"
       inkscape:connector-curvature="0"
       sodipodi:nodetypes="czzcccc" />
    <path
       style="fill:#ffffa5;fill-opacity:1;stroke:none"
       d="m 274.4118,-443.81386 4.75354,0.27353 c -0.33608,7.02986 -0.10051,13.64225 1.05915,15.59854 0.74647,1.25926 3.47654,1.13 4.15301,0.0694 0.67343,-3.78953 -0.24347,-10.15295 0.0992,-15.2992 l 4.93505,0.35777 0.75,20.46875 -5.09379,-3e-5 -0.0312,-0.34372 c -1.44568,0.39781 -4.61494,0.25003 -4.99996,0.25003 -7.00004,-3e-5 -5.62507,-13.37506 -5.62504,-21.37503 z"
       id="path3273"
       inkscape:connector-curvature="0"
       sodipodi:nodetypes="ccsccccccccc" />
    <path
       style="fill:#ffffa5;fill-opacity:1;stroke:none"
       d="m 96.205884,-441.78992 0.27621,20.43981 4.307686,-0.0314 c -0.2954,-4.70452 0.35164,-11.1555 1.87463,-13.82175 1.54101,-2.33328 3.85801,-1.87452 5.13358,-0.75816 0.53816,0.47099 1.73153,2.49621 1.83273,3.48077 0.32305,3.14298 0.31947,3.15345 0.31507,7.46258 l 3.29818,-0.10715 c 0.0196,-5.10222 -0.48536,-8.38647 0.66049,-10.46546 1.07641,-1.953 3.16089,-1.70173 4.37817,-0.34488 2.74232,3.05677 2.031,7.55174 1.59154,14.56109 l 3.54325,-0.0839 c 1.07735,-9.76529 0.19617,-15.42704 -3.1582,-18.32048 -4.82879,-4.16523 -8.36539,-0.91991 -9.22095,1.57589 -0.77237,-2.25491 -6.42097,-7.11882 -11.241586,-0.27241 l -0.21346,-3.17834 z"
       id="path3279"
       inkscape:connector-curvature="0"
       sodipodi:nodetypes="ccccssccssccscccc" />
    <path
       style="fill:#ffffa5;fill-opacity:1;stroke:none"
       d="m 128.96144,-442.75293 0.55243,21.95898 5.12912,-0.42743 -0.44034,-16.14616 c 0.77014,-1.28343 4.11505,-1.48134 5.12756,-0.53998 1.93551,1.7995 3.22324,9.9894 3.25399,17.05055 l 4.16237,-0.0988 c -0.19882,-5.35457 0.35728,-15.19971 -2.50324,-19.61903 -1.62249,-2.50664 -3.32021,-3.83535 -10.27679,-2.31625 z"
       id="path3528"
       inkscape:connector-curvature="0"
       sodipodi:nodetypes="ccccsccscc" />
    <path
       style="fill:#ffffa5;fill-opacity:1;stroke:none"
       d="m -117.12502,-419.9672 c 1.01913,-0.0848 0.0727,2.03209 0.9566,1.97399 l 3.90366,-0.25656 c 0.17489,-12.18034 1.50878,-19.60224 -4.78755,-22.40284 -6.29633,-2.8006 -10.76223,1.20995 -10.58701,5.72392 l 4.11071,0.59384 c -0.5182,-1.90431 2.90728,-3.61032 4.77846,-1.92982 1.87118,1.6805 0.77706,2.92385 0.83324,5.342 -2.12168,-3.99602 -9.58049,-0.94493 -10.016,4.0782 -0.43551,5.02313 0.91683,6.09526 3.0095,7.81353 1.30958,1.11925 5.34235,2.92303 7.79837,-0.93626 z"
       id="path3530"
       inkscape:connector-curvature="0"
       sodipodi:nodetypes="csczcczczccc" />
    <path
       style="fill:#ffffa5;fill-opacity:1;stroke:none"
       d="m -561.68033,-321.06928 -2.0716,-5.10996 c -5.49171,2.29516 -7.03149,-2.02899 -7.04345,-5.38616 -0.0119,-3.35716 -0.28959,-6.32026 6.62913,-4.0051 l 2.0716,-4.97185 c -3.08019,-1.82116 -14.26308,-6.32414 -15.46795,8.14831 -1.20488,14.47245 10.43502,14.09841 15.88227,11.32476 z"
       id="path3003"
       inkscape:connector-curvature="0"
       transform="translate(490.16884,-97.717575)"
       sodipodi:nodetypes="cczcczc" />
    <path
       style="fill:#ffffa5;fill-opacity:1;stroke:none"
       d="m -27.426372,-423.95004 c 0,0 -4.10434,5.67999 -10.44298,5.37037 -6.33864,-0.30962 -7.58044,-6.50856 -8.27433,-9.89869 -0.34491,-1.68511 0.25953,-5.43259 1.66196,-7.78285 1.40242,-2.35026 3.53205,-4.22285 6.41706,-4.51948 2.885,-0.29663 6.16707,1.18976 7.80304,3.17666 2.77248,3.36721 2.8283,8.17191 2.8283,8.17191 l -13.81067,0.58992 c 0,0 -0.49025,5.76694 4.00509,5.75173 4.49534,-0.0152 6.13104,-2.87369 6.13104,-2.87369 z"
       id="path3005"
       inkscape:connector-curvature="0"
       sodipodi:nodetypes="czszzscczcc" />
    <path
       style="fill:#ffffa5;fill-opacity:1;stroke:none"
       d="m -52.181864,-457.51376 0.53968,39.66235 -4.03731,0.29237 -0.244,-1.6079 c -1.8887,0.85648 -5.591992,1.88651 -8.507904,0.0316 -1.104979,-0.70293 -3.447293,-3.89273 -3.655566,-7.5619 -0.08752,-1.54183 0.42872,-8.36715 3.5566,-9.80511 2.4887,-1.14412 5.16904,-1.52148 8.46876,-1.17086 l 0.38775,-20.37279 z"
       id="path3007"
       inkscape:connector-curvature="0"
       sodipodi:nodetypes="ccccsssccc" />
    <path
       sodipodi:nodetypes="ccccsssccc"
       inkscape:connector-curvature="0"
       id="path3025"
       d="m 174.17616,-402.87586 -0.28722,-40.49108 5.16034,-0.5261 0.24538,1.61419 c 1.88739,-0.81181 4.4637,-1.25405 7.38046,0.6708 1.1053,0.72943 3.44984,3.97592 3.66136,7.65117 0.0889,1.54438 -0.42105,8.3595 -3.54675,9.72348 -2.48696,1.08526 -4.0412,1.39897 -7.3403,0.96975 l -0.36926,20.36977 z"
       style="fill:#ffffa5;fill-opacity:1;stroke:none" />
    <path
       style="fill:#ffffa5;fill-opacity:1;stroke:none"
       d="m 39.050732,-439.75471 0.78837,18.60831 4.178456,-0.30214 0.348301,-15.40355 2.159084,-0.71703 -0.543978,-3.98055 z"
       id="path3029"
       inkscape:connector-curvature="0"
       sodipodi:nodetypes="ccccccc" />
    <path
       style="fill:#ffffa5;fill-opacity:1;stroke:none"
       d="m 45.267125,-446.58646 c -0.152828,1.89231 -1.476011,3.50311 -3.476247,3.58786 -2.000235,0.0847 -3.30694,-1.27519 -3.3873,-3.17197 -0.08036,-1.89678 1.096056,-3.61213 3.096291,-3.69687 2.000236,-0.0847 3.931381,1.24873 3.767256,3.28098 z"
       id="path3031"
       inkscape:connector-curvature="0"
       sodipodi:nodetypes="sssss" />
    <path
       sodipodi:nodetypes="ccccccc"
       inkscape:connector-curvature="0"
       id="path3106"
       d="m 51.141627,-440.26934 0.78837,18.60831 3.471353,-0.30214 1.055407,-15.40355 2.15908,-0.71703 -0.54398,-3.98055 z"
       style="fill:#ffffa5;fill-opacity:1;stroke:none" />
    <path
       style="fill:#ffffa5;fill-opacity:1;stroke:none"
       d="m 65.826938,-421.16478 c 0.171049,-4.5962 -0.411905,-40.61444 -0.411905,-40.61444 l 4.344899,0.34283 0.313915,22.01758 c 5.229796,-0.18819 3.486246,-1.04027 6.857277,-2.8462 l 3.523345,2.89798 c -3.045465,2.4669 -3.940134,3.42141 -7.684775,4.72302 5.755352,2.04626 7.646515,4.16464 8.215551,13.12437 l -4.686515,0.39905 c -1.126459,-8.37535 -3.796694,-8.70203 -5.270067,-8.9003 -0.101737,2.60882 -0.30347,4.9669 -0.374184,8.85611 z"
       id="path3034"
       inkscape:connector-curvature="0"
       sodipodi:nodetypes="cccccccccccc" />
    <path
       style="fill:#ffffa5;fill-opacity:1;stroke:none"
       d="m 340.79018,-422.86886 6.10587,0.14276 2.7194,-7.05191 3.96666,7.23704 c 0,0 6.72679,0.0346 6.17232,-0.18066 -0.55449,-0.21523 -6.08442,-10.55566 -6.08442,-10.55566 l 5.26318,-10.55893 -6.00346,0.19652 -2.97815,6.1535 -4.4645,-6.07774 -5.33403,0.20791 5.81604,9.99808 z"
       id="path3036"
       inkscape:connector-curvature="0"
       sodipodi:nodetypes="ccccscccccccc" />
    <path
       style="fill:#ffffa5;fill-opacity:1;stroke:none"
       d="m 314.45278,-442.5357 c 0.53033,0.88389 4.77296,19.62222 4.77296,19.62222 l 4.5962,0 2.20971,-8.3085 2.03293,8.48528 4.24264,-0.17678 5.3033,-18.91511 -4.94975,-0.35355 -2.47487,11.84404 -2.74004,-7.51301 -2.91681,-0.35355 -2.82843,7.51301 -2.82843,-12.02082 z"
       id="path3092"
       inkscape:connector-curvature="0"
       sodipodi:nodetypes="cccccccccccccc" />
    <path
       style="fill:#ffffa5;fill-opacity:1;stroke:none"
       d="m 209.42235,-402.32918 c -0.0373,-4.35588 1.03636,-12.53701 6.049,-12.2804 l -3.25707,-1.81755 c -1.31233,0.0354 -2.80034,1.20378 -2.84486,2.2511 l 1.27766,-29.08173 -5.03534,-0.0886 -0.24538,1.61419 c -1.88739,-0.81181 -4.46371,-1.25405 -7.38047,0.6708 -1.1053,0.72943 -3.44983,3.97592 -3.66135,7.65117 -0.0889,1.54438 0.42105,8.3595 3.54674,9.72348 2.48697,1.08526 5.10371,1.21147 7.46531,-0.71775 l 0.24426,22.05727 z"
       id="path3094"
       inkscape:connector-curvature="0"
       sodipodi:nodetypes="cccccccsssccc" />
    <path
       sodipodi:nodetypes="czcsccccccczcc"
       inkscape:connector-curvature="0"
       id="path3096"
       d="m -23.92359,-406.4418 c 0,0 2.340873,-0.11357 2.258714,-5.57206 -0.08216,-5.4585 -0.630351,-22.62691 -0.630351,-22.62691 0.465745,-2.01297 1.047167,-4.39209 3.052644,-5.58223 3.388388,-2.01083 8.148418,-1.59829 11.726501,1.17886 l -2.86714,3.79573 c -2.82106,-1.34734 -6.760274,-1.78981 -6.742094,2.42412 l 0.05956,6.4313 5.000005,0.0927 0,4.90728 -4.875005,-0.625 c 0,0 -0.178948,4.22958 0.150062,10.26805 0.32901,6.03846 -3.56769,8.1083 -3.56769,8.1083 z"
       style="fill:#ffffa5;fill-opacity:1;stroke:none" />
    <path
       sodipodi:nodetypes="ccccsccsccc"
       inkscape:connector-curvature="0"
       id="path3098"
       d="m 17.203722,-461.52041 0.55243,40.25537 5.126522,-0.19888 -0.52873,-15.67021 c 0.770135,-1.28343 3.681992,-0.62151 4.694502,0.31985 1.93551,1.7995 1.186624,8.13845 1.217374,15.1996 l 5.220435,0.54139 c -0.19882,-5.35457 0.951943,-13.21227 -1.908577,-17.63159 -1.62249,-2.50664 -2.616781,-5.55763 -9.573361,-4.03853 l -0.72732,-18.60883 z"
       style="fill:#ffffa5;fill-opacity:1;stroke:none" />
    <path
       sodipodi:nodetypes="ccccccccszsc"
       inkscape:connector-curvature="0"
       id="path3100"
       d="m 10.84733,-410.33903 1.072979,-30.8521 -4.0373101,-0.29237 -0.3065,1.2954 c -13.2646506,-5.77868 -15.9175391,21.28677 -0.7631099,18.38127 l -0.1161857,9.97276 c 0.063439,3.32418 -2.3331773,7.21224 -7.34801863,1.1959 l -2.74798637,2.92379 c 0,0 1.4631352,1.93755 3.30133812,3.05209 1.83820278,1.11453 4.05147318,1.40605 4.55174358,1.36397 0.5002704,-0.0421 3.1144469,-0.78926 4.4996591,-2.31659 1.2766649,-1.40764 1.8684849,-3.5984 1.8933909,-4.72412 z"
       style="fill:#ffffa5;fill-opacity:1;stroke:none" />
    <path
       style="fill:#ffffa5;fill-opacity:1;stroke:none"
       d="m 424.27155,-439.19019 -14.93628,13.89965 4.77297,5.12652 6.71753,-6.54073 7.95495,5.83362 4.15425,-5.74524 -7.33623,-5.39168 c 2.27261,-3.22658 7.64819,-6.38571 5.48008,-11.84404 -2.16811,-5.45834 -7.45865,-7.37432 -10.58364,-7.24103 -3.12499,0.1333 -10.02836,2.3618 -10.80635,7.85974 -0.77798,5.49794 3.76862,9.64724 6.29963,11.69987 0.11485,0.0931 6.07238,-2.38691 4.5311,-3.99969 -1.17641,-1.23099 -3.79817,-3.01587 -4.5774,-5.59258 -0.38228,-3.20463 1.52495,-4.12844 3.37,-4.50879 1.67166,-0.34459 3.34216,0.3614 5.02067,2.15942 0.79766,0.85446 0.67886,3.0916 -0.0613,4.28496 z"
       id="path3102"
       inkscape:connector-curvature="0"
       sodipodi:nodetypes="ccccccczzzsscssc" />
    <path
       style="fill:#ffffa5;fill-opacity:1;stroke:none"
       d="m 55.597326,-410.58903 1.07298,-30.8521 -5.28731,2.08263 c -0.0246,9.94586 -0.25743,17.45418 -0.3733,27.39943 0.0634,3.32418 -1.89567,7.08724 -6.91052,1.0709 l -2.74798,2.92379 c 0,0 1.46313,1.93755 3.30134,3.05209 1.8382,1.11453 4.05147,1.40605 4.55174,1.36397 0.50027,-0.0421 3.11445,-0.78926 4.49966,-2.31659 1.27666,-1.40764 1.86848,-3.5984 1.89339,-4.72412 z"
       id="path3104"
       inkscape:connector-curvature="0"
       sodipodi:nodetypes="ccccccszsc" />
    <path
       sodipodi:nodetypes="sssss"
       inkscape:connector-curvature="0"
       id="path3111"
       d="m 57.454624,-446.52396 c -0.152828,1.89231 -1.476011,3.50311 -3.476247,3.58786 -2.000235,0.0847 -3.30694,-1.27519 -3.3873,-3.17197 -0.08036,-1.89678 1.096056,-3.61213 3.096291,-3.69687 2.000236,-0.0847 3.931381,1.24873 3.767256,3.28098 z"
       style="fill:#ffffa5;fill-opacity:1;stroke:none" />
    <path
       style="fill:#ffffa5;fill-opacity:1;stroke:none"
       d="m -406.40962,-364.26357 c 0.43805,7.82829 0.0701,15.98932 0.4826,23.76966 0.33309,6.28177 1.55735,12.06559 4.05661,17.23181 l 4.03683,-1.77405 c -1.58635,-4.73203 -2.78155,-10.11503 -3.18527,-15.57804 -0.30437,-4.11861 -0.002,-15.63624 -0.26425,-24.00293 z"
       id="path3113"
       inkscape:connector-curvature="0"
       transform="translate(490.16884,-97.717575)"
       sodipodi:nodetypes="csccscc" />
    <path
       style="fill:#ffffa5;fill-opacity:1;stroke:none"
       d="m -275.6422,-345.68685 -0.0411,20.49093 4.44087,0.0518 0.0518,-14.0778 c 0.99916,-2.6131 8.60671,-2.44866 7.77006,0.69639 l 4.08915,-1.0777 c -0.68653,-8.75569 -11.59187,-6.30947 -12.17615,-5.25152 l 0.0473,-0.72227 z"
       id="path3115"
       inkscape:connector-curvature="0"
       transform="translate(490.16884,-97.717575)"
       sodipodi:nodetypes="ccccccccc" />
    <path
       sodipodi:nodetypes="cczzzzcczcczzzzzcscc"
       inkscape:connector-curvature="0"
       id="path3117"
       d="m 234.8507,-422.22706 2.13304,-4.88196 c 3.20483,0.98791 4.87556,0.86152 5.485,0.57435 0.60944,-0.28718 1.52359,-1.72306 1.52359,-2.58457 0,-0.86152 -0.91415,-2.2974 -2.43777,-2.87175 -1.52359,-0.57434 -3.65666,-0.86152 -4.57082,-1.43586 -0.91415,-0.57436 -1.42643,-1.58311 -1.52361,-2.87174 0,-4.30761 0,-5.74349 4.57084,-7.17937 1.48054,-0.32939 4.80037,-0.7537 6.09441,0 1.29406,0.75371 2.57802,1.80419 3.04722,2.87176 l -3.04722,2.87173 c 0,0 -1.02733,-0.83603 -1.82831,-1.14871 -0.80099,-0.31266 -2.43777,0 -2.74251,0.28719 -0.30471,0.28717 -1.53218,1.48933 -0.91417,2.2974 0.61803,0.80806 2.66735,0.68215 3.96141,1.43586 1.29403,0.75372 3.04498,1.2413 3.96135,2.87174 0.91638,1.63045 1.3656,5.38375 0.60945,7.17937 -0.4692,1.06754 -1.38907,2.09041 -3.04722,2.87175 -3.0472,1.43585 -6.09441,1.43585 -10.66525,0 z"
       style="fill:#ffffa5;fill-opacity:1;fill-rule:evenodd;stroke:none" />
    <path
       sodipodi:nodetypes="ccccccccccc"
       inkscape:connector-curvature="0"
       id="path3119"
       d="m 254.9048,-461.72867 -0.49295,32.75097 c 1.25265,5.41401 5.23841,9.08939 15.8398,5.15468 l -0.74582,-4.8122 c -2.82106,1.34734 -8.71998,3.888 -8.7018,-0.32593 l 0.13815,-13.06648 5,-0.0927 0,-4.90728 -4.875,0.625 -0.21068,-14.85583 z"
       style="fill:#ffffa5;fill-opacity:1;stroke:none" />
    <path
       style="fill:#ffffa5;fill-opacity:1;stroke:none"
       d="m 292.09301,-442.83719 5.76517,-0.0884 3.68305,12.34206 4.38128,-12.34834 6.5,0.25 -9.25,20.5 -3.9545,-0.125 z"
       id="path3121"
       inkscape:connector-curvature="0"
       sodipodi:nodetypes="cccccccc" />
    <path
       style="fill:#ffffa5;fill-opacity:1;stroke:none"
       d="m 377.48216,-412.1068 1.07298,-30.8521 -4.03731,-0.29237 -0.994,13.9829 c -0.43666,2.2546 -4.28797,2.09499 -6.05059,-2.62318 -0.92401,-2.47339 -0.27688,-6.06356 -0.41197,-11.50845 l -4.45691,0.24388 c -0.10766,3.9175 -0.50415,9.97136 0.94939,14.13616 1.37906,3.95136 4.4546,6.13989 9.89447,5.44536 l -0.61619,7.97276 c 0.0634,3.32418 -0.83318,8.96224 -5.84802,2.9459 l -3.74798,3.17379 c 3.19324,3.74682 8.50309,6.13724 12.35274,2.09947 1.27666,-1.40764 1.86848,-3.5984 1.89339,-4.72412 z"
       id="path3123"
       inkscape:connector-curvature="0"
       sodipodi:nodetypes="ccccsccscccccc" />
    <path
       style="fill:#ffffa5;fill-opacity:1;stroke:none"
       d="m 382.02918,-441.122 1.68106,4.28025 c 5.62596,-3.53378 6.82555,-0.2433 6.8147,1.08611 -0.0262,3.21024 -2.79261,4.51527 -7.20428,7.41681 l 0.0759,3.80616 c 1.39002,-0.31544 4.69145,-0.998 7.38807,1.36207 2.41715,2.11549 2.44601,6.07658 1.30068,7.98358 -1.0017,1.66788 -4.01174,2.76385 -9.88789,2.46968 l -0.55488,4.61701 c 0,0 6.82429,0.90019 12.17661,-1.63118 1.65259,-0.78159 3.93842,-2.74448 3.85237,-8.98507 -0.1446,-10.48693 -10.72275,-8.7077 -7.19758,-10.27725 6.88482,-3.0654 4.81196,-10.36025 2.71202,-12.37405 -3.30865,-3.17295 -8.70098,-1.98279 -11.15679,0.24588 z"
       id="path3125"
       inkscape:connector-curvature="0"
       sodipodi:nodetypes="ccsccssccsssscc" />
    <path
       sodipodi:nodetypes="sssss"
       inkscape:connector-curvature="0"
       id="path3127"
       d="m 448.26708,-425.58646 c -0.15283,1.89231 -1.47601,3.50311 -3.47624,3.58786 -2.00024,0.0847 -3.30694,-1.27519 -3.3873,-3.17197 -0.0804,-1.89678 1.09605,-3.61213 3.09629,-3.69687 2.00023,-0.0847 3.93138,1.24873 3.76725,3.28098 z"
       style="fill:#ffffa5;fill-opacity:1;stroke:none" />
  </g>
</svg>
