<?xml version="1.0" encoding="UTF-8" standalone="no"?>
<!-- Created with Inkscape (http://www.inkscape.org/) -->

<svg
   xmlns:dc="http://purl.org/dc/elements/1.1/"
   xmlns:cc="http://creativecommons.org/ns#"
   xmlns:rdf="http://www.w3.org/1999/02/22-rdf-syntax-ns#"
   xmlns:svg="http://www.w3.org/2000/svg"
   xmlns="http://www.w3.org/2000/svg"
   xmlns:sodipodi="http://sodipodi.sourceforge.net/DTD/sodipodi-0.dtd"
   xmlns:inkscape="http://www.inkscape.org/namespaces/inkscape"
   width="564.48077"
   height="89.667747"
   viewBox="0 0 564.48069 89.667738"
   id="svg2"
   version="1.1"
   inkscape:version="0.48.4 r9939"
   sodipodi:docname="education.svg">
  <defs
     id="defs4" />
  <sodipodi:namedview
     id="base"
     pagecolor="#ffffff"
     bordercolor="#666666"
     borderopacity="1.0"
     inkscape:pageopacity="0.0"
     inkscape:pageshadow="2"
     inkscape:zoom="1.4142136"
     inkscape:cx="253.0834"
     inkscape:cy="13.887351"
     inkscape:document-units="px"
     inkscape:current-layer="layer1"
     showgrid="false"
     inkscape:snap-to-guides="false"
     inkscape:snap-page="false"
     inkscape:snap-grids="false"
     inkscape:snap-intersection-paths="false"
     inkscape:snap-smooth-nodes="false"
     inkscape:object-nodes="true"
     showguides="true"
     inkscape:window-width="1855"
     inkscape:window-height="1176"
     inkscape:window-x="65"
     inkscape:window-y="24"
     inkscape:window-maximized="1"
     inkscape:snap-nodes="true"
     showborder="true"
     borderlayer="false"
     fit-margin-top="0"
     fit-margin-left="0"
     fit-margin-right="0"
     fit-margin-bottom="0"
     inkscape:object-paths="false"
     inkscape:snap-midpoints="false"
     inkscape:guide-bbox="true">
    <inkscape:grid
       type="xygrid"
       id="grid3336"
       originx="936.97234px"
       originy="-1358.0144px"
       empspacing="5"
       visible="true"
       enabled="true"
       snapvisiblegridlinesonly="true" />
    <sodipodi:guide
       orientation="0,1"
       position="871.35518,-7.3666279"
       id="guide3045" />
    <sodipodi:guide
       orientation="0,1"
       position="649.32366,-26.458508"
       id="guide3047" />
  </sodipodi:namedview>
  <metadata
     id="metadata7">
    <rdf:RDF>
      <cc:Work
         rdf:about="">
        <dc:format>image/svg+xml</dc:format>
        <dc:type
           rdf:resource="http://purl.org/dc/dcmitype/StillImage" />
        <dc:title />
      </cc:Work>
    </rdf:RDF>
  </metadata>
  <g
     inkscape:label="Layer 1"
     inkscape:groupmode="layer"
     id="layer1"
     transform="translate(936.97211,395.32025)">
    <rect
       y="-361.62991"
       x="-936.97211"
       height="9.1232271"
       width="425.82568"
       id="rect5208"
       style="fill:#008dcc;fill-opacity:0.25490196;stroke:none" />
    <rect
       y="-395.32025"
       x="-570.65747"
       height="79.66774"
       width="187.25784"
       id="rect4403"
       style="fill:#008dcc;fill-opacity:0.25490196;stroke:none" />
    <rect
       style="fill:#deaa87;fill-opacity:1;stroke:none"
       id="rect5206"
       width="425.82568"
       height="9.1232271"
       x="-936.97211"
       y="-355.62991" />
    <rect
       style="fill:#55bb8f;fill-opacity:1;stroke:none"
       id="rect3275"
       width="187.25784"
       height="79.66774"
       x="-559.74921"
       y="-385.32025" />
    <path
       sodipodi:nodetypes="czszzscczcc"
       inkscape:connector-curvature="0"
       id="path3049"
       d="m -533.01119,-331.78352 c 0,0 -4.10434,5.67999 -10.44298,5.37037 -6.33864,-0.30962 -7.58044,-6.50856 -8.27433,-9.89868 -0.34491,-1.68511 0.25953,-5.43259 1.66196,-7.78285 1.40242,-2.35026 3.53205,-4.22285 6.41706,-4.51948 2.885,-0.29663 6.16707,1.18976 7.80304,3.17666 2.77248,3.36721 2.8283,8.17191 2.8283,8.17191 l -13.81067,0.58992 c 0,0 -0.49025,5.76693 4.00509,5.75172 4.49534,-0.0152 6.13104,-2.87368 6.13104,-2.87368 z"
       style="fill:#ffffa5;fill-opacity:1;stroke:none" />
    <path
       sodipodi:nodetypes="ccccsssccc"
       inkscape:connector-curvature="0"
       id="path3051"
       d="m -513.26668,-366.34723 0.53967,39.66234 -4.0373,0.29237 -0.244,-1.6079 c -1.8887,0.85648 -5.592,1.88651 -8.50791,0.0316 -1.10498,-0.70293 -3.44729,-3.89273 -3.65556,-7.56189 -0.0875,-1.54183 0.42872,-8.36715 3.5566,-9.80511 2.4887,-1.14412 5.16904,-1.52148 8.46876,-1.17086 l 0.38775,-20.37279 z"
       style="fill:#ffffa5;fill-opacity:1;stroke:none" />
    <path
       sodipodi:nodetypes="ccsccccccccc"
       inkscape:connector-curvature="0"
       id="path3053"
       d="m -508.34119,-347.46547 4.75354,0.27353 c -0.33608,7.02986 -0.60051,11.76725 0.55915,13.72353 0.74647,1.25926 1.0333,0.68806 2.9914,0.68807 2.54843,0.21047 1.41814,-8.89666 1.76086,-14.04291 l 4.93505,0.35777 0.125,19.09374 -5.09379,-3e-5 -0.0312,-0.34372 c -1.66665,6e-5 -3.33331,0.25003 -4.99996,0.25003 -7.00004,-3e-5 -5.00007,-12.00005 -5.00004,-20.00002 z"
       style="fill:#ffffa5;fill-opacity:1;stroke:none" />
    <path
       sodipodi:nodetypes="cczcczc"
       inkscape:connector-curvature="0"
       id="path3055"
       d="m -472.59632,-327.12034 -2.0716,-5.10996 c -5.49171,2.29516 -7.03149,-2.02898 -7.04345,-5.38615 -0.0119,-3.35716 -0.28959,-6.32026 6.62913,-4.0051 l 2.0716,-4.97185 c -3.08019,-1.82116 -14.26308,-6.32414 -15.46795,8.14831 -1.20488,14.47244 10.43502,14.0984 15.88227,11.32475 z"
       style="fill:#ffffa5;fill-opacity:1;stroke:none" />
    <path
       sodipodi:nodetypes="cscccczczccc"
       inkscape:connector-curvature="0"
       id="path3057"
       d="m -458.53007,-328.29266 c 0.80382,-0.0669 0.0573,1.60277 0.7545,1.55694 l 3.07893,-0.20235 c 0.72949,-8.91685 1.80618,-18.18669 -4.30987,-20.99215 -6.37652,-2.69553 -9.08003,1.44728 -8.94183,5.00758 l 3.24224,0.46838 c -0.40872,-1.50199 2.29306,-2.84757 3.76891,-1.52211 1.47586,1.32546 1.45937,3.25326 1.50368,5.16052 -1.67343,-3.15177 -8.54232,-0.6467 -8.88582,3.31519 -0.3435,3.96188 1.00198,6.6898 2.65253,8.04505 1.03291,0.88278 5.19958,2.20688 7.13672,-0.83705 z"
       style="fill:#ffffa5;fill-opacity:1;stroke:none" />
    <path
       style="fill:#ffffa5;fill-opacity:1;stroke:none"
       d="m -449.09421,-365.73372 -0.49296,32.75096 c 1.25265,5.41401 4.23842,9.08939 14.83981,5.15468 l -0.74582,-4.8122 c -2.82106,1.34734 -8.71998,3.888 -8.7018,-0.32593 l 0.13814,-13.06647 5.00001,-0.0927 0,-4.90728 -4.87501,0.625 -0.21068,-14.85583 z"
       id="path3070"
       inkscape:connector-curvature="0"
       sodipodi:nodetypes="ccccccccccc" />
    <g
       id="g3076"
       transform="translate(-523.58479,19.666483)">
      <path
         style="fill:#ffffa5;fill-opacity:1;stroke:none"
         d="m 92.364435,-365.6334 0.78837,18.60831 4.178456,-0.30214 0.348301,-15.40355 2.159084,-0.71703 -0.543978,-3.98055 z"
         id="path3078"
         inkscape:connector-curvature="0"
         sodipodi:nodetypes="ccccccc" />
      <path
         style="fill:#ffffa5;fill-opacity:1;stroke:none"
         d="m 98.580828,-372.46515 c -0.152828,1.89231 -1.476011,3.50311 -3.476247,3.58786 -2.000235,0.0847 -3.30694,-1.27519 -3.3873,-3.17197 -0.08036,-1.89678 1.096056,-3.61213 3.096291,-3.69687 2.000236,-0.0847 3.931381,1.24873 3.767256,3.28098 z"
         id="path3080"
         inkscape:connector-curvature="0"
         sodipodi:nodetypes="sssss" />
    </g>
    <path
       sodipodi:nodetypes="czzcccc"
       inkscape:connector-curvature="0"
       id="path3082"
       d="m -418.17534,-340.27627 c 0.24301,-1.82208 0.59656,-1.73369 2.97173,-5.14345 2.37516,-3.40975 7.04261,-2.59119 9.81001,-0.76927 2.76741,1.82194 3.53387,5.74166 3.97736,9.84435 0.002,3.41649 -1.74997,8.35589 -4.56235,9.80844 -1.43511,0.71567 -6.32953,0.94146 -9.44563,-1.17197 -3.55833,-3.59912 -3.40136,-8.01464 -2.75112,-12.5681 z"
       style="fill:#ffffa5;fill-opacity:1;fill-rule:evenodd;stroke:none" />
    <path
       sodipodi:nodetypes="ccccsccscc"
       inkscape:connector-curvature="0"
       id="path3084"
       d="m -398.12339,-348.33641 0.55243,21.95897 6.62912,-0.55243 -0.52873,-15.6702 c 0.77014,-1.28343 3.24005,-0.35634 4.25256,0.58502 1.93551,1.7995 1.18663,8.13845 1.21738,15.19959 l 5.66237,0.27622 c -0.19882,-5.35457 1.48228,-14.4497 -1.37824,-18.86902 -1.62249,-2.50664 -5.44521,-4.58535 -12.40179,-3.06625 z"
       style="fill:#ffffa5;fill-opacity:1;stroke:none" />
  </g>
</svg>
