<?xml version="1.0" encoding="UTF-8" standalone="no"?>
<!-- Created with Inkscape (http://www.inkscape.org/) -->

<svg
   xmlns:dc="http://purl.org/dc/elements/1.1/"
   xmlns:cc="http://creativecommons.org/ns#"
   xmlns:rdf="http://www.w3.org/1999/02/22-rdf-syntax-ns#"
   xmlns:svg="http://www.w3.org/2000/svg"
   xmlns="http://www.w3.org/2000/svg"
   xmlns:sodipodi="http://sodipodi.sourceforge.net/DTD/sodipodi-0.dtd"
   xmlns:inkscape="http://www.inkscape.org/namespaces/inkscape"
   width="572.48077"
   height="89.667747"
   viewBox="0 0 572.48069 89.667738"
   id="svg2"
   version="1.1"
   inkscape:version="0.48.4 r9939"
   sodipodi:docname="employment.svg">
  <defs
     id="defs4" />
  <sodipodi:namedview
     id="base"
     pagecolor="#ffffff"
     bordercolor="#666666"
     borderopacity="1.0"
     inkscape:pageopacity="0.0"
     inkscape:pageshadow="2"
     inkscape:zoom="1.4142137"
     inkscape:cx="408.43121"
     inkscape:cy="-168.03827"
     inkscape:document-units="px"
     inkscape:current-layer="layer1"
     showgrid="false"
     inkscape:snap-to-guides="false"
     inkscape:snap-page="false"
     inkscape:snap-grids="false"
     inkscape:snap-intersection-paths="false"
     inkscape:snap-smooth-nodes="false"
     inkscape:object-nodes="true"
     showguides="true"
     inkscape:window-width="1855"
     inkscape:window-height="1176"
     inkscape:window-x="65"
     inkscape:window-y="24"
     inkscape:window-maximized="1"
     inkscape:snap-nodes="true"
     showborder="true"
     borderlayer="false"
     fit-margin-top="0"
     fit-margin-left="0"
     fit-margin-right="0"
     fit-margin-bottom="0"
     inkscape:object-paths="false"
     inkscape:snap-midpoints="false"
     inkscape:guide-bbox="true">
    <inkscape:grid
       type="xygrid"
       id="grid3336"
       originx="936.97234px"
       originy="-1358.0144px"
       empspacing="5"
       visible="true"
       enabled="true"
       snapvisiblegridlinesonly="true" />
    <sodipodi:guide
       orientation="0,1"
       position="871.35518,-7.3666279"
       id="guide3045" />
    <sodipodi:guide
       orientation="0,1"
       position="649.32366,-26.458508"
       id="guide3047" />
  </sodipodi:namedview>
  <metadata
     id="metadata7">
    <rdf:RDF>
      <cc:Work
         rdf:about="">
        <dc:format>image/svg+xml</dc:format>
        <dc:type
           rdf:resource="http://purl.org/dc/dcmitype/StillImage" />
        <dc:title></dc:title>
      </cc:Work>
    </rdf:RDF>
  </metadata>
  <g
     inkscape:label="Layer 1"
     inkscape:groupmode="layer"
     id="layer1"
     transform="translate(936.97211,395.32025)">
    <rect
       y="-361.62991"
       x="-936.97211"
       height="9.1232271"
       width="425.82568"
       id="rect5208"
       style="fill:#008dcc;fill-opacity:0.25490196;stroke:none" />
    <rect
       y="-395.32025"
       x="-570.65747"
       height="79.66774"
       width="194.81747"
       id="rect4403"
       style="fill:#008dcc;fill-opacity:0.25490196;stroke:none" />
    <rect
       style="fill:#deaa87;fill-opacity:1;stroke:none"
       id="rect5206"
       width="425.82568"
       height="9.1232271"
       x="-936.97211"
       y="-355.62991" />
    <rect
       style="fill:#55bb8f;fill-opacity:1;stroke:none"
       id="rect3275"
       width="194.81747"
       height="79.66774"
       x="-559.30884"
       y="-385.32025" />
    <path
       style="fill:#ffffa5;fill-opacity:1;stroke:none"
       d="m -532.47055,-354.96333 c 0,0 -4.10434,5.67999 -10.44297,5.37037 -6.33864,-0.30962 -7.58044,-6.50856 -8.27433,-9.89869 -0.34491,-1.68511 0.25953,-5.43259 1.66196,-7.78285 1.40242,-2.35026 3.53205,-4.22285 6.41706,-4.51948 2.88499,-0.29663 6.16706,1.18976 7.80303,3.17666 2.77248,3.36721 2.8283,8.17191 2.8283,8.17191 l -13.81066,0.58992 c 0,0 -0.49025,5.76694 4.00509,5.75173 4.49533,-0.0152 6.13103,-2.87369 6.13103,-2.87369 z"
       id="path3050"
       inkscape:connector-curvature="0"
       sodipodi:nodetypes="czszzscczcc" />
    <path
       sodipodi:nodetypes="ccccssccssccscccc"
       inkscape:connector-curvature="0"
       id="path3052"
       d="m -528.81469,-370.92213 0.27621,20.43981 4.30769,-0.0314 c -0.2954,-4.70452 0.35164,-11.1555 1.87463,-13.82175 1.54101,-2.33328 3.858,-1.87452 5.13357,-0.75816 0.53816,0.47099 1.73153,2.49621 1.83273,3.48077 0.32305,3.14298 0.31947,3.15345 0.31507,7.46258 l 3.29817,-0.10715 c 0.0196,-5.10222 -0.48536,-8.38647 0.66049,-10.46546 1.07641,-1.953 3.16089,-1.70173 4.37817,-0.34488 2.74232,3.05677 2.031,7.55174 1.59154,14.56109 l 3.54325,-0.0839 c 1.07735,-9.76529 0.19617,-15.42704 -3.1582,-18.32048 -4.82879,-4.16523 -8.36538,-0.91991 -9.22094,1.57589 -0.77237,-2.25491 -6.42096,-7.11882 -11.24158,-0.27241 l -0.21346,-3.17834 z"
       style="fill:#ffffa5;fill-opacity:1;stroke:none" />
    <path
       style="fill:#ffffa5;fill-opacity:1;stroke:none"
       d="m -496.56546,-331.18928 -0.28722,-40.49107 5.16034,-0.5261 0.24538,1.61419 c 1.88739,-0.81181 4.4637,-1.25405 7.38046,0.6708 1.1053,0.72943 3.44984,3.97592 3.66136,7.65117 0.0889,1.54438 -0.42105,8.3595 -3.54675,9.72348 -2.48696,1.08526 -4.0412,1.39897 -7.3403,0.96975 l -0.36926,20.36976 z"
       id="path3054"
       inkscape:connector-curvature="0"
       sodipodi:nodetypes="ccccsssccc" />
    <path
       sodipodi:nodetypes="csccscc"
       inkscape:connector-curvature="0"
       id="path3056"
       d="m -477.68112,-380.0265 c 0.43805,7.11843 0.0701,14.53944 0.4826,21.61427 0.33309,5.71215 1.55735,10.9715 4.05661,15.66926 l 4.03683,-1.61318 c -1.58635,-4.30294 -2.78155,-9.19782 -3.18527,-14.16545 -0.30437,-3.74515 -0.002,-14.21838 -0.26425,-21.82639 z"
       style="fill:#ffffa5;fill-opacity:1;stroke:none" />
    <path
       sodipodi:nodetypes="czzcccc"
       inkscape:connector-curvature="0"
       id="path3058"
       d="m -466.53084,-364.95609 c 0.24301,-1.82208 0.59656,-1.73369 2.97173,-5.14345 2.37516,-3.40975 7.04261,-2.59119 9.81001,-0.76927 2.7674,1.82194 3.53386,5.74166 3.97735,9.84435 0.002,3.4165 -1.74997,8.3559 -4.56234,9.80845 -1.43511,0.71567 -6.32953,0.94146 -9.44563,-1.17197 -3.55834,-3.59912 -3.40137,-8.01465 -2.75112,-12.56811 z"
       style="fill:#ffffa5;fill-opacity:1;fill-rule:evenodd;stroke:none" />
    <path
       sodipodi:nodetypes="ccccsccscccccc"
       inkscape:connector-curvature="0"
       id="path3060"
       d="m -431.70814,-339.12011 1.07298,-30.85209 -4.03731,-0.29237 -0.994,13.9829 c -0.43666,2.2546 -4.28797,2.09499 -6.05059,-2.62318 -0.92401,-2.47339 -0.27688,-6.06356 -0.41197,-11.50845 l -4.45691,0.24388 c -0.10766,3.9175 -0.50415,9.97136 0.94939,14.13616 1.37906,3.95136 4.4546,6.13989 9.89447,5.44536 l -0.61619,7.97275 c 0.0634,3.32418 -0.83318,8.96224 -5.84802,2.9459 l -3.74798,3.17379 c 3.19324,3.74682 8.50309,6.13724 12.35274,2.09947 1.27666,-1.40764 1.86848,-3.5984 1.89339,-4.72412 z"
       style="fill:#ffffa5;fill-opacity:1;stroke:none" />
    <path
       sodipodi:nodetypes="ccccssccssccscccc"
       inkscape:connector-curvature="0"
       id="path3062"
       d="m -460.78663,-334.08242 0.27621,20.43981 4.30768,-0.0314 c -0.2954,-4.70452 0.35164,-11.1555 1.87463,-13.82175 1.54101,-2.33328 3.85799,-1.87452 5.13356,-0.75816 0.53816,0.47099 1.73153,2.49621 1.83273,3.48077 0.32305,3.14298 0.31947,3.15345 0.31507,7.46258 l 3.29818,-0.10715 c 0.0196,-5.10222 -0.48536,-8.38647 0.66049,-10.46546 1.07641,-1.953 3.16089,-1.70173 4.37817,-0.34488 2.74232,3.05677 2.031,7.55174 1.59154,14.56109 l 3.54325,-0.0839 c 1.07735,-9.76529 0.19617,-15.42704 -3.1582,-18.32048 -4.82879,-4.16523 -8.36539,-0.91991 -9.22095,1.57589 -0.77237,-2.25491 -6.42095,-7.11882 -11.24157,-0.27241 l -0.21346,-3.17834 z"
       style="fill:#ffffa5;fill-opacity:1;stroke:none" />
    <path
       sodipodi:nodetypes="czszzscczcc"
       inkscape:connector-curvature="0"
       id="path3064"
       d="m -411.41893,-318.74254 c 0,0 -4.10434,5.67999 -10.44298,5.37037 -6.33864,-0.30962 -7.58044,-6.50856 -8.27433,-9.89869 -0.34491,-1.68511 0.25953,-5.43259 1.66196,-7.78285 1.40242,-2.35026 3.53205,-4.22285 6.41706,-4.51948 2.885,-0.29663 6.16707,1.18976 7.80304,3.17666 2.77248,3.36721 2.8283,8.17191 2.8283,8.17191 l -13.81067,0.58992 c 0,0 -0.49025,5.76694 4.00509,5.75173 4.49534,-0.0152 6.13104,-2.87369 6.13104,-2.87369 z"
       style="fill:#ffffa5;fill-opacity:1;stroke:none" />
    <path
       sodipodi:nodetypes="ccccsccscc"
       inkscape:connector-curvature="0"
       id="path3066"
       d="m -408.0311,-335.04543 0.55243,21.95898 5.12912,-0.42743 -0.44034,-16.14616 c 0.77014,-1.28343 4.11505,-1.48134 5.12756,-0.53998 1.93551,1.7995 3.22324,9.9894 3.25399,17.05055 l 4.16237,-0.0988 c -0.19882,-5.35457 0.35728,-15.19971 -2.50324,-19.61903 -1.62249,-2.50664 -3.32021,-3.83535 -10.27679,-2.31625 z"
       style="fill:#ffffa5;fill-opacity:1;stroke:none" />
    <path
       sodipodi:nodetypes="ccccccccccc"
       inkscape:connector-curvature="0"
       id="path3068"
       d="m -386.50193,-352.69274 -0.49296,32.75097 c 1.25265,5.41401 4.23842,9.08939 14.83981,5.15468 l -0.74582,-4.8122 c -2.82106,1.34734 -8.71998,3.888 -8.7018,-0.32593 l 0.13814,-13.06648 5.00001,-0.0927 0,-4.90728 -4.87501,0.625 -0.21068,-14.85583 z"
       style="fill:#ffffa5;fill-opacity:1;stroke:none" />
    <path
       style="fill:#ffffa5;fill-opacity:1;stroke:none"
       d="m -426.00952,-366.13265 10.60659,-0.0884 -0.61871,4.41941 -10.07627,-0.26516 z"
       id="rect3191"
       inkscape:connector-curvature="0"
       sodipodi:nodetypes="ccccc" />
  </g>
</svg>
