<?xml version="1.0" encoding="UTF-8" standalone="no"?>
<!-- Created with Inkscape (http://www.inkscape.org/) -->

<svg
   xmlns:dc="http://purl.org/dc/elements/1.1/"
   xmlns:cc="http://creativecommons.org/ns#"
   xmlns:rdf="http://www.w3.org/1999/02/22-rdf-syntax-ns#"
   xmlns:svg="http://www.w3.org/2000/svg"
   xmlns="http://www.w3.org/2000/svg"
   xmlns:sodipodi="http://sodipodi.sourceforge.net/DTD/sodipodi-0.dtd"
   xmlns:inkscape="http://www.inkscape.org/namespaces/inkscape"
   width="567.48083"
   height="89.667747"
   viewBox="0 0 567.48075 89.667738"
   id="svg2"
   version="1.1"
   inkscape:version="0.48.4 r9939"
   sodipodi:docname="expertise.svg">
  <defs
     id="defs4" />
  <sodipodi:namedview
     id="base"
     pagecolor="#ffffff"
     bordercolor="#666666"
     borderopacity="1.0"
     inkscape:pageopacity="0.0"
     inkscape:pageshadow="2"
     inkscape:zoom="1.4142137"
     inkscape:cx="258.74083"
     inkscape:cy="161.06794"
     inkscape:document-units="px"
     inkscape:current-layer="layer1"
     showgrid="false"
     inkscape:snap-to-guides="false"
     inkscape:snap-page="false"
     inkscape:snap-grids="false"
     inkscape:snap-intersection-paths="false"
     inkscape:snap-smooth-nodes="false"
     inkscape:object-nodes="true"
     showguides="true"
     inkscape:window-width="1855"
     inkscape:window-height="1176"
     inkscape:window-x="65"
     inkscape:window-y="24"
     inkscape:window-maximized="1"
     inkscape:snap-nodes="true"
     showborder="true"
     borderlayer="false"
     fit-margin-top="0"
     fit-margin-left="0"
     fit-margin-right="0"
     fit-margin-bottom="0"
     inkscape:object-paths="false"
     inkscape:snap-midpoints="false"
     inkscape:guide-bbox="true">
    <inkscape:grid
       type="xygrid"
       id="grid3336"
       originx="936.97234px"
       originy="-1358.0144px"
       empspacing="5"
       visible="true"
       enabled="true"
       snapvisiblegridlinesonly="true" />
    <sodipodi:guide
       orientation="0,1"
       position="871.35518,-7.3666279"
       id="guide3045" />
    <sodipodi:guide
       orientation="0,1"
       position="649.32366,-26.458508"
       id="guide3047" />
  </sodipodi:namedview>
  <metadata
     id="metadata7">
    <rdf:RDF>
      <cc:Work
         rdf:about="">
        <dc:format>image/svg+xml</dc:format>
        <dc:type
           rdf:resource="http://purl.org/dc/dcmitype/StillImage" />
        <dc:title />
      </cc:Work>
    </rdf:RDF>
  </metadata>
  <g
     inkscape:label="Layer 1"
     inkscape:groupmode="layer"
     id="layer1"
     transform="translate(936.97211,395.32025)">
    <rect
       y="-361.62991"
       x="-936.97211"
       height="9.1232271"
       width="425.82568"
       id="rect5208"
       style="fill:#008dcc;fill-opacity:0.25490196;stroke:none" />
    <rect
       y="-395.32025"
       x="-570.65747"
       height="79.66774"
       width="190.09271"
       id="rect4403"
       style="fill:#008dcc;fill-opacity:0.25490196;stroke:none" />
    <rect
       style="fill:#deaa87;fill-opacity:1;stroke:none"
       id="rect5206"
       width="425.82568"
       height="9.1232271"
       x="-936.97211"
       y="-355.62991" />
    <rect
       style="fill:#55bb8f;fill-opacity:1;stroke:none"
       id="rect3275"
       width="190.09271"
       height="79.66774"
       x="-559.58405"
       y="-385.32025" />
    <path
       sodipodi:nodetypes="czszzscczcc"
       inkscape:connector-curvature="0"
       id="path3089"
       d="m -531.10393,-340.35375 c 0,0 -4.10434,5.67999 -10.44298,5.37037 -6.33864,-0.30962 -7.58044,-6.50856 -8.27433,-9.89869 -0.34491,-1.68511 0.25953,-5.43259 1.66196,-7.78285 1.40242,-2.35026 3.53205,-4.22285 6.41706,-4.51948 2.885,-0.29663 6.16707,1.18976 7.80304,3.17666 2.77248,3.36721 2.8283,8.17191 2.8283,8.17191 l -13.81067,0.58992 c 0,0 -0.49025,5.76694 4.00509,5.75173 4.49534,-0.0152 6.13104,-2.87369 6.13104,-2.87369 z"
       style="fill:#ffffa5;fill-opacity:1;stroke:none" />
    <path
       sodipodi:nodetypes="ccccscccccccc"
       inkscape:connector-curvature="0"
       id="path3091"
       d="m -528.02625,-336.09825 6.10587,0.14276 2.7194,-7.05191 3.96666,7.23704 c 0,0 6.72678,0.0346 6.17231,-0.18066 -0.55449,-0.21523 -6.08441,-10.55566 -6.08441,-10.55566 l 5.26317,-10.55893 -6.00345,0.19652 -2.97815,6.1535 -4.4645,-6.07774 -5.33403,0.20791 5.81604,9.99808 z"
       style="fill:#ffffa5;fill-opacity:1;stroke:none" />
    <path
       sodipodi:nodetypes="ccccsssccc"
       inkscape:connector-curvature="0"
       id="path3093"
       d="m -505.59603,-316.57454 -0.28722,-40.49107 5.16034,-0.5261 0.24538,1.61419 c 1.88739,-0.81181 4.4637,-1.25405 7.38046,0.6708 1.1053,0.72943 3.44984,3.97592 3.66136,7.65117 0.0889,1.54438 -0.42105,8.3595 -3.54675,9.72348 -2.48696,1.08526 -4.0412,1.39897 -7.3403,0.96975 l -0.36926,20.36976 z"
       style="fill:#ffffa5;fill-opacity:1;stroke:none" />
    <path
       sodipodi:nodetypes="czszzscczcc"
       inkscape:connector-curvature="0"
       id="path3095"
       d="m -467.10395,-340.35375 c 0,0 -4.10434,5.67999 -10.44298,5.37037 -6.33864,-0.30962 -7.58043,-6.50856 -8.27432,-9.89869 -0.34491,-1.68511 0.25953,-5.43259 1.66195,-7.78285 1.40242,-2.35026 3.53205,-4.22285 6.41706,-4.51948 2.885,-0.29663 6.16707,1.18976 7.80304,3.17666 2.77248,3.36721 2.8283,8.17191 2.8283,8.17191 l -13.81067,0.58992 c 0,0 -0.49025,5.76694 4.00509,5.75173 4.49534,-0.0152 6.13104,-2.87369 6.13104,-2.87369 z"
       style="fill:#ffffa5;fill-opacity:1;stroke:none" />
    <path
       sodipodi:nodetypes="ccccccccc"
       inkscape:connector-curvature="0"
       id="path3097"
       d="m -463.06285,-356.84468 -0.0411,20.49093 4.44087,0.0518 0.0518,-14.0778 c 0.99916,-2.6131 8.60671,-2.44866 7.77006,0.69639 l 4.08915,-1.0777 c -0.68653,-8.75569 -11.59187,-6.30947 -12.17615,-5.25152 l 0.0473,-0.72227 z"
       style="fill:#ffffa5;fill-opacity:1;stroke:none" />
    <path
       style="fill:#ffffa5;fill-opacity:1;stroke:none"
       d="m -442.58557,-374.43169 -0.49295,32.75097 c 1.25265,5.41401 5.23841,9.08939 15.8398,5.15468 l -0.74582,-4.8122 c -2.82106,1.34734 -8.71998,3.888 -8.7018,-0.32593 l 0.13815,-13.06648 5,-0.0927 0,-4.90728 -4.875,0.625 -0.21068,-14.85583 z"
       id="path3099"
       inkscape:connector-curvature="0"
       sodipodi:nodetypes="ccccccccccc" />
    <g
       id="g3105"
       transform="translate(-463.07786,84.620329)"
       style="fill:#ffffa5;fill-opacity:1">
      <path
         style="fill:#ffffa5;fill-opacity:1;stroke:none"
         d="m 39.050732,-439.75471 0.78837,18.60831 4.178456,-0.30214 0.348301,-15.40355 2.159084,-0.71703 -0.543978,-3.98055 z"
         id="path3107"
         inkscape:connector-curvature="0"
         sodipodi:nodetypes="ccccccc" />
      <path
         style="fill:#ffffa5;fill-opacity:1;stroke:none"
         d="m 45.267125,-446.58646 c -0.152828,1.89231 -1.476011,3.50311 -3.476247,3.58786 -2.000235,0.0847 -3.30694,-1.27519 -3.3873,-3.17197 -0.08036,-1.89678 1.096056,-3.61213 3.096291,-3.69687 2.000236,-0.0847 3.931381,1.24873 3.767256,3.28098 z"
         id="path3109"
         inkscape:connector-curvature="0"
         sodipodi:nodetypes="sssss" />
    </g>
    <path
       style="fill:#ffffa5;fill-opacity:1;fill-rule:evenodd;stroke:none"
       d="m -413.16232,-336.87723 2.13304,-4.88196 c 3.20483,0.98791 4.87556,0.86152 5.485,0.57435 0.60944,-0.28718 1.52359,-1.72306 1.52359,-2.58457 0,-0.86152 -0.91415,-2.2974 -2.43777,-2.87175 -1.52359,-0.57434 -3.65666,-0.86152 -4.57082,-1.43586 -0.91415,-0.57436 -1.42643,-1.58311 -1.52361,-2.87174 0,-4.30761 0,-5.74349 4.57084,-7.17937 1.48054,-0.32939 4.80037,-0.7537 6.09441,0 1.29406,0.75371 2.57802,1.80419 3.04722,2.87176 l -3.04722,2.87173 c 0,0 -1.02733,-0.83603 -1.82831,-1.14871 -0.80099,-0.31266 -2.43777,0 -2.74251,0.28719 -0.30471,0.28717 -1.53218,1.48933 -0.91417,2.2974 0.61803,0.80806 2.66735,0.68215 3.96141,1.43586 1.29403,0.75372 3.04498,1.2413 3.96135,2.87174 0.91638,1.63045 1.3656,5.38375 0.60945,7.17937 -0.4692,1.06754 -1.38907,2.09041 -3.04722,2.87175 -3.0472,1.43585 -6.09441,1.43585 -10.66525,0 z"
       id="path3112"
       inkscape:connector-curvature="0"
       sodipodi:nodetypes="cczzzzcczcczzzzzcscc" />
    <path
       style="fill:#ffffa5;fill-opacity:1;stroke:none"
       d="m -377.10395,-340.35375 c 0,0 -4.10434,5.67999 -10.44298,5.37037 -6.33864,-0.30962 -7.58044,-6.50856 -8.27433,-9.89869 -0.34491,-1.68511 0.25953,-5.43259 1.66196,-7.78285 1.40242,-2.35026 3.53205,-4.22285 6.41706,-4.51948 2.885,-0.29663 6.16707,1.18976 7.80304,3.17666 2.77248,3.36721 2.8283,8.17191 2.8283,8.17191 l -13.81067,0.58992 c 0,0 -0.49025,5.76694 4.00509,5.75173 4.49534,-0.0152 6.13104,-2.87369 6.13104,-2.87369 z"
       id="path3114"
       inkscape:connector-curvature="0"
       sodipodi:nodetypes="czszzscczcc" />
  </g>
</svg>
