<?xml version="1.0" encoding="UTF-8" standalone="no"?>
<!-- Created with Inkscape (http://www.inkscape.org/) -->

<svg
   xmlns:dc="http://purl.org/dc/elements/1.1/"
   xmlns:cc="http://creativecommons.org/ns#"
   xmlns:rdf="http://www.w3.org/1999/02/22-rdf-syntax-ns#"
   xmlns:svg="http://www.w3.org/2000/svg"
   xmlns="http://www.w3.org/2000/svg"
   xmlns:sodipodi="http://sodipodi.sourceforge.net/DTD/sodipodi-0.dtd"
   xmlns:inkscape="http://www.inkscape.org/namespaces/inkscape"
   width="34.632877"
   height="274.63583"
   viewBox="0 0 34.632872 274.63581"
   id="svg2"
   version="1.1"
   inkscape:version="0.91 r13725"
   sodipodi:docname="letterD1.svg">
  <defs
     id="defs4" />
  <sodipodi:namedview
     id="base"
     pagecolor="#ffffff"
     bordercolor="#666666"
     borderopacity="1.0"
     inkscape:pageopacity="0.0"
     inkscape:pageshadow="2"
     inkscape:zoom="1"
     inkscape:cx="-90.30641"
     inkscape:cy="154.79522"
     inkscape:document-units="px"
     inkscape:current-layer="layer1"
     showgrid="false"
     inkscape:snap-to-guides="true"
     inkscape:snap-page="false"
     inkscape:snap-grids="false"
     inkscape:snap-intersection-paths="false"
     inkscape:snap-smooth-nodes="true"
     inkscape:object-nodes="true"
     showguides="true"
     inkscape:window-width="1366"
     inkscape:window-height="705"
     inkscape:window-x="-8"
     inkscape:window-y="-8"
     inkscape:window-maximized="1"
     inkscape:snap-nodes="false"
     showborder="true"
     borderlayer="false"
     fit-margin-top="0"
     fit-margin-left="0"
     fit-margin-right="0"
     fit-margin-bottom="0">
    <inkscape:grid
       type="xygrid"
       id="grid3336"
       originx="-403.23718"
       originy="-873.02234"
       empspacing="5"
       visible="true"
       enabled="true"
       snapvisiblegridlinesonly="true" />
  </sodipodi:namedview>
  <metadata
     id="metadata7">
    <rdf:RDF>
      <cc:Work
         rdf:about="">
        <dc:format>image/svg+xml</dc:format>
        <dc:type
           rdf:resource="http://purl.org/dc/dcmitype/StillImage" />
        <dc:title></dc:title>
      </cc:Work>
    </rdf:RDF>
  </metadata>
  <g
     inkscape:label="Layer 1"
     inkscape:groupmode="layer"
     id="layer1"
     transform="translate(-403.23726,95.296254)">
    <path
       sodipodi:nodetypes="cszzzccccccc"
       inkscape:connector-curvature="0"
       id="path4778"
       d="m 419.88189,129.16225 c 1.03248,0.37509 1.89918,0.81752 2.68381,1.3385 4.22084,2.80254 2.06454,3.53306 3.99633,9.32844 1.93179,5.79538 1.54584,18.2192 0,23.32477 -1.54584,5.10556 -3.33211,6.66422 -9.99633,9.99633 -6.66422,3.33211 -13.32844,3.33211 -13.32844,3.33211 l 0,-53.31377 c 0,0 8.12069,2.12331 10.78967,2.56582 l 0.13484,-2.0886 0,-218.942104 5.71219,0 0,224.326034"
       style="fill:#008dcc;fill-opacity:0.25490196;fill-rule:evenodd;stroke:none" />
    <path
       style="fill:#deaa87;fill-opacity:1;stroke:none"
       d="m 424.16177,-92.439144 5.71219,0 0,226.817344 -5.71219,0 z"
       id="rect3504"
       inkscape:connector-curvature="0"
       sodipodi:nodetypes="ccccc" />
    <path
       style="fill:#ffffa5;fill-opacity:1;fill-rule:evenodd;stroke:none"
       d="m 413.23726,179.33954 0,-53.31377 c 0,0 9.1076,0.52958 13.32844,3.33212 4.22085,2.80253 8.06454,7.53306 9.99633,13.32844 1.93179,5.79538 1.54584,18.2192 0,23.32477 -1.54584,5.10556 -3.33211,6.66422 -9.99633,9.99633 -6.66422,3.33211 -13.32844,3.33211 -13.32844,3.33211 z"
       id="path3378"
       inkscape:connector-curvature="0"
       sodipodi:nodetypes="cczzzzc" />
    <g
       id="g3429"
       transform="translate(0,-10)">
      <ellipse
         ry="3.7025337"
         rx="3.8708308"
         cy="371.67249"
         cx="657.2298"
         id="path3423"
         style="fill:#ffffff;stroke:none" />
      <path
         inkscape:connector-curvature="0"
         id="path3425"
         d="m 667.04924,379.37557 6.18821,-0.238 -0.47602,-11.42438 4.04614,11.42438 6.42621,0.238 -0.23801,-21.18269 -4.99816,0.238 0.23801,13.32844 -6.18821,-12.61441 -4.99817,-0.47602 z"
         style="fill:#ffffff;fill-rule:evenodd;stroke:none" />
      <path
         sodipodi:nodetypes="ccccccccccccc"
         inkscape:connector-curvature="0"
         id="path3427"
         d="m 686.08987,357.95487 0,21.4207 13.32845,-0.47601 -0.35702,-3.80813 -8.09226,0.59502 0,-6.42621 5.11717,0.35702 0,-3.33211 -5.35519,-0.35701 -0.11899,-4.64116 7.02123,-0.35702 -0.11901,-3.68911 z"
         style="fill:#ffffff;fill-rule:evenodd;stroke:none" />
      <path
         inkscape:connector-curvature="0"
         id="path3429"
         d="m 700.72736,357.47885 0,3.80812 5.59318,-0.238 0.23801,17.49358 4.76016,-0.23801 -0.59502,-17.61258 5.23617,-0.59502 -0.119,-4.16514 z"
         style="fill:#ffffff;fill-rule:evenodd;stroke:none" />
    </g>
  </g>
</svg>
