<?xml version="1.0" encoding="UTF-8" standalone="no"?>
<!-- Created with Inkscape (http://www.inkscape.org/) -->

<svg
   xmlns:dc="http://purl.org/dc/elements/1.1/"
   xmlns:cc="http://creativecommons.org/ns#"
   xmlns:rdf="http://www.w3.org/1999/02/22-rdf-syntax-ns#"
   xmlns:svg="http://www.w3.org/2000/svg"
   xmlns="http://www.w3.org/2000/svg"
   xmlns:sodipodi="http://sodipodi.sourceforge.net/DTD/sodipodi-0.dtd"
   xmlns:inkscape="http://www.inkscape.org/namespaces/inkscape"
   width="42.158676"
   height="349.48795"
   viewBox="0 0 42.15867 349.48792"
   id="svg2"
   version="1.1"
   inkscape:version="0.91 r13725"
   sodipodi:docname="letterS.svg">
  <defs
     id="defs4" />
  <sodipodi:namedview
     id="base"
     pagecolor="#ffffff"
     bordercolor="#666666"
     borderopacity="1.0"
     inkscape:pageopacity="0.0"
     inkscape:pageshadow="2"
     inkscape:zoom="0.7071068"
     inkscape:cx="-238.05546"
     inkscape:cy="-63.224044"
     inkscape:document-units="px"
     inkscape:current-layer="layer1"
     showgrid="false"
     inkscape:snap-to-guides="true"
     inkscape:snap-page="false"
     inkscape:snap-grids="false"
     inkscape:snap-intersection-paths="false"
     inkscape:snap-smooth-nodes="true"
     inkscape:object-nodes="true"
     showguides="true"
     inkscape:window-width="1366"
     inkscape:window-height="705"
     inkscape:window-x="-8"
     inkscape:window-y="-8"
     inkscape:window-maximized="1"
     inkscape:snap-nodes="false"
     showborder="true"
     borderlayer="false"
     fit-margin-top="0"
     fit-margin-left="0"
     fit-margin-right="0"
     fit-margin-bottom="0">
    <inkscape:grid
       type="xygrid"
       id="grid3336"
       originx="-636.79918"
       originy="-867.35538"
       empspacing="5"
       visible="true"
       enabled="true"
       snapvisiblegridlinesonly="true" />
  </sodipodi:namedview>
  <metadata
     id="metadata7">
    <rdf:RDF>
      <cc:Work
         rdf:about="">
        <dc:format>image/svg+xml</dc:format>
        <dc:type
           rdf:resource="http://purl.org/dc/dcmitype/StillImage" />
        <dc:title></dc:title>
      </cc:Work>
    </rdf:RDF>
  </metadata>
  <g
     inkscape:label="Layer 1"
     inkscape:groupmode="layer"
     id="layer1"
     transform="translate(-636.79926,164.48139)">
    <path
       sodipodi:nodetypes="cscczzzzzcsccczzzzcccccccc"
       inkscape:connector-curvature="0"
       id="path4798"
       d="m 655.84989,128.6963 c 2.24742,-0.0389 4.35839,0.20066 5.60699,0.97233 2.83007,1.74907 5.63806,4.18687 6.66422,6.66423 l -6.66422,6.66422 c 0,0 -2.24678,-1.94009 -3.99854,-2.66569 -1.75175,-0.7256 -5.33137,0 -5.99779,0.66642 -0.66643,0.66642 -3.35085,3.45616 -1.99927,5.33138 1.35158,1.87521 5.83342,1.58303 8.66349,3.33211 2.83006,1.74907 6.6594,2.88057 8.66348,6.66422 2.00409,3.78364 2.98655,12.49364 1.33285,16.66055 -1.02616,2.47736 -3.03787,4.85104 -6.66422,6.66422 -6.66422,3.33211 -13.32844,3.33211 -23.32478,0 l -1.33284,-0.66642 4.66496,-11.32918 c 7.00892,2.29259 10.66275,1.99927 11.99559,1.33285 1.33285,-0.66643 3.33211,-3.99854 3.33211,-5.9978 0,-1.99927 -1.99926,-5.33138 -5.33137,-6.66422 -3.33211,-1.33285 -7.99707,-1.99927 -9.99633,-3.33211 -1.99927,-1.33285 -3.11959,-3.67379 -3.33212,-6.66422 0,-9.99633 0,-13.32844 9.99634,-16.66056 0.55091,-0.13005 1.21826,-0.26648 1.96042,-0.39474 l 0.0448,-0.0593 0,-293.69598 5.71218,0 0,293.19598 z"
       style="fill:#008dcc;fill-opacity:0.25490196;fill-rule:evenodd;stroke:none" />
    <path
       style="fill:#deaa87;fill-opacity:1;stroke:none"
       d="m 660.13361,-161.62429 5.71218,0 0,302.81732 -5.71218,0 z"
       id="rect3514"
       inkscape:connector-curvature="0"
       sodipodi:nodetypes="ccccc" />
    <path
       style="fill:#ffffa5;fill-opacity:1;fill-rule:evenodd;stroke:none"
       d="m 646.79926,181.84101 4.66496,-11.32918 c 7.00892,2.29259 10.66275,1.99927 11.99559,1.33285 1.33285,-0.66643 3.33211,-3.99854 3.33211,-5.9978 0,-1.99927 -1.99926,-5.33138 -5.33137,-6.66422 -3.33211,-1.33285 -7.99707,-1.99927 -9.99633,-3.33211 -1.99927,-1.33285 -3.11959,-3.67379 -3.33212,-6.66422 0,-9.99633 0,-13.32844 9.99634,-16.66056 3.23795,-0.76437 10.49837,-1.74907 13.32844,0 2.83006,1.74908 5.63806,4.18687 6.66422,6.66423 l -6.66422,6.66422 c 0,0 -2.24678,-1.94009 -3.99854,-2.66569 -1.75175,-0.7256 -5.33137,0 -5.99779,0.66642 -0.66643,0.66642 -3.35085,3.45616 -1.99927,5.33138 1.35158,1.87521 5.83342,1.58303 8.66349,3.33211 2.83006,1.74907 6.6594,2.88057 8.66348,6.66422 2.00409,3.78364 2.98655,12.49364 1.33285,16.66055 -1.02616,2.47736 -3.03787,4.85104 -6.66422,6.66422 -6.66422,3.33211 -13.32844,3.33211 -23.32478,0 z"
       id="path3388"
       inkscape:connector-curvature="0"
       sodipodi:nodetypes="cczzzzcczcczzzzzcscc" />
  </g>
</svg>
