<?xml version="1.0" encoding="UTF-8" standalone="no"?>
<!-- Created with Inkscape (http://www.inkscape.org/) -->

<svg
   xmlns:dc="http://purl.org/dc/elements/1.1/"
   xmlns:cc="http://creativecommons.org/ns#"
   xmlns:rdf="http://www.w3.org/1999/02/22-rdf-syntax-ns#"
   xmlns:svg="http://www.w3.org/2000/svg"
   xmlns="http://www.w3.org/2000/svg"
   xmlns:sodipodi="http://sodipodi.sourceforge.net/DTD/sodipodi-0.dtd"
   xmlns:inkscape="http://www.inkscape.org/namespaces/inkscape"
   width="34.871334"
   height="290.1636"
   viewBox="0 0 34.871329 290.16358"
   id="svg2"
   version="1.1"
   inkscape:version="0.91 r13725"
   sodipodi:docname="letterD2.svg">
  <defs
     id="defs4" />
  <sodipodi:namedview
     id="base"
     pagecolor="#ffffff"
     bordercolor="#666666"
     borderopacity="1.0"
     inkscape:pageopacity="0.0"
     inkscape:pageshadow="2"
     inkscape:zoom="0.50000001"
     inkscape:cx="-27.717991"
     inkscape:cy="-229.19377"
     inkscape:document-units="px"
     inkscape:current-layer="layer1"
     showgrid="false"
     inkscape:snap-to-guides="true"
     inkscape:snap-page="false"
     inkscape:snap-grids="false"
     inkscape:snap-intersection-paths="false"
     inkscape:snap-smooth-nodes="true"
     inkscape:object-nodes="true"
     showguides="true"
     inkscape:window-width="1366"
     inkscape:window-height="705"
     inkscape:window-x="-8"
     inkscape:window-y="-8"
     inkscape:window-maximized="1"
     inkscape:snap-nodes="false"
     showborder="true"
     borderlayer="false"
     fit-margin-top="0"
     fit-margin-left="0"
     fit-margin-right="0"
     fit-margin-bottom="0">
    <inkscape:grid
       type="xygrid"
       id="grid3336"
       originx="-591.97514"
       originy="-866.02234"
       empspacing="5"
       visible="true"
       enabled="true"
       snapvisiblegridlinesonly="true" />
  </sodipodi:namedview>
  <metadata
     id="metadata7">
    <rdf:RDF>
      <cc:Work
         rdf:about="">
        <dc:format>image/svg+xml</dc:format>
        <dc:type
           rdf:resource="http://purl.org/dc/dcmitype/StillImage" />
        <dc:title></dc:title>
      </cc:Work>
    </rdf:RDF>
  </metadata>
  <g
     inkscape:label="Layer 1"
     inkscape:groupmode="layer"
     id="layer1"
     transform="translate(-591.97522,103.82403)">
    <path
       sodipodi:nodetypes="cczzzccccccc"
       inkscape:connector-curvature="0"
       id="path4794"
       d="m 591.97522,130.16863 0,53.31377 c 0,0 12.64396,-0.64223 16.66055,-3.33211 4.0166,-2.68989 4.95745,-4.35924 6.66422,-9.99633 1.70678,-5.63709 2.38933,-17.55642 0,-23.32477 -2.38932,-5.76835 -3.33211,-9.99632 -9.99633,-13.32844 l 0.0755,0.0888 0,-237.41358 -5.71219,0 0,235.10109 -0.14158,0.0452 c -4.26436,-1.15359 -7.55013,-1.15359 -7.55013,-1.15359"
       style="fill:#008dcc;fill-opacity:0.25490196;fill-rule:evenodd;stroke:none" />
    <path
       style="fill:#deaa87;fill-opacity:1;stroke:none"
       d="m 609.66693,-100.96689 5.71219,0 0,244.81733 -5.71219,0 z"
       id="rect3512"
       inkscape:connector-curvature="0"
       sodipodi:nodetypes="ccccc" />
    <path
       style="fill:#ffffa5;fill-opacity:1;fill-rule:evenodd;stroke:none"
       d="m 601.97522,133.02577 0,53.31377 c 0,0 12.64396,-0.64223 16.66055,-3.33211 4.0166,-2.68989 4.95745,-4.35924 6.66422,-9.99633 1.70678,-5.63709 2.38933,-17.55642 0,-23.32477 -2.38932,-5.76835 -3.33211,-9.99633 -9.99633,-13.32844 -6.66422,-3.33212 -13.32844,-3.33212 -13.32844,-3.33212"
       id="path3386"
       inkscape:connector-curvature="0"
       sodipodi:nodetypes="cczzzzc" />
  </g>
</svg>
