<?xml version="1.0" encoding="UTF-8" standalone="no"?>
<!-- Created with Inkscape (http://www.inkscape.org/) -->

<svg
   xmlns:dc="http://purl.org/dc/elements/1.1/"
   xmlns:cc="http://creativecommons.org/ns#"
   xmlns:rdf="http://www.w3.org/1999/02/22-rdf-syntax-ns#"
   xmlns:svg="http://www.w3.org/2000/svg"
   xmlns="http://www.w3.org/2000/svg"
   xmlns:sodipodi="http://sodipodi.sourceforge.net/DTD/sodipodi-0.dtd"
   xmlns:inkscape="http://www.inkscape.org/namespaces/inkscape"
   width="38.473763"
   height="140.48997"
   viewBox="0 0 38.473756 140.48996"
   id="svg2"
   version="1.1"
   inkscape:version="0.48.5 r10040"
   sodipodi:docname="letterY.svg">
  <defs
     id="defs4" />
  <sodipodi:namedview
     id="base"
     pagecolor="#ffffff"
     bordercolor="#666666"
     borderopacity="1.0"
     inkscape:pageopacity="0.0"
     inkscape:pageshadow="2"
     inkscape:zoom="1.4142136"
     inkscape:cx="222.93077"
     inkscape:cy="140.64606"
     inkscape:document-units="px"
     inkscape:current-layer="layer1"
     showgrid="false"
     inkscape:snap-to-guides="true"
     inkscape:snap-page="false"
     inkscape:snap-grids="false"
     inkscape:snap-intersection-paths="false"
     inkscape:snap-smooth-nodes="true"
     inkscape:object-nodes="true"
     showguides="true"
     inkscape:window-width="1920"
     inkscape:window-height="1138"
     inkscape:window-x="-8"
     inkscape:window-y="-8"
     inkscape:window-maximized="1"
     inkscape:snap-nodes="false"
     showborder="true"
     borderlayer="false"
     fit-margin-top="0"
     fit-margin-left="0"
     fit-margin-right="0"
     fit-margin-bottom="0">
    <inkscape:grid
       type="xygrid"
       id="grid3336"
       originx="-243.01441px"
       originy="-873.73671px"
       empspacing="5"
       visible="true"
       enabled="true"
       snapvisiblegridlinesonly="true" />
  </sodipodi:namedview>
  <metadata
     id="metadata7">
    <rdf:RDF>
      <cc:Work
         rdf:about="">
        <dc:format>image/svg+xml</dc:format>
        <dc:type
           rdf:resource="http://purl.org/dc/dcmitype/StillImage" />
        <dc:title></dc:title>
      </cc:Work>
    </rdf:RDF>
  </metadata>
  <g
     inkscape:label="Layer 1"
     inkscape:groupmode="layer"
     id="layer1"
     transform="translate(-243.01444,-38.13528)">
    <path
       sodipodi:nodetypes="cszzzccccccc"
       inkscape:connector-curvature="0"
       id="path4778"
       d="m 419.88189,129.16225 c 1.03248,0.37509 1.89918,0.81752 2.68381,1.3385 4.22084,2.80254 2.06454,3.53306 3.99633,9.32844 1.93179,5.79538 1.54584,18.2192 0,23.32477 -1.54584,5.10556 -3.33211,6.66422 -9.99633,9.99633 -6.66422,3.33211 -13.32844,3.33211 -13.32844,3.33211 l 0,-53.31377 c 0,0 8.12069,2.12331 10.78967,2.56582 l 0.13484,-2.0886 0,-218.942104 5.71219,0 0,224.326034"
       style="fill:#008dcc;fill-opacity:0.25490196;fill-rule:evenodd;stroke:none" />
    <path
       sodipodi:nodetypes="ccccccccccccccccccc"
       inkscape:connector-curvature="0"
       id="path4782"
       d="m 471.8104,125.18893 2.85879,0 -3.33211,53.31377 -6.66422,0 -8.66349,-26.65688 -4.66496,26.65688 -6.66422,0 -6.66422,-53.31377 9.99633,0 3.33211,19.99267 3.33212,-6.66422 3.33211,0 3.33211,6.66422 3.33211,-19.99267 1.40591,0 0.0207,-0.2082 0,-223.492819 5.71219,0 0,223.492819"
       style="fill:#008dcc;fill-opacity:0.25490196;fill-rule:evenodd;stroke:none" />
    <path
       style="fill:#008dcc;fill-opacity:0.25490196;stroke:none"
       d="m 503.50162,-97.717575 -5.71219,0 0.0219,224.519565 -0.97827,0.19949 -6.66422,51.98092 9.99633,0 1.99926,-21.32551 4.66496,-1.99926 6.66422,23.32477 9.99633,0 -16.66055,-53.31377 -3.35545,0.3835 z"
       id="rect4784"
       inkscape:connector-curvature="0"
       sodipodi:nodetypes="ccccccccccccc" />
    <path
       sodipodi:nodetypes="cszzzccccccccccc"
       inkscape:connector-curvature="0"
       id="path4790"
       d="m 554.37335,128.49207 c 0.59723,0.0429 1.14199,0.10071 1.60921,0.17652 3.92624,0.63705 7.7315,1.36784 9.99633,3.33212 2.26484,1.96427 2.66402,3.83415 3.33211,6.66422 0.66809,2.83006 1.23868,7.00589 0,9.99633 -1.23868,2.99043 -6.66422,6.66422 -6.66422,6.66422 l 6.66422,26.65688 -9.99633,0 -7.99706,-29.98899 0,29.98899 -8.66349,4e-5 0,-53.31377 c 0,0 2.74615,-0.18612 5.88994,-0.25656 l 0.11707,-0.01 0,-226.198389 5.71219,0"
       style="fill:#008dcc;fill-opacity:0.25490196;fill-rule:evenodd;stroke:none" />
    <path
       sodipodi:nodetypes="cczzzccccccc"
       inkscape:connector-curvature="0"
       id="path4794"
       d="m 591.97522,130.16863 0,53.31377 c 0,0 12.64396,-0.64223 16.66055,-3.33211 4.0166,-2.68989 4.95745,-4.35924 6.66422,-9.99633 1.70678,-5.63709 2.38933,-17.55642 0,-23.32477 -2.38932,-5.76835 -3.33211,-9.99632 -9.99633,-13.32844 l 0.0755,0.0888 0,-237.41358 -5.71219,0 0,235.10109 -0.14158,0.0452 c -4.26436,-1.15359 -7.55013,-1.15359 -7.55013,-1.15359"
       style="fill:#008dcc;fill-opacity:0.25490196;fill-rule:evenodd;stroke:none" />
    <path
       sodipodi:nodetypes="cscczzzzzcsccczzzzcccccccc"
       inkscape:connector-curvature="0"
       id="path4798"
       d="m 655.84989,128.6963 c 2.24742,-0.0389 4.35839,0.20066 5.60699,0.97233 2.83007,1.74907 5.63806,4.18687 6.66422,6.66423 l -6.66422,6.66422 c 0,0 -2.24678,-1.94009 -3.99854,-2.66569 -1.75175,-0.7256 -5.33137,0 -5.99779,0.66642 -0.66643,0.66642 -3.35085,3.45616 -1.99927,5.33138 1.35158,1.87521 5.83342,1.58303 8.66349,3.33211 2.83006,1.74907 6.6594,2.88057 8.66348,6.66422 2.00409,3.78364 2.98655,12.49364 1.33285,16.66055 -1.02616,2.47736 -3.03787,4.85104 -6.66422,6.66422 -6.66422,3.33211 -13.32844,3.33211 -23.32478,0 l -1.33284,-0.66642 4.66496,-11.32918 c 7.00892,2.29259 10.66275,1.99927 11.99559,1.33285 1.33285,-0.66643 3.33211,-3.99854 3.33211,-5.9978 0,-1.99927 -1.99926,-5.33138 -5.33137,-6.66422 -3.33211,-1.33285 -7.99707,-1.99927 -9.99633,-3.33211 -1.99927,-1.33285 -3.11959,-3.67379 -3.33212,-6.66422 0,-9.99633 0,-13.32844 9.99634,-16.66056 0.55091,-0.13005 1.21826,-0.26648 1.96042,-0.39474 l 0.0448,-0.0593 0,-293.69598 5.71218,0 0,293.19598 z"
       style="fill:#008dcc;fill-opacity:0.25490196;fill-rule:evenodd;stroke:none" />
    <path
       style="fill:#008dcc;fill-opacity:0.25680931;fill-rule:evenodd;stroke:none"
       d="m 85.069873,67.291571 c 0.46153,11.108701 0,36.653229 0.37559,56.636359 0.19057,19.12332 -11.30124,36.59362 -27.03247,36.66275 -2.87006,0 -9.99634,0 -13.32845,-3.33211 l 3.33211,-6.66422 c 9.99634,3.33211 16.66055,-13.40171 16.66055,-26.65689 l 0,-56.645889 5.57927,-0.0139 0,-59.9592969 5.71219,0 0,59.9592969 z"
       id="path4317"
       inkscape:connector-curvature="0"
       sodipodi:nodetypes="cccccscccccc" />
    <path
       sodipodi:nodetypes="cccccscccccc"
       inkscape:connector-curvature="0"
       id="path4291"
       d="m 136.93605,87.689686 c 0.46153,11.1087 0,36.653214 0.37559,56.636344 0.19057,19.12332 -11.30124,36.59362 -27.03247,36.66275 -2.87006,0 -9.99634,0 -13.328449,-3.33211 l 3.332109,-6.66422 c 9.99634,3.33211 16.66055,-13.40171 16.66055,-26.65689 l 0,-56.645874 5.57927,-0.01387 0,-97.959297 5.71219,0 0,97.959297 z"
       style="fill:#008dcc;fill-opacity:0.25680931;fill-rule:evenodd;stroke:none" />
    <path
       sodipodi:nodetypes="ccccc"
       inkscape:connector-curvature="0"
       id="rect3490"
       d="m 131.37842,-7.605816 5.71219,0 0,113.371516 -5.71219,0 z"
       style="fill:#deaa87;stroke:none" />
    <path
       style="fill:#ffffa5;fill-opacity:1;fill-rule:evenodd;stroke:none"
       d="m 125.39699,93.143279 19.99267,0 c 0.46153,11.108701 0,36.653211 0.37559,56.636341 0.19057,19.12332 -11.30124,36.59362 -27.03247,36.66275 -2.87006,0 -9.99634,0 -13.32845,-3.33211 l 3.33211,-6.66422 c 9.99634,3.33211 16.66055,-13.40171 16.66055,-26.65689 z"
       id="path3338"
       inkscape:connector-curvature="0"
       sodipodi:nodetypes="ccccccsc" />
    <path
       sodipodi:nodetypes="cczzzszzscccc"
       inkscape:connector-curvature="0"
       id="path4308"
       d="m 164.1966,125.67679 c 3.33354,0.41204 9.60232,-2.29705 12.60014,0.88276 2.99782,3.17981 3.70818,9.46398 4.48403,16.55388 0.77584,7.08989 -1.99212,24.83141 -3.19914,28.09228 -1.20701,3.26088 -2.27174,4.90215 -4.78233,6.13891 -2.51061,1.23675 -11.07303,1.62694 -16.52439,-2.0253 -2.89399,-1.93889 -3.98253,-5.83168 -5.33432,-10.25638 -1.35178,-4.4247 0.0963,-25.59506 0.52143,-28.7438 0.42514,-3.14876 0.42514,-3.14876 4.58031,-9.0412 1.24065,-1.75936 -0.57299,-0.85748 1.7798,-1.35014 l -0.10693,-98.454635 5.71219,0 0.0223,98.222585"
       style="fill:#008dcc;fill-opacity:0.25490196;fill-rule:evenodd;stroke:none" />
    <path
       sodipodi:nodetypes="ccccc"
       inkscape:connector-curvature="0"
       id="rect3494"
       d="m 166.72536,29.99855 5.71219,0 0,100.96021 -5.71219,0 z"
       style="fill:#deaa87;fill-opacity:1;stroke:none" />
    <path
       style="fill:#ffffa5;fill-opacity:1;fill-rule:evenodd;stroke:none"
       d="m 159.95074,167.58832 c -1.35178,-4.4247 0.0963,-25.59506 0.52143,-28.7438 0.42514,-3.14876 0.42514,-3.14876 4.58031,-9.0412 4.15517,-5.89243 15.41305,-3.86688 20.25441,-0.71839 4.84136,3.14851 3.70818,9.46398 4.48403,16.55388 0.77584,7.08989 -1.99212,24.83141 -3.19914,28.09228 -1.20701,3.26088 -2.27174,4.90215 -4.78233,6.13891 -2.51061,1.23675 -11.07303,1.62694 -16.52439,-2.0253 -2.89399,-1.93889 -3.98253,-5.83168 -5.33432,-10.25638 z"
       id="path3351"
       inkscape:connector-curvature="0"
       sodipodi:nodetypes="zzzzzzzsz" />
    <path
       sodipodi:nodetypes="ccccccccccccccccc"
       inkscape:connector-curvature="0"
       id="path4766"
       d="m 243.01444,176.27319 9.99633,0 0,-29.98899 9.99633,29.98899 9.99633,0 0,-53.31377 -9.99633,0 0,33.32111 -9.99633,-33.32111 -3.26372,0 -0.35784,0.004 0,-84.82814 -5.71219,0 0,84.82814 -0.18028,-0.004 -0.4823,0 0,53.31377"
       style="fill:#008dcc;fill-opacity:0.25490196;fill-rule:evenodd;stroke:none" />
    <path
       sodipodi:nodetypes="ccccc"
       inkscape:connector-curvature="0"
       id="rect3498"
       d="m 252.16179,40.50941 5.71219,0 0,84.91633 -5.71219,0 z"
       style="fill:#deaa87;stroke:none" />
    <path
       style="fill:#ffffa5;fill-opacity:1;fill-rule:evenodd;stroke:none"
       d="m 251.49921,178.62525 9.99633,0 0,-29.98899 9.99633,29.98899 9.99633,0 0,-53.31377 -9.99633,0 0,33.32111 -9.99633,-33.32111 -9.99633,0 0,53.31377"
       id="path3357"
       inkscape:connector-curvature="0"
       sodipodi:nodetypes="ccccccccccc" />
    <path
       sodipodi:nodetypes="ccccccccccccccccc"
       inkscape:connector-curvature="0"
       id="path4770"
       d="m 313.40782,123.18547 2.83006,1.88671 -6.66422,23.32477 c -3.33211,16.66055 -6.66422,23.32477 -13.32844,29.98899 l -9.99633,-6.66422 c 6.66422,-6.66422 9.99633,-16.66055 9.99633,-26.65688 l -9.99633,-16.66055 6.66422,-6.66423 6.66422,11.9956 1.33284,2.66569 5.33138,-17.9934 1.14979,0.76653 -0.0112,0.0406 0,-81.1271 5.71219,0 0.0316,84.94674 z"
       style="fill:#008dcc;fill-opacity:0.25490196;fill-rule:evenodd;stroke:none" />
    <path
       style="fill:#deaa87;stroke:none"
       d="m 317.38016,40.94514 5.71219,0 0,86.81735 -5.71219,0 z"
       id="rect3500"
       inkscape:connector-curvature="0"
       sodipodi:nodetypes="ccccc" />
    <path
       style="fill:#ffffa5;fill-opacity:1;fill-rule:evenodd;stroke:none"
       d="m 296.24889,131.26143 9.99633,16.66055 c 0,9.99633 -3.33211,19.99266 -9.99633,26.65688 l 9.99633,6.66422 c 6.66422,-6.66422 9.99633,-13.32844 13.32844,-29.98899 l 6.66422,-23.32477 -9.99633,-6.66423 -5.33138,17.9934 -1.33284,-2.66569 -6.66422,-11.9956 z"
       id="path3359"
       inkscape:connector-curvature="0"
       sodipodi:nodetypes="ccccccccccc" />
    <path
       sodipodi:nodetypes="ccccccccsccccccccccc"
       inkscape:connector-curvature="0"
       id="path4774"
       d="m 353.15022,108.65547 33.68713,-0.005 -3.33211,16.66102 -19.61706,0.17749 0,26.08603 19.61706,0.39337 0,9.99633 -19.99266,0 0.3756,3.34164 c 0,13.25518 6.66422,29.98899 16.66055,26.65688 l 3.33211,6.66422 c -3.33211,3.33211 -10.45839,3.33211 -13.32844,3.33211 -15.73124,-0.0691 -27.22305,-17.53943 -27.03248,-36.66274 0.37559,-19.98313 -0.0859,-45.52764 0.37559,-56.63635 l 3.46096,-0.003 0.0585,-0.85936 0,-276.81732 5.71219,0 0,276.81732 z"
       style="fill:#008dcc;fill-opacity:0.25490196;fill-rule:evenodd;stroke:none" />
    <path
       style="fill:#b57656;fill-opacity:1;stroke:none"
       d="m 357.41501,-166.16208 5.71219,0 0,286.81734 -5.71219,0 z"
       id="rect3502"
       inkscape:connector-curvature="0"
       sodipodi:nodetypes="ccccc" />
    <path
       style="fill:#ffffa5;fill-opacity:1;fill-rule:evenodd;stroke:none"
       d="m 396.83735,111.50808 -42.94184,0.01 c -0.46153,11.10871 0,36.65322 -0.37559,56.63635 -0.19057,19.12331 11.30124,36.59361 27.03248,36.66274 2.87005,0 9.99633,0 13.32844,-3.33211 l -3.33211,-6.66422 c -9.99633,3.33211 -16.66055,-13.4017 -16.66055,-26.65688 l -0.3756,-3.34164 19.99266,0 0,-9.99633 -19.61706,-0.39337 0,-26.08603 19.61706,-0.17749 z"
       id="path3338-9"
       inkscape:connector-curvature="0"
       sodipodi:nodetypes="ccccccsccccccc" />
    <path
       style="fill:#b57656;fill-opacity:1;stroke:none"
       d="m 424.16177,-92.439144 5.71219,0 0,226.817344 -5.71219,0 z"
       id="rect3504"
       inkscape:connector-curvature="0"
       sodipodi:nodetypes="ccccc" />
    <path
       style="fill:#ffffa5;fill-opacity:1;fill-rule:evenodd;stroke:none"
       d="m 413.23726,179.33954 0,-53.31377 c 0,0 9.1076,0.52958 13.32844,3.33212 4.22085,2.80253 8.06454,7.53306 9.99633,13.32844 1.93179,5.79538 1.54584,18.2192 0,23.32477 -1.54584,5.10556 -3.33211,6.66422 -9.99633,9.99633 -6.66422,3.33211 -13.32844,3.33211 -13.32844,3.33211 z"
       id="path3378"
       inkscape:connector-curvature="0"
       sodipodi:nodetypes="cczzzzc" />
    <path
       style="fill:#b57656;fill-opacity:1;stroke:none"
       d="m 476.09952,-95.654946 5.71219,0 0,224.817336 -5.71219,0 z"
       id="rect3506"
       inkscape:connector-curvature="0"
       sodipodi:nodetypes="ccccc" />
    <path
       style="fill:#ffffa5;fill-opacity:1;fill-rule:evenodd;stroke:none"
       d="m 448.01597,128.04607 6.66422,53.31377 6.66422,0 4.66496,-26.65688 8.66349,26.65688 6.66422,0 3.33211,-53.31377 -9.99633,0 -3.33211,19.99267 -3.33211,-6.66422 -3.33211,0 -3.33212,6.66422 -3.33211,-19.99267 z"
       id="path3380"
       inkscape:connector-curvature="0"
       sodipodi:nodetypes="cccccccccccccc" />
    <path
       style="fill:#b57656;fill-opacity:0.97254902;stroke:none"
       d="m 507.78943,-94.860432 5.71219,0 0,228.817332 -5.71219,0 z"
       id="rect3508"
       inkscape:connector-curvature="0"
       sodipodi:nodetypes="ccccc" />
    <path
       style="fill:#ffffa5;fill-opacity:1;fill-rule:evenodd;stroke:none"
       d="m 500.16881,181.83954 9.99633,0 1.99926,-21.32551 4.66496,-1.99926 6.66422,23.32477 9.99633,0 -16.66055,-53.31377 -9.99633,1.33285 z"
       id="path3382"
       inkscape:connector-curvature="0"
       sodipodi:nodetypes="ccccccccc" />
    <path
       style="fill:#b57656;fill-opacity:0.97254902;stroke:none"
       d="m 558.66113,-94.939136 5.71219,0 0,230.817336 -5.71219,0 z"
       id="rect3510"
       inkscape:connector-curvature="0"
       sodipodi:nodetypes="ccccc" />
    <path
       style="fill:#ffffa5;fill-opacity:1;fill-rule:evenodd;stroke:none"
       d="m 552.65412,184.83954 0,-53.31377 c 0,0 9.40222,-0.63713 13.32844,0 3.92623,0.63714 7.7315,1.36784 9.99633,3.33212 2.26484,1.96427 2.66402,3.83415 3.33211,6.66422 0.66809,2.83006 1.23868,7.00589 0,9.99633 -1.23868,2.99043 -6.66422,6.66422 -6.66422,6.66422 l 6.66422,26.65688 -9.99633,0 -7.99706,-29.98899 0,29.98899 z"
       id="path3384"
       inkscape:connector-curvature="0"
       sodipodi:nodetypes="cczzzzcccccc" />
    <path
       style="fill:#b57656;fill-opacity:1;stroke:none"
       d="m 609.66693,-100.96689 5.71219,0 0,244.81733 -5.71219,0 z"
       id="rect3512"
       inkscape:connector-curvature="0"
       sodipodi:nodetypes="ccccc" />
    <path
       style="fill:#ffffa5;fill-opacity:1;fill-rule:evenodd;stroke:none"
       d="m 601.97522,133.02577 0,53.31377 c 0,0 12.64396,-0.64223 16.66055,-3.33211 4.0166,-2.68989 4.95745,-4.35924 6.66422,-9.99633 1.70678,-5.63709 2.38933,-17.55642 0,-23.32477 -2.38932,-5.76835 -3.33211,-9.99633 -9.99633,-13.32844 -6.66422,-3.33212 -13.32844,-3.33212 -13.32844,-3.33212"
       id="path3386"
       inkscape:connector-curvature="0"
       sodipodi:nodetypes="cczzzzc" />
    <path
       style="fill:#b57656;fill-opacity:1;stroke:none"
       d="m 660.13361,-161.62429 5.71218,0 0,302.81732 -5.71218,0 z"
       id="rect3514"
       inkscape:connector-curvature="0"
       sodipodi:nodetypes="ccccc" />
    <path
       style="fill:#ffffa5;fill-opacity:1;fill-rule:evenodd;stroke:none"
       d="m 646.79926,181.84101 4.66496,-11.32918 c 7.00892,2.29259 10.66275,1.99927 11.99559,1.33285 1.33285,-0.66643 3.33211,-3.99854 3.33211,-5.9978 0,-1.99927 -1.99926,-5.33138 -5.33137,-6.66422 -3.33211,-1.33285 -7.99707,-1.99927 -9.99633,-3.33211 -1.99927,-1.33285 -3.11959,-3.67379 -3.33212,-6.66422 0,-9.99633 0,-13.32844 9.99634,-16.66056 3.23795,-0.76437 10.49837,-1.74907 13.32844,0 2.83006,1.74908 5.63806,4.18687 6.66422,6.66423 l -6.66422,6.66422 c 0,0 -2.24678,-1.94009 -3.99854,-2.66569 -1.75175,-0.7256 -5.33137,0 -5.99779,0.66642 -0.66643,0.66642 -3.35085,3.45616 -1.99927,5.33138 1.35158,1.87521 5.83342,1.58303 8.66349,3.33211 2.83006,1.74907 6.6594,2.88057 8.66348,6.66422 2.00409,3.78364 2.98655,12.49364 1.33285,16.66055 -1.02616,2.47736 -3.03787,4.85104 -6.66422,6.66422 -6.66422,3.33211 -13.32844,3.33211 -23.32478,0 z"
       id="path3388"
       inkscape:connector-curvature="0"
       sodipodi:nodetypes="cczzzzcczcczzzzzcscc" />
    <path
       sodipodi:nodetypes="ccccc"
       inkscape:connector-curvature="0"
       id="path3435"
       d="m -30.017414,573.18118 564.625744,7.50076 6.61638,142.47803 -563.624454,-4.61752 z"
       style="fill:#004455;fill-opacity:0.24902727;stroke:none" />
    <path
       style="fill:#9df4d1;fill-opacity:1;fill-rule:nonzero;stroke:none"
       d="m 164.0334,254.0745 564.62574,7.50076 6.61638,142.47803 -563.62445,-4.61752 z"
       id="rect3408"
       inkscape:connector-curvature="0"
       sodipodi:nodetypes="ccccc" />
    <g
       id="g3429"
       transform="translate(0,-10)">
      <ellipse
         ry="3.7025337"
         rx="3.8708308"
         cy="371.67249"
         cx="657.2298"
         id="path3423"
         style="fill:#ffffff;stroke:none"
         d="m 661.10063,371.67249 c 0,2.04485 -1.73303,3.70253 -3.87083,3.70253 -2.1378,0 -3.87083,-1.65768 -3.87083,-3.70253 0,-2.04486 1.73303,-3.70254 3.87083,-3.70254 2.1378,0 3.87083,1.65768 3.87083,3.70254 z"
         sodipodi:cx="657.2298"
         sodipodi:cy="371.67249"
         sodipodi:rx="3.8708308"
         sodipodi:ry="3.7025337" />
      <path
         inkscape:connector-curvature="0"
         id="path3425"
         d="m 667.04924,379.37557 6.18821,-0.238 -0.47602,-11.42438 4.04614,11.42438 6.42621,0.238 -0.23801,-21.18269 -4.99816,0.238 0.23801,13.32844 -6.18821,-12.61441 -4.99817,-0.47602 z"
         style="fill:#ffffff;fill-rule:evenodd;stroke:none" />
      <path
         sodipodi:nodetypes="ccccccccccccc"
         inkscape:connector-curvature="0"
         id="path3427"
         d="m 686.08987,357.95487 0,21.4207 13.32845,-0.47601 -0.35702,-3.80813 -8.09226,0.59502 0,-6.42621 5.11717,0.35702 0,-3.33211 -5.35519,-0.35701 -0.11899,-4.64116 7.02123,-0.35702 -0.11901,-3.68911 z"
         style="fill:#ffffff;fill-rule:evenodd;stroke:none" />
      <path
         inkscape:connector-curvature="0"
         id="path3429"
         d="m 700.72736,357.47885 0,3.80812 5.59318,-0.238 0.23801,17.49358 4.76016,-0.23801 -0.59502,-17.61258 5.23617,-0.59502 -0.119,-4.16514 z"
         style="fill:#ffffff;fill-rule:evenodd;stroke:none" />
    </g>
    <path
       style="fill:#008dcc;fill-opacity:0.25490196;fill-rule:evenodd;stroke:none"
       d="m 201.89473,122.64511 2.79453,-0.19053 12.85242,24.03879 0,-23.32478 9.99633,0 -0.71402,53.07576 -9.28231,0.23801 -13.32844,-36.65321 0,36.65321 -9.99633,0 0,-53.31377 1.16221,-0.0792 0.44081,0.004 0,-86.62795 5.71219,0 -0.0631,86.186 z"
       id="path4802"
       inkscape:connector-curvature="0"
       sodipodi:nodetypes="ccccccccccccccccc" />
    <path
       style="fill:#ffccaa;fill-rule:evenodd;stroke:none"
       d="m 202.78834,179.33954 9.99633,0 0,-36.65321 13.32844,36.65321 9.28231,-0.23801 0.71402,-53.07576 -9.99633,0 0,23.32478 -12.85242,-24.03879 -10.47235,0.71401 z"
       id="path3355"
       inkscape:connector-curvature="0"
       sodipodi:nodetypes="ccccccccccc" />
    <path
       style="fill:#deaa87;stroke:none"
       d="m 204.39136,39.32267 5.71219,0 0,86.81735 -5.71219,0 z"
       id="rect4752"
       inkscape:connector-curvature="0"
       sodipodi:nodetypes="ccccc" />
    <path
       sodipodi:nodetypes="ccccccccccc"
       inkscape:connector-curvature="0"
       id="path4754"
       d="m 202.78834,179.33954 9.99633,0 0,-36.65321 13.32844,36.65321 9.28231,-0.23801 0.71402,-53.07576 -9.99633,0 0,23.32478 -12.85242,-24.03879 -10.47235,0.71401 z"
       style="fill:#ffffa5;fill-opacity:1;fill-rule:evenodd;stroke:none" />
  </g>
</svg>
