<?xml version="1.0" encoding="UTF-8" standalone="no"?>
<!-- Created with Inkscape (http://www.inkscape.org/) -->

<svg
   xmlns:dc="http://purl.org/dc/elements/1.1/"
   xmlns:cc="http://creativecommons.org/ns#"
   xmlns:rdf="http://www.w3.org/1999/02/22-rdf-syntax-ns#"
   xmlns:svg="http://www.w3.org/2000/svg"
   xmlns="http://www.w3.org/2000/svg"
   xmlns:sodipodi="http://sodipodi.sourceforge.net/DTD/sodipodi-0.dtd"
   xmlns:inkscape="http://www.inkscape.org/namespaces/inkscape"
   width="547.98077"
   height="89.667747"
   viewBox="0 0 547.98069 89.667738"
   id="svg2"
   version="1.1"
   inkscape:version="0.48.4 r9939"
   sodipodi:docname="projects.svg">
  <defs
     id="defs4" />
  <sodipodi:namedview
     id="base"
     pagecolor="#ffffff"
     bordercolor="#666666"
     borderopacity="1.0"
     inkscape:pageopacity="0.0"
     inkscape:pageshadow="2"
     inkscape:zoom="1.0000001"
     inkscape:cx="346.30238"
     inkscape:cy="-77.706269"
     inkscape:document-units="px"
     inkscape:current-layer="layer1"
     showgrid="false"
     inkscape:snap-to-guides="false"
     inkscape:snap-page="false"
     inkscape:snap-grids="false"
     inkscape:snap-intersection-paths="false"
     inkscape:snap-smooth-nodes="false"
     inkscape:object-nodes="true"
     showguides="true"
     inkscape:window-width="1855"
     inkscape:window-height="1176"
     inkscape:window-x="65"
     inkscape:window-y="24"
     inkscape:window-maximized="1"
     inkscape:snap-nodes="true"
     showborder="true"
     borderlayer="false"
     fit-margin-top="0"
     fit-margin-left="0"
     fit-margin-right="0"
     fit-margin-bottom="0"
     inkscape:object-paths="false"
     inkscape:snap-midpoints="false"
     inkscape:guide-bbox="true">
    <inkscape:grid
       type="xygrid"
       id="grid3336"
       originx="936.97234px"
       originy="-1358.0144px"
       empspacing="5"
       visible="true"
       enabled="true"
       snapvisiblegridlinesonly="true" />
    <sodipodi:guide
       orientation="0,1"
       position="871.35518,-7.3666279"
       id="guide3045" />
    <sodipodi:guide
       orientation="0,1"
       position="649.32366,-26.458508"
       id="guide3047" />
  </sodipodi:namedview>
  <metadata
     id="metadata7">
    <rdf:RDF>
      <cc:Work
         rdf:about="">
        <dc:format>image/svg+xml</dc:format>
        <dc:type
           rdf:resource="http://purl.org/dc/dcmitype/StillImage" />
        <dc:title />
      </cc:Work>
    </rdf:RDF>
  </metadata>
  <g
     inkscape:label="Layer 1"
     inkscape:groupmode="layer"
     id="layer1"
     transform="translate(936.97211,395.32025)">
    <rect
       y="-361.62991"
       x="-936.97211"
       height="9.1232271"
       width="425.82568"
       id="rect5208"
       style="fill:#008dcc;fill-opacity:0.25490196;stroke:none" />
    <rect
       y="-395.32025"
       x="-570.65747"
       height="79.66774"
       width="171.66611"
       id="rect4403"
       style="fill:#008dcc;fill-opacity:0.25490196;stroke:none" />
    <rect
       style="fill:#deaa87;fill-opacity:1;stroke:none"
       id="rect5206"
       width="425.82568"
       height="9.1232271"
       x="-936.97211"
       y="-355.62991" />
    <rect
       style="fill:#55bb8f;fill-opacity:1;stroke:none"
       id="rect3275"
       width="171.66611"
       height="79.66774"
       x="-560.65747"
       y="-385.32025" />
    <path
       sodipodi:nodetypes="ccccsssccc"
       inkscape:connector-curvature="0"
       id="path3192"
       d="m -545.50383,-315.40298 -0.2872,-40.49108 5.1603,-0.5261 0.2454,1.61419 c 1.88736,-0.81181 4.46367,-1.25405 7.38043,0.6708 1.1053,0.72943 3.44984,3.97592 3.66136,7.65117 0.0889,1.54438 -0.42105,8.3595 -3.54675,9.72348 -2.48696,1.08526 -4.0412,1.39897 -7.34034,0.96975 l -0.3692,20.36977 z"
       style="fill:#ffffa5;fill-opacity:1;stroke:none" />
    <path
       style="fill:#ffffa5;fill-opacity:1;stroke:none"
       d="m -525.36787,-355.66797 -0.0411,20.49093 4.44087,0.0518 0.0518,-14.0778 c 0.99916,-2.6131 8.60671,-2.44866 7.77006,0.69639 l 4.08915,-1.0777 c -0.68653,-8.75569 -11.59187,-6.30947 -12.17615,-5.25152 l 0.0473,-0.72227 z"
       id="path3194"
       inkscape:connector-curvature="0"
       sodipodi:nodetypes="ccccccccc" />
    <path
       style="fill:#ffffa5;fill-opacity:1;fill-rule:evenodd;stroke:none"
       d="m -506.6427,-347.88436 c 0.24301,-1.82208 0.59656,-1.73369 2.97173,-5.14345 2.37516,-3.40975 7.04261,-2.59119 9.81001,-0.76927 2.76741,1.82194 3.53387,5.74166 3.97736,9.84435 0.002,3.4165 -1.74997,8.3559 -4.56235,9.80845 -1.43511,0.71567 -6.32953,0.94146 -9.44563,-1.17197 -3.55834,-3.59912 -3.40137,-8.01465 -2.75112,-12.56811 z"
       id="path3196"
       inkscape:connector-curvature="0"
       sodipodi:nodetypes="czzcccc" />
    <g
       id="g3203"
       transform="translate(-536.57177,87.982618)"
       style="fill:#ffffa5;fill-opacity:1">
      <path
         sodipodi:nodetypes="ccccccc"
         inkscape:connector-curvature="0"
         id="path3205"
         d="m 51.141627,-440.26934 0.78837,18.60831 3.471353,-0.30214 1.055407,-15.40355 2.15908,-0.71703 -0.54398,-3.98055 z"
         style="fill:#ffffa5;fill-opacity:1;stroke:none" />
      <path
         style="fill:#ffffa5;fill-opacity:1;stroke:none"
         d="m 55.597326,-410.58903 1.07298,-30.8521 -5.28731,2.08263 c -0.0246,9.94586 -0.25743,17.45418 -0.3733,27.39943 0.0634,3.32418 -1.89567,7.08724 -6.91052,1.0709 l -2.74798,2.92379 c 0,0 1.46313,1.93755 3.30134,3.05209 1.8382,1.11453 4.05147,1.40605 4.55174,1.36397 0.50027,-0.0421 3.11445,-0.78926 4.49966,-2.31659 1.27666,-1.40764 1.86848,-3.5984 1.89339,-4.72412 z"
         id="path3207"
         inkscape:connector-curvature="0"
         sodipodi:nodetypes="ccccccszsc" />
      <path
         sodipodi:nodetypes="sssss"
         inkscape:connector-curvature="0"
         id="path3209"
         d="m 57.454624,-446.52396 c -0.152828,1.89231 -1.476011,3.50311 -3.476247,3.58786 -2.000235,0.0847 -3.30694,-1.27519 -3.3873,-3.17197 -0.08036,-1.89678 1.096056,-3.61213 3.096291,-3.69687 2.000236,-0.0847 3.931381,1.24873 3.767256,3.28098 z"
         style="fill:#ffffa5;fill-opacity:1;stroke:none" />
    </g>
    <path
       style="fill:#ffffa5;fill-opacity:1;stroke:none"
       d="m -455.40896,-339.17704 c 0,0 -4.10434,5.67999 -10.44298,5.37037 -6.33864,-0.30962 -7.58044,-6.50856 -8.27433,-9.89869 -0.34491,-1.68511 0.25953,-5.43259 1.66196,-7.78285 1.40242,-2.35026 3.53205,-4.22285 6.41706,-4.51948 2.885,-0.29663 6.16707,1.18976 7.80304,3.17666 2.77248,3.36721 2.8283,8.17191 2.8283,8.17191 l -13.81067,0.58992 c 0,0 -0.49025,5.76694 4.00509,5.75173 4.49534,-0.0152 6.13104,-2.87369 6.13104,-2.87369 z"
       id="path3211"
       inkscape:connector-curvature="0"
       sodipodi:nodetypes="czszzscczcc" />
    <path
       style="fill:#ffffa5;fill-opacity:1;stroke:none"
       d="m -435.06369,-334.72842 -2.0716,-5.10996 c -5.49171,2.29516 -7.03149,-2.02899 -7.04345,-5.38616 -0.0119,-3.35716 -0.28959,-6.32026 6.62913,-4.0051 l 2.0716,-4.97185 c -3.08019,-1.82116 -14.26308,-6.32414 -15.46795,8.14831 -1.20488,14.47245 10.43502,14.09841 15.88227,11.32476 z"
       id="path3213"
       inkscape:connector-curvature="0"
       sodipodi:nodetypes="cczcczc" />
    <path
       sodipodi:nodetypes="ccccccccccc"
       inkscape:connector-curvature="0"
       id="path3215"
       d="m -430.89059,-373.25498 -0.49295,32.75097 c 1.25265,5.41401 5.23841,9.08939 15.8398,5.15468 l -0.74582,-4.8122 c -2.82106,1.34734 -8.71998,3.888 -8.7018,-0.32593 l 0.13815,-13.06648 5,-0.0927 0,-4.90728 -4.875,0.625 -0.21068,-14.85583 z"
       style="fill:#ffffa5;fill-opacity:1;stroke:none" />
    <path
       sodipodi:nodetypes="cczzzzcczcczzzzzcscc"
       inkscape:connector-curvature="0"
       id="path3217"
       d="m -413.46733,-335.70052 2.13304,-4.88196 c 3.20483,0.98791 4.87556,0.86152 5.485,0.57435 0.60944,-0.28718 1.52359,-1.72306 1.52359,-2.58457 0,-0.86152 -0.91415,-2.2974 -2.43777,-2.87175 -1.52359,-0.57434 -3.65666,-0.86152 -4.57082,-1.43586 -0.91415,-0.57436 -1.42643,-1.58311 -1.52361,-2.87174 0,-4.30761 0,-5.74349 4.57084,-7.17937 1.48054,-0.32939 4.80037,-0.7537 6.09441,0 1.29406,0.75371 2.57802,1.80419 3.04722,2.87176 l -3.04722,2.87173 c 0,0 -1.02733,-0.83603 -1.82831,-1.14871 -0.80099,-0.31266 -2.43777,0 -2.74251,0.28719 -0.30471,0.28717 -1.53218,1.48933 -0.91417,2.2974 0.61803,0.80806 2.66735,0.68215 3.96141,1.43586 1.29403,0.75372 3.04498,1.2413 3.96135,2.87174 0.91638,1.63045 1.3656,5.38375 0.60945,7.17937 -0.4692,1.06754 -1.38907,2.09041 -3.04722,2.87175 -3.0472,1.43585 -6.09441,1.43585 -10.66525,0 z"
       style="fill:#ffffa5;fill-opacity:1;fill-rule:evenodd;stroke:none" />
  </g>
</svg>
