<?xml version="1.0" encoding="UTF-8" standalone="no"?>
<!-- Created with Inkscape (http://www.inkscape.org/) -->

<svg
   xmlns:dc="http://purl.org/dc/elements/1.1/"
   xmlns:cc="http://creativecommons.org/ns#"
   xmlns:rdf="http://www.w3.org/1999/02/22-rdf-syntax-ns#"
   xmlns:svg="http://www.w3.org/2000/svg"
   xmlns="http://www.w3.org/2000/svg"
   xmlns:sodipodi="http://sodipodi.sourceforge.net/DTD/sodipodi-0.dtd"
   xmlns:inkscape="http://www.inkscape.org/namespaces/inkscape"
   width="441.03549"
   height="449.00781"
   id="svg4343"
   version="1.1"
   inkscape:version="0.48.4 r9939"
   sodipodi:docname="chopSticks.svg">
  <defs
     id="defs4345">
    <inkscape:path-effect
       effect="spiro"
       id="path-effect4824-3"
       is_visible="true" />
    <inkscape:path-effect
       effect="spiro"
       id="path-effect4830-8"
       is_visible="true" />
    <inkscape:path-effect
       is_visible="true"
       id="path-effect4788-8"
       effect="spiro" />
    <inkscape:path-effect
       effect="spiro"
       id="path-effect4806-0"
       is_visible="true" />
    <inkscape:path-effect
       effect="spiro"
       id="path-effect4778-3"
       is_visible="true" />
  </defs>
  <sodipodi:namedview
     id="base"
     pagecolor="#ffffff"
     bordercolor="#666666"
     borderopacity="1.0"
     inkscape:pageopacity="0.0"
     inkscape:pageshadow="2"
     inkscape:zoom="1.4"
     inkscape:cx="238.19844"
     inkscape:cy="261.88454"
     inkscape:document-units="px"
     inkscape:current-layer="layer1"
     showgrid="false"
     inkscape:window-width="1855"
     inkscape:window-height="1176"
     inkscape:window-x="65"
     inkscape:window-y="24"
     inkscape:window-maximized="1"
     fit-margin-top="0"
     fit-margin-left="0"
     fit-margin-right="0"
     fit-margin-bottom="0" />
  <metadata
     id="metadata4348">
    <rdf:RDF>
      <cc:Work
         rdf:about="">
        <dc:format>image/svg+xml</dc:format>
        <dc:type
           rdf:resource="http://purl.org/dc/dcmitype/StillImage" />
        <dc:title />
      </cc:Work>
    </rdf:RDF>
  </metadata>
  <g
     inkscape:label="Layer 1"
     inkscape:groupmode="layer"
     id="layer1"
     transform="translate(-165.1965,-182.14396)">
    <rect
       style="color:#000000;fill:#ffb380;fill-opacity:1;fill-rule:evenodd;stroke:none;visibility:visible;display:inline;overflow:visible;enable-background:accumulate"
       id="rect4774"
       width="429.98541"
       height="443.24716"
       x="167.55524"
       y="185.23024" />
    <rect
       style="color:#000000;fill:#784421;fill-opacity:1;fill-rule:evenodd;stroke:none;visibility:visible;display:inline;overflow:visible;enable-background:accumulate"
       id="rect4799"
       width="212.63724"
       height="79.738968"
       x="348.49518"
       y="549.43542" />
    <path
       inkscape:connector-curvature="0"
       id="path4791"
       d="m 318.9301,555.27148 0,-41.4895 281.6037,-79.26838 -7.0373,177.96827"
       style="fill:#aa4400;fill-rule:evenodd;stroke:none"
       sodipodi:nodetypes="cccc" />
    <path
       style="fill:#b3b3b3;fill-rule:evenodd;stroke:none"
       d="m 413.4247,495.85041 -27.5207,34.06531 c -5.0249,6.21988 -3.8868,9.38098 0,10.23638 l 173.8505,38.26054 32.8907,-55.71272 -177.2068,-28.19198"
       id="path4801"
       inkscape:connector-curvature="0"
       sodipodi:nodetypes="cssccc" />
    <path
       sodipodi:nodetypes="ccccccc"
       inkscape:connector-curvature="0"
       id="path4913"
       d="m 550.5594,538.22969 c 0.5811,-1.51244 1.2879,-3.21976 1.5239,-4.19716 1.1096,-1.66588 2.474,-4.09118 4.5877,-5.44883 -1.0799,1.70222 -2.7102,2.89095 -3.0659,5.26876 0.103,2.07613 5.6558,3.52827 5.86,1.40909 l 1.2126,5.08252 z"
       style="opacity:0.853;fill:#f2f2f2;fill-rule:evenodd;stroke:none" />
    <path
       sodipodi:nodetypes="ccccccc"
       inkscape:connector-curvature="0"
       id="path4915"
       d="m 405.6647,505.60022 c 0.5811,-1.51243 1.288,-3.21975 1.5239,-4.19715 1.1096,-1.66588 2.474,-4.09118 4.5878,-5.44884 -1.08,1.70222 -2.7102,2.89096 -3.066,5.26877 0.1031,2.07613 5.6558,3.52826 5.86,1.40909 l 1.2127,5.08252 z"
       style="opacity:0.853;fill:#f2f2f2;fill-rule:evenodd;stroke:none" />
    <path
       style="opacity:0.853;fill:#f2f2f2;fill-rule:evenodd;stroke:none"
       d="m 416.5723,508.14994 c 0.5812,-1.51243 1.288,-3.21976 1.5239,-4.19715 1.1096,-1.66588 2.474,-4.09118 4.5878,-5.44884 -1.08,1.70222 -2.7102,2.89096 -3.066,5.26877 0.1031,2.07613 5.6558,3.52826 5.8601,1.40908 l 1.2126,5.08253 z"
       id="path4917"
       inkscape:connector-curvature="0"
       sodipodi:nodetypes="ccccccc" />
    <path
       style="opacity:0.853;fill:#f2f2f2;fill-rule:evenodd;stroke:none"
       d="m 427.9834,510.5411 c 0.5811,-1.51243 1.2879,-3.21976 1.5239,-4.19715 1.1096,-1.66589 2.474,-4.09118 4.5877,-5.44884 -1.0799,1.70222 -2.7102,2.89096 -3.066,5.26876 0.1031,2.07614 5.6559,3.52827 5.8601,1.40909 l 1.2126,5.08253 z"
       id="path4919"
       inkscape:connector-curvature="0"
       sodipodi:nodetypes="ccccccc" />
    <path
       sodipodi:nodetypes="ccccccc"
       inkscape:connector-curvature="0"
       id="path4921"
       d="m 438.891,513.09082 c 0.5811,-1.51243 1.2879,-3.21976 1.5239,-4.19715 1.1096,-1.66589 2.474,-4.09118 4.5877,-5.44884 -1.0799,1.70222 -2.7102,2.89096 -3.066,5.26876 0.1031,2.07614 5.6559,3.52827 5.8601,1.40909 l 1.2126,5.08253 z"
       style="opacity:0.853;fill:#f2f2f2;fill-rule:evenodd;stroke:none" />
    <path
       style="opacity:0.853;fill:#f2f2f2;fill-rule:evenodd;stroke:none"
       d="m 450.5179,515.67966 c 0.5811,-1.51243 1.2879,-3.21975 1.5239,-4.19715 1.1096,-1.66588 2.474,-4.09118 4.5877,-5.44884 -1.0799,1.70222 -2.7102,2.89096 -3.066,5.26877 0.1031,2.07613 5.6559,3.52826 5.8601,1.40909 l 1.2126,5.08252 z"
       id="path4923"
       inkscape:connector-curvature="0"
       sodipodi:nodetypes="ccccccc" />
    <path
       sodipodi:nodetypes="ccccccc"
       inkscape:connector-curvature="0"
       id="path4925"
       d="m 461.4255,518.22938 c 0.5811,-1.51243 1.2879,-3.21976 1.5239,-4.19715 1.1096,-1.66589 2.474,-4.09118 4.5877,-5.44884 -1.0799,1.70222 -2.7102,2.89096 -3.0659,5.26877 0.103,2.07613 5.6558,3.52826 5.86,1.40908 l 1.2126,5.08253 z"
       style="opacity:0.853;fill:#f2f2f2;fill-rule:evenodd;stroke:none" />
    <path
       sodipodi:nodetypes="ccccccc"
       inkscape:connector-curvature="0"
       id="path4927"
       d="m 472.8365,520.62054 c 0.5812,-1.51243 1.288,-3.21976 1.5239,-4.19715 1.1097,-1.66589 2.474,-4.09118 4.5878,-5.44884 -1.08,1.70222 -2.7102,2.89096 -3.066,5.26876 0.1031,2.07614 5.6559,3.52827 5.8601,1.40909 l 1.2126,5.08253 z"
       style="opacity:0.853;fill:#f2f2f2;fill-rule:evenodd;stroke:none" />
    <path
       style="opacity:0.853;fill:#f2f2f2;fill-rule:evenodd;stroke:none"
       d="m 483.7441,523.17026 c 0.5812,-1.51243 1.288,-3.21976 1.524,-4.19715 1.1096,-1.66589 2.4739,-4.09118 4.5877,-5.44884 -1.0799,1.70222 -2.7102,2.89096 -3.066,5.26876 0.1031,2.07614 5.6559,3.52827 5.8601,1.40909 l 1.2126,5.08253 z"
       id="path4929"
       inkscape:connector-curvature="0"
       sodipodi:nodetypes="ccccccc" />
    <path
       sodipodi:nodetypes="ccccccc"
       inkscape:connector-curvature="0"
       id="path4931"
       d="m 495.4908,525.56759 c 0.5811,-1.51243 1.2879,-3.21976 1.5239,-4.19715 1.1096,-1.66588 2.474,-4.09118 4.5877,-5.44884 -1.0799,1.70222 -2.7102,2.89096 -3.0659,5.26877 0.103,2.07613 5.6558,3.52826 5.86,1.40908 l 1.2126,5.08253 z"
       style="opacity:0.853;fill:#f2f2f2;fill-rule:evenodd;stroke:none" />
    <path
       style="opacity:0.853;fill:#f2f2f2;fill-rule:evenodd;stroke:none"
       d="m 506.3984,528.11731 c 0.5811,-1.51243 1.288,-3.21976 1.5239,-4.19715 1.1096,-1.66589 2.474,-4.09118 4.5877,-5.44884 -1.0799,1.70222 -2.7101,2.89096 -3.0659,5.26877 0.1031,2.07613 5.6558,3.52826 5.86,1.40908 l 1.2127,5.08253 z"
       id="path4933"
       inkscape:connector-curvature="0"
       sodipodi:nodetypes="ccccccc" />
    <path
       style="opacity:0.853;fill:#f2f2f2;fill-rule:evenodd;stroke:none"
       d="m 517.0975,530.49539 c 0.5811,-1.51243 1.288,-3.21976 1.5239,-4.19715 1.1096,-1.66589 2.474,-4.09118 4.5877,-5.44884 -1.0799,1.70222 -2.7101,2.89096 -3.0659,5.26876 0.1031,2.07614 5.6558,3.52827 5.86,1.40909 l 1.2126,5.08253 z"
       id="path4935"
       inkscape:connector-curvature="0"
       sodipodi:nodetypes="ccccccc" />
    <path
       sodipodi:nodetypes="ccccccc"
       inkscape:connector-curvature="0"
       id="path4937"
       d="m 528.0051,533.28243 c 0.5811,-1.51243 1.288,-3.21976 1.5239,-4.19715 1.1096,-1.66589 2.474,-4.09118 4.5877,-5.44884 -1.0799,1.70222 -2.7101,2.89096 -3.0659,5.26876 0.1031,2.07614 5.6558,3.52827 5.86,1.40909 l 1.2126,5.08253 z"
       style="opacity:0.853;fill:#f2f2f2;fill-rule:evenodd;stroke:none" />
    <path
       sodipodi:nodetypes="ccccccc"
       inkscape:connector-curvature="0"
       id="path4939"
       d="m 539.1483,535.60121 c 0.5812,-1.51244 1.288,-3.21976 1.524,-4.19716 1.1096,-1.66588 2.4739,-4.09118 4.5877,-5.44883 -1.0799,1.70222 -2.7102,2.89096 -3.066,5.26876 0.1031,2.07613 5.6559,3.52827 5.8601,1.40909 l 1.2126,5.08253 z"
       style="opacity:0.853;fill:#f2f2f2;fill-rule:evenodd;stroke:none" />
    <path
       style="fill:#d5ffe6;fill-opacity:1;fill-rule:evenodd;stroke:none"
       d="m 168.423,194.66075 173.0492,13.38194 0,11.43762 -172.7136,-13.3569"
       id="rect5015"
       inkscape:connector-curvature="0"
       sodipodi:nodetypes="cccc" />
    <path
       style="fill:#c87137;fill-rule:evenodd;stroke:none"
       d="m 570.3842,532.09999 -246.9393,-47.56103 0,-31.70735 277.8067,-79.26837 0,158.53675 -30.8674,0"
       id="path4770"
       inkscape:connector-curvature="0" />
    <rect
       style="color:#000000;fill:#338000;fill-opacity:1;fill-rule:evenodd;stroke:none;visibility:visible;display:inline;overflow:visible;enable-background:accumulate"
       id="rect4794-6"
       width="206.51247"
       height="174.39043"
       x="389.2265"
       y="223.26698"
       transform="matrix(0.9979919,0.06334174,0,1,0,0)" />
    <rect
       y="223.26698"
       x="389.2265"
       height="174.39043"
       width="206.51247"
       id="rect4652"
       style="opacity:0.11835752;color:#000000;fill:#338000;fill-opacity:1;fill-rule:evenodd;stroke:none;visibility:visible;display:inline;overflow:visible;enable-background:accumulate"
       transform="matrix(0.9979919,0.06334174,0,1,0,0)" />
    <rect
       style="opacity:0.11835752;color:#000000;fill:#112b00;fill-opacity:1;fill-rule:evenodd;stroke:none;visibility:visible;display:inline;overflow:visible;enable-background:accumulate"
       id="rect4654"
       width="206.51247"
       height="15.853675"
       x="389.2265"
       y="381.80374"
       transform="matrix(0.9979919,0.06334174,0,1,0,0)" />
    <rect
       y="350.09641"
       x="389.2265"
       height="15.853675"
       width="206.51247"
       id="rect4656"
       style="opacity:0.11835752;color:#000000;fill:#112b00;fill-opacity:1;fill-rule:evenodd;stroke:none;visibility:visible;display:inline;overflow:visible;enable-background:accumulate"
       transform="matrix(0.9979919,0.06334174,0,1,0,0)" />
    <rect
       style="opacity:0.11835752;color:#000000;fill:#112b00;fill-opacity:1;fill-rule:evenodd;stroke:none;visibility:visible;display:inline;overflow:visible;enable-background:accumulate"
       id="rect4658"
       width="206.51247"
       height="15.853675"
       x="389.2265"
       y="318.38907"
       transform="matrix(0.9979919,0.06334174,0,1,0,0)" />
    <rect
       y="286.68173"
       x="389.2265"
       height="15.853675"
       width="206.51247"
       id="rect4660"
       style="opacity:0.11835752;color:#000000;fill:#112b00;fill-opacity:1;fill-rule:evenodd;stroke:none;visibility:visible;display:inline;overflow:visible;enable-background:accumulate"
       transform="matrix(0.9979919,0.06334174,0,1,0,0)" />
    <rect
       style="opacity:0.11835752;color:#000000;fill:#112b00;fill-opacity:1;fill-rule:evenodd;stroke:none;visibility:visible;display:inline;overflow:visible;enable-background:accumulate"
       id="rect4662"
       width="206.51247"
       height="15.853675"
       x="389.2265"
       y="253.38899"
       transform="matrix(0.9979919,0.06334174,0,1,0,0)" />
    <rect
       y="223.26698"
       x="389.2265"
       height="15.853675"
       width="206.51247"
       id="rect4664"
       style="opacity:0.11835752;color:#000000;fill:#112b00;fill-opacity:1;fill-rule:evenodd;stroke:none;visibility:visible;display:inline;overflow:visible;enable-background:accumulate"
       transform="matrix(0.9979919,0.06334174,0,1,0,0)" />
    <path
       style="color:#000000;fill:#1a1a1a;fill-opacity:1;fill-rule:evenodd;stroke:none;visibility:visible;display:inline;overflow:visible;enable-background:accumulate"
       d="m 589.0524,246.60211 -194.3138,-14.73907 -14.2205,7.62831 0,190.24409 100.975,6.03732 -39.6342,13.33812 c -23.9863,16.891 120.4589,35.81673 116.9955,7.04354 l -45.654,-18.36922 89.2692,6.03732 -3.0826,-116.01118 c -0.63807,-25.24455 12.71168,-79.8682 -10.3346,-81.20923 l -93.5951,8.11117 99.0855,6.28887 0,174.39042 -206.0978,-13.08086 0,-174.39042 107.0123,6.79199"
       id="rect4759-2"
       inkscape:connector-curvature="0"
       sodipodi:nodetypes="ccccccccccccccccc" />
    <path
       style="opacity:0.31200005;fill:#e5ffd5;fill-rule:evenodd;stroke:none"
       d="m 404.2987,415.39109 c -3.9635,-4.21497 -3.9635,-4.21497 -3.9635,-16.10522 0,-36.96038 1.1244,-94.7999 0,-138.71965 l 166.4636,10.5653 c 15.8537,1.00622 18.3572,3.11202 19.8171,5.2212 0.092,-5.4006 3.0806,-7.27361 -19.8171,-9.18461 -26.5288,-2.21406 -84.3153,-4.38418 -166.0184,-10.63821 -2.0305,-0.0277 -4.4086,1.40671 -4.3682,3.63768 0.3545,40.7714 -2.4265,106.47566 -0.04,138.86673 1.1372,15.43785 4.1694,16.1183 7.9268,16.35678 z"
       id="path4666"
       inkscape:connector-curvature="0"
       sodipodi:nodetypes="cscccsccsc" />
    <path
       style="fill:none;stroke:#ffeeaa;stroke-width:3.96341872;stroke-linecap:butt;stroke-linejoin:miter;stroke-miterlimit:4;stroke-opacity:1;stroke-dasharray:none"
       d="m 452.5913,189.0507 c 4.37491,6.99511 6.45666,15.399 5.8528,23.62741 -0.40548,5.52527 -1.97435,10.88781 -3.38545,16.24522 -1.4111,5.35741 -2.68099,10.83621 -2.46735,16.37222 0.22295,5.77719 2.04855,11.35327 3.69615,16.89503 1.64759,5.54176 3.14587,11.26781 2.68875,17.0312 -0.22892,2.88623 -0.95199,5.73263 -2.1283,8.37819"
       id="path4822-9"
       inkscape:path-effect="#path-effect4824-3"
       inkscape:original-d="m 452.5913,189.0507 c 4.1606,3.01021 5.8528,18.84039 5.8528,23.62741 0,7.93295 -11.7524,23.39358 -5.8528,32.61744 1.6562,2.58939 12.804,27.91454 6.3849,33.92623 -2.2829,2.13803 0.4667,6.46687 -2.1283,8.37819"
       inkscape:connector-curvature="0"
       sodipodi:nodetypes="csssc" />
    <path
       style="fill:none;stroke:#ffeeaa;stroke-width:3.96341872;stroke-linecap:butt;stroke-linejoin:miter;stroke-miterlimit:4;stroke-opacity:1;stroke-dasharray:none"
       d="m 421.0848,185.26568 c 3.95146,17.57086 4.18171,35.96932 0.6712,53.63356 -1.15133,5.79327 -2.69867,11.50543 -3.7246,17.32222 -1.79245,10.16279 -1.97271,20.60823 -0.532,30.82682"
       id="path4828-5"
       inkscape:path-effect="#path-effect4830-8"
       inkscape:original-d="m 421.0848,185.26568 c -0.3325,9.98164 -12.3583,46.29182 0.6712,53.63356 4.5548,2.5665 -3.2445,16.39253 -3.7246,17.32222 -5.1246,9.92409 0.7988,22.92633 -0.532,30.82682"
       inkscape:connector-curvature="0"
       sodipodi:nodetypes="cssc" />
    <path
       inkscape:transform-center-y="11.038454"
       inkscape:transform-center-x="-9.1018181"
       inkscape:connector-curvature="0"
       inkscape:original-d="m 488.5203,293.27917 c 0.035,-3.33117 -0.6186,-6.80788 0.1059,-9.9935 0.4355,-1.91468 3.2044,-1.99691 3.9624,-3.76028 5.4814,-12.75307 0.3804,-26.18824 -8.164,-34.22535 -1.5003,-1.41122 1.3545,-6.268 3.9579,-9.89052 0.7919,-1.10205 4.0833,-19.30182 3.5331,-19.81934 -1.8523,-1.74235 -2.4179,-2.71293 -3.5511,-4.70166 -2.9221,-5.12816 6.8092,-5.93309 0.089,-8.93691"
       inkscape:path-effect="#path-effect4788-8"
       id="path4786-6"
       d="m 488.5203,293.27917 c -1.11606,-1.41338 -1.73083,-3.21465 -1.71174,-5.01545 0.0191,-1.8008 0.67188,-3.58864 1.81764,-4.97805 1.15992,-1.40658 2.77153,-2.3798 3.9624,-3.76028 1.01215,-1.1733 1.6912,-2.61733 2.03502,-4.12825 0.34382,-1.51091 0.35885,-3.08734 0.13123,-4.62007 -0.45526,-3.06546 -1.85513,-5.91008 -3.44636,-8.56946 -1.59123,-2.65938 -3.39514,-5.1976 -4.78074,-7.96968 -1.3856,-2.77207 -2.34961,-5.84863 -2.10315,-8.93789 0.28499,-3.5722 2.13762,-6.80371 3.9579,-9.89052 1.79739,-3.048 3.62748,-6.1365 4.55306,-9.55179 0.4628,-1.70765 0.69196,-3.48847 0.5567,-5.25254 -0.13527,-1.76406 -0.6432,-3.51206 -1.57666,-5.01501 -1.03745,-1.67038 -2.56667,-2.9995 -3.5511,-4.70166 -0.78244,-1.3529 -1.19405,-2.91785 -1.17849,-4.48063 0.0156,-1.56279 0.45826,-3.11923 1.26749,-4.45628"
       style="fill:none;stroke:#ffeeaa;stroke-width:4.21262217;stroke-linecap:round;stroke-linejoin:miter;stroke-miterlimit:4;stroke-opacity:1;stroke-dasharray:none" />
    <path
       style="fill:none;stroke:#ffeeaa;stroke-width:3.96341872;stroke-linecap:butt;stroke-linejoin:miter;stroke-miterlimit:4;stroke-opacity:1;stroke-dasharray:none"
       d="m 527.9484,207.6223 c -1.464,1.21146 -2.55451,2.86817 -3.08838,4.69188 -0.53387,1.82371 -0.50891,3.80695 0.0707,5.61665 0.51747,1.61573 1.45384,3.06677 2.04037,4.65873 0.29327,0.79598 0.49867,1.63287 0.50595,2.48112 0.007,0.84826 -0.19258,1.71089 -0.65732,2.42054 -0.40496,0.61836 -0.98803,1.09392 -1.54068,1.58477 -0.55265,0.49086 -1.09733,1.02633 -1.38572,1.70691 -0.23585,0.55659 -0.2839,1.1835 -0.18474,1.7798 0.0992,0.59631 0.34093,1.16326 0.66015,1.67659 0.63845,1.02666 1.56923,1.83072 2.45099,2.65785 0.62868,0.58972 1.24307,1.20373 1.72963,1.91524 0.48657,0.71152 0.84271,1.53073 0.90407,2.39052 0.0268,0.3754 -0.003,0.75236 0,1.12871 0.007,1.01991 0.24782,2.02195 0.3762,3.03377 0.32035,2.52476 -0.0752,5.1364 -1.1287,7.4531 0.47584,3.77546 0.85225,7.56346 1.1287,11.35874 0.18254,2.50602 0.32098,5.03267 0,7.52474 -0.35022,2.71913 -1.25163,5.36609 -2.6337,7.73382"
       id="path4804-5"
       inkscape:path-effect="#path-effect4806-0"
       inkscape:original-d="m 527.9484,207.6223 c -1.4166,6.32591 -1.4795,4.7204 -3.0177,10.30853 -0.2482,0.72874 2.4375,9.04667 1.889,9.56039 -0.2153,0.20159 -2.9264,2.9023 -2.9264,3.29168 0,1.80628 2.1341,4.47944 2.9264,6.11424 0.7939,1.63818 1.5003,3.66717 2.6337,4.30576 0.062,0.035 0,1.02861 0,1.12871 0,1.06788 0.3762,2.16436 0.3762,3.03377 0,2.68532 0.1547,6.25114 -1.1287,7.4531 -0.7773,3.60975 -0.6732,7.89718 1.1287,11.35874 0.8035,1.65806 0,5.67715 0,7.52474 0.1008,5.20408 -2.7541,2.71731 -2.6337,7.73382"
       inkscape:connector-curvature="0"
       sodipodi:nodetypes="ccssscsscccc" />
    <path
       style="fill:none;stroke:#ffeeaa;stroke-width:3.96341872;stroke-linecap:round;stroke-linejoin:miter;stroke-miterlimit:4;stroke-opacity:1;stroke-dasharray:none"
       d="m 568.0547,210.17915 c 1.0584,1.21716 1.65057,2.82998 1.63126,4.44283 -0.0193,1.61286 -0.64993,3.21104 -1.73716,4.40251 -1.16041,1.27166 -2.77456,2.0535 -3.9623,3.29967 -0.96428,1.01172 -1.61318,2.30501 -1.93193,3.66583 -0.31874,1.36081 -0.31474,2.78715 -0.0738,4.16387 0.48179,2.75346 1.88026,5.26016 3.44891,7.57381 1.56865,2.31365 3.3336,4.50248 4.68929,6.94701 1.35569,2.44454 2.29702,5.22214 2.03147,8.00479 -0.30675,3.21442 -2.15908,6.04448 -3.9578,8.72612 -1.76814,2.63606 -3.5617,5.32198 -4.47986,8.36042 -0.45909,1.51922 -0.69056,3.11763 -0.56557,4.69977 0.12499,1.58214 0.61583,3.1482 1.51223,4.45788 1.03529,1.5126 2.56914,2.63997 3.5511,4.18772 0.74703,1.17746 1.14414,2.57393 1.12845,3.96829 -0.0157,1.39435 -0.44412,2.78153 -1.21745,3.94189"
       id="path4776-9"
       inkscape:path-effect="#path-effect4778-3"
       inkscape:original-d="m 568.0547,210.17915 c -0.035,2.94845 0.6186,6.03075 -0.1059,8.84534 -0.4355,1.69167 -3.2044,1.74428 -3.9623,3.29967 -5.4815,11.2489 -0.3805,23.17871 8.1639,30.35531 1.5003,1.26013 -1.3545,5.53849 -3.9578,8.72612 -0.792,0.96975 -4.0834,17.05596 -3.5332,17.51807 1.8523,1.5558 2.418,2.41906 3.5511,4.18772 2.9221,4.56067 -6.8092,5.20227 -0.089,7.91018"
       inkscape:connector-curvature="0"
       inkscape:transform-center-x="9.0296464"
       inkscape:transform-center-y="-9.7710914" />
    <path
       sodipodi:nodetypes="ccccccccccccccccccccccccccccccccc"
       inkscape:connector-curvature="0"
       id="path4790-1"
       d="m 485.9853,304.54738 3.7876,-0.92703 -2.3349,-7.72336 -3.7875,0.92703 -1.1675,-3.86168 11.3628,-2.78109 1.1674,3.86168 -3.7876,0.92703 2.3349,7.72336 3.7876,-0.92703 -2.3349,-7.72336 3.7876,-0.92703 3.5023,11.58505 3.7876,-0.92703 1.1674,3.86168 -3.7876,0.92703 1.1674,3.86168 -3.7876,0.92703 -1.1674,-3.86168 3.7876,-0.92703 -1.1674,-3.86168 -18.9379,4.63514 1.1674,3.86168 3.7875,-0.92702 1.1675,3.86168 -3.7876,0.92703 -1.1674,-3.86169 -3.7876,0.92703 -1.1675,-3.86168 3.7877,-0.92703 -3.5023,-11.58504 3.7876,-0.92703 z"
       style="color:#000000;fill:#00ff00;fill-opacity:1;fill-rule:evenodd;stroke:none;visibility:visible;display:inline;overflow:visible;enable-background:accumulate" />
    <path
       sodipodi:nodetypes="ccccccccccccccccccccccccccccccccccccccccc"
       inkscape:connector-curvature="0"
       id="path4826-0"
       d="m 449.1205,294.9816 3.8566,1.15871 1.8279,-7.59717 -3.8566,-1.15872 0.914,-3.79859 11.5698,3.47616 -0.9139,3.7986 -3.8566,-1.15872 -1.828,7.59717 3.8566,1.15872 1.828,-7.59717 3.8565,1.15872 -1.8107,7.525 -3.8609,-1.14068 -0.8957,3.80405 3.8566,1.15871 -0.9139,3.79861 3.9146,1.07941 -0.9139,3.7986 -3.8566,-1.15871 0.9139,-3.79861 -3.8609,-1.14069 0.8602,-3.73732 -3.8609,-1.14069 -0.8956,3.80404 -3.8609,-1.1407 0.8956,-3.80404 -3.8652,-1.12261 -0.8817,3.82753 -3.8652,-1.1227 -0.914,3.79861 -3.8566,-1.15871 0.914,-3.79859 3.833,1.09367 0.914,-3.79859 3.8609,1.1407 0.8956,-3.80406 -3.8609,-1.14068 1.8323,-7.61523 3.8566,1.15872 z"
       style="color:#000000;fill:#ff0000;fill-opacity:1;fill-rule:evenodd;stroke:none;visibility:visible;display:inline;overflow:visible;enable-background:accumulate" />
    <path
       sodipodi:nodetypes="ccccccccccccccccccccccccccccccccc"
       inkscape:connector-curvature="0"
       id="path4832-7"
       d="m 412.431,296.05245 3.9262,-0.29269 -1.0838,-7.92118 -3.9261,0.29268 -0.5419,-3.96059 11.7786,-0.87807 0.5418,3.9606 -3.9262,0.29269 1.0838,7.92118 3.9262,-0.29269 -1.0838,-7.92118 3.9262,-0.29269 1.6257,11.88178 3.9262,-0.29269 0.5419,3.96059 -3.9262,0.29269 0.5418,3.96059 -3.9261,0.29269 -0.5419,-3.96059 3.9262,-0.29269 -0.5419,-3.96059 -19.631,1.46344 0.5419,3.9606 3.9262,-0.29269 0.5418,3.96059 -3.9261,0.29269 -0.5419,-3.96059 -3.9262,0.29269 -0.5419,-3.9606 3.9262,-0.29269 -1.6257,-11.88178 3.9263,-0.29269 z"
       style="color:#000000;fill:#ffff00;fill-opacity:1;fill-rule:evenodd;stroke:none;visibility:visible;display:inline;overflow:visible;enable-background:accumulate" />
    <path
       style="color:#000000;fill:#0000ff;fill-opacity:1;fill-rule:evenodd;stroke:none;visibility:visible;display:inline;overflow:visible;enable-background:accumulate"
       d="m 519.6133,289.43448 3.9532,0.535 0.5682,-7.87037 -3.9532,-0.53501 0.2841,-3.93519 11.8597,1.60502 -0.2841,3.93519 -3.9532,-0.535 -0.5683,7.87037 3.9532,0.53501 0.5683,-7.87038 3.9532,0.53501 -0.563,7.79564 -3.9546,-0.51633 -0.2653,3.93769 3.9532,0.535 -0.2841,3.93519 3.9972,0.44658 -0.2841,3.9352 -3.9532,-0.535 0.2841,-3.9352 -3.9545,-0.51633 0.2414,-3.86544 -3.9546,-0.51634 -0.2653,3.93768 -3.9545,-0.51634 0.2653,-3.93768 -3.9558,-0.4976 -0.248,3.95885 -3.9559,-0.49769 -0.2841,3.93521 -3.9532,-0.535 0.2842,-3.93519 3.9197,0.47393 0.2841,-3.93519 3.9545,0.51634 0.2654,-3.93768 -3.9546,-0.51633 0.5696,-7.88908 3.9532,0.53501 z"
       id="path4808-0"
       inkscape:connector-curvature="0"
       sodipodi:nodetypes="ccccccccccccccccccccccccccccccccccccccccc" />
    <path
       style="color:#000000;fill:#ff00ff;fill-opacity:1;fill-rule:evenodd;stroke:none;visibility:visible;display:inline;overflow:visible;enable-background:accumulate"
       d="m 560.3747,301.23324 3.9179,0.84762 1.1979,-7.75977 -3.9178,-0.84762 0.5989,-3.87989 11.7537,2.54286 -0.599,3.87988 -3.9179,-0.84762 -1.1979,7.75977 3.918,0.84762 1.1978,-7.75977 3.9179,0.84762 -1.7968,11.63966 3.9179,0.84761 -0.599,3.87989 -3.9179,-0.84762 -0.5989,3.87989 -3.9179,-0.84762 0.5989,-3.87989 3.9179,0.84762 0.599,-3.87988 -19.5895,-4.2381 -0.599,3.87989 3.9179,0.84762 -0.5989,3.87988 -3.9179,-0.84762 0.5989,-3.87988 -3.9179,-0.84762 0.599,-3.87988 3.9179,0.84761 1.7969,-11.63965 3.9179,0.84762 z"
       id="rect4781-5"
       inkscape:connector-curvature="0"
       sodipodi:nodetypes="ccccccccccccccccccccccccccccccccc" />
    <path
       style="fill:#deaa87;fill-rule:evenodd;stroke:none"
       d="m 327.4083,456.79503 0,23.78051 246.5312,46.21855 5.108,-24.03427 z"
       id="path4772"
       inkscape:connector-curvature="0"
       sodipodi:nodetypes="ccccc" />
    <path
       sodipodi:nodetypes="ccccc"
       inkscape:connector-curvature="0"
       id="path4797"
       d="m 334.1882,538.39745 -1.3425,15.10927 213.6406,45.54732 c 0,0 12.9433,-7.7992 12.9433,-15.85405 z"
       style="fill:#c87137;fill-rule:evenodd;stroke:none" />
    <path
       style="fill:#d5ffe6;fill-opacity:1;fill-rule:evenodd;stroke:none"
       d="m 271.1293,186.50925 70.3429,1.92608 0,11.43762 -170.4913,-12.71557"
       id="rect5017"
       inkscape:connector-curvature="0"
       sodipodi:nodetypes="cccc" />
    <path
       sodipodi:nodetypes="sssssssss"
       inkscape:connector-curvature="0"
       id="path5706-7"
       d="m 252.0389,481.01619 c 1.8398,13.2045 1.606,38.33749 8.0747,45.96963 19.6416,23.17431 44.9785,23.32412 80.6341,13.07406 39.045,-11.22442 49.425,-38.59984 47.6445,-81.28257 -0.3536,-8.47675 22.2294,-18.93948 16.5291,-25.90156 -22.192,-27.10349 -10.7718,-73.90236 -32.144,-86.16987 -16.818,-9.65355 -58.5918,16.84363 -79.4648,22.84406 -19.4259,5.58444 -53.2043,9.04497 -65.8831,25.41524 -18.2571,23.57258 20.227,54.59636 24.6095,86.05101 z"
       style="fill:#ea9680;fill-opacity:1;fill-rule:evenodd;stroke:none" />
    <path
       style="opacity:0.45199998;color:#000000;fill:#d35f5f;fill-opacity:1;fill-rule:evenodd;stroke:none;visibility:visible;display:inline;overflow:visible;enable-background:accumulate"
       d="m 372.8583,446.77179 c 0,24.01903 -1.9333,51.45064 -15.4325,69.35915 -13.7945,18.30031 -39.3399,26.84447 -56.3899,29.4193 -33.735,5.09453 -52.1657,-33.91162 -52.1657,-82.47518 0,-48.56356 18.4307,-100.37688 52.1657,-105.47137 11.5608,-1.74586 35.7151,-15.46084 46.5902,-7.20526 20.8588,15.83457 25.2322,64.45231 25.2322,96.37336 z"
       id="path4477"
       inkscape:connector-curvature="0"
       sodipodi:nodetypes="sssssss" />
    <path
       style="color:#000000;fill:#ea9680;fill-opacity:1;fill-rule:evenodd;stroke:none;visibility:visible;display:inline;overflow:visible;enable-background:accumulate"
       d="m 276.2371,546.89931 c 10.9733,2.7746 43.8932,-2.19682 56.3718,-7.91638 l 0,38.39754 -55.9449,8.44857 z"
       id="rect4498"
       inkscape:connector-curvature="0"
       sodipodi:nodetypes="ccccc" />
    <path
       sodipodi:nodetypes="ccccc"
       inkscape:connector-curvature="0"
       id="path4501"
       d="m 276.2371,536.89931 c 8.5442,4.27795 34.1769,0.407 43.8932,-5.8789 l 0,48.24453 -43.5608,6.57837 z"
       style="color:#000000;fill:#df7d71;fill-opacity:1;fill-rule:evenodd;stroke:none;visibility:visible;display:inline;overflow:visible;enable-background:accumulate" />
    <path
       style="fill:#d5ffe6;fill-opacity:1;fill-rule:evenodd;stroke:none"
       d="m 167.1839,371.51015 174.2883,12.99876 0,11.43763 -174.763,-13.03416"
       id="rect5001"
       inkscape:connector-curvature="0"
       sodipodi:nodetypes="cccc" />
    <path
       style="fill:#d5ffe6;fill-opacity:1;fill-rule:evenodd;stroke:none"
       d="m 168.8451,352.02669 172.6271,12.87486 0,11.43763 -172.6271,-12.87486"
       id="rect5003"
       inkscape:connector-curvature="0"
       sodipodi:nodetypes="cccc" />
    <path
       style="fill:#d5ffe6;fill-opacity:1;fill-rule:evenodd;stroke:none"
       d="m 168.6078,312.79429 172.8644,12.89256 0,11.43763 -173.1018,-12.91026"
       id="rect5009"
       inkscape:connector-curvature="0"
       sodipodi:nodetypes="cccc" />
    <path
       style="fill:#d5ffe6;fill-opacity:1;fill-rule:evenodd;stroke:none"
       d="m 168.3704,332.38395 173.1018,12.91026 0,11.43762 -173.1018,-12.91026"
       id="rect4999"
       inkscape:connector-curvature="0"
       sodipodi:nodetypes="cccc" />
    <path
       style="fill:#d5ffe6;fill-opacity:1;fill-rule:evenodd;stroke:none"
       d="m 169.7944,293.27543 171.6778,12.80407 0,11.43762 -172.1525,-12.83946"
       id="rect5007"
       inkscape:connector-curvature="0"
       sodipodi:nodetypes="cccc" />
    <path
       style="fill:#d5ffe6;fill-opacity:1;fill-rule:evenodd;stroke:none"
       d="m 168.8451,273.59726 172.6271,12.87487 0,11.43762 -171.9152,-12.82176"
       id="rect5005"
       inkscape:connector-curvature="0"
       sodipodi:nodetypes="cccc" />
    <path
       sodipodi:nodetypes="cssssssssssscsssssccccccccccssssczcsssssccccsscsssssscsccc"
       inkscape:connector-curvature="0"
       id="path5708-3"
       d="m 341.2371,507.08328 c -15,-2.73476 -7.1774,13.20089 -10,11.51016 -20,-11.97969 -11.291,7.58069 -15,7.26523 -1.5173,-0.12907 -4.3489,-10.64269 -5,-4.24492 -0.5261,5.16992 -1.1677,3.92648 -3,6.45305 -2.0883,2.8796 -6.3073,-6.4672 -7.6181,-3.60878 -2.3207,5.06076 0.6245,5.38379 -2.3819,6.11894 -1.422,0.34772 -3.9734,-4.15111 -7.8348,-2.08053 -2.3579,1.26432 -2.2285,6.8675 -4.1652,6.89272 -3.4004,0.0443 -4.2571,-2.2017 -6.5291,-2.19564 -6.2398,0.0166 -2.8145,-1.48286 -2.4709,8.55478 0.1,2.91454 -3.519,-9.46858 -6,-9.09391 -1,0.15102 -1.0943,-2.306 -1.1477,6.44409 -10.9246,-15.49694 -3.8005,-2.22488 -5.6167,-1.25873 -1.5188,0.80795 -9.8485,-12.50619 -10.0715,-16.30835 -0.3575,-6.09669 -12.2376,10.46208 -15,7.26524 -2.1802,-2.5231 8.8929,-19.61515 5,-20.75508 -6.1621,-1.80436 -12.7006,4.67438 -14.0375,2.72811 -3.2459,-4.72576 12.7623,-14.09395 9.0375,-16.97303 l -9.6612,3.13228 -1.0499,-16.86221 -12.7377,-5.34051 3.7547,-13.86119 -13.5819,-2.57114 5.4897,-8.05371 -7.2247,-4.39866 11.8469,-9.88124 -17.1427,-21.16308 c 0.9535,-0.81253 11.2026,3.99981 8.0098,-1.41737 -4.189,-7.1075 -9.4569,-15.5466 -9.2696,-18.41163 0.298,-4.56133 17.7371,8.34273 16.0097,3.47397 -4.5269,-12.75899 -14.9982,-24.17053 -16.2126,-28.79571 -1.5436,-5.87946 17.9446,1.02149 18.6054,-6.77068 0,0 -2.4965,-18.97289 0,-25 2.4965,-6.0271 10,-10 10,-10 2.5387,-2.60064 -1.1737,9.74117 5,5 5.8915,-4.52444 7.9236,-13.23653 15,-20 8.9629,-8.56661 22.2394,-14.4787 20,-10 -5,10 0.6942,6.32237 10,5 2.8316,-0.40238 12.1094,-10.49352 20,-15 12.7895,-7.30435 34.6737,-9.67373 30,-5 -23.166,22.91709 24.1829,2.90647 30,0 17.8885,-8.94427 -5,15 0,15 8.5526,-2.60821 37.6557,-8.98087 41.2294,-1.38153 -21.2294,6.38153 -18.1963,14.02375 -9.0876,14.82432 17.9188,1.57488 35.3242,14.06206 17.8582,16.55721 -35,5 32.9642,14.11049 -23.0315,26.36101 -7.1131,3.4528 -10.9076,4.22565 -21.6616,16.63195 -6.451,7.44224 2.2823,9.19882 -0.3054,15.26942 -1.4774,3.46601 13.9042,18.36794 12.2701,22.12966 -2.5933,5.96972 -10.0658,-7.8389 -14.3505,-5.56649 -9.3943,4.9823 -13.8237,4.36625 -12.9211,18.6269 0.2647,4.18157 9.9226,12.92498 9.0547,17.62394 -0.4822,2.61075 2.6607,7.59663 5.4009,9.87314 26.2445,25.3942 -11.3009,12.02035 -9.4556,16.74784 0.1843,0.47207 4.6428,5.61469 10,13.48985 -16.1898,2.68939 -25.601,-8.02278 -10,11.51015 -26.8369,-5.81055 -7.6928,11.41006 -10,11.51016 z"
       style="fill:#502d16;stroke:none" />
    <path
       style="fill:#c87137;fill-rule:evenodd;stroke:none"
       d="m 257.1442,373.99632 c 0,0 -12.4366,-2.21032 -19.1791,-1.68343 -6.7425,0.52689 -1.5956,-7.84003 3.0947,-8.33086 4.6904,-0.49082 16.0844,10.01429 16.0844,10.01429 z"
       id="path4488"
       inkscape:connector-curvature="0"
       sodipodi:nodetypes="czzc" />
    <path
       sodipodi:nodetypes="cssc"
       inkscape:connector-curvature="0"
       id="path4490"
       d="m 263.7318,369.35222 c -3.885,-5.90816 -9.5429,-14.90452 -12.1555,-19.90248 -2.3922,-4.5766 6.1107,-7.55126 8.642,-2.0659 3.0962,6.70961 2.5987,11.56824 3.5135,21.96838 z"
       style="fill:#c87137;fill-rule:evenodd;stroke:none" />
    <ellipse
       d="m -2758.6967,-1082.3582 c 0,11.598 -0.4528,21 -1.0113,21 -0.5586,0 -1.0114,-9.402 -1.0114,-21 0,-11.5979 0.4528,-21 1.0114,-21 0.5585,0 1.0113,9.4021 1.0113,21 z"
       style="color:#000000;fill:#000000;fill-opacity:1;fill-rule:evenodd;stroke:none;visibility:visible;display:inline;overflow:visible;enable-background:accumulate"
       id="path4507"
       cx="-2759.708"
       cy="-1082.3582"
       rx="1.0113423"
       ry="21"
       transform="matrix(0.98878852,-0.14932265,0,1,3113.0047,1091.8608)"
       sodipodi:cx="-2759.708"
       sodipodi:cy="-1082.3582"
       sodipodi:rx="1.0113423"
       sodipodi:ry="21" />
    <path
       style="fill:#502d16;fill-opacity:1;fill-rule:evenodd;stroke:none"
       d="m 351.0207,399.38537 30.4044,-6.98501 7.6846,-2.6215 0.2457,-3.65504 12.0389,-0.53569 -2.0951,65.63991 c -0.2146,1.81758 -2.8448,2.94962 -4.797,3.31107 -4.3591,0.35225 -5.3198,1.84298 -7.4011,-8.45862 -0.5026,-2.48751 -0.9381,-37.45175 -1.8165,-39.93613 l -34.9043,1.57929"
       id="path4492"
       inkscape:connector-curvature="0"
       sodipodi:nodetypes="cccccccscc" />
    <path
       style="fill:#00ffff;fill-rule:evenodd;stroke:none"
       d="m 387.6535,406.65445 0.9453,36.49482 c 0.4383,4.02469 1.3801,6.20944 1.315,4.74481 l -1.1052,-41.27505 z"
       id="path4494"
       inkscape:connector-curvature="0"
       sodipodi:nodetypes="ccccc" />
    <path
       style="fill:none;stroke:none"
       d="m 372.8667,477.82838 c 4.9987,7.9794 11.408,1.97579 11.4111,1.96856"
       id="path4496"
       inkscape:connector-curvature="0"
       sodipodi:nodetypes="cc" />
    <path
       style="fill:#c87137;fill-rule:evenodd;stroke:none"
       d="m 269.2405,371.70924 c 5.3221,-4.65567 7.8707,-5.75695 13.2404,-12.72838 5.5234,-7.1709 -1.0741,-9.18586 -5.6293,-5.44319 -5.0414,4.14226 -4.0676,10.25165 -7.6111,18.17157 z"
       id="path4503"
       inkscape:connector-curvature="0"
       sodipodi:nodetypes="cssc" />
    <g
       style="stroke:none"
       id="g4527"
       transform="matrix(0.6,-0.09060946,0,1,991.0371,136.59106)">
      <path
         style="opacity:0.38600003;fill:#d35f5f;fill-rule:evenodd;stroke:none"
         d="m -1045,212.36218 c -0.1282,3.12747 -4,2.21555 -5.6429,-3.74503 -1.4575,-5.28785 -3.0659,-10.18539 -7.3571,-15.08712 -3.2595,-4.66405 1,-8.86219 3,-11.07774 4.9239,-4.24058 9.9986,7.23803 15,11.07774 1.8622,1.89467 1.8094,7.26072 2,12.18551 -6.8937,-2.34568 -7.1166,5.94359 -7,6.64664 z"
         id="path4523"
         inkscape:connector-curvature="0"
         sodipodi:nodetypes="csccccc" />
      <path
         sodipodi:nodetypes="ccsccc"
         inkscape:connector-curvature="0"
         id="path4513"
         d="m -1038,205.71554 c -0.6962,-3.05297 -8.8299,1.44081 -7,6.64664 -0.1282,3.12747 -4,2.21555 -5.6429,-3.74503 -1.4575,-5.28785 -3.0659,-10.18539 -7.3571,-15.08712 -3.2595,-4.66405 1,-8.86219 3,-11.07774 4.9239,-4.24058 9.9986,7.23803 15,11.07774"
         style="fill:none;stroke:none" />
    </g>
    <path
       sodipodi:nodetypes="czzc"
       inkscape:connector-curvature="0"
       id="path4531"
       d="m 272.3533,377.81565 c 0,0 12.0317,-5.7069 16.918,-5.19209 4.8862,0.51478 2.1436,9.18872 -1.3482,8.84403 -3.4917,-0.34469 -15.5698,-3.65194 -15.5698,-3.65194 z"
       style="fill:#c87137;fill-rule:evenodd;stroke:none" />
    <path
       style="fill:#c87137;fill-rule:evenodd;stroke:none"
       d="m 265.9854,383.90227 c 0,0 8.0325,5.02888 10.0372,10.26324 2.0049,5.2344 -7.3676,10.26225 -7.8754,4.53575 -0.5079,-5.72651 -2.1618,-14.79899 -2.1618,-14.79899 z"
       id="path4533"
       inkscape:connector-curvature="0"
       sodipodi:nodetypes="czzc" />
    <path
       sodipodi:nodetypes="czzc"
       inkscape:connector-curvature="0"
       id="path4535"
       d="m 258.1559,381.55393 c 0,0 -15.4317,6.66456 -16.2358,12.10372 -0.8042,5.43917 6.4271,6.88528 7.6904,2.2336 1.2632,-4.65168 8.5454,-14.33732 8.5454,-14.33732 z"
       style="fill:#c87137;fill-rule:evenodd;stroke:none" />
    <path
       style="fill:#a05a2c;fill-rule:evenodd;stroke:none"
       d="m 276.2371,547.87575 c 5,5 50,10 57,4 l 73,16 c 36.8689,17.05049 32.8037,39.7757 30,60 l -260,-10 c -6.3561,-15.07764 -0.6213,-28.178 20,-50 z"
       id="path4537"
       inkscape:connector-curvature="0"
       sodipodi:nodetypes="ccccccc" />
    <path
       sodipodi:nodetypes="ccccccc"
       inkscape:connector-curvature="0"
       id="path4539"
       d="m 268.7371,559.54242 c 4.1667,4.16666 56.6667,8.33333 62.5,3.33333 l 45.8334,13.33333 c 30.724,14.20874 27.3364,33.14642 25,50 l -216.6667,-8.33333 c -5.2967,-12.5647 -0.5177,-23.48167 16.6667,-41.66667 z"
       style="opacity:0.63300003;fill:#803300;fill-rule:evenodd;stroke:none" />
    <path
       style="fill:none;stroke:#000000;stroke-width:5;stroke-linecap:round;stroke-linejoin:miter;stroke-miterlimit:4;stroke-opacity:1;stroke-dasharray:none"
       d="m 376.5068,485.78184 c 1.6534,2.3695 6.8542,2.27926 8.0547,-0.33562"
       id="path4768"
       inkscape:connector-curvature="0"
       sodipodi:nodetypes="cc" />
    <g
       id="g4833"
       transform="matrix(1,0.01837149,0,1,1062.1896,283.4565)">
      <path
         sodipodi:nodetypes="ccccccc"
         inkscape:connector-curvature="0"
         id="path4831"
         d="m -531.55452,291.49752 c 0.58112,-1.52311 1.28794,-3.24342 1.5239,-4.22515 1.10962,-1.68627 2.47399,-4.13663 4.58773,-5.53312 -1.07992,1.72206 -2.71019,2.94075 -3.06597,5.32509 0.10308,2.07424 5.65586,3.42436 5.86006,1.30143 l 1.21262,5.06025 z"
         style="opacity:0.853;fill:#f2f2f2;fill-rule:evenodd;stroke:none" />
      <path
         sodipodi:nodetypes="ccccccc"
         inkscape:connector-curvature="0"
         id="path4803"
         d="m -676.44919,261.52999 c 0.58112,-1.52311 1.28794,-3.24342 1.5239,-4.22515 1.10962,-1.68627 2.47399,-4.13663 4.58773,-5.53312 -1.07992,1.72206 -2.71019,2.94075 -3.06597,5.32509 0.10308,2.07424 5.65586,3.42436 5.86006,1.30143 l 1.21262,5.06025 z"
         style="opacity:0.853;fill:#f2f2f2;fill-rule:evenodd;stroke:none" />
      <path
         style="opacity:0.853;fill:#f2f2f2;fill-rule:evenodd;stroke:none"
         d="m -665.54158,263.87932 c 0.58112,-1.52311 1.28794,-3.24342 1.5239,-4.22515 1.10962,-1.68627 2.47399,-4.13663 4.58773,-5.53312 -1.07992,1.72206 -2.71019,2.94075 -3.06597,5.32509 0.10308,2.07424 5.65586,3.42436 5.86006,1.30143 l 1.21262,5.06025 z"
         id="path4807"
         inkscape:connector-curvature="0"
         sodipodi:nodetypes="ccccccc" />
      <path
         style="opacity:0.853;fill:#f2f2f2;fill-rule:evenodd;stroke:none"
         d="m -654.13054,266.06084 c 0.58112,-1.52311 1.28794,-3.24342 1.5239,-4.22515 1.10962,-1.68627 2.47399,-4.13663 4.58773,-5.53312 -1.07992,1.72206 -2.71019,2.94075 -3.06597,5.32509 0.10308,2.07424 5.65586,3.42436 5.86006,1.30143 l 1.21262,5.06025 z"
         id="path4809"
         inkscape:connector-curvature="0"
         sodipodi:nodetypes="ccccccc" />
      <path
         sodipodi:nodetypes="ccccccc"
         inkscape:connector-curvature="0"
         id="path4811"
         d="m -643.22293,268.41017 c 0.58112,-1.52311 1.28794,-3.24342 1.5239,-4.22515 1.10962,-1.68627 2.47399,-4.13663 4.58773,-5.53312 -1.07992,1.72206 -2.71019,2.94075 -3.06597,5.32509 0.10308,2.07424 5.65586,3.42436 5.86006,1.30143 l 1.21262,5.06025 z"
         style="opacity:0.853;fill:#f2f2f2;fill-rule:evenodd;stroke:none" />
      <path
         style="opacity:0.853;fill:#f2f2f2;fill-rule:evenodd;stroke:none"
         d="m -631.59602,270.78541 c 0.58112,-1.52311 1.28794,-3.24342 1.5239,-4.22515 1.10962,-1.68627 2.47399,-4.13663 4.58773,-5.53312 -1.07992,1.72206 -2.71019,2.94075 -3.06597,5.32509 0.10308,2.07424 5.65586,3.42436 5.86006,1.30143 l 1.21262,5.06025 z"
         id="path4813"
         inkscape:connector-curvature="0"
         sodipodi:nodetypes="ccccccc" />
      <path
         sodipodi:nodetypes="ccccccc"
         inkscape:connector-curvature="0"
         id="path4815"
         d="m -620.68841,273.13474 c 0.58112,-1.52311 1.28794,-3.24342 1.5239,-4.22515 1.10962,-1.68627 2.47399,-4.13663 4.58773,-5.53312 -1.07992,1.72206 -2.71019,2.94075 -3.06597,5.32509 0.10308,2.07424 5.65586,3.42436 5.86006,1.30143 l 1.21262,5.06025 z"
         style="opacity:0.853;fill:#f2f2f2;fill-rule:evenodd;stroke:none" />
      <path
         sodipodi:nodetypes="ccccccc"
         inkscape:connector-curvature="0"
         id="path4817"
         d="m -609.27737,275.31626 c 0.58112,-1.52311 1.28794,-3.24342 1.5239,-4.22515 1.10962,-1.68627 2.47399,-4.13663 4.58773,-5.53312 -1.07992,1.72206 -2.71019,2.94075 -3.06597,5.32509 0.10308,2.07424 5.65586,3.42436 5.86006,1.30143 l 1.21262,5.06025 z"
         style="opacity:0.853;fill:#f2f2f2;fill-rule:evenodd;stroke:none" />
      <path
         style="opacity:0.853;fill:#f2f2f2;fill-rule:evenodd;stroke:none"
         d="m -598.36976,277.66559 c 0.58112,-1.52311 1.28794,-3.24342 1.5239,-4.22515 1.10962,-1.68627 2.47399,-4.13663 4.58773,-5.53312 -1.07992,1.72206 -2.71019,2.94075 -3.06597,5.32509 0.10308,2.07424 5.65586,3.42436 5.86006,1.30143 l 1.21262,5.06025 z"
         id="path4819"
         inkscape:connector-curvature="0"
         sodipodi:nodetypes="ccccccc" />
      <path
         sodipodi:nodetypes="ccccccc"
         inkscape:connector-curvature="0"
         id="path4821"
         d="m -586.6231,279.84712 c 0.58112,-1.52311 1.28794,-3.24342 1.5239,-4.22515 1.10962,-1.68627 2.47399,-4.13663 4.58773,-5.53312 -1.07992,1.72206 -2.71019,2.94075 -3.06597,5.32509 0.10308,2.07424 5.65586,3.42436 5.86006,1.30143 l 1.21262,5.06025 z"
         style="opacity:0.853;fill:#f2f2f2;fill-rule:evenodd;stroke:none" />
      <path
         style="opacity:0.853;fill:#f2f2f2;fill-rule:evenodd;stroke:none"
         d="m -575.71549,282.19645 c 0.58112,-1.52311 1.28794,-3.24342 1.5239,-4.22515 1.10962,-1.68627 2.47399,-4.13663 4.58773,-5.53312 -1.07992,1.72206 -2.71019,2.94075 -3.06597,5.32509 0.10308,2.07424 5.65586,3.42436 5.86006,1.30143 l 1.21262,5.06025 z"
         id="path4823"
         inkscape:connector-curvature="0"
         sodipodi:nodetypes="ccccccc" />
      <path
         style="opacity:0.853;fill:#f2f2f2;fill-rule:evenodd;stroke:none"
         d="m -565.0164,284.37797 c 0.58112,-1.52311 1.28794,-3.24342 1.5239,-4.22515 1.10962,-1.68627 2.47399,-4.13663 4.58773,-5.53312 -1.07992,1.72206 -2.71019,2.94075 -3.06597,5.32509 0.10308,2.07424 5.65586,3.42436 5.86006,1.30143 l 1.21262,5.06025 z"
         id="path4825"
         inkscape:connector-curvature="0"
         sodipodi:nodetypes="ccccccc" />
      <path
         sodipodi:nodetypes="ccccccc"
         inkscape:connector-curvature="0"
         id="path4827"
         d="m -554.1088,286.96462 c 0.58112,-1.52311 1.28794,-3.24342 1.5239,-4.22515 1.10962,-1.68627 2.47399,-4.13663 4.58773,-5.53312 -1.07992,1.72206 -2.71019,2.94075 -3.06597,5.32509 0.10308,2.07424 5.65586,3.42436 5.86006,1.30143 l 1.21262,5.06025 z"
         style="opacity:0.853;fill:#f2f2f2;fill-rule:evenodd;stroke:none" />
      <path
         sodipodi:nodetypes="ccccccc"
         inkscape:connector-curvature="0"
         id="path4829"
         d="m -542.96556,289.07868 c 0.58112,-1.52311 1.28794,-3.24342 1.5239,-4.22515 1.10962,-1.68627 2.47399,-4.13663 4.58773,-5.53312 -1.07992,1.72206 -2.71019,2.94075 -3.06597,5.32509 0.10308,2.07424 5.65586,3.42436 5.86006,1.30143 l 1.21262,5.06025 z"
         style="opacity:0.853;fill:#f2f2f2;fill-rule:evenodd;stroke:none" />
    </g>
    <g
       transform="matrix(1,0.01837149,0,1,1068.9532,274.91304)"
       id="g4849">
      <path
         style="opacity:0.853;fill:#f2f2f2;fill-rule:evenodd;stroke:none"
         d="m -531.55452,291.49752 c 0.58112,-1.52311 1.28794,-3.24342 1.5239,-4.22515 1.10962,-1.68627 2.47399,-4.13663 4.58773,-5.53312 -1.07992,1.72206 -2.71019,2.94075 -3.06597,5.32509 0.10308,2.07424 5.65586,3.42436 5.86006,1.30143 l 1.21262,5.06025 z"
         id="path4851"
         inkscape:connector-curvature="0"
         sodipodi:nodetypes="ccccccc" />
      <path
         style="opacity:0.853;fill:#f2f2f2;fill-rule:evenodd;stroke:none"
         d="m -676.44919,261.52999 c 0.58112,-1.52311 1.28794,-3.24342 1.5239,-4.22515 1.10962,-1.68627 2.47399,-4.13663 4.58773,-5.53312 -1.07992,1.72206 -2.71019,2.94075 -3.06597,5.32509 0.10308,2.07424 5.65586,3.42436 5.86006,1.30143 l 1.21262,5.06025 z"
         id="path4853"
         inkscape:connector-curvature="0"
         sodipodi:nodetypes="ccccccc" />
      <path
         sodipodi:nodetypes="ccccccc"
         inkscape:connector-curvature="0"
         id="path4855"
         d="m -665.54158,263.87932 c 0.58112,-1.52311 1.28794,-3.24342 1.5239,-4.22515 1.10962,-1.68627 2.47399,-4.13663 4.58773,-5.53312 -1.07992,1.72206 -2.71019,2.94075 -3.06597,5.32509 0.10308,2.07424 5.65586,3.42436 5.86006,1.30143 l 1.21262,5.06025 z"
         style="opacity:0.853;fill:#f2f2f2;fill-rule:evenodd;stroke:none" />
      <path
         sodipodi:nodetypes="ccccccc"
         inkscape:connector-curvature="0"
         id="path4857"
         d="m -654.13054,266.06084 c 0.58112,-1.52311 1.28794,-3.24342 1.5239,-4.22515 1.10962,-1.68627 2.47399,-4.13663 4.58773,-5.53312 -1.07992,1.72206 -2.71019,2.94075 -3.06597,5.32509 0.10308,2.07424 5.65586,3.42436 5.86006,1.30143 l 1.21262,5.06025 z"
         style="opacity:0.853;fill:#f2f2f2;fill-rule:evenodd;stroke:none" />
      <path
         style="opacity:0.853;fill:#f2f2f2;fill-rule:evenodd;stroke:none"
         d="m -643.22293,268.41017 c 0.58112,-1.52311 1.28794,-3.24342 1.5239,-4.22515 1.10962,-1.68627 2.47399,-4.13663 4.58773,-5.53312 -1.07992,1.72206 -2.71019,2.94075 -3.06597,5.32509 0.10308,2.07424 5.65586,3.42436 5.86006,1.30143 l 1.21262,5.06025 z"
         id="path4859"
         inkscape:connector-curvature="0"
         sodipodi:nodetypes="ccccccc" />
      <path
         sodipodi:nodetypes="ccccccc"
         inkscape:connector-curvature="0"
         id="path4861"
         d="m -631.59602,270.78541 c 0.58112,-1.52311 1.28794,-3.24342 1.5239,-4.22515 1.10962,-1.68627 2.47399,-4.13663 4.58773,-5.53312 -1.07992,1.72206 -2.71019,2.94075 -3.06597,5.32509 0.10308,2.07424 5.65586,3.42436 5.86006,1.30143 l 1.21262,5.06025 z"
         style="opacity:0.853;fill:#f2f2f2;fill-rule:evenodd;stroke:none" />
      <path
         style="opacity:0.853;fill:#f2f2f2;fill-rule:evenodd;stroke:none"
         d="m -620.68841,273.13474 c 0.58112,-1.52311 1.28794,-3.24342 1.5239,-4.22515 1.10962,-1.68627 2.47399,-4.13663 4.58773,-5.53312 -1.07992,1.72206 -2.71019,2.94075 -3.06597,5.32509 0.10308,2.07424 5.65586,3.42436 5.86006,1.30143 l 1.21262,5.06025 z"
         id="path4863"
         inkscape:connector-curvature="0"
         sodipodi:nodetypes="ccccccc" />
      <path
         style="opacity:0.853;fill:#f2f2f2;fill-rule:evenodd;stroke:none"
         d="m -609.27737,275.31626 c 0.58112,-1.52311 1.28794,-3.24342 1.5239,-4.22515 1.10962,-1.68627 2.47399,-4.13663 4.58773,-5.53312 -1.07992,1.72206 -2.71019,2.94075 -3.06597,5.32509 0.10308,2.07424 5.65586,3.42436 5.86006,1.30143 l 1.21262,5.06025 z"
         id="path4865"
         inkscape:connector-curvature="0"
         sodipodi:nodetypes="ccccccc" />
      <path
         sodipodi:nodetypes="ccccccc"
         inkscape:connector-curvature="0"
         id="path4867"
         d="m -598.36976,277.66559 c 0.58112,-1.52311 1.28794,-3.24342 1.5239,-4.22515 1.10962,-1.68627 2.47399,-4.13663 4.58773,-5.53312 -1.07992,1.72206 -2.71019,2.94075 -3.06597,5.32509 0.10308,2.07424 5.65586,3.42436 5.86006,1.30143 l 1.21262,5.06025 z"
         style="opacity:0.853;fill:#f2f2f2;fill-rule:evenodd;stroke:none" />
      <path
         style="opacity:0.853;fill:#f2f2f2;fill-rule:evenodd;stroke:none"
         d="m -586.6231,279.84712 c 0.58112,-1.52311 1.28794,-3.24342 1.5239,-4.22515 1.10962,-1.68627 2.47399,-4.13663 4.58773,-5.53312 -1.07992,1.72206 -2.71019,2.94075 -3.06597,5.32509 0.10308,2.07424 5.65586,3.42436 5.86006,1.30143 l 1.21262,5.06025 z"
         id="path4869"
         inkscape:connector-curvature="0"
         sodipodi:nodetypes="ccccccc" />
      <path
         sodipodi:nodetypes="ccccccc"
         inkscape:connector-curvature="0"
         id="path4871"
         d="m -575.71549,282.19645 c 0.58112,-1.52311 1.28794,-3.24342 1.5239,-4.22515 1.10962,-1.68627 2.47399,-4.13663 4.58773,-5.53312 -1.07992,1.72206 -2.71019,2.94075 -3.06597,5.32509 0.10308,2.07424 5.65586,3.42436 5.86006,1.30143 l 1.21262,5.06025 z"
         style="opacity:0.853;fill:#f2f2f2;fill-rule:evenodd;stroke:none" />
      <path
         sodipodi:nodetypes="ccccccc"
         inkscape:connector-curvature="0"
         id="path4873"
         d="m -565.0164,284.37797 c 0.58112,-1.52311 1.28794,-3.24342 1.5239,-4.22515 1.10962,-1.68627 2.47399,-4.13663 4.58773,-5.53312 -1.07992,1.72206 -2.71019,2.94075 -3.06597,5.32509 0.10308,2.07424 5.65586,3.42436 5.86006,1.30143 l 1.21262,5.06025 z"
         style="opacity:0.853;fill:#f2f2f2;fill-rule:evenodd;stroke:none" />
      <path
         style="opacity:0.853;fill:#f2f2f2;fill-rule:evenodd;stroke:none"
         d="m -554.1088,286.96462 c 0.58112,-1.52311 1.28794,-3.24342 1.5239,-4.22515 1.10962,-1.68627 2.47399,-4.13663 4.58773,-5.53312 -1.07992,1.72206 -2.71019,2.94075 -3.06597,5.32509 0.10308,2.07424 5.65586,3.42436 5.86006,1.30143 l 1.21262,5.06025 z"
         id="path4875"
         inkscape:connector-curvature="0"
         sodipodi:nodetypes="ccccccc" />
      <path
         style="opacity:0.853;fill:#f2f2f2;fill-rule:evenodd;stroke:none"
         d="m -542.96556,289.07868 c 0.58112,-1.52311 1.28794,-3.24342 1.5239,-4.22515 1.10962,-1.68627 2.47399,-4.13663 4.58773,-5.53312 -1.07992,1.72206 -2.71019,2.94075 -3.06597,5.32509 0.10308,2.07424 5.65586,3.42436 5.86006,1.30143 l 1.21262,5.06025 z"
         id="path4877"
         inkscape:connector-curvature="0"
         sodipodi:nodetypes="ccccccc" />
    </g>
    <g
       id="g4881"
       transform="matrix(1,0.01837149,0,1,1076.0728,265.89494)">
      <path
         sodipodi:nodetypes="ccccccc"
         inkscape:connector-curvature="0"
         id="path4883"
         d="m -531.55452,291.49752 c 0.58112,-1.52311 1.28794,-3.24342 1.5239,-4.22515 1.10962,-1.68627 2.47399,-4.13663 4.58773,-5.53312 -1.07992,1.72206 -2.71019,2.94075 -3.06597,5.32509 0.10308,2.07424 5.65586,3.42436 5.86006,1.30143 l 1.21262,5.06025 z"
         style="opacity:0.853;fill:#f2f2f2;fill-rule:evenodd;stroke:none" />
      <path
         sodipodi:nodetypes="ccccccc"
         inkscape:connector-curvature="0"
         id="path4885"
         d="m -676.44919,261.52999 c 0.58112,-1.52311 1.28794,-3.24342 1.5239,-4.22515 1.10962,-1.68627 2.47399,-4.13663 4.58773,-5.53312 -1.07992,1.72206 -2.71019,2.94075 -3.06597,5.32509 0.10308,2.07424 5.65586,3.42436 5.86006,1.30143 l 1.21262,5.06025 z"
         style="opacity:0.853;fill:#f2f2f2;fill-rule:evenodd;stroke:none" />
      <path
         style="opacity:0.853;fill:#f2f2f2;fill-rule:evenodd;stroke:none"
         d="m -665.54158,263.87932 c 0.58112,-1.52311 1.28794,-3.24342 1.5239,-4.22515 1.10962,-1.68627 2.47399,-4.13663 4.58773,-5.53312 -1.07992,1.72206 -2.71019,2.94075 -3.06597,5.32509 0.10308,2.07424 5.65586,3.42436 5.86006,1.30143 l 1.21262,5.06025 z"
         id="path4887"
         inkscape:connector-curvature="0"
         sodipodi:nodetypes="ccccccc" />
      <path
         style="opacity:0.853;fill:#f2f2f2;fill-rule:evenodd;stroke:none"
         d="m -654.13054,266.06084 c 0.58112,-1.52311 1.28794,-3.24342 1.5239,-4.22515 1.10962,-1.68627 2.47399,-4.13663 4.58773,-5.53312 -1.07992,1.72206 -2.71019,2.94075 -3.06597,5.32509 0.10308,2.07424 5.65586,3.42436 5.86006,1.30143 l 1.21262,5.06025 z"
         id="path4889"
         inkscape:connector-curvature="0"
         sodipodi:nodetypes="ccccccc" />
      <path
         sodipodi:nodetypes="ccccccc"
         inkscape:connector-curvature="0"
         id="path4891"
         d="m -643.22293,268.41017 c 0.58112,-1.52311 1.28794,-3.24342 1.5239,-4.22515 1.10962,-1.68627 2.47399,-4.13663 4.58773,-5.53312 -1.07992,1.72206 -2.71019,2.94075 -3.06597,5.32509 0.10308,2.07424 5.65586,3.42436 5.86006,1.30143 l 1.21262,5.06025 z"
         style="opacity:0.853;fill:#f2f2f2;fill-rule:evenodd;stroke:none" />
      <path
         style="opacity:0.853;fill:#f2f2f2;fill-rule:evenodd;stroke:none"
         d="m -631.59602,270.78541 c 0.58112,-1.52311 1.28794,-3.24342 1.5239,-4.22515 1.10962,-1.68627 2.47399,-4.13663 4.58773,-5.53312 -1.07992,1.72206 -2.71019,2.94075 -3.06597,5.32509 0.10308,2.07424 5.65586,3.42436 5.86006,1.30143 l 1.21262,5.06025 z"
         id="path4893"
         inkscape:connector-curvature="0"
         sodipodi:nodetypes="ccccccc" />
      <path
         sodipodi:nodetypes="ccccccc"
         inkscape:connector-curvature="0"
         id="path4895"
         d="m -620.68841,273.13474 c 0.58112,-1.52311 1.28794,-3.24342 1.5239,-4.22515 1.10962,-1.68627 2.47399,-4.13663 4.58773,-5.53312 -1.07992,1.72206 -2.71019,2.94075 -3.06597,5.32509 0.10308,2.07424 5.65586,3.42436 5.86006,1.30143 l 1.21262,5.06025 z"
         style="opacity:0.853;fill:#f2f2f2;fill-rule:evenodd;stroke:none" />
      <path
         sodipodi:nodetypes="ccccccc"
         inkscape:connector-curvature="0"
         id="path4897"
         d="m -609.27737,275.31626 c 0.58112,-1.52311 1.28794,-3.24342 1.5239,-4.22515 1.10962,-1.68627 2.47399,-4.13663 4.58773,-5.53312 -1.07992,1.72206 -2.71019,2.94075 -3.06597,5.32509 0.10308,2.07424 5.65586,3.42436 5.86006,1.30143 l 1.21262,5.06025 z"
         style="opacity:0.853;fill:#f2f2f2;fill-rule:evenodd;stroke:none" />
      <path
         style="opacity:0.853;fill:#f2f2f2;fill-rule:evenodd;stroke:none"
         d="m -598.36976,277.66559 c 0.58112,-1.52311 1.28794,-3.24342 1.5239,-4.22515 1.10962,-1.68627 2.47399,-4.13663 4.58773,-5.53312 -1.07992,1.72206 -2.71019,2.94075 -3.06597,5.32509 0.10308,2.07424 5.65586,3.42436 5.86006,1.30143 l 1.21262,5.06025 z"
         id="path4899"
         inkscape:connector-curvature="0"
         sodipodi:nodetypes="ccccccc" />
      <path
         sodipodi:nodetypes="ccccccc"
         inkscape:connector-curvature="0"
         id="path4901"
         d="m -586.6231,279.84712 c 0.58112,-1.52311 1.28794,-3.24342 1.5239,-4.22515 1.10962,-1.68627 2.47399,-4.13663 4.58773,-5.53312 -1.07992,1.72206 -2.71019,2.94075 -3.06597,5.32509 0.10308,2.07424 5.65586,3.42436 5.86006,1.30143 l 1.21262,5.06025 z"
         style="opacity:0.853;fill:#f2f2f2;fill-rule:evenodd;stroke:none" />
      <path
         style="opacity:0.853;fill:#f2f2f2;fill-rule:evenodd;stroke:none"
         d="m -575.71549,282.19645 c 0.58112,-1.52311 1.28794,-3.24342 1.5239,-4.22515 1.10962,-1.68627 2.47399,-4.13663 4.58773,-5.53312 -1.07992,1.72206 -2.71019,2.94075 -3.06597,5.32509 0.10308,2.07424 5.65586,3.42436 5.86006,1.30143 l 1.21262,5.06025 z"
         id="path4903"
         inkscape:connector-curvature="0"
         sodipodi:nodetypes="ccccccc" />
      <path
         style="opacity:0.853;fill:#f2f2f2;fill-rule:evenodd;stroke:none"
         d="m -565.0164,284.37797 c 0.58112,-1.52311 1.28794,-3.24342 1.5239,-4.22515 1.10962,-1.68627 2.47399,-4.13663 4.58773,-5.53312 -1.07992,1.72206 -2.71019,2.94075 -3.06597,5.32509 0.10308,2.07424 5.65586,3.42436 5.86006,1.30143 l 1.21262,5.06025 z"
         id="path4905"
         inkscape:connector-curvature="0"
         sodipodi:nodetypes="ccccccc" />
      <path
         sodipodi:nodetypes="ccccccc"
         inkscape:connector-curvature="0"
         id="path4907"
         d="m -554.1088,286.96462 c 0.58112,-1.52311 1.28794,-3.24342 1.5239,-4.22515 1.10962,-1.68627 2.47399,-4.13663 4.58773,-5.53312 -1.07992,1.72206 -2.71019,2.94075 -3.06597,5.32509 0.10308,2.07424 5.65586,3.42436 5.86006,1.30143 l 1.21262,5.06025 z"
         style="opacity:0.853;fill:#f2f2f2;fill-rule:evenodd;stroke:none" />
      <path
         sodipodi:nodetypes="ccccccc"
         inkscape:connector-curvature="0"
         id="path4909"
         d="m -542.96556,289.07868 c 0.58112,-1.52311 1.28794,-3.24342 1.5239,-4.22515 1.10962,-1.68627 2.47399,-4.13663 4.58773,-5.53312 -1.07992,1.72206 -2.71019,2.94075 -3.06597,5.32509 0.10308,2.07424 5.65586,3.42436 5.86006,1.30143 l 1.21262,5.06025 z"
         style="opacity:0.853;fill:#f2f2f2;fill-rule:evenodd;stroke:none" />
    </g>
    <path
       style="fill:#ea9680;fill-opacity:1;fill-rule:evenodd;stroke:none"
       d="m 477.247,528.76332 c -0.7507,-13.6626 6.4087,-22.5126 12.6068,-27.21385 3.3845,-2.5671 1.182,-22.00413 6.7061,-22.42406 6.2908,-12.31045 11.741,27.16083 14.4053,27.74096 11.2723,2.45439 16.8242,6.18165 17.5061,16.15312 0.6495,11.82095 -6.3876,33.00271 -8.7767,42.20303 -5.6684,21.82853 -0.8366,55.95402 -7.6641,55.57276 -6.4188,-0.35843 -37.1142,-8.17918 -38.6454,-1.62726 -2.0849,8.92094 6.2145,-36.35588 5.575,-57.95551 0.4032,-4.55946 -2.2724,-24.79424 -1.7131,-32.44919 z"
       id="path4955"
       inkscape:connector-curvature="0"
       sodipodi:nodetypes="cscscssscc" />
    <path
       style="color:#000000;fill:#ffeeaa;fill-opacity:1;fill-rule:evenodd;stroke:none;visibility:visible;display:inline;overflow:visible;enable-background:accumulate"
       inkscape:transform-center-x="-8.1664025"
       inkscape:transform-center-y="75.278298"
       d="m 492.428,532.14397 -0.7891,-120.38712 1.6076,-0.6035 4.3488,120.38712 c 0.2667,6.73998 -5.0941,5.66937 -5.1673,0.6035 z"
       id="rect4609"
       inkscape:connector-curvature="0"
       sodipodi:nodetypes="ccccc" />
    <path
       style="fill:#ff6600;fill-rule:evenodd;stroke:none"
       d="m 472.7779,415.57462 -0.1159,-5.09998 5.1052,-0.34302 -0.1159,-5.1 10.2103,-0.686 -0.1739,-7.65 5.1052,-0.34301 0.1738,7.65 10.2103,-0.68602 0.1159,5.1 5.1052,-0.34302 0.1159,5.1 z"
       id="path4607"
       inkscape:connector-curvature="0"
       inkscape:transform-center-x="94.588033"
       inkscape:transform-center-y="8.389995" />
    <path
       style="fill:#d5ffe6;fill-opacity:1;fill-rule:evenodd;stroke:none"
       d="m 168.3704,214.73978 173.1018,12.91027 0,11.43762 -172.8644,-12.89256"
       id="rect5013"
       inkscape:connector-curvature="0"
       sodipodi:nodetypes="cccc" />
    <path
       style="fill:#d5ffe6;fill-opacity:1;fill-rule:evenodd;stroke:none"
       d="m 167.4212,234.27634 174.051,12.98106 0,11.43763 -172.8644,-12.89257"
       id="rect5011"
       inkscape:connector-curvature="0"
       sodipodi:nodetypes="cccc" />
    <path
       style="fill:#d5ffe6;fill-opacity:1;fill-rule:evenodd;stroke:none"
       d="m 168.8451,253.9899 172.6271,12.87487 0,11.43762 -172.6271,-12.87486"
       id="rect4997"
       inkscape:connector-curvature="0"
       sodipodi:nodetypes="cccc" />
    <path
       style="fill:#ffffff;fill-opacity:1;fill-rule:evenodd;stroke:none"
       d="m 384.5799,182.14396 219.8634,0 0,449.00781 -439.2468,0 0,-449.0078 219.6012,0 0.6042,5.00228 c -115.1101,4.2213 -215.0184,101.12833 -215.0184,219.94577 0,121.50264 96.2588,220 215,220 118.7412,0 215,-98.49736 215,-220 0,-121.50264 -96.0802,-219.82142 -214.8214,-219.82142 z"
       id="path4879"
       inkscape:connector-curvature="0"
       sodipodi:nodetypes="cccccccssscc" />
    <path
       sodipodi:nodetypes="ccccc"
       inkscape:connector-curvature="0"
       id="path4606"
       d="m 492.3452,532.2922 -6.5656,-120.21054 1.5768,-0.67995 10.1212,120.03971 c 0.5898,6.71941 -4.8162,5.9073 -5.1324,0.85078 z"
       inkscape:transform-center-y="-60.100476"
       inkscape:transform-center-x="3.8225442"
       style="color:#000000;fill:#ffeeaa;fill-opacity:1;fill-rule:evenodd;stroke:none;visibility:visible;display:inline;overflow:visible;enable-background:accumulate" />
    <path
       style="color:#000000;fill:#ea9680;fill-opacity:1;fill-rule:evenodd;stroke:none;visibility:visible;display:inline;overflow:visible;enable-background:accumulate"
       d="m 499.1922,504.70092 c 0,1.90047 -6.8058,9.37407 -8.3061,14.35775 -0.7745,2.57283 -1.424,-12.45728 -1.424,-14.35775 0,-1.90048 2.0104,-5.79045 4.6973,-5.79045 2.6868,0 5.0328,3.88997 5.0328,5.79045 z"
       id="path4959"
       inkscape:connector-curvature="0"
       sodipodi:nodetypes="sssss" />
  </g>
</svg>
