<?xml version="1.0" encoding="UTF-8" standalone="no"?>
<!-- Created with Inkscape (http://www.inkscape.org/) -->

<svg
   xmlns:dc="http://purl.org/dc/elements/1.1/"
   xmlns:cc="http://creativecommons.org/ns#"
   xmlns:rdf="http://www.w3.org/1999/02/22-rdf-syntax-ns#"
   xmlns:svg="http://www.w3.org/2000/svg"
   xmlns="http://www.w3.org/2000/svg"
   xmlns:sodipodi="http://sodipodi.sourceforge.net/DTD/sodipodi-0.dtd"
   xmlns:inkscape="http://www.inkscape.org/namespaces/inkscape"
   width="744.09448819"
   height="1052.3622047"
   id="svg4343"
   version="1.1"
   inkscape:version="0.48.4 r9939"
   sodipodi:docname="howdy.svg">
  <defs
     id="defs4345">
    <inkscape:path-effect
       effect="spiro"
       id="path-effect4824-3"
       is_visible="true" />
    <inkscape:path-effect
       effect="spiro"
       id="path-effect4830-8"
       is_visible="true" />
    <inkscape:path-effect
       is_visible="true"
       id="path-effect4788-8"
       effect="spiro" />
    <inkscape:path-effect
       effect="spiro"
       id="path-effect4806-0"
       is_visible="true" />
    <inkscape:path-effect
       effect="spiro"
       id="path-effect4778-3"
       is_visible="true" />
  </defs>
  <sodipodi:namedview
     id="base"
     pagecolor="#ffffff"
     bordercolor="#666666"
     borderopacity="1.0"
     inkscape:pageopacity="0.0"
     inkscape:pageshadow="2"
     inkscape:zoom="0.35"
     inkscape:cx="375"
     inkscape:cy="520"
     inkscape:document-units="px"
     inkscape:current-layer="layer1"
     showgrid="false"
     inkscape:window-width="472"
     inkscape:window-height="415"
     inkscape:window-x="1920"
     inkscape:window-y="24"
     inkscape:window-maximized="0" />
  <metadata
     id="metadata4348">
    <rdf:RDF>
      <cc:Work
         rdf:about="">
        <dc:format>image/svg+xml</dc:format>
        <dc:type
           rdf:resource="http://purl.org/dc/dcmitype/StillImage" />
        <dc:title></dc:title>
      </cc:Work>
    </rdf:RDF>
  </metadata>
  <g
     inkscape:label="Layer 1"
     inkscape:groupmode="layer"
     id="layer1">
    <g
       id="g4465"
       transform="translate(1641.0327,277.28938)">
      <rect
         y="-54.171135"
         x="-1438.8734"
         height="356.40628"
         width="430.1474"
         id="rect7380"
         style="color:#000000;fill:#803300;fill-opacity:1;fill-rule:evenodd;stroke:none;visibility:visible;display:inline;overflow:visible;enable-background:accumulate" />
      <rect
         y="280.88602"
         x="-1438.2092"
         height="105.8182"
         width="427.25549"
         id="rect7378"
         style="color:#000000;fill:#c87137;fill-opacity:1;fill-rule:evenodd;stroke:none;visibility:visible;display:inline;overflow:visible;enable-background:accumulate" />
      <rect
         y="38.362183"
         x="-1440"
         height="240"
         width="131"
         id="rect7533"
         style="color:#000000;fill:#c87137;fill-opacity:1;fill-rule:evenodd;stroke:none;visibility:visible;display:inline;overflow:visible;enable-background:accumulate" />
      <rect
         y="-7.6378174"
         x="-1440"
         height="30"
         width="420"
         id="rect7535"
         style="color:#000000;fill:#c87137;fill-opacity:1;fill-rule:evenodd;stroke:none;visibility:visible;display:inline;overflow:visible;enable-background:accumulate" />
      <rect
         style="color:#000000;fill:#c87137;fill-opacity:1;fill-rule:evenodd;stroke:none;visibility:visible;display:inline;overflow:visible;enable-background:accumulate"
         id="rect7537"
         width="420"
         height="30"
         x="-1440"
         y="-47.637817" />
      <rect
         y="-1.9235229"
         x="-1384.2856"
         height="20"
         width="317.14285"
         id="rect7543"
         style="color:#000000;fill:#d38d5f;fill-opacity:1;fill-rule:evenodd;stroke:none;visibility:visible;display:inline;overflow:visible;enable-background:accumulate" />
      <rect
         style="color:#000000;fill:#d38d5f;fill-opacity:1;fill-rule:evenodd;stroke:none;visibility:visible;display:inline;overflow:visible;enable-background:accumulate"
         id="rect7549"
         width="317.14285"
         height="20"
         x="-1380.7142"
         y="-42.63781" />
      <rect
         y="282.36218"
         x="-1386"
         height="101.14287"
         width="26.142876"
         id="rect4443"
         style="color:#000000;fill:#eb8e6a;fill-opacity:1;fill-rule:evenodd;stroke:none;visibility:visible;display:inline;overflow:visible;enable-background:accumulate" />
      <rect
         style="color:#000000;fill:#eb8e6a;fill-opacity:1;fill-rule:evenodd;stroke:none;visibility:visible;display:inline;overflow:visible;enable-background:accumulate"
         id="rect4445"
         width="26.142876"
         height="101.14287"
         x="-1356"
         y="282.36218" />
      <rect
         y="282.36218"
         x="-1326"
         height="101.14287"
         width="26.142876"
         id="rect4447"
         style="color:#000000;fill:#eb8e6a;fill-opacity:1;fill-rule:evenodd;stroke:none;visibility:visible;display:inline;overflow:visible;enable-background:accumulate" />
      <g
         transform="matrix(1,0,0,0.88345865,-300,25.568525)"
         id="g7497">
        <rect
           style="color:#000000;fill:#cccccc;fill-opacity:1;fill-rule:evenodd;stroke:none;visibility:visible;display:inline;overflow:visible;enable-background:accumulate"
           id="rect7499"
           width="90.913727"
           height="350"
           x="-1116"
           y="-57.637814" />
        <g
           id="g7501"
           transform="matrix(-1,0,0,1,-2466,-9.9999974)">
          <path
             style="color:#000000;fill:#ffffff;fill-opacity:1;fill-rule:evenodd;stroke:none;visibility:visible;display:inline;overflow:visible;enable-background:accumulate"
             d="m -1366,-47.637811 10,0 0,329.999991 c 0,10 -17.2605,10 -10,0 z"
             id="path7503"
             inkscape:connector-curvature="0"
             sodipodi:nodetypes="ccccc" />
          <path
             sodipodi:nodetypes="ccccc"
             inkscape:connector-curvature="0"
             id="path7505"
             d="m -1370,-47.637811 10,0 0,329.999991 c 0,10 -10,10 -10,0 z"
             style="color:#000000;fill:#b3b3b3;fill-opacity:1;fill-rule:evenodd;stroke:none;visibility:visible;display:inline;overflow:visible;enable-background:accumulate" />
        </g>
        <g
           id="g7507"
           transform="matrix(-1,0,0,1,-2444,-9.9999974)">
          <path
             sodipodi:nodetypes="ccccc"
             inkscape:connector-curvature="0"
             id="path7509"
             d="m -1366,-47.637811 10,0 0,329.999991 c 0,10 -17.2605,10 -10,0 z"
             style="color:#000000;fill:#ffffff;fill-opacity:1;fill-rule:evenodd;stroke:none;visibility:visible;display:inline;overflow:visible;enable-background:accumulate" />
          <path
             style="color:#000000;fill:#b3b3b3;fill-opacity:1;fill-rule:evenodd;stroke:none;visibility:visible;display:inline;overflow:visible;enable-background:accumulate"
             d="m -1370,-47.637811 10,0 0,329.999991 c 0,10 -10,10 -10,0 z"
             id="path7511"
             inkscape:connector-curvature="0"
             sodipodi:nodetypes="ccccc" />
        </g>
        <g
           transform="matrix(-1,0,0,1,-2422,-9.9999974)"
           id="g7513">
          <path
             style="color:#000000;fill:#ffffff;fill-opacity:1;fill-rule:evenodd;stroke:none;visibility:visible;display:inline;overflow:visible;enable-background:accumulate"
             d="m -1366,-47.637811 10,0 0,329.999991 c 0,10 -17.2605,10 -10,0 z"
             id="path7515"
             inkscape:connector-curvature="0"
             sodipodi:nodetypes="ccccc" />
          <path
             sodipodi:nodetypes="ccccc"
             inkscape:connector-curvature="0"
             id="path7517"
             d="m -1370,-47.637811 10,0 0,329.999991 c 0,10 -10,10 -10,0 z"
             style="color:#000000;fill:#b3b3b3;fill-opacity:1;fill-rule:evenodd;stroke:none;visibility:visible;display:inline;overflow:visible;enable-background:accumulate" />
        </g>
        <g
           id="g7519"
           transform="matrix(-1,0,0,1,-2400,-9.9999974)">
          <path
             sodipodi:nodetypes="ccccc"
             inkscape:connector-curvature="0"
             id="path7521"
             d="m -1366,-47.637811 10,0 0,329.999991 c 0,10 -17.2605,10 -10,0 z"
             style="color:#000000;fill:#ffffff;fill-opacity:1;fill-rule:evenodd;stroke:none;visibility:visible;display:inline;overflow:visible;enable-background:accumulate" />
          <path
             style="color:#000000;fill:#b3b3b3;fill-opacity:1;fill-rule:evenodd;stroke:none;visibility:visible;display:inline;overflow:visible;enable-background:accumulate"
             d="m -1370,-47.637811 10,0 0,329.999991 c 0,10 -10,10 -10,0 z"
             id="path7523"
             inkscape:connector-curvature="0"
             sodipodi:nodetypes="ccccc" />
        </g>
        <rect
           style="color:#000000;fill:#ececec;fill-opacity:1;fill-rule:evenodd;stroke:none;visibility:visible;display:inline;overflow:visible;enable-background:accumulate"
           id="rect7525"
           width="100"
           height="40"
           x="-1121"
           y="282.36218" />
      </g>
      <rect
         style="color:#000000;fill:#c87137;fill-opacity:1;fill-rule:evenodd;stroke:none;visibility:visible;display:inline;overflow:visible;enable-background:accumulate"
         id="rect7531"
         width="125"
         height="240"
         x="-1130"
         y="38.362183" />
      <rect
         y="282.36218"
         x="-1116"
         height="101.14287"
         width="26.142876"
         id="rect4461"
         style="color:#000000;fill:#eb8e6a;fill-opacity:1;fill-rule:evenodd;stroke:none;visibility:visible;display:inline;overflow:visible;enable-background:accumulate" />
      <rect
         style="color:#000000;fill:#eb8e6a;fill-opacity:1;fill-rule:evenodd;stroke:none;visibility:visible;display:inline;overflow:visible;enable-background:accumulate"
         id="rect4463"
         width="26.142876"
         height="101.14287"
         x="-1086"
         y="282.36218" />
      <g
         id="g7560"
         transform="matrix(1,0,0,0.88345865,2,25.568525)">
        <rect
           y="-57.637814"
           x="-1116"
           height="350"
           width="90.913727"
           id="rect7562"
           style="color:#000000;fill:#cccccc;fill-opacity:1;fill-rule:evenodd;stroke:none;visibility:visible;display:inline;overflow:visible;enable-background:accumulate" />
        <g
           transform="matrix(-1,0,0,1,-2466,-9.9999974)"
           id="g7564">
          <path
             sodipodi:nodetypes="ccccc"
             inkscape:connector-curvature="0"
             id="path7566"
             d="m -1366,-47.637811 10,0 0,329.999991 c 0,10 -17.2605,10 -10,0 z"
             style="color:#000000;fill:#ffffff;fill-opacity:1;fill-rule:evenodd;stroke:none;visibility:visible;display:inline;overflow:visible;enable-background:accumulate" />
          <path
             style="color:#000000;fill:#b3b3b3;fill-opacity:1;fill-rule:evenodd;stroke:none;visibility:visible;display:inline;overflow:visible;enable-background:accumulate"
             d="m -1370,-47.637811 10,0 0,329.999991 c 0,10 -10,10 -10,0 z"
             id="path7568"
             inkscape:connector-curvature="0"
             sodipodi:nodetypes="ccccc" />
        </g>
        <g
           transform="matrix(-1,0,0,1,-2444,-9.9999974)"
           id="g7570">
          <path
             style="color:#000000;fill:#ffffff;fill-opacity:1;fill-rule:evenodd;stroke:none;visibility:visible;display:inline;overflow:visible;enable-background:accumulate"
             d="m -1366,-47.637811 10,0 0,329.999991 c 0,10 -17.2605,10 -10,0 z"
             id="path7572"
             inkscape:connector-curvature="0"
             sodipodi:nodetypes="ccccc" />
          <path
             sodipodi:nodetypes="ccccc"
             inkscape:connector-curvature="0"
             id="path7574"
             d="m -1370,-47.637811 10,0 0,329.999991 c 0,10 -10,10 -10,0 z"
             style="color:#000000;fill:#b3b3b3;fill-opacity:1;fill-rule:evenodd;stroke:none;visibility:visible;display:inline;overflow:visible;enable-background:accumulate" />
        </g>
        <g
           id="g7576"
           transform="matrix(-1,0,0,1,-2422,-9.9999974)">
          <path
             sodipodi:nodetypes="ccccc"
             inkscape:connector-curvature="0"
             id="path7578"
             d="m -1366,-47.637811 10,0 0,329.999991 c 0,10 -17.2605,10 -10,0 z"
             style="color:#000000;fill:#ffffff;fill-opacity:1;fill-rule:evenodd;stroke:none;visibility:visible;display:inline;overflow:visible;enable-background:accumulate" />
          <path
             style="color:#000000;fill:#b3b3b3;fill-opacity:1;fill-rule:evenodd;stroke:none;visibility:visible;display:inline;overflow:visible;enable-background:accumulate"
             d="m -1370,-47.637811 10,0 0,329.999991 c 0,10 -10,10 -10,0 z"
             id="path7580"
             inkscape:connector-curvature="0"
             sodipodi:nodetypes="ccccc" />
        </g>
        <g
           transform="matrix(-1,0,0,1,-2400,-9.9999974)"
           id="g7582">
          <path
             style="color:#000000;fill:#ffffff;fill-opacity:1;fill-rule:evenodd;stroke:none;visibility:visible;display:inline;overflow:visible;enable-background:accumulate"
             d="m -1366,-47.637811 10,0 0,329.999991 c 0,10 -17.2605,10 -10,0 z"
             id="path7584"
             inkscape:connector-curvature="0"
             sodipodi:nodetypes="ccccc" />
          <path
             sodipodi:nodetypes="ccccc"
             inkscape:connector-curvature="0"
             id="path7586"
             d="m -1370,-47.637811 10,0 0,329.999991 c 0,10 -10,10 -10,0 z"
             style="color:#000000;fill:#b3b3b3;fill-opacity:1;fill-rule:evenodd;stroke:none;visibility:visible;display:inline;overflow:visible;enable-background:accumulate" />
        </g>
        <rect
           y="282.36218"
           x="-1121"
           height="40"
           width="100"
           id="rect7588"
           style="color:#000000;fill:#ececec;fill-opacity:1;fill-rule:evenodd;stroke:none;visibility:visible;display:inline;overflow:visible;enable-background:accumulate" />
      </g>
      <rect
         y="38.362183"
         x="-1300"
         height="240"
         width="160"
         id="rect7529"
         style="color:#000000;fill:#c87137;fill-opacity:1;fill-rule:evenodd;stroke:none;visibility:visible;display:inline;overflow:visible;enable-background:accumulate" />
      <rect
         y="44.362183"
         x="-1296"
         height="230.29828"
         width="74.035683"
         id="rect7539"
         style="color:#000000;fill:#ff7f2a;fill-opacity:1;fill-rule:evenodd;stroke:none;visibility:visible;display:inline;overflow:visible;enable-background:accumulate" />
      <rect
         style="color:#000000;fill:#ff7f2a;fill-opacity:1;fill-rule:evenodd;stroke:none;visibility:visible;display:inline;overflow:visible;enable-background:accumulate"
         id="rect7541"
         width="71.999969"
         height="230.29828"
         x="-1216.9985"
         y="44.362183" />
      <path
         sodipodi:nodetypes="ccccccc"
         inkscape:connector-curvature="0"
         id="rect7551"
         d="m -1290.3571,53.43362 56.7858,0.357143 -51.4287,3.57142 0,105.308157 55,4.69184 -60,0 z"
         style="color:#000000;fill:#803300;fill-opacity:1;fill-rule:evenodd;stroke:none;visibility:visible;display:inline;overflow:visible;enable-background:accumulate" />
      <path
         style="color:#000000;fill:#803300;fill-opacity:1;fill-rule:evenodd;stroke:none;visibility:visible;display:inline;overflow:visible;enable-background:accumulate"
         d="m -1290.3571,157.43362 56.7858,0.35714 -51.4287,3.57142 0,105.30816 55,4.69184 -60,0 z"
         id="path7556"
         inkscape:connector-curvature="0"
         sodipodi:nodetypes="ccccccc" />
      <path
         style="color:#000000;fill:#803300;fill-opacity:1;fill-rule:evenodd;stroke:none;visibility:visible;display:inline;overflow:visible;enable-background:accumulate"
         d="m -1210.3571,53.43362 56.7858,0.357143 -51.4287,3.57142 0,105.308157 35,4.69184 -40,0 z"
         id="path7554"
         inkscape:connector-curvature="0"
         sodipodi:nodetypes="ccccccc" />
      <path
         sodipodi:nodetypes="ccccccc"
         inkscape:connector-curvature="0"
         id="path7558"
         d="m -1210.3571,157.43362 30.3571,-0.0714 -25,4 0,105.30816 55,4.69184 -60,0 z"
         style="color:#000000;fill:#803300;fill-opacity:1;fill-rule:evenodd;stroke:none;visibility:visible;display:inline;overflow:visible;enable-background:accumulate" />
      <rect
         style="color:#000000;fill:#eb8e6a;fill-opacity:1;fill-rule:evenodd;stroke:none;visibility:visible;display:inline;overflow:visible;enable-background:accumulate"
         id="rect4449"
         width="26.142876"
         height="101.14287"
         x="-1296"
         y="282.36218" />
      <rect
         y="288.36218"
         x="-1266"
         height="101.14287"
         width="26.142876"
         id="rect4451"
         style="color:#000000;fill:#eb8e6a;fill-opacity:1;fill-rule:evenodd;stroke:none;visibility:visible;display:inline;overflow:visible;enable-background:accumulate" />
      <rect
         style="color:#000000;fill:#eb8e6a;fill-opacity:1;fill-rule:evenodd;stroke:none;visibility:visible;display:inline;overflow:visible;enable-background:accumulate"
         id="rect4453"
         width="26.142876"
         height="101.14287"
         x="-1236"
         y="288.36218" />
      <rect
         y="288.36218"
         x="-1206"
         height="101.14287"
         width="26.142876"
         id="rect4455"
         style="color:#000000;fill:#eb8e6a;fill-opacity:1;fill-rule:evenodd;stroke:none;visibility:visible;display:inline;overflow:visible;enable-background:accumulate" />
      <rect
         y="282.36218"
         x="-1176"
         height="101.14287"
         width="26.142876"
         id="rect4457"
         style="color:#000000;fill:#eb8e6a;fill-opacity:1;fill-rule:evenodd;stroke:none;visibility:visible;display:inline;overflow:visible;enable-background:accumulate" />
      <rect
         style="color:#000000;fill:#eb8e6a;fill-opacity:1;fill-rule:evenodd;stroke:none;visibility:visible;display:inline;overflow:visible;enable-background:accumulate"
         id="rect4459"
         width="26.142876"
         height="101.14287"
         x="-1146"
         y="282.36218" />
      <g
         transform="translate(-480,557.14286)"
         id="g7342">
        <ellipse
           sodipodi:ry="10"
           sodipodi:rx="12.5"
           sodipodi:cy="-197.34018"
           sodipodi:cx="760.53302"
           transform="scale(-1,1)"
           ry="10"
           rx="12.5"
           cy="-197.34018"
           cx="760.53302"
           style="fill:#552200;fill-opacity:1;fill-rule:evenodd;stroke:none"
           id="ellipse7274"
           d="m 773.03302,-197.34018 c 0,5.52285 -5.59644,10 -12.5,10 -6.90356,0 -12.5,-4.47715 -12.5,-10 0,-5.52285 5.59644,-10 12.5,-10 6.90356,0 12.5,4.47715 12.5,10 z" />
        <ellipse
           sodipodi:ry="10"
           sodipodi:rx="12.5"
           sodipodi:cy="-197.34018"
           sodipodi:cx="715.53302"
           transform="scale(-1,1)"
           ry="10"
           rx="12.5"
           cy="-197.34018"
           cx="715.53302"
           id="ellipse7276"
           style="fill:#552200;fill-opacity:1;fill-rule:evenodd;stroke:none"
           d="m 728.03302,-197.34018 c 0,5.52285 -5.59644,10 -12.5,10 -6.90356,0 -12.5,-4.47715 -12.5,-10 0,-5.52285 5.59644,-10 12.5,-10 6.90356,0 12.5,4.47715 12.5,10 z" />
        <rect
           transform="scale(-1,1)"
           y="-363.43369"
           x="713.28381"
           height="84.486702"
           width="48.902699"
           id="rect7278"
           style="fill:#ffaacc;fill-opacity:1;fill-rule:evenodd;stroke:none" />
        <path
           sodipodi:nodetypes="ccccccc"
           style="fill:#ffaacc;fill-opacity:1;fill-rule:evenodd;stroke:none"
           d="m -760.67137,-363.43367 -31.59171,6.31835 12.63668,69.50176 -3.15918,25.27338 47.25258,5 1.14516,-29.89212 -1.64394,-0.12872"
           id="path7280"
           inkscape:connector-curvature="0" />
        <path
           sodipodi:nodetypes="ccccccc"
           inkscape:connector-curvature="0"
           id="path7282"
           d="m -713.28379,-363.43368 31.56745,6.79586 -12.5862,48.07656 -0.0262,20.9477 3.15917,25.27338 -44.36342,5 0.13501,-30.27338"
           style="fill:#ffaacc;fill-opacity:1;fill-rule:evenodd;stroke:none" />
        <path
           sodipodi:nodetypes="cccccccccc"
           inkscape:connector-curvature="0"
           id="path7284"
           d="m -695.533,-262.34018 0,20 -5,45 -30,0 -7,-45 -8,45 -30,0 -5,-45 0,-20 85,0"
           style="fill:#916f6f;fill-rule:evenodd;stroke:none" />
        <rect
           transform="scale(-1,1)"
           y="-262.63782"
           x="706.71631"
           height="5"
           width="60"
           id="rect7286"
           style="color:#000000;fill:#803300;fill-opacity:1;fill-rule:evenodd;stroke:none;visibility:visible;display:inline;overflow:visible;enable-background:accumulate" />
        <path
           inkscape:connector-curvature="0"
           id="path7288"
           d="m -681.71634,-297.63782 5,90 -45,0 5,-125"
           style="fill:#000000;fill-rule:evenodd;stroke:none" />
        <path
           style="fill:#000000;fill-rule:evenodd;stroke:none"
           d="m -791.71633,-297.63782 -5,90 44.99999,0 -5,-125"
           id="path7290"
           inkscape:connector-curvature="0" />
        <path
           sodipodi:nodetypes="sssssss"
           inkscape:connector-curvature="0"
           id="path7292"
           d="m -744.71634,-347.63782 c 0,2.76142 0,5 4,5 1.18229,0 2.90399,0 4,0 4,0 4,0 4,-5 0,-1.55093 -2.00713,-4.08289 -4,-5 0,0 -3.0316,0 -4,0 -2.20914,0 -4,2.23858 -4,5 z"
           style="color:#000000;fill:#c83737;fill-opacity:1;fill-rule:evenodd;stroke:none;visibility:visible;display:inline;overflow:visible;enable-background:accumulate" />
        <path
           inkscape:connector-curvature="0"
           id="path7294"
           d="m -736.71634,-342.63782 0,80"
           style="fill:#e580ff;fill-rule:evenodd;stroke:#000000;stroke-width:1px;stroke-linecap:butt;stroke-linejoin:miter;stroke-opacity:1" />
        <path
           sodipodi:nodetypes="ccccccc"
           inkscape:connector-curvature="0"
           id="path7296"
           d="m -711.71634,-362.63782 -27,25 -28,-25 0,20 28,25 27,-25 0,-20"
           style="fill:#00d455;fill-rule:evenodd;stroke:none" />
        <path
           inkscape:connector-curvature="0"
           id="path7298"
           d="m -736.71634,-345.63782 14,5 1,-13 -15,6"
           style="fill:#c83737;fill-rule:evenodd;stroke:none" />
        <path
           style="fill:#c83737;fill-rule:evenodd;stroke:none"
           d="m -739.71634,-345.63782 -14,5 -1,-13 15,6"
           id="path7300"
           inkscape:connector-curvature="0" />
        <path
           style="fill:#afe9dd;fill-opacity:1;fill-rule:evenodd;stroke:none"
           d="m -716.71634,-337.63782 c -1.4783,12.86196 -0.36199,22.2875 -2.49785,27.32896 -1.32132,3.11884 -5.86611,18.95419 -7.11475,22.93754 l 31.08528,6.95275 12.55907,-42.73904 0.96825,-33.48021 c -25,-0.99999 -19.07991,-5.56627 -35,19 z"
           id="path7302"
           inkscape:connector-curvature="0"
           sodipodi:nodetypes="csccccc" />
        <path
           sodipodi:nodetypes="csccsssc"
           inkscape:connector-curvature="0"
           id="path7304"
           d="m -726.95734,-283.45039 c -3.77665,8.77219 -1.66226,13.86047 5.97802,17.14982 6.29384,2.70964 13.74275,-0.19721 18.17455,-5.53689 3.0741,-2.98281 9.1283,-15.081 7.94118,-18.44531 -1.41104,-3.32517 -9.44465,-4.06616 -12.80926,-5.51469 -3.13132,-1.34812 -8.01541,-4.62319 -11.20093,-3.60763 -4.58702,1.4624 -5.85474,10.7777 -8.08353,15.95467 z"
           style="fill:#ea9680;fill-opacity:1;fill-rule:evenodd;stroke:none" />
        <path
           sodipodi:nodetypes="csccccc"
           inkscape:connector-curvature="0"
           id="path7306"
           d="m -757.68459,-337.11803 c 1.47831,12.86196 0.36199,22.2875 2.49786,27.32896 1.32132,3.11884 6.58039,20.02562 7.82903,24.00897 l -31.79957,6.77418 -12.55906,-43.6319 -0.96825,-33.48021 c 25,-0.99999 19.0799,-5.56627 34.99999,19 z"
           style="fill:#afe9dd;fill-opacity:1;fill-rule:evenodd;stroke:none" />
        <path
           sodipodi:nodetypes="cccccccccccccc"
           inkscape:connector-curvature="0"
           id="path7308"
           d="m -716.71634,-357.63782 -10,70 35,5 c 6.57257,-12.23254 17.18297,-21.63859 15,-40 l -5,-35 -35,-10 -50,0 -26.26268,10 -3.73731,35 c -0.18914,28.20886 8.48985,30.99575 14.99999,40 l 35,-5 -5,-30 -10,-35 z"
           style="fill:#333333;fill-rule:evenodd;stroke:none" />
        <path
           sodipodi:nodetypes="ccccc"
           inkscape:connector-curvature="0"
           id="path7310"
           d="m -694.09186,-307.47251 c -36.35806,20.43051 -61.64085,25.39389 -92.46128,38.09084 l 5.71362,13.86919 c 28.17664,-13.79799 54.99621,-28.16115 92.46128,-38.09083 z"
           style="color:#000000;fill:#ffffff;fill-opacity:1;fill-rule:evenodd;stroke:#d3bc5f;stroke-width:1;stroke-linecap:round;stroke-linejoin:miter;stroke-miterlimit:4;stroke-opacity:1;stroke-dasharray:none;stroke-dashoffset:0;visibility:visible;display:inline;overflow:visible;enable-background:accumulate" />
        <path
           inkscape:connector-curvature="0"
           id="path7312"
           d="m -732.31527,-278.44939 2.448,14.7989 -4.43598,-2.30698 -3.45677,3.61258 -2.448,-14.7989 z"
           style="fill:#d40000;fill-rule:evenodd;stroke:none" />
        <rect
           transform="matrix(-0.9246128,0.38090836,0.38090836,0.9246128,0,0)"
           y="-546.67841"
           x="569.6474"
           height="11"
           width="10"
           id="rect7314"
           style="color:#000000;fill:#ff0000;fill-opacity:1;fill-rule:evenodd;stroke:none;visibility:visible;display:inline;overflow:visible;enable-background:accumulate" />
        <path
           style="fill:#ea9680;fill-opacity:1;fill-rule:evenodd;stroke:none"
           d="m -747.44359,-282.9306 c 3.77666,8.77219 1.66227,13.86047 -5.97801,17.14982 -6.29384,2.70964 -13.74275,-0.19721 -18.17456,-5.53689 -1.47836,-1.43446 -3.64594,-4.97707 -5.3659,-8.64261 l 28.28838,-6.39499 c 0.3946,1.24011 0.53117,2.64809 1.23007,3.42464 z"
           id="path7316"
           inkscape:connector-curvature="0"
           sodipodi:nodetypes="cscccsc" />
        <path
           sodipodi:nodetypes="ssssssss"
           inkscape:connector-curvature="0"
           id="path7318"
           d="m -776.46723,-385.54788 c 0,27.04381 11.19661,37.91006 34.75089,37.91006 19.40326,0 35.52177,-15.90094 41.06924,-34.75089 1.18681,-4.03268 3.15917,-3.13191 3.15917,-7.89793 0,-15.13436 6.23589,-39.98496 -3.15917,-48.96717 -7.39312,-7.06825 -29.11689,0 -39.48965,0 -9.65358,0 -26.02346,-3.04907 -33.17131,3.15917 -10.29261,8.93962 -3.15917,34.58666 -3.15917,50.54676 z"
           style="fill:#ea9680;fill-opacity:1;fill-rule:evenodd;stroke:none" />
        <path
           sodipodi:nodetypes="ccccccccccccccccccccccccccccccccccccccccccccccc"
           inkscape:connector-curvature="0"
           id="path7320"
           d="m -688.01041,-391.86623 -3.15917,9.47752 -3.15917,-6.31835 -6.31835,9.47752 0,-9.47752 3.15917,-6.31834 -6.31834,0 3.15917,-6.31835 -3.15917,0 3.15917,-6.31834 -3.15917,0 0,-12.63669 c 0,-9.47751 -3.15917,-12.63668 -12.63669,-12.63668 l -53.70593,0 c -5.91943,-0.39891 2.16704,20.06244 -6.31834,22.1142 l -3.15917,3.15917 3.15917,3.15917 -3.15917,3.15917 3.15917,3.15918 -3.15917,3.15917 3.15917,3.15917 0.74468,4.82901 -0.74468,7.80768 -3.15917,-6.31834 -9.47752,-6.31835 3.15917,-9.47752 -6.31833,-3.15917 3.15916,-3.15917 -3.15916,-3.15917 6.31833,-3.15917 -6.31833,-6.31835 c 8.57983,-4.42172 1.14045,-13.14215 3.15916,-22.1142 l 3.15917,-12.63669 c 5.78628,-14.09902 18.95504,-22.11421 37.91007,-15.79586 l 41.06924,15.79586 12.63669,6.31834 3.15917,-3.15917 -0.19081,10.5805 -0.0682,3.67218 3.418,4.70236 0,18.95503 6.31835,-3.15918 -6.31835,12.63669 6.31835,-3.15917 -3.15917,9.47752 6.31834,9.47751 z"
           style="fill:#502d16;stroke:none" />
        <path
           sodipodi:nodetypes="ccccsccccssccssccccsccccc"
           inkscape:connector-curvature="0"
           id="path7322"
           d="m -744.53369,-405.31094 -2.18277,8.79563 c -2.4123,8.44302 -5.3308,8.54338 -8.3321,8.54338 l -17.22313,0 c -2.89426,0 -4.2463,-1.79879 -4.62816,-2.88983 -4.04577,-11.55934 -3.98192,-10.44858 -5.91864,-13.34058 -0.439,-0.53063 -1.01696,-0.53063 -1.01696,-1.1086 l 0,-8.05574 c 0,-0.61376 0.0909,-0.61376 0.61685,-0.61376 9.43724,3.7e-4 22.57793,-0.80054 31.17134,0 2.44336,0.22761 5.2017,0.57796 5.77967,1.15593 1.00917,1.00917 1.7339,1.7339 2.88983,1.7339 l 2.88984,0 c 1.15593,0 1.88066,-0.72473 2.88983,-1.7339 0.57797,-0.57797 3.33631,-0.92832 5.77967,-1.15593 8.59341,-0.80054 21.7341,3.7e-4 31.17133,0 0.52599,0 0.61686,0 0.61686,0.61376 l 0,8.05574 c 0,0.57797 -0.57796,0.57797 -1.01696,1.1086 -1.93672,2.892 -1.87287,1.78124 -5.91864,13.34058 -0.38186,1.09104 -1.7339,2.88983 -4.62816,2.88983 l -17.22313,0 c -3.0013,0 -5.9198,-0.10036 -8.3321,-8.54338 l -2.18277,-8.79563 c -0.57797,-1.15593 -4.62373,-1.15593 -5.2017,0 z"
           style="fill:#502d16;fill-opacity:1;fill-rule:evenodd;stroke:none" />
        <path
           style="fill:#00ffff;fill-opacity:1;fill-rule:evenodd;stroke:none"
           d="m -735.99055,-410.76805 c 0.50755,-0.4867 2.92984,-0.78174 5.07553,-0.97341 4.95786,-0.4429 5.78687,-0.14751 12.13731,0 10.40341,0 12.71527,4.04577 12.71527,9.82544 0.21489,0.5648 -1.65394,5.87885 -3.02778,9.64292 -0.33534,0.91877 -1.52266,2.43354 -4.06431,2.43354 l -15.12484,0 c -2.63565,0 -5.19859,-0.0845 -7.317,-7.19442 l -1.91684,-7.40685 c -0.33742,-2.09893 -0.33742,-4.4108 1.52266,-6.32722 z"
           id="path7324"
           inkscape:connector-curvature="0"
           sodipodi:nodetypes="csccsccccc" />
        <path
           sodipodi:nodetypes="csccsccccc"
           inkscape:connector-curvature="0"
           id="path7326"
           d="m -748.38185,-410.63431 c -0.50755,-0.48671 -2.92985,-0.78174 -5.07553,-0.97342 -4.95786,-0.44289 -5.78687,-0.14751 -12.13731,0 -10.40341,0 -12.71528,4.04577 -12.71528,9.82544 -0.21489,0.5648 1.65394,5.87885 3.02779,9.64292 0.33534,0.91876 1.52266,2.43354 4.06431,2.43354 l 15.12484,0 c 2.63565,0 5.19859,-0.0845 7.317,-7.19442 l 1.91684,-7.40685 c 0.33741,-2.09893 0.33741,-4.4108 -1.52266,-6.32721 z"
           style="fill:#00ffff;fill-opacity:1;fill-rule:evenodd;stroke:none" />
        <path
           sodipodi:nodetypes="cc"
           inkscape:connector-curvature="0"
           id="path7328"
           d="m -718.41789,-371.72692 c -1.04902,6.10207 -4.95863,6.28795 -9.30824,4.51311"
           style="fill:none;stroke:#000000;stroke-width:3.1591723px;stroke-linecap:round;stroke-linejoin:miter;stroke-opacity:1" />
        <path
           transform="scale(-1,1)"
           sodipodi:type="arc"
           style="fill:#000000;fill-opacity:1;stroke:#000000;stroke-width:1.13153028;stroke-miterlimit:4;stroke-opacity:1;stroke-dasharray:none"
           id="path7330"
           sodipodi:cx="723.02539"
           sodipodi:cy="-401.25601"
           sodipodi:rx="2.8288257"
           sodipodi:ry="5.6576514"
           d="m 725.85422,-401.25601 c 0,3.12463 -1.26651,5.65765 -2.82883,5.65765 -1.56232,0 -2.82883,-2.53302 -2.82883,-5.65765 0,-3.12464 1.26651,-5.65765 2.82883,-5.65765 0.64459,0 1.26985,0.44028 1.77226,1.24795 l -1.77226,4.4097 z"
           sodipodi:start="0"
           sodipodi:end="5.3894415" />
        <path
           transform="scale(-1,1)"
           sodipodi:end="5.3894415"
           sodipodi:start="0"
           d="m 761.39487,-401.25601 c 0,3.12463 -1.26651,5.65765 -2.82883,5.65765 -1.56232,0 -2.82883,-2.53302 -2.82883,-5.65765 0,-3.12464 1.26651,-5.65765 2.82883,-5.65765 0.64459,0 1.26985,0.44028 1.77225,1.24795 l -1.77225,4.4097 z"
           sodipodi:ry="5.6576514"
           sodipodi:rx="2.8288257"
           sodipodi:cy="-401.25601"
           sodipodi:cx="758.56604"
           id="path7332"
           style="fill:#000000;fill-opacity:1;stroke:#000000;stroke-width:1.13153028;stroke-miterlimit:4;stroke-opacity:1;stroke-dasharray:none"
           sodipodi:type="arc" />
        <path
           sodipodi:nodetypes="cczc"
           inkscape:connector-curvature="0"
           id="path7334"
           d="m -726.42856,-460.63782 39,33 c 4.07542,-20.11493 -4,-28 -14,-33 -10,-4.99999 -25,0 -25,0 z"
           style="fill:#1a1a1a;fill-rule:evenodd;stroke:none" />
        <path
           inkscape:connector-curvature="0"
           id="path7336"
           d="m -730.42856,-481.63782 65,50"
           style="fill:none;stroke:#000000;stroke-width:5;stroke-linecap:butt;stroke-linejoin:miter;stroke-miterlimit:4;stroke-opacity:1;stroke-dasharray:none" />
        <circle
           sodipodi:ry="2"
           sodipodi:rx="2"
           sodipodi:cy="-428.63782"
           sodipodi:cx="-667.42859"
           r="2"
           cy="-428.63782"
           cx="-667.42859"
           id="circle7338"
           style="color:#000000;fill:#1a1a1a;fill-opacity:1;fill-rule:evenodd;stroke:none;visibility:visible;display:inline;overflow:visible;enable-background:accumulate"
           d="m -665.42859,-428.63782 c 0,1.10457 -0.89543,2 -2,2 -1.10457,0 -2,-0.89543 -2,-2 0,-1.10457 0.89543,-2 2,-2 1.10457,0 2,0.89543 2,2 z" />
        <path
           inkscape:connector-curvature="0"
           id="path7340"
           d="m -667.42856,-427.63782 -2,7 c 0,0 4,0 4,0 z"
           style="fill:#000000;fill-rule:evenodd;stroke:#000000;stroke-width:1px;stroke-linecap:butt;stroke-linejoin:miter;stroke-opacity:1" />
      </g>
      <path
         sodipodi:nodetypes="cccccccssscc"
         inkscape:connector-curvature="0"
         id="rect5730"
         d="m -1224.1298,-58.002525 219.8634,0 0,449.007805 -439.2468,0 0,-449.007805 219.6012,0 0.6042,5.002282 c -115.1101,4.221299 -215.0184,101.128334 -215.0184,219.945773 0,121.50264 96.2588,220 215,220 118.7412,0 215,-98.49736 215,-220 0,-121.502639 -96.0802,-219.821421 -214.8214,-219.821421 z"
         style="fill:#ffffff;fill-opacity:1;fill-rule:evenodd;stroke:none" />
    </g>
  </g>
</svg>
