<?xml version="1.0" encoding="UTF-8" standalone="no"?>
<!-- Created with Inkscape (http://www.inkscape.org/) -->

<svg
   xmlns:dc="http://purl.org/dc/elements/1.1/"
   xmlns:cc="http://creativecommons.org/ns#"
   xmlns:rdf="http://www.w3.org/1999/02/22-rdf-syntax-ns#"
   xmlns:svg="http://www.w3.org/2000/svg"
   xmlns="http://www.w3.org/2000/svg"
   xmlns:sodipodi="http://sodipodi.sourceforge.net/DTD/sodipodi-0.dtd"
   xmlns:inkscape="http://www.inkscape.org/namespaces/inkscape"
   width="744.09448819"
   height="1052.3622047"
   id="svg4343"
   version="1.1"
   inkscape:version="0.48.4 r9939"
   sodipodi:docname="chopSticks.svg">
  <defs
     id="defs4345">
    <inkscape:path-effect
       effect="spiro"
       id="path-effect4824-3"
       is_visible="true" />
    <inkscape:path-effect
       effect="spiro"
       id="path-effect4830-8"
       is_visible="true" />
    <inkscape:path-effect
       is_visible="true"
       id="path-effect4788-8"
       effect="spiro" />
    <inkscape:path-effect
       effect="spiro"
       id="path-effect4806-0"
       is_visible="true" />
    <inkscape:path-effect
       effect="spiro"
       id="path-effect4778-3"
       is_visible="true" />
  </defs>
  <sodipodi:namedview
     id="base"
     pagecolor="#ffffff"
     bordercolor="#666666"
     borderopacity="1.0"
     inkscape:pageopacity="0.0"
     inkscape:pageshadow="2"
     inkscape:zoom="0.35"
     inkscape:cx="375"
     inkscape:cy="520"
     inkscape:document-units="px"
     inkscape:current-layer="layer1"
     showgrid="false"
     inkscape:window-width="472"
     inkscape:window-height="415"
     inkscape:window-x="1920"
     inkscape:window-y="24"
     inkscape:window-maximized="0" />
  <metadata
     id="metadata4348">
    <rdf:RDF>
      <cc:Work
         rdf:about="">
        <dc:format>image/svg+xml</dc:format>
        <dc:type
           rdf:resource="http://purl.org/dc/dcmitype/StillImage" />
        <dc:title></dc:title>
      </cc:Work>
    </rdf:RDF>
  </metadata>
  <g
     inkscape:label="Layer 1"
     inkscape:groupmode="layer"
     id="layer1">
    <g
       id="g5345"
       transform="translate(2202.3714,1157.8441)">
      <g
         transform="translate(-107.50952,-8.4236279)"
         id="g4863">
        <rect
           y="-901.97418"
           x="-1843.584"
           height="441.11703"
           width="431.55975"
           id="rect5891"
           style="fill:#afe9dd;fill-opacity:1;fill-rule:evenodd;stroke:none" />
        <rect
           y="-837.32837"
           x="-1843.584"
           height="7"
           width="180"
           id="rect5893"
           style="fill:#d5ffe6;fill-opacity:1;fill-rule:evenodd;stroke:none" />
        <rect
           style="fill:#d5ffe6;fill-opacity:1;fill-rule:evenodd;stroke:none"
           id="rect5895"
           width="180"
           height="7"
           x="-1843.584"
           y="-777.32837" />
        <rect
           y="-729.32837"
           x="-1843.584"
           height="7"
           width="180"
           id="rect5897"
           style="fill:#d5ffe6;fill-opacity:1;fill-rule:evenodd;stroke:none" />
        <rect
           style="fill:#d5ffe6;fill-opacity:1;fill-rule:evenodd;stroke:none"
           id="rect5899"
           width="180"
           height="7"
           x="-1843.584"
           y="-705.32837" />
        <rect
           y="-571.61414"
           x="-1840.0126"
           height="110"
           width="420"
           id="rect5901"
           style="fill:#ff5555;fill-opacity:1;fill-rule:evenodd;stroke:none" />
        <path
           sodipodi:nodetypes="cccccccc"
           inkscape:connector-curvature="0"
           id="path5903"
           d="m -1843.584,-632.32839 210,0 0,100 -115,0 0,-90 -95,0 0,90 z"
           style="fill:#c87137;fill-opacity:1;fill-rule:evenodd;stroke:none" />
        <rect
           style="fill:#ffa131;fill-opacity:1;fill-rule:evenodd;stroke:none"
           id="rect5905"
           width="105"
           height="40"
           x="-1743.584"
           y="-577.32837" />
        <rect
           style="fill:#d5ffe6;fill-opacity:1;fill-rule:evenodd;stroke:none"
           id="rect5909"
           width="180"
           height="7"
           x="-1843.584"
           y="-717.32837" />
        <rect
           y="-765.32837"
           x="-1843.584"
           height="7"
           width="180"
           id="rect5911"
           style="fill:#d5ffe6;fill-opacity:1;fill-rule:evenodd;stroke:none" />
        <rect
           y="-753.32837"
           x="-1843.584"
           height="7"
           width="180"
           id="rect5913"
           style="fill:#d5ffe6;fill-opacity:1;fill-rule:evenodd;stroke:none" />
        <rect
           style="fill:#d5ffe6;fill-opacity:1;fill-rule:evenodd;stroke:none"
           id="rect5915"
           width="180"
           height="7"
           x="-1843.584"
           y="-741.32837" />
        <rect
           y="-789.32837"
           x="-1843.584"
           height="7"
           width="180"
           id="rect5917"
           style="fill:#d5ffe6;fill-opacity:1;fill-rule:evenodd;stroke:none" />
        <rect
           style="fill:#d5ffe6;fill-opacity:1;fill-rule:evenodd;stroke:none"
           id="rect5919"
           width="180"
           height="7"
           x="-1843.584"
           y="-801.32837" />
        <rect
           style="fill:#d5ffe6;fill-opacity:1;fill-rule:evenodd;stroke:none"
           id="rect5921"
           width="180"
           height="7"
           x="-1843.584"
           y="-813.32837" />
        <rect
           y="-825.32837"
           x="-1843.584"
           height="7"
           width="180"
           id="rect5923"
           style="fill:#d5ffe6;fill-opacity:1;fill-rule:evenodd;stroke:none" />
        <rect
           style="fill:#d5ffe6;fill-opacity:1;fill-rule:evenodd;stroke:none"
           id="rect5925"
           width="180"
           height="7"
           x="-1843.584"
           y="-849.32837" />
        <path
           sodipodi:nodetypes="ccccc"
           inkscape:connector-curvature="0"
           id="path5927"
           d="m -1578.584,-832.32838 166.1117,-10e-6 0,300 -166.1117,0 z"
           style="fill:#c87137;fill-opacity:1;fill-rule:evenodd;stroke:none" />
        <rect
           y="-622.32837"
           x="-1743.584"
           height="40"
           width="105"
           id="rect5929"
           style="fill:#ffa131;fill-opacity:1;fill-rule:evenodd;stroke:none" />
        <rect
           y="-693.32837"
           x="-1843.584"
           height="7"
           width="180"
           id="rect5931"
           style="fill:#d5ffe6;fill-opacity:1;fill-rule:evenodd;stroke:none" />
        <path
           id="path5933"
           d="m -1808.584,-712.32839 100,0 0,75 -100,0 z"
           style="fill:#666666;fill-opacity:1;fill-rule:evenodd;stroke:none"
           inkscape:connector-curvature="0" />
        <rect
           y="-702.32837"
           x="-1573.584"
           height="50"
           width="160"
           id="rect5935"
           style="fill:#502d16;fill-opacity:1;fill-rule:evenodd;stroke:none" />
        <rect
           transform="scale(-1,1)"
           y="-697.32837"
           x="1477.584"
           height="45"
           width="15"
           id="rect5937"
           style="fill:#ffcc00;fill-opacity:1;fill-rule:evenodd;stroke:none" />
        <rect
           style="fill:#502d16;fill-opacity:1;fill-rule:evenodd;stroke:none"
           id="rect5939"
           width="160"
           height="50"
           x="-1573.584"
           y="-762.32837" />
        <path
           style="fill:#ea9680;fill-opacity:1;fill-rule:evenodd;stroke:none"
           d="m -1685.0392,-579.58005 c -0.6097,9.53114 -4.8008,13.10834 -13.1021,12.57732 -6.8383,-0.43745 -12.1606,-6.40487 -13.6907,-13.17331 -1.3882,-4.05218 -1.3011,-17.58037 1.282,-20.04116 2.765,-2.32441 10.2618,0.65643 13.9175,0.8903 3.4022,0.21763 9.2403,-0.48791 11.6194,1.86122 3.426,3.38268 0.3337,12.26073 -0.026,17.88559 z"
           id="path5943"
           inkscape:connector-curvature="0"
           sodipodi:nodetypes="csccsssc" />
        <path
           sodipodi:nodetypes="cccssssc"
           inkscape:connector-curvature="0"
           id="path5945"
           d="m -1561.5749,-706.30694 c 4.3792,-8.48749 9.6527,-10.08473 17.045,-6.27064 6.2265,4.55688 9.3984,15.66221 6.9747,20.54683 -2.4507,4.74981 -4.5176,13.55874 -8.9206,14.85641 -3.4649,1.02116 -9.1382,-4.71483 -12.3936,-6.39448 -3.0297,-1.56318 -8.6609,-3.25699 -9.8989,-6.36283 -1.7827,-4.4723 4.609,-11.36632 7.1934,-16.37527 z"
           style="fill:#ea9680;fill-opacity:1;fill-rule:evenodd;stroke:none" />
        <path
           style="fill:#999999;fill-opacity:1;fill-rule:evenodd;stroke:none"
           d="m -1604.7673,-667.03075 16.9464,-7 23.0536,-28 20,25 -25,30 -20,20 z"
           id="path5947"
           inkscape:connector-curvature="0"
           sodipodi:nodetypes="ccccccc" />
        <ellipse
           sodipodi:ry="10"
           sodipodi:rx="12.5"
           sodipodi:cy="-502.03076"
           sodipodi:cx="-1614.7673"
           id="ellipse5949"
           style="fill:#552200;fill-opacity:1;fill-rule:evenodd;stroke:none"
           cx="-1614.7673"
           cy="-502.03076"
           rx="12.5"
           ry="10"
           d="m -1602.2673,-502.03076 c 0,5.52285 -5.5965,10 -12.5,10 -6.9036,0 -12.5,-4.47715 -12.5,-10 0,-5.52285 5.5964,-10 12.5,-10 6.9035,0 12.5,4.47715 12.5,10 z" />
        <ellipse
           sodipodi:ry="10"
           sodipodi:rx="12.5"
           sodipodi:cy="-502.03076"
           sodipodi:cx="-1659.7673"
           style="fill:#552200;fill-opacity:1;fill-rule:evenodd;stroke:none"
           id="ellipse5951"
           cx="-1659.7673"
           cy="-502.03076"
           rx="12.5"
           ry="10"
           d="m -1647.2673,-502.03076 c 0,5.52285 -5.5965,10 -12.5,10 -6.9036,0 -12.5,-4.47715 -12.5,-10 0,-5.52285 5.5964,-10 12.5,-10 6.9035,0 12.5,4.47715 12.5,10 z" />
        <path
           style="fill:#666666;fill-rule:evenodd;stroke:none"
           d="m -1679.7673,-567.03075 0,20 5,45 30,0 7,-45 8,45 30,0 5,-45 0,-20 -85,0"
           id="path5953"
           inkscape:connector-curvature="0"
           sodipodi:nodetypes="cccccccccc" />
        <rect
           style="fill:#d7f4ee;fill-opacity:1;fill-rule:evenodd;stroke:none"
           id="rect5955"
           width="48.902699"
           height="84.486702"
           x="-1662.0166"
           y="-668.12427" />
        <path
           style="fill:#008080;fill-opacity:1;fill-rule:evenodd;stroke:none"
           d="m -1640.4635,-657.15811 -5.7572,58.38751 8.4412,14.27334 7.3547,-14.27334 -3.1592,-52.98709"
           id="path5957"
           inkscape:connector-curvature="0"
           sodipodi:nodetypes="ccccc" />
        <path
           style="fill:#999999;fill-rule:evenodd;stroke:none"
           d="m -1662.0165,-668.12425 -31.5918,6.31835 12.6105,48.55407 0.026,20.9477 -3.1592,25.27338 44.3635,5 -0.135,-30.27338"
           id="path5959"
           inkscape:connector-curvature="0"
           sodipodi:nodetypes="ccccccc" />
        <path
           style="fill:#b3b3b3;fill-rule:evenodd;stroke:none"
           d="m -1674.6532,-649.16922 12.6367,-18.95503 22.1142,75.82012 -34.7509,-47.38757 6.3183,-3.15917 z"
           id="path5961"
           inkscape:connector-curvature="0"
           sodipodi:nodetypes="cccccc" />
        <path
           inkscape:connector-curvature="0"
           id="path5963"
           d="m -1614.629,-668.12424 31.5918,6.31835 -12.6367,69.50176 3.1591,25.27338 -47.2525,5 -1.1452,-29.89212 1.6439,-0.12872"
           style="fill:#999999;fill-rule:evenodd;stroke:none"
           sodipodi:nodetypes="ccccccc" />
        <path
           sodipodi:nodetypes="cccccc"
           inkscape:connector-curvature="0"
           id="path5965"
           d="m -1601.9923,-649.16922 -12.6367,-18.95503 -25.0184,75.94639 37.6551,-47.51384 -6.3183,-3.15917 z"
           style="fill:#808080;fill-rule:evenodd;stroke:none" />
        <path
           style="fill:#ea9680;fill-opacity:1;fill-rule:evenodd;stroke:none"
           d="m -1598.8331,-690.23845 c 0,27.04381 -11.1966,37.91006 -34.7509,37.91006 -19.4033,0 -35.5218,-15.90094 -41.0692,-34.75089 -1.1868,-4.03268 -3.1592,-3.13191 -3.1592,-7.89793 0,-15.13436 -6.2359,-39.98496 3.1592,-48.96717 7.3931,-7.06825 29.1169,0 39.4896,0 9.6536,0 26.0235,-3.04907 33.1713,3.15917 10.2926,8.93962 3.1592,34.58666 3.1592,50.54676 z"
           id="path5967"
           inkscape:connector-curvature="0"
           sodipodi:nodetypes="ssssssss" />
        <path
           style="fill:#502d16;stroke:none"
           d="m -1687.2899,-696.5568 3.1592,9.47752 3.1591,-6.31835 6.3184,9.47752 0,-9.47752 -3.1592,-6.31834 6.3183,0 -3.1591,-6.31835 3.1591,0 -3.1591,-6.31834 3.1591,0 0,-12.63669 c 0,-9.47751 3.1592,-12.63668 12.6367,-12.63668 l 53.706,0 c 5.9194,-0.39891 -2.1671,20.06244 6.3183,22.1142 l 3.1592,3.15917 -3.1592,3.15917 3.1592,3.15917 -3.1592,3.15918 3.1592,3.15917 -3.1592,3.15917 -0.7447,4.82901 0.7447,7.80768 3.1592,-6.31834 9.4775,-6.31835 -3.1592,-9.47752 6.3184,-3.15917 -3.1592,-3.15917 3.1592,-3.15917 -6.3184,-3.15917 6.3184,-6.31835 c -8.5799,-4.42172 -1.1405,-13.14215 -3.1592,-22.1142 l -3.1592,-12.63669 c -5.7863,-14.09902 -18.955,-22.11421 -37.91,-15.79586 l -41.0693,15.79586 -12.6367,6.31834 -3.1591,-3.15917 0.1908,10.5805 -9.6682,5.21536 6.3183,3.15918 0,18.95503 -6.3183,-3.15918 6.3183,12.63669 -6.3183,-3.15917 3.1592,9.47752 -6.3184,9.47751 z"
           id="path5969"
           inkscape:connector-curvature="0"
           sodipodi:nodetypes="ccccccccccccccccccccccccccccccccccccccccccccccc" />
        <path
           style="fill:#502d16;fill-opacity:1;fill-rule:evenodd;stroke:none"
           d="m -1630.7666,-710.00151 2.1828,8.79563 c 2.4122,8.44302 5.3308,8.54338 8.3321,8.54338 l 17.2231,0 c 2.8942,0 4.2463,-1.79879 4.6281,-2.88983 4.0458,-11.55934 3.982,-10.44858 5.9187,-13.34058 0.439,-0.53063 1.0169,-0.53063 1.0169,-1.1086 l 0,-8.05574 c 0,-0.61376 -0.091,-0.61376 -0.6168,-0.61376 -9.4372,3.7e-4 -22.5779,-0.80054 -31.1713,0 -2.4434,0.22761 -5.2017,0.57796 -5.7797,1.15593 -1.0092,1.00917 -1.7339,1.7339 -2.8898,1.7339 l -2.8899,0 c -1.1559,0 -1.8806,-0.72473 -2.8898,-1.7339 -0.578,-0.57797 -3.3363,-0.92832 -5.7797,-1.15593 -8.5934,-0.80054 -21.7341,3.7e-4 -31.1713,0 -0.526,0 -0.6169,0 -0.6169,0.61376 l 0,8.05574 c 0,0.57797 0.578,0.57797 1.017,1.1086 1.9367,2.892 1.8729,1.78124 5.9186,13.34058 0.3819,1.09104 1.7339,2.88983 4.6282,2.88983 l 17.2231,0 c 3.0013,0 5.9198,-0.10036 8.3321,-8.54338 l 2.1828,-8.79563 c 0.5779,-1.15593 4.6237,-1.15593 5.2017,0 z"
           id="path5973"
           inkscape:connector-curvature="0"
           sodipodi:nodetypes="ccccsccccssccssccccsccccc" />
        <path
           sodipodi:nodetypes="csccsccccc"
           inkscape:connector-curvature="0"
           id="path5975"
           d="m -1639.5623,-715.24941 c -0.5075,-0.4867 -2.9298,-0.78174 -5.0755,-0.97341 -4.9579,-0.4429 -5.7869,-0.14751 -12.1373,0 -10.4034,0 -12.7153,4.04577 -12.7153,9.82544 -0.2149,0.5648 1.6539,5.87885 3.0278,9.64292 0.3353,0.91877 1.5226,2.43354 4.0643,2.43354 l 15.1248,0 c 2.6357,0 5.1986,-0.0845 7.317,-7.19442 l 1.9169,-7.40685 c 0.3374,-2.09893 0.3374,-4.4108 -1.5227,-6.32722 z"
           style="fill:#00ffff;fill-opacity:1;fill-rule:evenodd;stroke:none" />
        <path
           style="fill:#00ffff;fill-opacity:1;fill-rule:evenodd;stroke:none"
           d="m -1626.9185,-715.32488 c 0.5076,-0.48671 2.9299,-0.78174 5.0756,-0.97342 4.9578,-0.44289 5.7868,-0.14751 12.1373,0 10.4034,0 12.7153,4.04577 12.7153,9.82544 0.2148,0.5648 -1.654,5.87885 -3.0278,9.64292 -0.3354,0.91876 -1.5227,2.43354 -4.0643,2.43354 l -15.1249,0 c -2.6356,0 -5.1986,-0.0845 -7.317,-7.19442 l -1.9168,-7.40685 c -0.3374,-2.09893 -0.3374,-4.4108 1.5226,-6.32721 z"
           id="path5977"
           inkscape:connector-curvature="0"
           sodipodi:nodetypes="csccsccccc" />
        <path
           style="fill:#000000;fill-rule:evenodd;stroke:#000000;stroke-width:3.1591723px;stroke-linecap:round;stroke-linejoin:miter;stroke-opacity:1"
           d="m -1655.811,-677.48892 c 0.093,3.36558 -0.2736,4.00633 2.0886,6.0751 1.7496,1.53215 3.7408,2.14227 7.2196,-1.56199 z"
           id="path5979"
           inkscape:connector-curvature="0"
           sodipodi:nodetypes="cscc" />
        <path
           sodipodi:end="5.3894415"
           sodipodi:start="0"
           d="m -1649.4462,-705.94659 c 0,3.12463 -1.2665,5.65765 -2.8288,5.65765 -1.5623,0 -2.8289,-2.53302 -2.8289,-5.65765 0,-3.12464 1.2666,-5.65766 2.8289,-5.65766 0.6446,0 1.2698,0.44029 1.7722,1.24795 l -1.7722,4.40971 z"
           sodipodi:ry="5.6576514"
           sodipodi:rx="2.8288257"
           sodipodi:cy="-705.94659"
           sodipodi:cx="-1652.275"
           id="path5981"
           style="fill:#000000;fill-opacity:1;stroke:#000000;stroke-width:1.13153028;stroke-miterlimit:4;stroke-opacity:1;stroke-dasharray:none"
           sodipodi:type="arc" />
        <path
           sodipodi:type="arc"
           style="fill:#000000;fill-opacity:1;stroke:#000000;stroke-width:1.13153028;stroke-miterlimit:4;stroke-opacity:1;stroke-dasharray:none"
           id="path5983"
           sodipodi:cx="-1616.7343"
           sodipodi:cy="-705.94659"
           sodipodi:rx="2.8288257"
           sodipodi:ry="5.6576514"
           d="m -1613.9054,-705.94659 c 0,3.12463 -1.2665,5.65765 -2.8289,5.65765 -1.5623,0 -2.8288,-2.53302 -2.8288,-5.65765 0,-3.12464 1.2665,-5.65766 2.8288,-5.65766 0.6446,0 1.2699,0.44029 1.7723,1.24795 l -1.7723,4.40971 z"
           sodipodi:start="0"
           sodipodi:end="5.3894415" />
        <path
           style="fill:#000000;fill-opacity:1;fill-rule:evenodd;stroke:none"
           id="path5985"
           sodipodi:type="arc"
           sodipodi:cx="-1639.9023"
           sodipodi:cy="-582.8266"
           sodipodi:rx="3.1591723"
           sodipodi:ry="3.1591723"
           sodipodi:start="0"
           sodipodi:end="5.3894371"
           d="m -1636.7432,-582.8266 c 0,1.74476 -1.4144,3.15917 -3.1591,3.15917 -1.7448,0 -3.1592,-1.41441 -3.1592,-3.15917 0,-1.74476 1.4144,-3.15917 3.1592,-3.15917 0.7198,0 1.4181,0.24584 1.9792,0.69683 l -1.9792,2.46234 z" />
        <path
           d="m -1636.7432,-573.34906 c 0,1.74476 -1.4144,3.15917 -3.1591,3.15917 -1.7448,0 -3.1592,-1.41441 -3.1592,-3.15917 0,-1.74476 1.4144,-3.15917 3.1592,-3.15917 0.7198,0 1.4181,0.24584 1.9792,0.69683 l -1.9792,2.46234 z"
           sodipodi:end="5.3894371"
           sodipodi:start="0"
           sodipodi:ry="3.1591723"
           sodipodi:rx="3.1591723"
           sodipodi:cy="-573.34906"
           sodipodi:cx="-1639.9023"
           sodipodi:type="arc"
           id="path5987"
           style="fill:#000000;fill-opacity:1;fill-rule:evenodd;stroke:none" />
        <path
           sodipodi:nodetypes="csccccc"
           inkscape:connector-curvature="0"
           id="path5989"
           d="m -1677.1236,-617.71291 c -4.5121,12.13491 -2.2625,5.22021 -2.6437,10.68216 -0.2359,3.37897 -3.3624,19.55421 -4.0549,23.67084 l -30.8601,-7.89231 8.1772,-43.78914 12.4992,-26.71684 c 26.8823,-5.95471 13.8265,14.9315 16.8823,44.04529 z"
           style="fill:#999999;fill-opacity:1;fill-rule:evenodd;stroke:none" />
        <rect
           style="fill:#000000;fill-opacity:1;fill-rule:evenodd;stroke:none"
           id="rect5991"
           width="90"
           height="65"
           x="-1803.584"
           y="-707.32837" />
        <path
           sodipodi:nodetypes="ccccc"
           inkscape:connector-curvature="0"
           id="path5993"
           d="m -1778.584,-632.32839 40,0 -15,-5 -10,0 z"
           style="fill:#1a1a1a;fill-rule:evenodd;stroke:none" />
        <rect
           y="-612.32837"
           x="-1793.584"
           height="80"
           width="40"
           id="rect5907"
           style="fill:#4d4d4d;fill-opacity:1;fill-rule:evenodd;stroke:none" />
        <rect
           y="-822.32837"
           x="-1573.584"
           height="50"
           width="160"
           id="rect6001"
           style="fill:#502d16;fill-opacity:1;fill-rule:evenodd;stroke:none" />
        <rect
           style="fill:#502d16;fill-opacity:1;fill-rule:evenodd;stroke:none"
           id="rect6003"
           width="160"
           height="50"
           x="-1573.584"
           y="-642.32837" />
        <rect
           style="fill:#87deaa;fill-opacity:1;fill-rule:evenodd;stroke:none"
           id="rect6005"
           width="15"
           height="45"
           x="-1454.584"
           y="-817.32837" />
        <rect
           y="-817.32837"
           x="-1438.584"
           height="45"
           width="15"
           id="rect6007"
           style="fill:#ff0000;fill-opacity:1;fill-rule:evenodd;stroke:none" />
        <rect
           style="fill:#ff55dd;fill-opacity:1;fill-rule:evenodd;stroke:none"
           id="rect6009"
           width="15"
           height="45"
           x="-1486.584"
           y="-817.32837" />
        <rect
           y="-817.32837"
           x="-1470.584"
           height="45"
           width="15"
           id="rect6011"
           style="fill:#800033;fill-opacity:1;fill-rule:evenodd;stroke:none" />
        <rect
           y="-757.32837"
           x="-1444.584"
           height="45"
           width="15"
           id="rect6013"
           style="fill:#87deaa;fill-opacity:1;fill-rule:evenodd;stroke:none" />
        <rect
           style="fill:#aa87de;fill-opacity:1;fill-rule:evenodd;stroke:none"
           id="rect6015"
           width="15"
           height="45"
           x="-1428.584"
           y="-757.32837" />
        <rect
           style="fill:#d45500;fill-opacity:1;fill-rule:evenodd;stroke:none"
           id="rect6017"
           width="15"
           height="45"
           x="-1626.0182"
           y="-394.23431"
           transform="matrix(0.97289244,0.23125808,-0.23125808,0.97289244,0,0)" />
        <rect
           y="-757.32837"
           x="-1476.584"
           height="45"
           width="15"
           id="rect6019"
           style="fill:#ffcc00;fill-opacity:1;fill-rule:evenodd;stroke:none" />
        <rect
           style="fill:#55ff55;fill-opacity:1;fill-rule:evenodd;stroke:none"
           id="rect6021"
           width="15"
           height="45"
           x="-1460.584"
           y="-757.32837" />
        <rect
           transform="matrix(-0.99899693,-0.0447788,-0.0447788,0.99899693,0,0)"
           style="fill:#ff0000;fill-opacity:1;fill-rule:evenodd;stroke:none"
           id="rect6023"
           width="15"
           height="45"
           x="1522.2953"
           y="-629.74835" />
        <rect
           style="fill:#80ffe6;fill-opacity:1;fill-rule:evenodd;stroke:none"
           id="rect6025"
           width="15"
           height="45"
           x="-1562.5586"
           y="-761.0423"
           transform="matrix(0.99932625,0.03670223,-0.03670223,0.99932625,0,0)" />
        <rect
           y="-817.32837"
           x="-1518.584"
           height="45"
           width="15"
           id="rect6027"
           style="fill:#00ff66;fill-opacity:1;fill-rule:evenodd;stroke:none" />
        <rect
           style="fill:#6f918a;fill-opacity:1;fill-rule:evenodd;stroke:none"
           id="rect6029"
           width="15"
           height="45"
           x="-1502.584"
           y="-817.32837" />
        <text
           sodipodi:linespacing="125%"
           id="text6031"
           y="-695.88135"
           x="-1759.3306"
           style="font-size:10px;font-style:normal;font-variant:normal;font-weight:bold;font-stretch:normal;text-align:center;line-height:125%;letter-spacing:0px;word-spacing:0px;text-anchor:middle;fill:#000000;fill-opacity:1;stroke:none;font-family:Courier New;-inkscape-font-specification:Courier New Bold"
           xml:space="preserve"><tspan
             style="font-size:10px;font-style:normal;font-variant:normal;font-weight:bold;font-stretch:normal;fill:#ffffff;font-family:Courier New;-inkscape-font-specification:Courier New Bold"
             y="-695.88135"
             x="-1759.3306"
             id="tspan6033"
             sodipodi:role="line">Hello World!_</tspan></text>
        <rect
           transform="scale(-1,1)"
           y="-697.32837"
           x="1445.584"
           height="45"
           width="15"
           id="rect6035"
           style="fill:#00ffff;fill-opacity:1;fill-rule:evenodd;stroke:none" />
        <rect
           transform="scale(-1,1)"
           style="fill:#ff6600;fill-opacity:1;fill-rule:evenodd;stroke:none"
           id="rect6037"
           width="15"
           height="45"
           x="1461.584"
           y="-697.32837" />
        <rect
           transform="scale(-1,1)"
           style="fill:#00ff66;fill-opacity:1;fill-rule:evenodd;stroke:none"
           id="rect6039"
           width="15"
           height="45"
           x="1413.584"
           y="-697.32837" />
        <rect
           transform="scale(-1,1)"
           y="-697.32837"
           x="1429.584"
           height="45"
           width="15"
           id="rect6041"
           style="fill:#a05a2c;fill-opacity:1;fill-rule:evenodd;stroke:none" />
        <rect
           style="fill:#ff7f2a;fill-opacity:1;fill-rule:evenodd;stroke:none"
           id="rect6043"
           width="15"
           height="45"
           x="1481.5839"
           y="-637.32843"
           transform="scale(-1,1)" />
        <rect
           y="-569.62946"
           x="1523.6045"
           height="45"
           width="15"
           id="rect6045"
           style="fill:#00ffff;fill-opacity:1;fill-rule:evenodd;stroke:none"
           transform="matrix(-0.99899693,-0.0447788,-0.0447788,0.99899693,0,0)" />
        <rect
           style="fill:#ff5555;fill-opacity:1;fill-rule:evenodd;stroke:none"
           id="rect6047"
           width="15"
           height="45"
           x="1449.5839"
           y="-637.32843"
           transform="scale(-1,1)" />
        <rect
           y="-637.32843"
           x="1465.5839"
           height="45"
           width="15"
           id="rect6049"
           style="fill:#ffcc00;fill-opacity:1;fill-rule:evenodd;stroke:none"
           transform="scale(-1,1)" />
        <rect
           y="-637.32843"
           x="1417.5839"
           height="45"
           width="15"
           id="rect6051"
           style="fill:#786721;fill-opacity:1;fill-rule:evenodd;stroke:none"
           transform="scale(-1,1)" />
        <rect
           style="fill:#ac9393;fill-opacity:1;fill-rule:evenodd;stroke:none"
           id="rect6053"
           width="15"
           height="45"
           x="1433.5839"
           y="-637.32843"
           transform="scale(-1,1)" />
        <path
           sodipodi:nodetypes="cccccccssscc"
           inkscape:connector-curvature="0"
           id="path6055"
           d="m -1629.3876,-907.27645 219.8634,0 0,449.00781 -439.2468,0 0,-449.00781 219.6012,0 0.6042,5.00228 c -115.1101,4.2213 -215.0184,101.12834 -215.0184,219.94578 0,121.50264 96.2588,220 215,220 118.7412,0 215,-98.49736 215,-220 0,-121.50264 -96.0802,-219.82143 -214.8214,-219.82143 z"
           style="fill:#ffffff;fill-opacity:1;fill-rule:evenodd;stroke:none" />
        <rect
           y="-607.32837"
           x="-1788.584"
           height="10"
           width="30"
           id="rect5995"
           style="fill:#808080;fill-opacity:1;fill-rule:evenodd;stroke:none" />
        <rect
           style="fill:#808080;fill-opacity:1;fill-rule:evenodd;stroke:none"
           id="rect5997"
           width="30"
           height="10"
           x="-1788.584"
           y="-592.32837" />
        <circle
           sodipodi:ry="2.5"
           sodipodi:rx="2.5"
           sodipodi:cy="-574.88531"
           sodipodi:cx="-1761.0902"
           inkscape:transform-center-y="-2.5569486"
           inkscape:transform-center-x="-2.4938141"
           r="2.5"
           cy="-574.88531"
           cx="-1761.0902"
           id="circle5999"
           style="fill:#808080;fill-opacity:1;fill-rule:evenodd;stroke:none"
           d="m -1758.5902,-574.88531 c 0,1.38071 -1.1193,2.5 -2.5,2.5 -1.3807,0 -2.5,-1.11929 -2.5,-2.5 0,-1.38072 1.1193,-2.5 2.5,-2.5 1.3807,0 2.5,1.11928 2.5,2.5 z" />
      </g>
    </g>
  </g>
</svg>
