<?xml version="1.0" encoding="UTF-8" standalone="no"?>
<!-- Created with Inkscape (http://www.inkscape.org/) -->

<svg
   xmlns:dc="http://purl.org/dc/elements/1.1/"
   xmlns:cc="http://creativecommons.org/ns#"
   xmlns:rdf="http://www.w3.org/1999/02/22-rdf-syntax-ns#"
   xmlns:svg="http://www.w3.org/2000/svg"
   xmlns="http://www.w3.org/2000/svg"
   xmlns:sodipodi="http://sodipodi.sourceforge.net/DTD/sodipodi-0.dtd"
   xmlns:inkscape="http://www.inkscape.org/namespaces/inkscape"
   width="744.09448819"
   height="1052.3622047"
   id="svg4343"
   version="1.1"
   inkscape:version="0.48.4 r9939"
   sodipodi:docname="posting.svg">
  <defs
     id="defs4345">
    <inkscape:path-effect
       effect="spiro"
       id="path-effect4824-3"
       is_visible="true" />
    <inkscape:path-effect
       effect="spiro"
       id="path-effect4830-8"
       is_visible="true" />
    <inkscape:path-effect
       is_visible="true"
       id="path-effect4788-8"
       effect="spiro" />
    <inkscape:path-effect
       effect="spiro"
       id="path-effect4806-0"
       is_visible="true" />
    <inkscape:path-effect
       effect="spiro"
       id="path-effect4778-3"
       is_visible="true" />
  </defs>
  <sodipodi:namedview
     id="base"
     pagecolor="#ffffff"
     bordercolor="#666666"
     borderopacity="1.0"
     inkscape:pageopacity="0.0"
     inkscape:pageshadow="2"
     inkscape:zoom="0.35"
     inkscape:cx="375"
     inkscape:cy="520"
     inkscape:document-units="px"
     inkscape:current-layer="layer1"
     showgrid="false"
     inkscape:window-width="472"
     inkscape:window-height="415"
     inkscape:window-x="1920"
     inkscape:window-y="24"
     inkscape:window-maximized="0" />
  <metadata
     id="metadata4348">
    <rdf:RDF>
      <cc:Work
         rdf:about="">
        <dc:format>image/svg+xml</dc:format>
        <dc:type
           rdf:resource="http://purl.org/dc/dcmitype/StillImage" />
        <dc:title></dc:title>
      </cc:Work>
    </rdf:RDF>
  </metadata>
  <g
     inkscape:label="Layer 1"
     inkscape:groupmode="layer"
     id="layer1">
    <g
       transform="translate(2390.408,755.90233)"
       id="g8789">
      <rect
         y="-416.34171"
         x="-2160.2063"
         height="438.29718"
         width="431.64859"
         id="rect4948"
         style="fill:#afe9dd;fill-opacity:1;fill-rule:evenodd;stroke:none" />
      <rect
         style="fill:#d5ffe6;fill-opacity:1;fill-rule:evenodd;stroke:none"
         id="rect4952"
         width="362.94327"
         height="16.624762"
         x="-2159.7666"
         y="-425.18689" />
      <rect
         y="-311.18851"
         x="-2159.7666"
         height="16.624762"
         width="362.94327"
         id="rect4954"
         style="fill:#d5ffe6;fill-opacity:1;fill-rule:evenodd;stroke:none" />
      <rect
         style="fill:#d5ffe6;fill-opacity:1;fill-rule:evenodd;stroke:none"
         id="rect4956"
         width="362.94327"
         height="16.624762"
         x="-2159.7666"
         y="-254.1893" />
      <path
         sodipodi:nodetypes="cccccccccc"
         inkscape:connector-curvature="0"
         id="path4960"
         d="m -2144.3168,-80.816867 399.5207,0 0,96.056634 -260.5836,0 0,-73.397189 -138.9371,0 0,-5.664856 0,-5.664867 0,-5.664866 z"
         style="fill:#c87137;fill-opacity:1;fill-rule:evenodd;stroke:none" />
      <rect
         style="fill:#d5ffe6;fill-opacity:1;fill-rule:evenodd;stroke:none"
         id="rect4964"
         width="362.94327"
         height="16.624762"
         x="-2159.7666"
         y="-282.68887" />
      <rect
         y="-396.68732"
         x="-2159.7666"
         height="16.624762"
         width="362.94327"
         id="rect4966"
         style="fill:#d5ffe6;fill-opacity:1;fill-rule:evenodd;stroke:none" />
      <rect
         y="-368.18771"
         x="-2159.7666"
         height="16.624762"
         width="362.94327"
         id="rect4968"
         style="fill:#d5ffe6;fill-opacity:1;fill-rule:evenodd;stroke:none" />
      <rect
         style="fill:#d5ffe6;fill-opacity:1;fill-rule:evenodd;stroke:none"
         id="rect4970"
         width="362.94327"
         height="16.624762"
         x="-2159.7666"
         y="-339.68814" />
      <path
         sodipodi:nodetypes="ccccc"
         inkscape:connector-curvature="0"
         id="rect4984"
         d="m -1986.8205,-57.067027 249.3714,0 0,78.99864 -249.3714,0 z"
         style="fill:#ffa131;fill-opacity:1;fill-rule:evenodd;stroke:none" />
      <rect
         y="-225.68967"
         x="-2159.7666"
         height="16.624762"
         width="362.94327"
         id="rect4986"
         style="fill:#d5ffe6;fill-opacity:1;fill-rule:evenodd;stroke:none" />
      <path
         sodipodi:nodetypes="ccccc"
         inkscape:connector-curvature="0"
         id="rect5046"
         d="m -2105.5683,-33.317447 94.9987,0 0,53.38281 -94.9987,0 z"
         style="fill:#4d4d4d;fill-opacity:1;fill-rule:evenodd;stroke:none" />
      <rect
         y="-21.442583"
         x="-2093.6938"
         height="23.74966"
         width="71.248985"
         id="rect5104"
         style="fill:#808080;fill-opacity:1;fill-rule:evenodd;stroke:none" />
      <path
         sodipodi:nodetypes="cccccccssscc"
         inkscape:connector-curvature="0"
         id="path5102"
         d="m -1944.9337,-425.1869 219.8634,0 0,449.007793 -439.2468,0 0,-449.007793 219.6012,0 0.6042,5.00228 c -115.1101,4.2213 -215.0183,101.12834 -215.0183,219.94577 0,121.502643 96.2587,219.999993 214.9999,219.999993 118.7412,0 215,-98.49735 215,-219.999993 0,-121.50263 -96.0802,-219.82142 -214.8214,-219.82142 z"
         style="fill:#ffffff;fill-opacity:1;fill-rule:evenodd;stroke:none" />
      <path
         inkscape:connector-curvature="0"
         style="fill:#666666;fill-opacity:1;fill-rule:evenodd;stroke:none"
         d="m -2073.5055,-271.01794 237.4964,0 0,178.122443 -237.4964,0 z"
         id="path5980" />
      <path
         style="fill:#1a1a1a;fill-rule:evenodd;stroke:none"
         d="m -2002.2567,-81.020667 94.9987,0 -35.6243,-11.87483 -23.7499,0 z"
         id="path5982"
         inkscape:connector-curvature="0"
         sodipodi:nodetypes="ccccc" />
      <rect
         y="-259.93448"
         x="-2061.9451"
         height="154.3728"
         width="213.74693"
         id="rect5986"
         style="fill:#afe9dd;fill-opacity:1;fill-rule:evenodd;stroke:none" />
      <rect
         style="color:#000000;fill:#ff5555;fill-opacity:1;fill-rule:evenodd;stroke:none;visibility:visible;display:inline;overflow:visible;enable-background:accumulate"
         id="rect5988"
         width="213.88121"
         height="28.853155"
         x="-2062.1235"
         y="-131.04784" />
      <path
         style="fill:#502d16;fill-rule:evenodd;stroke:none"
         d="m -1968.7656,-118.45307 0,-7.3258 12.8202,0 0,7.3258 z"
         id="path5990"
         inkscape:connector-curvature="0" />
      <path
         style="fill:#502d16;fill-rule:evenodd;stroke:none"
         d="m -1948.6195,-118.45307 0,-7.3258 12.82,0 0,7.3258 z"
         id="path5992"
         inkscape:connector-curvature="0" />
      <path
         style="fill:#484537;fill-rule:evenodd;stroke:none"
         d="m -1955.9454,-125.77887 0,-16.48306 -1.8316,0 0,-1.83144 1.8316,0 0,-5.49437 1.8313,0 0,-10.98869 3.6631,0 0,11.03318 1.8315,-0.0444 0,5.49437 1.8314,0 0,1.83144 -1.8314,0 0,16.48306 12.82,0 0,-9.15725 1.8314,-0.2557 0,-19.89026 -1.8314,0 0,-7.32581 -1.8315,0 0,-7.32579 -29.3032,0 0,7.32579 -1.8314,0 0,7.32581 -1.8315,0 0,20.14596 1.8315,0 0,9.15725 z"
         id="path5994"
         inkscape:connector-curvature="0"
         sodipodi:nodetypes="ccccccccccccccccccccccccccccccccc" />
      <path
         style="color:#000000;fill:#f2f2f2;fill-opacity:1;fill-rule:evenodd;stroke:none;visibility:visible;display:inline;overflow:visible;enable-background:accumulate"
         d="m -1965.1027,-198.0256 3.6628,0 0,-1.83146 18.3784,0 -0.064,1.83146 1.8953,0 -0.064,40.29192 -23.8088,0 z"
         id="path5996"
         inkscape:connector-curvature="0"
         sodipodi:nodetypes="ccccccccc" />
      <rect
         style="fill:#d5ffe6;fill-opacity:1;fill-rule:evenodd;stroke:none"
         id="rect6117"
         width="91.721291"
         height="4.2013307"
         x="-2061.9451"
         y="-209.51848" />
      <path
         style="fill:#808080;fill-opacity:1;fill-rule:evenodd;stroke:none"
         d="m -1965.1027,-198.0256 -7.3258,0 0,1.83144 -3.6629,0 -0.016,1.83146 -1.8221,0 0,1.83144 -1.8316,0 0,1.83146 -1.8313,0 0,3.66289 -1.8316,0 0,18.30467 -1.8314,0.01 0,3.6629 10.9888,0 0,-20.14596 1.8314,0 0,-1.83146 1.8315,0 3.6628,0 c -0.016,-3.71345 1.106,-7.36097 1.8315,-10.98869 z"
         id="path5998"
         inkscape:connector-curvature="0"
         sodipodi:nodetypes="cccccccccccccccccccccc" />
      <rect
         y="-162.07269"
         x="-1958.8402"
         height="10"
         width="15"
         id="rect6443"
         style="color:#000000;fill:#484537;fill-opacity:1;fill-rule:evenodd;stroke:none;visibility:visible;display:inline;overflow:visible;enable-background:accumulate" />
      <path
         style="fill:#999999;fill-rule:evenodd;stroke:none"
         d="m -1966.9342,-157.73368 10.9888,0 0,-29.30323 -3.663,0 0,-3.66289 -3.6629,0 0,-7.3258 -3.6629,0 0,5.49434 -1.8314,0 0,32.96612 1.8314,0 z"
         id="path6000"
         inkscape:connector-curvature="0"
         sodipodi:nodetypes="ccccccccccccc" />
      <path
         sodipodi:nodetypes="cccccccccccccccccccccc"
         inkscape:connector-curvature="0"
         id="path6002"
         d="m -1939.4625,-187.03691 7.3258,0 0,-1.83144 3.663,0 0.016,-1.83145 1.8221,0 0,-1.83146 1.8314,0 0,-1.83144 1.8315,0 0,-3.6629 1.8314,0 0,-18.30466 1.8315,-0.01 0,-3.6629 -10.9887,0 0,20.14596 -1.8314,0 0,1.83146 -1.8315,0 -3.6629,0 c 0.016,3.71345 -1.1059,7.36098 -1.8314,10.9887 z"
         style="fill:#808080;fill-opacity:1;fill-rule:evenodd;stroke:none" />
      <path
         inkscape:connector-curvature="0"
         id="path6004"
         d="m -1937.631,-157.73368 -10.9885,0 0,-29.30323 3.6628,0 0,-3.66289 3.6629,0 0,-7.3258 3.6629,0 0,5.49434 1.8315,0 0,32.96612 -1.8315,0 z"
         style="fill:#999999;fill-rule:evenodd;stroke:none"
         sodipodi:nodetypes="ccccccccccccc" />
      <rect
         style="color:#000000;fill:#000000;fill-opacity:1;fill-rule:evenodd;stroke:none;visibility:visible;display:inline;overflow:visible;enable-background:accumulate"
         id="rect6006"
         width="5.4943528"
         height="5.4943528"
         x="-1955.9456"
         y="-199.85709" />
      <rect
         style="color:#000000;fill:#000000;fill-opacity:1;fill-rule:evenodd;stroke:none;visibility:visible;display:inline;overflow:visible;enable-background:accumulate"
         id="rect6008"
         width="1.8314507"
         height="32.966118"
         x="-1954.1143"
         y="-198.0256" />
      <rect
         style="color:#000000;fill:#000000;fill-opacity:1;fill-rule:evenodd;stroke:none;visibility:visible;display:inline;overflow:visible;enable-background:accumulate"
         id="rect6010"
         width="5.4943528"
         height="20.145958"
         x="-1955.9456"
         y="-187.0369" />
      <path
         style="color:#000000;fill:#ea9680;fill-opacity:1;fill-rule:evenodd;stroke:none;visibility:visible;display:inline;overflow:visible;enable-background:accumulate"
         d="m -1961.4399,-218.17156 18.3146,0 0,16.48305 -1.8315,0 0,3.66291 -1.7625,0 -0.069,1.83144 -9.1572,0 0,-1.83144 -3.6629,0 0,-3.56519 -1.8316,-0.0978 z"
         id="path6012"
         inkscape:connector-curvature="0"
         sodipodi:nodetypes="ccccccccccccc" />
      <path
         style="fill:#502d16;fill-opacity:1;fill-rule:evenodd;stroke:none"
         d="m -1959.6084,-212.67722 0,3.66291 1.8314,0 3.6629,0 0,1.83146 -3.6629,0 0,-7.32581 3.6629,0 0,5.49435 1.8316,0 0,-1.83145 1.8315,0 0,1.83145 1.8315,0 0,1.83146 3.6628,0 0,-7.32581 1.8315,0 0,5.49435 -5.4943,0 0,-5.49435 -10.9889,0 z"
         id="path6014"
         inkscape:connector-curvature="0" />
      <rect
         style="color:#000000;fill:#502d16;fill-opacity:1;fill-rule:evenodd;stroke:none;visibility:visible;display:inline;overflow:visible;enable-background:accumulate"
         id="rect6016"
         width="16.849348"
         height="1.8314507"
         x="-1961.4399"
         y="-214.50867" />
      <rect
         style="color:#000000;fill:#000000;fill-opacity:1;fill-rule:evenodd;stroke:none;visibility:visible;display:inline;overflow:visible;enable-background:accumulate"
         id="rect6018"
         width="1.8314507"
         height="1.8314507"
         x="-1955.9456"
         y="-210.84579" />
      <rect
         style="color:#000000;fill:#000000;fill-opacity:1;fill-rule:evenodd;stroke:none;visibility:visible;display:inline;overflow:visible;enable-background:accumulate"
         id="rect6020"
         width="1.8314507"
         height="1.8314507"
         x="-1946.7883"
         y="-210.84579" />
      <path
         style="fill:#000000;fill-rule:evenodd;stroke:none"
         d="m -1957.777,-203.51997 0,1.83146 5.4945,0 0,1.83145 -3.6629,0 0,-3.66291 z"
         id="path6022"
         inkscape:connector-curvature="0" />
      <path
         style="fill:#ea9680;fill-opacity:1;fill-rule:evenodd;stroke:none"
         d="m -1983.4173,-165.05949 c 0,0 0,3.66291 0,3.66291 l 1.8316,0 c 0,0 0,1.83144 0,1.83144 l 5.4943,0 0,-1.83144 1.8315,0 0,-3.66291 z"
         id="path6024"
         inkscape:connector-curvature="0" />
      <path
         inkscape:connector-curvature="0"
         id="path6026"
         d="m -1921.1479,-220.00302 c 0,0 0,-3.66291 0,-3.66291 l -1.8316,0 c 0,0 0,-1.83144 0,-1.83144 l -5.4943,0 0,1.83144 -1.8315,0 0,3.66291 z"
         style="fill:#ea9680;fill-opacity:1;fill-rule:evenodd;stroke:none" />
      <path
         style="fill:#502d16;fill-opacity:1;fill-rule:evenodd;stroke:none"
         d="m -1961.4399,-203.51997 -1.8314,0 0,-3.66288 -1.8314,0 0,-1.83146 1.8314,0 0,-1.83145 -1.8314,0 0,-1.83146 1.8314,0 0,-1.83144 -1.8314,0 0,-3.6629 -1.8315,0 0,1.83144 3.6629,0 0,-1.83144 -1.8314,0 0,-3.66291 1.8314,0 0,-1.83146 1.8314,0 0,1.83146 1.8315,0 0,-1.83146 1.8314,0 0,1.83146 1.8316,0 0,-1.83146 1.8313,0 0,0 1.8316,0 0,-1.83144 1.8315,0 0,1.83144 1.8315,0 0,-1.83144 1.8314,0 0,-1.83145 3.6629,0 0,1.83145 1.8314,0 0,7.32581 -1.8314,0 0,1.83144 -1.8315,0 0,-1.83144 -1.8061,0 -0.024,1.83144 -1.8315,0 0,-1.83144 -10.9886,0 0.067,1.83144 -1.8987,0 z"
         id="path6028"
         inkscape:connector-curvature="0"
         sodipodi:nodetypes="ccccccccccccccccccccccccccccccccccccccccccccccccccccccc" />
      <rect
         style="color:#000000;fill:#502d16;fill-opacity:1;fill-rule:evenodd;stroke:none;visibility:visible;display:inline;overflow:visible;enable-background:accumulate"
         id="rect6030"
         width="1.8314507"
         height="1.8314507"
         x="-1946.7883"
         y="-176.04819" />
      <rect
         y="-172.38531"
         x="-1946.7883"
         height="1.8314507"
         width="1.8314507"
         id="rect6032"
         style="color:#000000;fill:#502d16;fill-opacity:1;fill-rule:evenodd;stroke:none;visibility:visible;display:inline;overflow:visible;enable-background:accumulate" />
      <rect
         style="color:#000000;fill:#502d16;fill-opacity:1;fill-rule:evenodd;stroke:none;visibility:visible;display:inline;overflow:visible;enable-background:accumulate"
         id="rect6034"
         width="1.8314507"
         height="1.8314507"
         x="-1946.7883"
         y="-168.72234" />
      <rect
         y="-165.05948"
         x="-1946.7883"
         height="1.8314507"
         width="1.8314507"
         id="rect6036"
         style="color:#000000;fill:#502d16;fill-opacity:1;fill-rule:evenodd;stroke:none;visibility:visible;display:inline;overflow:visible;enable-background:accumulate" />
      <rect
         style="color:#000000;fill:#502d16;fill-opacity:1;fill-rule:evenodd;stroke:none;visibility:visible;display:inline;overflow:visible;enable-background:accumulate"
         id="rect6038"
         width="1.8314507"
         height="1.8314507"
         x="-1946.7883"
         y="-161.39661" />
      <path
         style="color:#000000;fill:#c87137;fill-opacity:1;fill-rule:evenodd;stroke:none;visibility:visible;display:inline;overflow:visible;enable-background:accumulate"
         d="m -2062.226,-169.20858 88.1648,0 0,44.08239 -55.5111,0 0,-40.81703 -32.6537,0 z"
         id="path6040"
         inkscape:connector-curvature="0"
         sodipodi:nodetypes="ccccccc" />
      <rect
         style="color:#000000;fill:#ffa131;fill-opacity:1;fill-rule:evenodd;stroke:none;visibility:visible;display:inline;overflow:visible;enable-background:accumulate"
         id="rect6042"
         width="45.715069"
         height="13.061448"
         x="-2024.6743"
         y="-161.04517" />
      <rect
         y="-144.71835"
         x="-2024.6743"
         height="13.061448"
         width="45.715069"
         id="rect6044"
         style="color:#000000;fill:#ffa131;fill-opacity:1;fill-rule:evenodd;stroke:none;visibility:visible;display:inline;overflow:visible;enable-background:accumulate" />
      <rect
         style="color:#000000;fill:#4d4d4d;fill-opacity:1;fill-rule:evenodd;stroke:none;visibility:visible;display:inline;overflow:visible;enable-background:accumulate"
         id="rect6046"
         width="13.061448"
         height="32.653622"
         x="-2045.8992"
         y="-157.7798" />
      <rect
         style="color:#000000;fill:#918a6f;fill-opacity:1;fill-rule:evenodd;stroke:none;visibility:visible;display:inline;overflow:visible;enable-background:accumulate"
         id="rect6048"
         width="9.7960863"
         height="3.265362"
         x="-2044.2666"
         y="-154.51445" />
      <rect
         y="-149.61639"
         x="-2044.2666"
         height="3.265362"
         width="9.7960863"
         id="rect6050"
         style="color:#000000;fill:#918a6f;fill-opacity:1;fill-rule:evenodd;stroke:none;visibility:visible;display:inline;overflow:visible;enable-background:accumulate" />
      <path
         sodipodi:nodetypes="ccccc"
         inkscape:connector-curvature="0"
         id="path6052"
         d="m -1917.4798,-257.52371 69.2135,-1e-5 0,131.71112 -69.2135,0 z"
         style="fill:#c87137;fill-opacity:1;fill-rule:evenodd;stroke:none" />
      <rect
         y="-200.44884"
         x="-1912.3826"
         height="21.951851"
         width="63.653103"
         id="rect6054"
         style="fill:#502d16;fill-opacity:1;fill-rule:evenodd;stroke:none" />
      <rect
         transform="scale(-1,1)"
         y="-198.25374"
         x="1875.3965"
         height="19.756668"
         width="6.2500196"
         id="rect6056"
         style="fill:#ffcc00;fill-opacity:1;fill-rule:evenodd;stroke:none" />
      <rect
         style="fill:#502d16;fill-opacity:1;fill-rule:evenodd;stroke:none"
         id="rect6058"
         width="63.653103"
         height="21.951851"
         x="-1912.3826"
         y="-226.79108" />
      <rect
         y="-253.1333"
         x="-1912.3826"
         height="21.951851"
         width="63.653103"
         id="rect6060"
         style="fill:#502d16;fill-opacity:1;fill-rule:evenodd;stroke:none" />
      <rect
         style="fill:#502d16;fill-opacity:1;fill-rule:evenodd;stroke:none"
         id="rect6062"
         width="63.653103"
         height="21.951851"
         x="-1912.3826"
         y="-174.10661" />
      <rect
         style="fill:#87deaa;fill-opacity:1;fill-rule:evenodd;stroke:none"
         id="rect6064"
         width="6.2500196"
         height="19.756668"
         x="-1865.8132"
         y="-250.93808" />
      <rect
         y="-250.93808"
         x="-1859.1465"
         height="19.756668"
         width="6.2500196"
         id="rect6066"
         style="fill:#ff0000;fill-opacity:1;fill-rule:evenodd;stroke:none" />
      <rect
         style="fill:#ff55dd;fill-opacity:1;fill-rule:evenodd;stroke:none"
         id="rect6068"
         width="6.2500196"
         height="19.756668"
         x="-1879.146"
         y="-250.93808" />
      <rect
         y="-250.93808"
         x="-1872.4797"
         height="19.756668"
         width="6.2500196"
         id="rect6070"
         style="fill:#800033;fill-opacity:1;fill-rule:evenodd;stroke:none" />
      <rect
         y="-224.59586"
         x="-1861.6465"
         height="19.756668"
         width="6.2500196"
         id="rect6072"
         style="fill:#87deaa;fill-opacity:1;fill-rule:evenodd;stroke:none" />
      <rect
         style="fill:#aa87de;fill-opacity:1;fill-rule:evenodd;stroke:none"
         id="rect6074"
         width="6.2500196"
         height="19.756668"
         x="-1854.98"
         y="-224.59586" />
      <rect
         y="-224.59586"
         x="-1874.98"
         height="19.756668"
         width="6.2500196"
         id="rect6076"
         style="fill:#ffcc00;fill-opacity:1;fill-rule:evenodd;stroke:none" />
      <rect
         style="fill:#55ff55;fill-opacity:1;fill-rule:evenodd;stroke:none"
         id="rect6078"
         width="6.2500196"
         height="19.756668"
         x="-1868.3137"
         y="-224.59586" />
      <rect
         y="-250.93808"
         x="-1892.4797"
         height="19.756668"
         width="6.2500196"
         id="rect6080"
         style="fill:#00ff66;fill-opacity:1;fill-rule:evenodd;stroke:none" />
      <rect
         style="fill:#6f918a;fill-opacity:1;fill-rule:evenodd;stroke:none"
         id="rect6082"
         width="6.2500196"
         height="19.756668"
         x="-1885.8132"
         y="-250.93808" />
      <rect
         transform="scale(-1,1)"
         y="-198.25374"
         x="1862.0627"
         height="19.756668"
         width="6.2500196"
         id="rect6084"
         style="fill:#00ffff;fill-opacity:1;fill-rule:evenodd;stroke:none" />
      <rect
         transform="scale(-1,1)"
         style="fill:#ff6600;fill-opacity:1;fill-rule:evenodd;stroke:none"
         id="rect6086"
         width="6.2500196"
         height="19.756668"
         x="1868.7302"
         y="-198.25374" />
      <rect
         transform="scale(-1,1)"
         style="fill:#00ff66;fill-opacity:1;fill-rule:evenodd;stroke:none"
         id="rect6088"
         width="6.2500196"
         height="19.756668"
         x="1848.7297"
         y="-198.25374" />
      <rect
         transform="scale(-1,1)"
         y="-198.25374"
         x="1855.3965"
         height="19.756668"
         width="6.2500196"
         id="rect6090"
         style="fill:#a05a2c;fill-opacity:1;fill-rule:evenodd;stroke:none" />
      <rect
         style="fill:#ff7f2a;fill-opacity:1;fill-rule:evenodd;stroke:none"
         id="rect6092"
         width="6.2500196"
         height="19.756668"
         x="1877.0635"
         y="-171.9115"
         transform="scale(-1,1)" />
      <rect
         style="fill:#ff5555;fill-opacity:1;fill-rule:evenodd;stroke:none"
         id="rect6094"
         width="6.2500196"
         height="19.756668"
         x="1863.73"
         y="-171.9115"
         transform="scale(-1,1)" />
      <rect
         y="-171.9115"
         x="1870.3962"
         height="19.756668"
         width="6.2500196"
         id="rect6096"
         style="fill:#ffcc00;fill-opacity:1;fill-rule:evenodd;stroke:none"
         transform="scale(-1,1)" />
      <rect
         y="-171.9115"
         x="1850.3965"
         height="19.756668"
         width="6.2500196"
         id="rect6098"
         style="fill:#786721;fill-opacity:1;fill-rule:evenodd;stroke:none"
         transform="scale(-1,1)" />
      <rect
         style="fill:#ac9393;fill-opacity:1;fill-rule:evenodd;stroke:none"
         id="rect6100"
         width="6.2500196"
         height="19.756668"
         x="1857.063"
         y="-171.9115"
         transform="scale(-1,1)" />
      <rect
         y="-259.93448"
         x="-2061.9451"
         height="4.2013307"
         width="91.721291"
         id="rect6103"
         style="fill:#d5ffe6;fill-opacity:1;fill-rule:evenodd;stroke:none" />
      <rect
         style="fill:#d5ffe6;fill-opacity:1;fill-rule:evenodd;stroke:none"
         id="rect6105"
         width="91.721291"
         height="4.2013307"
         x="-2061.9451"
         y="-231.12534" />
      <rect
         y="-216.72076"
         x="-2061.9451"
         height="4.2013307"
         width="91.721291"
         id="rect6107"
         style="fill:#d5ffe6;fill-opacity:1;fill-rule:evenodd;stroke:none" />
      <rect
         y="-223.92307"
         x="-2061.9451"
         height="4.2013307"
         width="91.721291"
         id="rect6109"
         style="fill:#d5ffe6;fill-opacity:1;fill-rule:evenodd;stroke:none" />
      <rect
         style="fill:#d5ffe6;fill-opacity:1;fill-rule:evenodd;stroke:none"
         id="rect6111"
         width="91.721291"
         height="4.2013307"
         x="-2061.9451"
         y="-252.73221" />
      <rect
         style="fill:#d5ffe6;fill-opacity:1;fill-rule:evenodd;stroke:none"
         id="rect6113"
         width="91.721291"
         height="4.2013307"
         x="-2061.9451"
         y="-245.52991" />
      <rect
         y="-238.32764"
         x="-2061.9451"
         height="4.2013307"
         width="91.721291"
         id="rect6115"
         style="fill:#d5ffe6;fill-opacity:1;fill-rule:evenodd;stroke:none" />
      <rect
         y="-197.23296"
         x="-2046.5146"
         height="25"
         width="35"
         id="rect6183"
         style="color:#000000;fill:#666666;fill-opacity:1;fill-rule:evenodd;stroke:none;visibility:visible;display:inline;overflow:visible;enable-background:accumulate" />
      <rect
         y="-195.23296"
         x="-2044.5146"
         height="21"
         width="31"
         id="rect6185"
         style="color:#000000;fill:#afe9dd;fill-opacity:1;fill-rule:evenodd;stroke:none;visibility:visible;display:inline;overflow:visible;enable-background:accumulate" />
      <path
         sodipodi:nodetypes="ccccccccc"
         inkscape:connector-curvature="0"
         id="rect6187"
         d="m -2033.5146,-171.23296 0,-1 11,0 0,1 3,0 0,2 -17,0 0,-2 z"
         style="color:#000000;fill:#1a1a1a;fill-opacity:1;fill-rule:evenodd;stroke:none;visibility:visible;display:inline;overflow:visible;enable-background:accumulate" />
      <rect
         y="-180.23296"
         x="-2044.5146"
         height="6"
         width="31"
         id="rect6190"
         style="color:#000000;fill:#ff5555;fill-opacity:1;fill-rule:evenodd;stroke:none;visibility:visible;display:inline;overflow:visible;enable-background:accumulate" />
      <rect
         y="-183.23296"
         x="-2044.5146"
         height="1"
         width="13"
         id="rect6192"
         style="color:#000000;fill:#c87137;fill-opacity:1;fill-rule:evenodd;stroke:none;visibility:visible;display:inline;overflow:visible;enable-background:accumulate" />
      <rect
         y="-182.23296"
         x="-2037.5146"
         height="5"
         width="6"
         id="rect6194"
         style="color:#000000;fill:#c87137;fill-opacity:1;fill-rule:evenodd;stroke:none;visibility:visible;display:inline;overflow:visible;enable-background:accumulate" />
      <rect
         y="-182.23296"
         x="-2036.5146"
         height="2"
         width="4"
         id="rect6196"
         style="color:#000000;fill:#ffa131;fill-opacity:1;fill-rule:evenodd;stroke:none;visibility:visible;display:inline;overflow:visible;enable-background:accumulate" />
      <rect
         style="color:#000000;fill:#ffa131;fill-opacity:1;fill-rule:evenodd;stroke:none;visibility:visible;display:inline;overflow:visible;enable-background:accumulate"
         id="rect6198"
         width="4"
         height="1"
         x="-2036.5146"
         y="-179.23296" />
      <rect
         y="-195.23296"
         x="-2044.5146"
         height="8"
         width="13"
         id="rect6200"
         style="color:#000000;fill:#d5ffe6;fill-opacity:1;fill-rule:evenodd;stroke:none;visibility:visible;display:inline;overflow:visible;enable-background:accumulate" />
      <rect
         y="-187.23296"
         x="-2030.5146"
         height="7"
         width="5"
         id="rect6202"
         style="color:#000000;fill:#999999;fill-opacity:1;fill-rule:evenodd;stroke:none;visibility:visible;display:inline;overflow:visible;enable-background:accumulate" />
      <rect
         y="-190.23296"
         x="-2029.5146"
         height="3"
         width="3"
         id="rect6204"
         style="color:#000000;fill:#ea9680;fill-opacity:1;fill-rule:evenodd;stroke:none;visibility:visible;display:inline;overflow:visible;enable-background:accumulate" />
      <rect
         y="-187.23296"
         x="-2040.5146"
         height="4"
         width="5"
         id="rect6206"
         style="color:#000000;fill:#666666;fill-opacity:1;fill-rule:evenodd;stroke:none;visibility:visible;display:inline;overflow:visible;enable-background:accumulate" />
      <rect
         y="-181.23296"
         x="-2040.5146"
         height="4"
         width="2"
         id="rect6208"
         style="color:#000000;fill:#666666;fill-opacity:1;fill-rule:evenodd;stroke:none;visibility:visible;display:inline;overflow:visible;enable-background:accumulate" />
      <rect
         y="-186.23296"
         x="-2039.5146"
         height="2"
         width="3"
         id="rect6210"
         style="color:#000000;fill:#afe9dd;fill-opacity:1;fill-rule:evenodd;stroke:none;visibility:visible;display:inline;overflow:visible;enable-background:accumulate" />
      <rect
         y="-185.23296"
         x="-2039.5146"
         height="1"
         width="3"
         id="rect6212"
         style="color:#000000;fill:#ff5555;fill-opacity:1;fill-rule:evenodd;stroke:none;visibility:visible;display:inline;overflow:visible;enable-background:accumulate" />
      <rect
         y="-192.23296"
         x="-2022.5146"
         height="14"
         width="9"
         id="rect6214"
         style="color:#000000;fill:#c87137;fill-opacity:1;fill-rule:evenodd;stroke:none;visibility:visible;display:inline;overflow:visible;enable-background:accumulate" />
      <rect
         y="-182.23296"
         x="-2020.5146"
         height="2"
         width="7"
         id="rect6216"
         style="color:#000000;fill:#502d16;fill-opacity:1;fill-rule:evenodd;stroke:none;visibility:visible;display:inline;overflow:visible;enable-background:accumulate" />
      <rect
         style="color:#000000;fill:#502d16;fill-opacity:1;fill-rule:evenodd;stroke:none;visibility:visible;display:inline;overflow:visible;enable-background:accumulate"
         id="rect6218"
         width="7"
         height="2"
         x="-2020.5146"
         y="-185.23296" />
      <rect
         y="-188.23296"
         x="-2020.5146"
         height="2"
         width="7"
         id="rect6220"
         style="color:#000000;fill:#502d16;fill-opacity:1;fill-rule:evenodd;stroke:none;visibility:visible;display:inline;overflow:visible;enable-background:accumulate" />
      <rect
         style="color:#000000;fill:#502d16;fill-opacity:1;fill-rule:evenodd;stroke:none;visibility:visible;display:inline;overflow:visible;enable-background:accumulate"
         id="rect6222"
         width="7"
         height="2"
         x="-2020.5146"
         y="-191.23296" />
      <path
         sodipodi:nodetypes="ccccccccc"
         inkscape:connector-curvature="0"
         id="rect6224"
         d="m -2030.5146,-182.23296 5,0 0,4 -2,0 0,-2 -1,0 0,2 -2,0 z"
         style="color:#000000;fill:#484537;fill-opacity:1;fill-rule:evenodd;stroke:none;visibility:visible;display:inline;overflow:visible;enable-background:accumulate" />
      <rect
         y="-178.23296"
         x="-2030.5146"
         height="1"
         width="2"
         id="rect6227"
         style="color:#000000;fill:#aa4400;fill-opacity:1;fill-rule:evenodd;stroke:none;visibility:visible;display:inline;overflow:visible;enable-background:accumulate" />
      <rect
         style="color:#000000;fill:#aa4400;fill-opacity:1;fill-rule:evenodd;stroke:none;visibility:visible;display:inline;overflow:visible;enable-background:accumulate"
         id="rect6229"
         width="2"
         height="1"
         x="-2027.5146"
         y="-178.23296" />
    </g>
  </g>
</svg>
