<?xml version="1.0" encoding="UTF-8" standalone="no"?>
<!-- Created with Inkscape (http://www.inkscape.org/) -->

<svg
   xmlns:dc="http://purl.org/dc/elements/1.1/"
   xmlns:cc="http://creativecommons.org/ns#"
   xmlns:rdf="http://www.w3.org/1999/02/22-rdf-syntax-ns#"
   xmlns:svg="http://www.w3.org/2000/svg"
   xmlns="http://www.w3.org/2000/svg"
   xmlns:sodipodi="http://sodipodi.sourceforge.net/DTD/sodipodi-0.dtd"
   xmlns:inkscape="http://www.inkscape.org/namespaces/inkscape"
   width="744.09448819"
   height="1052.3622047"
   id="svg4343"
   version="1.1"
   inkscape:version="0.48.4 r9939"
   sodipodi:docname="New document 4">
  <defs
     id="defs4345" />
  <sodipodi:namedview
     id="base"
     pagecolor="#ffffff"
     bordercolor="#666666"
     borderopacity="1.0"
     inkscape:pageopacity="0.0"
     inkscape:pageshadow="2"
     inkscape:zoom="0.35"
     inkscape:cx="375"
     inkscape:cy="520"
     inkscape:document-units="px"
     inkscape:current-layer="layer1"
     showgrid="false"
     inkscape:window-width="472"
     inkscape:window-height="415"
     inkscape:window-x="1920"
     inkscape:window-y="24"
     inkscape:window-maximized="0" />
  <metadata
     id="metadata4348">
    <rdf:RDF>
      <cc:Work
         rdf:about="">
        <dc:format>image/svg+xml</dc:format>
        <dc:type
           rdf:resource="http://purl.org/dc/dcmitype/StillImage" />
        <dc:title></dc:title>
      </cc:Work>
    </rdf:RDF>
  </metadata>
  <g
     inkscape:label="Layer 1"
     inkscape:groupmode="layer"
     id="layer1">
    <g
       transform="translate(3476.2328,1183.2223)"
       id="g5954">
      <g
         id="g5105">
        <rect
           style="color:#000000;fill:#afe9dd;fill-opacity:1;fill-rule:evenodd;stroke:none;visibility:visible;display:inline;overflow:visible;enable-background:accumulate"
           id="rect5443"
           width="435.71649"
           height="336.04279"
           x="-3310.2556"
           y="-920.20636" />
        <rect
           style="color:#000000;fill:#37c837;fill-opacity:1;fill-rule:evenodd;stroke:none;visibility:visible;display:inline;overflow:visible;enable-background:accumulate"
           id="rect5441"
           width="414.69757"
           height="123.40555"
           x="-3300.7627"
           y="-599.35193" />
        <path
           style="color:#000000;fill:#ffff00;fill-opacity:1;fill-rule:evenodd;stroke:none;visibility:visible;display:inline;overflow:visible;enable-background:accumulate"
           d="m -2890.8443,-886.61159 c 0,33.13708 -26.8629,60 -60,60 -33.1371,0 -60,-26.86292 -60,-60 0,-9.69375 2.2988,-18.85058 6.3811,-26.95506"
           id="path4818"
           inkscape:connector-curvature="0"
           sodipodi:nodetypes="cssc" />
        <rect
           style="color:#000000;fill:#803300;fill-opacity:1;fill-rule:evenodd;stroke:#803300;stroke-width:2.27959275;stroke-linecap:round;stroke-linejoin:miter;stroke-miterlimit:4;stroke-opacity:1;stroke-dasharray:none;stroke-dashoffset:0;visibility:visible;display:inline;overflow:visible;enable-background:accumulate"
           id="rect4831"
           width="7.2131891"
           height="59.508808"
           x="-2921.8994"
           y="-656.12732" />
        <rect
           y="-619.72375"
           x="-2931.4185"
           height="7.4032245"
           width="54.863461"
           id="rect4827"
           style="color:#000000;fill:#d45500;fill-opacity:1;fill-rule:evenodd;stroke:none;visibility:visible;display:inline;overflow:visible;enable-background:accumulate" />
        <rect
           style="color:#000000;fill:#aa4400;fill-opacity:1;fill-rule:evenodd;stroke:none;visibility:visible;display:inline;overflow:visible;enable-background:accumulate"
           id="rect4825"
           width="55.224121"
           height="11.731138"
           x="-2931.4185"
           y="-633.40131" />
        <rect
           y="-647.07886"
           x="-2931.4185"
           height="11.731138"
           width="54.502796"
           id="rect4823"
           style="color:#000000;fill:#aa4400;fill-opacity:1;fill-rule:evenodd;stroke:none;visibility:visible;display:inline;overflow:visible;enable-background:accumulate" />
        <rect
           style="color:#000000;fill:#aa4400;fill-opacity:1;fill-rule:evenodd;stroke:none;visibility:visible;display:inline;overflow:visible;enable-background:accumulate"
           id="rect4821"
           width="54.502796"
           height="11.731138"
           x="-2931.4185"
           y="-660.75641" />
        <path
           sodipodi:nodetypes="cccccccssscc"
           inkscape:connector-curvature="0"
           id="path4665"
           d="m -3091.91,-921.07828 219.8634,0 0,449.00781 -439.2468,0 0,-449.0078 219.6012,0 0.6042,5.00228 c -115.1101,4.2213 -215.0184,101.12833 -215.0184,219.94577 0,121.50264 96.2588,220 215,220 118.7412,0 215,-98.49736 215,-220 0,-121.50264 -96.0802,-219.82142 -214.8214,-219.82142 z"
           style="fill:#ffffff;fill-opacity:1;fill-rule:evenodd;stroke:none" />
        <path
           style="color:#000000;fill:#00ff00;fill-opacity:1;fill-rule:evenodd;stroke:none;visibility:visible;display:inline;overflow:visible;enable-background:accumulate"
           d="m -3130.7284,-764.27113 c 0,7.68563 -0.9351,15.15199 -2.6973,22.29066 -0.7706,3.12171 -10.7175,3.33293 -11.7954,6.32024 -1.2273,3.40113 6.3703,9.55709 4.7698,12.75887 -15.1135,30.2337 -46.2758,50.98359 -82.2653,50.98361 -21.9237,10e-6 -42.0561,-7.70002 -57.8605,-20.55333 -2.7272,-2.21798 0.8447,-12.18359 -1.6117,-14.69539 -2.1577,-2.20633 -10.3762,3.07322 -12.3061,0.65916 -12.6449,-15.81748 -20.2099,-35.90369 -20.2099,-57.76382 0,-12.01222 2.2843,-23.4888 6.4405,-34.01579 1.4052,-3.55908 7.3874,-2.31094 9.2046,-5.63693 1.2153,-2.22437 -1.8438,-9.0917 -0.4561,-11.19987 16.4597,-25.00543 44.7107,-41.5008 76.7992,-41.50079 26.4247,10e-6 50.247,11.18623 67.0252,29.09929 2.2517,2.40397 -1.9425,10.64971 -1.9425,10.64971 1.5358,2.03683 11.2956,1.05444 12.6621,3.21815 9.0204,14.28317 14.2434,31.22233 14.2434,49.38623 z"
           id="path4782"
           inkscape:connector-curvature="0"
           sodipodi:nodetypes="sscssscssscssscss" />
        <g
           id="g4834"
           transform="translate(-1128.343,-739.95949)">
          <path
             sodipodi:nodetypes="ccccccc"
             inkscape:connector-curvature="0"
             id="path5455"
             d="m -1971.9141,156.75979 c -8.5213,-1.38799 -7.0981,-4.98587 -8.0549,-8.05485 l 10.4042,-80.212901 c 2.1256,-19.913384 78.6579,-22.8858 84.9116,-0.671238 l 7.3836,76.856719 c -1.7042,4.68562 1.1696,11.66022 -10.4042,11.41104 z"
             style="fill:#502d16;fill-rule:evenodd;stroke:none" />
          <ellipse
             sodipodi:ry="11.264124"
             sodipodi:rx="13.478688"
             sodipodi:cy="237.15215"
             sodipodi:cx="-1969.2598"
             transform="matrix(1,0,0.28915387,0.95728263,0,0)"
             id="ellipse5002"
             style="fill:#ff0000;fill-opacity:1;fill-rule:evenodd;stroke:none"
             cx="-1969.2598"
             cy="237.15215"
             rx="13.478688"
             ry="11.264124"
             d="m -1955.7811,237.15215 c 0,6.221 -6.0346,11.26412 -13.4787,11.26412 -7.444,0 -13.4787,-5.04312 -13.4787,-11.26412 0,-6.22101 6.0347,-11.26413 13.4787,-11.26413 7.4441,0 13.4787,5.04312 13.4787,11.26413 z" />
          <ellipse
             sodipodi:ry="10"
             sodipodi:rx="12.5"
             sodipodi:cy="215.49887"
             sodipodi:cx="-1947.3644"
             style="fill:#ff0000;fill-opacity:1;fill-rule:evenodd;stroke:none"
             id="ellipse5004"
             cx="-1947.3644"
             cy="215.49887"
             rx="12.5"
             ry="10"
             d="m -1934.8644,215.49887 c 0,5.52285 -5.5964,10 -12.5,10 -6.9035,0 -12.5,-4.47715 -12.5,-10 0,-5.52285 5.5965,-10 12.5,-10 6.9036,0 12.5,4.47715 12.5,10 z" />
          <path
             style="fill:#006680;fill-rule:evenodd;stroke:none"
             d="m -1965.0485,160.75196 0,20 2.4767,18.86285 2.8589,17.41107 26.6438,1.67809 5.5038,-18.87856 4.5168,-19.07345 10.4707,19.33675 -2.4707,25.66325 30,0 6.0421,-24.17316 -1.0421,-20.82684 0,-20 -85,0"
             id="path5006"
             inkscape:connector-curvature="0"
             sodipodi:nodetypes="cccccccccccccc" />
          <path
             sodipodi:nodetypes="ccccccccccccc"
             style="fill:none;stroke:#a05a2c;stroke-width:1.02212393;stroke-linecap:butt;stroke-linejoin:miter;stroke-miterlimit:4;stroke-opacity:1;stroke-dasharray:none"
             d="m -1854.1834,204.49915 -27.2566,0 -1.4602,-1.46018 1.4602,-28.23009 2.4336,-14.60177 24.3363,-12.16814 2.4336,0 24.3363,12.16814 0.9734,0.97345 0.9735,14.60177 0,27.25664 -0.9735,1.46018 z"
             id="path4708"
             inkscape:connector-curvature="0" />
          <path
             sodipodi:nodetypes="csssssssssc"
             inkscape:connector-curvature="0"
             id="path5462"
             d="m -1851.8718,153.12887 c 1.5948,5.87871 12.4643,1.5712 16.277,-7.12745 1.7194,-3.92298 -4.2388,-12.75996 -6.5079,-19.82835 -2.7305,-8.50529 -3.2859,-9.95324 -6.7952,-19.34042 -3.563,-9.530867 -9.5318,-25.41043 -11.9125,-23.476309 -3.1775,2.581524 -10.6577,11.432922 -13.7447,21.100609 -1.4302,4.47926 3.1896,15.16001 5.0594,16.66695 1.1014,0.88769 1.5185,2.98694 2.5628,5.75938 0.9928,2.63589 2.6349,5.88193 2.8718,9.21138 2.2793,32.02293 10.539,7.82112 12.1892,17.03416 z"
             style="fill:#ea9680;fill-opacity:1;fill-rule:evenodd;stroke:none" />
          <path
             style="fill:#c83737;fill-opacity:1;fill-rule:evenodd;stroke:none"
             d="m -1882.4946,107.52953 26.0393,-21.335621 c -6.4299,-7.359974 -8.173,-16.282202 -19.7172,-21.937388 -27.6906,-2.877479 -11.8501,14.525996 -6.3221,43.273009 z"
             id="path5445"
             inkscape:connector-curvature="0"
             sodipodi:nodetypes="cccc" />
          <path
             style="fill:#784421;fill-rule:evenodd;stroke:none"
             d="m -1881.4831,118.89245 c -3.0922,8.59763 -2.8321,13.69053 -15.1028,31.88379 0,0 0.091,-0.12534 3.6918,0.33562 5.7733,0.73906 21.8339,-29.18015 20.4727,-30.54132"
             id="path5451"
             inkscape:connector-curvature="0"
             sodipodi:nodetypes="ccsc" />
          <path
             inkscape:connector-curvature="0"
             id="path5439"
             d="m -1967.8867,162.46532 89.2746,-0.33562 -2.685,-59.40454 3.0206,-38.931785 -33.8975,-4.698664 -20.1371,0 -40.6099,7.383615 8.0549,37.589304 z"
             style="fill:#a02c2c;fill-rule:evenodd;stroke:none" />
          <path
             sodipodi:nodetypes="ccsc"
             inkscape:connector-curvature="0"
             id="path5449"
             d="m -1956.4757,119.84172 c -3.0922,8.59763 -2.8321,13.69053 -15.1028,31.88379 0,0 0.091,-0.12534 3.6918,0.33562 5.7733,0.73906 21.8339,-29.18014 20.4727,-30.54131"
             style="fill:#784421;fill-rule:evenodd;stroke:none" />
          <path
             sodipodi:nodetypes="ccccsc"
             inkscape:connector-curvature="0"
             id="path5447"
             d="m -1964.1171,65.113949 c -2.1375,-3.648431 10.719,-3.401563 12.3406,-2.610502 13.7172,5.214117 8.4401,40.185903 6.4076,60.278863 l -12.8152,-1.18659 c 2.1159,-20.0057 5.9091,-39.565981 -1.6612,-54.345906 -1.1218,-2.190186 -2.7258,-2.882799 -4.2718,-2.135865 z"
             style="fill:#552200;fill-rule:evenodd;stroke:none" />
          <path
             style="fill:#552200;fill-rule:evenodd;stroke:none"
             d="m -1891.8513,64.164676 c -2.28,-3.648431 10.5861,-3.401563 12.2386,-2.610502 13.9209,5.214117 10.0096,40.185906 8.7618,60.278866 l -10.5123,-1.69002 c -2.3572,-20.676936 2.0146,-39.062554 -6.1329,-53.842479 -1.2073,-2.190186 -2.8384,-2.882799 -4.3552,-2.135865 z"
             id="path5453"
             inkscape:connector-curvature="0"
             sodipodi:nodetypes="ccccsc" />
          <path
             style="fill:#ea9680;fill-opacity:1;fill-rule:evenodd;stroke:none"
             d="m -1885.0878,38.03098 c 0,27.04381 -11.1966,37.91006 -34.7509,37.91006 -19.4033,0 -35.5218,-15.90094 -41.0692,-34.75089 -1.1868,-4.03268 -3.1592,-3.13191 -3.1592,-7.89793 0,-15.13436 -6.2359,-39.9849601 3.1592,-48.96717 7.3931,-7.06825 29.1169,0 39.4896,0 9.6536,0 26.0235,-3.04907 33.1713,3.15917 10.2926,8.9396199 3.1592,34.58666 3.1592,50.54676 z"
             id="path5020"
             inkscape:connector-curvature="0"
             sodipodi:nodetypes="ssssssss" />
          <path
             style="fill:#502d16;stroke:none"
             d="m -1973.5446,31.71263 3.1592,9.47752 3.1591,-6.31835 6.3184,9.47752 0,-9.47752 -3.1592,-6.31834 6.3183,0 -3.1591,-6.31835 3.1591,0 -3.1591,-6.31834 3.1591,0 0,-12.6366901 c 0,-9.47751 3.1592,-12.63668 12.6367,-12.63668 l 53.706,0 c 5.9194,-0.39891 -2.1671,20.0624401 6.3183,22.1142001 l 3.1592,3.15917 -3.1592,3.15917 3.1592,3.15917 -3.1592,3.15918 3.1592,3.15917 -3.1592,3.15917 -0.7447,4.82901 0.7447,7.80768 3.1592,-6.31834 9.4775,-6.31835 -3.1592,-9.47752 6.3184,-3.15917 -3.1592,-3.15917 3.1592,-3.15917 -6.3184,-3.1591701 6.3184,-6.31835 c -8.5799,-4.42172 -1.1405,-13.14215 -3.1592,-22.1141999 l -3.1592,-12.63669 c -5.7863,-14.09902 -18.955,-22.11421 -37.91,-15.79586 l -41.0693,15.79586 -12.6367,6.31834 -3.1591,-3.15917 0.1908,10.5805 -9.6682,5.21536 6.3183,3.1591799 0,18.95503 -6.3183,-3.15918 6.3183,12.6366901 -6.3183,-3.15917 3.1592,9.47752 -6.3184,9.47751 z"
             id="path5022"
             inkscape:connector-curvature="0"
             sodipodi:nodetypes="ccccccccccccccccccccccccccccccccccccccccccccccc" />
          <path
             style="fill:#502d16;fill-opacity:1;fill-rule:evenodd;stroke:none"
             d="m -1917.0213,18.26792 2.1828,8.79563 c 2.4122,8.44302 5.3308,8.54338 8.3321,8.54338 l 17.2231,0 c 2.8942,0 4.2463,-1.79879 4.6281,-2.88983 4.0458,-11.55934 3.982,-10.44858 5.9187,-13.34058 0.439,-0.53063 1.0169,-0.53063 1.0169,-1.1086 l 0,-8.05574 c 0,-0.6137601 -0.091,-0.6137601 -0.6168,-0.6137601 -9.4372,3.7e-4 -22.5779,-0.80054 -31.1713,0 -2.4434,0.22761 -5.2017,0.5779601 -5.7797,1.1559301 -1.0092,1.00917 -1.7339,1.7339 -2.8898,1.7339 l -2.8899,0 c -1.1559,0 -1.8806,-0.72473 -2.8898,-1.7339 -0.578,-0.57797 -3.3363,-0.9283201 -5.7797,-1.1559301 -8.5934,-0.80054 -21.7341,3.7e-4 -31.1713,0 -0.526,0 -0.6169,0 -0.6169,0.6137601 l 0,8.05574 c 0,0.57797 0.578,0.57797 1.017,1.1086 1.9367,2.892 1.8729,1.78124 5.9186,13.34058 0.3819,1.09104 1.7339,2.88983 4.6282,2.88983 l 17.2231,0 c 3.0013,0 5.9198,-0.10036 8.3321,-8.54338 l 2.1828,-8.79563 c 0.5779,-1.15593 4.6237,-1.15593 5.2017,0 z"
             id="path5024"
             inkscape:connector-curvature="0"
             sodipodi:nodetypes="ccccsccccssccssccccsccccc" />
          <path
             sodipodi:nodetypes="csccsccccc"
             inkscape:connector-curvature="0"
             id="path5026"
             d="m -1925.817,13.02002 c -0.5075,-0.4867 -2.9298,-0.78174 -5.0755,-0.97341 -4.9579,-0.4429 -5.7869,-0.14751 -12.1373,0 -10.4034,0 -12.7153,4.04577 -12.7153,9.82544 -0.2149,0.5648 1.6539,5.87885 3.0278,9.64292 0.3353,0.91877 1.5226,2.43354 4.0643,2.43354 l 15.1248,0 c 2.6357,0 5.1986,-0.0845 7.317,-7.19442 l 1.9169,-7.40685 c 0.3374,-2.09893 0.3374,-4.4108 -1.5227,-6.32722 z"
             style="fill:#00ffff;fill-opacity:1;fill-rule:evenodd;stroke:none" />
          <path
             style="fill:#00ffff;fill-opacity:1;fill-rule:evenodd;stroke:none"
             d="m -1913.1732,12.94455 c 0.5076,-0.48671 2.9299,-0.78174 5.0756,-0.97342 4.9578,-0.44289 5.7868,-0.14751 12.1373,0 10.4034,0 12.7153,4.04577 12.7153,9.82544 0.2148,0.5648 -1.654,5.87885 -3.0278,9.64292 -0.3354,0.91876 -1.5227,2.43354 -4.0643,2.43354 l -15.1249,0 c -2.6356,0 -5.1986,-0.0845 -7.317,-7.19442 l -1.9168,-7.40685 c -0.3374,-2.09893 -0.3374,-4.4108 1.5226,-6.32721 z"
             id="path5028"
             inkscape:connector-curvature="0"
             sodipodi:nodetypes="csccsccccc" />
          <path
             sodipodi:end="5.3894415"
             sodipodi:start="0"
             d="m -1935.7008,22.322849 c 0,3.124635 -1.2665,5.657652 -2.8289,5.657652 -1.5623,0 -2.8288,-2.533017 -2.8288,-5.657652 0,-3.124634 1.2665,-5.657651 2.8288,-5.657651 0.6446,0 1.2699,0.440282 1.7723,1.247949 l -1.7723,4.409702 z"
             sodipodi:ry="5.6576514"
             sodipodi:rx="2.8288257"
             sodipodi:cy="22.322849"
             sodipodi:cx="-1938.5297"
             id="path5032"
             style="fill:#000000;fill-opacity:1;stroke:#000000;stroke-width:1.13153028;stroke-miterlimit:4;stroke-opacity:1;stroke-dasharray:none"
             sodipodi:type="arc" />
          <path
             sodipodi:type="arc"
             style="fill:#000000;fill-opacity:1;stroke:#000000;stroke-width:1.13153028;stroke-miterlimit:4;stroke-opacity:1;stroke-dasharray:none"
             id="path5034"
             sodipodi:cx="-1902.9889"
             sodipodi:cy="22.322849"
             sodipodi:rx="2.8288257"
             sodipodi:ry="5.6576514"
             d="m -1900.1601,22.322849 c 0,3.124635 -1.2665,5.657652 -2.8288,5.657652 -1.5623,0 -2.8288,-2.533017 -2.8288,-5.657652 0,-3.124634 1.2665,-5.657651 2.8288,-5.657651 0.6446,0 1.2699,0.440282 1.7723,1.247949 l -1.7723,4.409702 z"
             sodipodi:start="0"
             sodipodi:end="5.3894415" />
          <path
             sodipodi:nodetypes="ccccc"
             inkscape:connector-curvature="0"
             id="rect5457"
             d="m -1972.4231,151.02319 5.043,0.94927 -0.059,2.49185 -4.9837,0.0593 z"
             style="color:#000000;fill:#803300;fill-opacity:1;fill-rule:evenodd;stroke:none;visibility:visible;display:inline;overflow:visible;enable-background:accumulate" />
          <path
             sodipodi:nodetypes="ccccc"
             inkscape:connector-curvature="0"
             id="path5460"
             d="m -1960.5031,217.339 c 0,-0.67124 -3.1884,-22.15085 -3.1884,-22.15085 7.0306,7.93378 30.1681,6.35353 35.4078,2.18152 l -5.8733,21.64742 z"
             style="opacity:0.06000001;fill:#0000ff;fill-rule:evenodd;stroke:none" />
          <path
             style="fill:#ea9680;fill-opacity:1;fill-rule:evenodd;stroke:none"
             d="m -1949.5439,127.77981 c 3.4002,1.50701 2.5616,5.48816 -1.0672,12.97318 -2.6065,5.37645 -10.2382,6.22251 -16.5713,3.3862 -4.0748,-1.32032 -10.7511,-6.74143 -15.7011,-8.43843 -5.0217,-4.30056 -6.1756,-10.43805 -6.6997,-20.44601 -0.5321,-10.16116 -1.3888,-27.103823 1.5656,-26.279161 3.9433,1.100712 16.1889,4.945329 21.0174,13.871651 2.3292,4.30594 -0.9317,17.07716 -0.3587,17.51765 2.1878,1.68187 3.7284,2.48623 8.7035,4.82083 -1.0072,2.83412 8.5321,5.04208 9.1115,2.59409 z"
             id="path4996"
             inkscape:connector-curvature="0"
             sodipodi:nodetypes="csccsssscc" />
          <path
             sodipodi:nodetypes="cccc"
             inkscape:connector-curvature="0"
             id="path5040"
             d="m -1963.8065,108.32435 -27.6177,-19.248784 c 6.3203,-7.633024 5.8333,-19.236919 18.9608,-22.899072 17.2975,-0.200169 11.9356,13.058331 8.6569,42.147856 z"
             style="fill:#c83737;fill-opacity:1;fill-rule:evenodd;stroke:none" />
          <path
             style="fill:#a05a2c;fill-rule:evenodd;stroke:none"
             d="m -1879.0064,174.80888 51.1062,0 c 2.4336,0 2.4336,2.43363 0,2.43363 l -51.1062,0 c -1.9469,2.43363 -1.9469,7.30089 0,9.73451 l 51.1062,0 c 2.4336,0 2.4336,2.43363 0,2.43363 l -51.1062,0 -0.9735,-1.9469 -1.4601,1.9469 c -0.9735,-2.43363 -0.9735,-12.16814 0,-14.60177 l 1.4601,1.46018 0.9735,-1.46018"
             id="path4694"
             inkscape:connector-curvature="0"
             sodipodi:nodetypes="ccccccccccccc" />
          <path
             style="color:#000000;fill:#ffeeaa;fill-opacity:1;fill-rule:evenodd;stroke:none;visibility:visible;display:inline;overflow:visible;enable-background:accumulate"
             d="m -1879.0064,177.24251 51.1062,0 c -0.2102,0.52538 -0.3749,1.16418 -0.4944,1.86744 -0.023,0.13513 0,0 -1.7792,0.2599 1.6651,0.54669 1.6804,0.41365 1.6651,0.54669 -0.05,0.43177 -0.084,0.87911 -0.1034,1.33247 -0.01,0.21605 0,0 -1.6631,0.55014 1.648,0.6657 1.6447,0.47769 1.648,0.6657 0.01,0.47775 0.034,0.95279 0.075,1.41416 0.016,0.17563 0,0 -1.5045,0.70804 1.6473,0.43363 1.6143,0.23123 1.6473,0.43363 0.1205,0.73833 0.2902,1.40891 0.5092,1.95634 l -51.1062,0 c 0.4867,-2.43362 0.4867,-7.30088 0,-9.73451 z"
             id="path4696"
             inkscape:connector-curvature="0"
             sodipodi:nodetypes="cccccscsscsccc" />
          <path
             sodipodi:nodetypes="ccccccccccccc"
             inkscape:connector-curvature="0"
             id="path4698"
             d="m -1876.6343,160.20711 47.876,0 c 2.2798,0 2.2798,2.43363 0,2.43363 l -47.876,0 c -1.8239,2.43363 -1.8239,7.30089 0,9.73451 l 47.876,0 c 2.2798,0 2.2798,2.43363 0,2.43363 l -47.876,0 -0.9119,-1.9469 -1.3679,1.9469 c -0.9119,-2.43363 -0.9119,-12.16814 0,-14.60177 l 1.3679,1.46018 0.9119,-1.46018"
             style="fill:#d45500;fill-rule:evenodd;stroke:none" />
          <path
             sodipodi:nodetypes="cccccscsscsccc"
             inkscape:connector-curvature="0"
             id="path4700"
             d="m -1876.6343,162.64074 47.876,0 c -0.1969,0.52538 -0.3512,1.16418 -0.4631,1.86744 -0.021,0.13513 0,0 -1.6668,0.2599 1.5598,0.54669 1.5742,0.41365 1.5598,0.54669 -0.047,0.43177 -0.079,0.87911 -0.097,1.33247 -0.01,0.21605 0,0 -1.558,0.55014 1.5438,0.6657 1.5408,0.47769 1.5438,0.6657 0.01,0.47775 0.032,0.95279 0.07,1.41416 0.015,0.17563 0,0 -1.4095,0.70804 1.5432,0.43363 1.5123,0.23123 1.5432,0.43363 0.1129,0.73833 0.2719,1.40891 0.477,1.95634 l -47.876,0 c 0.456,-2.43362 0.456,-7.30088 0,-9.73451 z"
             style="color:#000000;fill:#ffeeaa;fill-opacity:1;fill-rule:evenodd;stroke:none;visibility:visible;display:inline;overflow:visible;enable-background:accumulate" />
          <path
             sodipodi:nodetypes="ccccccccccccc"
             inkscape:connector-curvature="0"
             id="path4702"
             d="m -1879.0064,189.41065 51.1062,0 c 2.4336,0 2.4336,2.43363 0,2.43363 l -51.1062,0 c -1.9469,2.43363 -1.9469,7.30089 0,9.73452 l 51.1062,0 c 2.4336,0 2.4336,2.43362 0,2.43362 l -51.1062,0 -0.9735,-1.9469 -1.4601,1.9469 c -0.9735,-2.43362 -0.9735,-12.16814 0,-14.60177 l 1.4601,1.46018 0.9735,-1.46018"
             style="fill:#c83737;fill-rule:evenodd;stroke:none" />
          <path
             sodipodi:nodetypes="cccccscsscsccc"
             inkscape:connector-curvature="0"
             id="path4704"
             d="m -1879.0064,191.84428 51.1062,0 c -0.2102,0.52538 -0.3749,1.16418 -0.4944,1.86744 -0.023,0.13513 0,0 -1.7792,0.2599 1.6651,0.54669 1.6804,0.41365 1.6651,0.54669 -0.05,0.43177 -0.084,0.87911 -0.1034,1.33247 -0.01,0.21605 0,0 -1.6631,0.55014 1.648,0.6657 1.6447,0.47769 1.648,0.6657 0.01,0.47776 0.034,0.95279 0.075,1.41416 0.016,0.17563 0,0 -1.5045,0.70804 1.6473,0.43364 1.6143,0.23123 1.6473,0.43364 0.1205,0.73832 0.2902,1.4089 0.5092,1.95634 l -51.1062,0 c 0.4867,-2.43363 0.4867,-7.30089 0,-9.73452 z"
             style="color:#000000;fill:#ffeeaa;fill-opacity:1;fill-rule:evenodd;stroke:none;visibility:visible;display:inline;overflow:visible;enable-background:accumulate" />
          <ellipse
             sodipodi:ry="0.96490413"
             sodipodi:rx="5.327949"
             sodipodi:cy="154.03291"
             sodipodi:cx="-1851.3849"
             ry="0.96490413"
             rx="5.327949"
             cy="154.03291"
             cx="-1851.3849"
             id="path4710"
             style="color:#000000;fill:#c83737;fill-opacity:1;fill-rule:evenodd;stroke:#ea9680;stroke-width:2.0999999;stroke-linecap:round;stroke-linejoin:miter;stroke-miterlimit:4;stroke-opacity:1;stroke-dasharray:none;stroke-dashoffset:0;visibility:visible;display:inline;overflow:visible;enable-background:accumulate"
             d="m -1846.0569,154.03291 c 0,0.53291 -2.3854,0.96491 -5.328,0.96491 -2.9425,0 -5.3279,-0.432 -5.3279,-0.96491 0,-0.5329 2.3854,-0.9649 5.3279,-0.9649 2.9426,0 5.328,0.432 5.328,0.9649 z" />
          <path
             style="color:#000000;fill:#a05a2c;fill-opacity:1;fill-rule:evenodd;stroke:none;visibility:visible;display:inline;overflow:visible;enable-background:accumulate"
             d="m -1854.6701,148.03897 c 0.8344,-0.90277 1.5275,-0.49938 2.4336,0 l 0,56.46018 -2.4336,0 z"
             id="path4706"
             inkscape:connector-curvature="0"
             sodipodi:nodetypes="ccccc" />
          <path
             sodipodi:nodetypes="cc"
             inkscape:connector-curvature="0"
             id="path4778"
             d="m -1932.3111,59.094711 c 0.9873,2.519124 5.0385,5.146853 8.1537,4.50787"
             style="fill:none;stroke:#000000;stroke-width:4;stroke-linecap:round;stroke-linejoin:miter;stroke-miterlimit:4;stroke-opacity:1;stroke-dasharray:none" />
        </g>
        <path
           style="fill:#803300;fill-rule:evenodd;stroke:none"
           d="m -3234.195,-678.8957 c 0,0 -2.0581,62.60588 -7.9749,76.71201 -5.9169,14.10612 -12.8643,6.29426 -9.3369,11.29596 3.5273,5.0017 12.6009,-7.41257 20.7413,-7.53366 8.1404,-0.12109 21.0245,14.37366 18.4506,9.46422 -2.5738,-4.90944 -2.892,-10.94795 0.1461,-10.94795 3.0381,0 24.537,13.5493 25.0643,1.51905 0.284,-6.47902 -1.294,9.43323 -11.3,-7.92336 -10.0061,-17.35659 -17.0464,-83.03217 -9.2071,-106.00537 7.8393,-22.97319 26.5833,-28.86194 26.5833,-28.86194 -8.38,-4.21785 -18.9094,-8.89112 -33.8258,12.1524 0.8335,-23.15891 2.9922,-29.5836 -18.5813,-32.65957 4.0942,5.56449 7.1164,12.08191 4.8335,23.3149 -1.5806,7.7779 0.3313,22.1756 -11.6693,22.25659 -12.0006,0.081 -14.4309,-21.2667 -14.4309,-21.2667 -8.0916,8.49364 -4.4378,25.86017 5.3166,34.17862 5.599,4.77477 18.0944,18.4969 15.1905,24.3048"
           id="path4780"
           inkscape:connector-curvature="0"
           sodipodi:nodetypes="czzzzzszzcccszcsc" />
        <path
           sodipodi:type="spiral"
           style="fill:none;stroke:#d45500;stroke-width:3.20044708;stroke-linecap:round;stroke-linejoin:miter;stroke-miterlimit:4;stroke-opacity:1;stroke-dasharray:none"
           id="path4784"
           sodipodi:cx="-3218.0801"
           sodipodi:cy="-636.53503"
           sodipodi:expansion="1"
           sodipodi:revolution="2.7040954"
           sodipodi:radius="12.107893"
           sodipodi:argument="-6.2134271"
           sodipodi:t0="0"
           d="m -3218.0801,-636.53503 c 0.6719,0.0469 0.2682,0.92881 -0.078,1.11668 -0.9382,0.50909 -1.9404,-0.38831 -2.1553,-1.27273 -0.3845,-1.58202 0.9698,-2.98395 2.4674,-3.194 2.1978,-0.30824 4.0466,1.55501 4.2326,3.66214 0.248,2.80848 -2.1408,5.11665 -4.8568,5.27131 -3.4178,0.19463 -6.1904,-2.72695 -6.31,-6.05155 -0.1448,-4.02653 3.3132,-7.26626 7.2463,-7.34862 4.6351,-0.0971 8.3434,3.89934 8.3873,8.44096 0.051,5.24349 -4.4856,9.42151 -9.6357,9.42593 -5.8518,0.005 -10.5002,-5.07186 -10.4646,-10.83037 0.032,-5.12811 3.6454,-9.64525 8.5402,-11.03932" />
        <path
           style="fill:#99ff55;fill-rule:evenodd;stroke:none"
           d="m -3208.0503,-815.31773 -2.0468,-15.05196 16.2862,-9.87992 -0.075,19.17315 z"
           id="path4804"
           inkscape:connector-curvature="0" />
        <path
           inkscape:connector-curvature="0"
           id="path4806"
           d="m -3187.4962,-722.36794 15.1727,0.73349 6.743,17.81552 -18.8376,-3.57207 z"
           style="fill:#99ff55;fill-rule:evenodd;stroke:none" />
        <path
           style="fill:#99ff55;fill-rule:evenodd;stroke:none"
           d="m -3169.3396,-776.64178 6.9607,-13.50184 19.0075,1.25385 -11.0636,15.65921 z"
           id="path4808"
           inkscape:connector-curvature="0" />
        <path
           inkscape:connector-curvature="0"
           id="path4812"
           d="m -3261.9149,-796.15283 -14.6154,-4.14006 -2.5467,-18.87777 17.5449,7.7325 z"
           style="fill:#99ff55;fill-rule:evenodd;stroke:none" />
        <path
           style="fill:#99ff55;fill-rule:evenodd;stroke:none"
           d="m -3271.4116,-738.89817 -13.9588,5.99202 -13.8703,-13.05644 18.497,-5.04759 z"
           id="path4814"
           inkscape:connector-curvature="0" />
        <path
           sodipodi:type="arc"
           style="fill:#ffcc00;fill-opacity:1;stroke:none"
           id="path3012"
           sodipodi:cx="-3104.2537"
           sodipodi:cy="-256.54111"
           sodipodi:rx="21.652121"
           sodipodi:ry="22.108709"
           d="m -3084.2963,-247.96641 c -4.6379,11.25455 -17.3329,16.53914 -28.355,11.80347 -11.0221,-4.73568 -16.1976,-17.69831 -11.5597,-28.95286 4.6379,-11.25455 17.3328,-16.53915 28.355,-11.80347 1.9881,0.85421 3.8401,2.00696 5.4945,3.42008 l -13.8922,16.95808 z"
           sodipodi:start="0.3982897"
           sodipodi:end="5.408983"
           transform="matrix(0.99270369,0.12057939,-0.15471724,0.98795879,0,0)" />
        <path
           sodipodi:end="5.4565158"
           sodipodi:start="0"
           d="m -3044.6739,-637.42432 c 0,2.76537 -1.4945,5.00714 -3.3381,5.00714 -1.8435,0 -3.3381,-2.24177 -3.3381,-5.00714 0,-2.76536 1.4946,-5.00714 3.3381,-5.00714 0.8377,0 1.6448,0.47242 2.261,1.32349 l -2.261,3.68365 z"
           sodipodi:ry="5.0071406"
           sodipodi:rx="3.338093"
           sodipodi:cy="-637.42432"
           sodipodi:cx="-3048.012"
           id="path3016"
           style="fill:#000000;fill-opacity:1;stroke:#000000;stroke-width:1.15634942;stroke-miterlimit:4;stroke-opacity:1;stroke-dasharray:none"
           sodipodi:type="arc" />
      </g>
    </g>
  </g>
</svg>
