<?xml version="1.0" encoding="UTF-8" standalone="no"?>
<!-- Created with Inkscape (http://www.inkscape.org/) -->

<svg
   xmlns:dc="http://purl.org/dc/elements/1.1/"
   xmlns:cc="http://creativecommons.org/ns#"
   xmlns:rdf="http://www.w3.org/1999/02/22-rdf-syntax-ns#"
   xmlns:svg="http://www.w3.org/2000/svg"
   xmlns="http://www.w3.org/2000/svg"
   xmlns:sodipodi="http://sodipodi.sourceforge.net/DTD/sodipodi-0.dtd"
   xmlns:inkscape="http://www.inkscape.org/namespaces/inkscape"
   width="445"
   height="449.00781"
   id="svg4343"
   version="1.1"
   inkscape:version="0.48.4 r9939"
   sodipodi:docname="posting.svg">
  <defs
     id="defs4345">
    <inkscape:path-effect
       effect="spiro"
       id="path-effect4824-3"
       is_visible="true" />
    <inkscape:path-effect
       effect="spiro"
       id="path-effect4830-8"
       is_visible="true" />
    <inkscape:path-effect
       is_visible="true"
       id="path-effect4788-8"
       effect="spiro" />
    <inkscape:path-effect
       effect="spiro"
       id="path-effect4806-0"
       is_visible="true" />
    <inkscape:path-effect
       effect="spiro"
       id="path-effect4778-3"
       is_visible="true" />
  </defs>
  <sodipodi:namedview
     id="base"
     pagecolor="#ffffff"
     bordercolor="#666666"
     borderopacity="1.0"
     inkscape:pageopacity="0.0"
     inkscape:pageshadow="2"
     inkscape:zoom="0.35"
     inkscape:cx="134.6429"
     inkscape:cy="-98.353235"
     inkscape:document-units="px"
     inkscape:current-layer="layer1"
     showgrid="false"
     inkscape:window-width="803"
     inkscape:window-height="415"
     inkscape:window-x="298"
     inkscape:window-y="338"
     inkscape:window-maximized="0"
     fit-margin-top="0"
     fit-margin-left="0"
     fit-margin-right="0"
     fit-margin-bottom="0" />
  <metadata
     id="metadata4348">
    <rdf:RDF>
      <cc:Work
         rdf:about="">
        <dc:format>image/svg+xml</dc:format>
        <dc:type
           rdf:resource="http://purl.org/dc/dcmitype/StillImage" />
        <dc:title />
      </cc:Work>
    </rdf:RDF>
  </metadata>
  <g
     inkscape:label="Layer 1"
     inkscape:groupmode="layer"
     id="layer1"
     transform="translate(-240.3571,-327.85828)">
    <g
       id="g7598"
       transform="translate(2741.7111,794.53591)">
      <rect
         y="-463.02078"
         x="-2418.1409"
         height="359.00998"
         width="234.80525"
         id="rect4991"
         style="color:#000000;fill:#afe9dd;fill-opacity:1;fill-rule:evenodd;stroke:none;visibility:visible;display:inline;overflow:visible;enable-background:accumulate" />
      <rect
         y="-341.67764"
         x="-2496.354"
         height="215"
         width="430"
         id="rect5131"
         style="color:#000000;fill:#ff5555;fill-opacity:1;fill-rule:evenodd;stroke:none;visibility:visible;display:inline;overflow:visible;enable-background:accumulate" />
      <rect
         y="-136.67763"
         x="-2481.354"
         height="116.6449"
         width="399.52539"
         id="rect5099"
         style="color:#000000;fill:#008000;fill-opacity:1;fill-rule:evenodd;stroke:none;visibility:visible;display:inline;overflow:visible;enable-background:accumulate" />
      <rect
         style="color:#000000;fill:#deaa87;fill-opacity:1;fill-rule:evenodd;stroke:none;visibility:visible;display:inline;overflow:visible;enable-background:accumulate"
         id="rect5107"
         width="220"
         height="40"
         x="-2441.354"
         y="-61.677631" />
      <rect
         style="color:#000000;fill:#cccccc;fill-opacity:1;fill-rule:evenodd;stroke:none;visibility:visible;display:inline;overflow:visible;enable-background:accumulate"
         id="rect5111"
         width="125.24819"
         height="307.03375"
         x="-2191.354"
         y="-443.7114" />
      <rect
         style="color:#000000;fill:#ffaaaa;fill-opacity:1;fill-rule:evenodd;stroke:none;visibility:visible;display:inline;overflow:visible;enable-background:accumulate"
         id="rect5115"
         width="70"
         height="40"
         x="-2151.354"
         y="-246.67763" />
      <rect
         y="-196.67763"
         x="-2181.354"
         height="40"
         width="70"
         id="rect5113"
         style="color:#000000;fill:#ffaaaa;fill-opacity:1;fill-rule:evenodd;stroke:none;visibility:visible;display:inline;overflow:visible;enable-background:accumulate" />
      <rect
         y="-216.67763"
         x="-2141.354"
         height="130"
         width="20"
         id="rect5097"
         style="color:#000000;fill:#552200;fill-opacity:1;fill-rule:evenodd;stroke:none;visibility:visible;display:inline;overflow:visible;enable-background:accumulate" />
      <rect
         y="-76.677628"
         x="-2431.354"
         height="40"
         width="220"
         id="rect5105"
         style="color:#000000;fill:#deaa87;fill-opacity:1;fill-rule:evenodd;stroke:none;visibility:visible;display:inline;overflow:visible;enable-background:accumulate" />
      <rect
         y="-443.7114"
         x="-2496.7327"
         height="307.03375"
         width="85.378716"
         id="rect5109"
         style="color:#000000;fill:#cccccc;fill-opacity:1;fill-rule:evenodd;stroke:none;visibility:visible;display:inline;overflow:visible;enable-background:accumulate" />
      <rect
         y="-406.67764"
         x="-2151.354"
         height="40"
         width="70"
         id="rect5121"
         style="color:#000000;fill:#ffaaaa;fill-opacity:1;fill-rule:evenodd;stroke:none;visibility:visible;display:inline;overflow:visible;enable-background:accumulate" />
      <rect
         y="-196.67763"
         x="-2491.354"
         height="40"
         width="70"
         id="rect5123"
         style="color:#000000;fill:#ffaaaa;fill-opacity:1;fill-rule:evenodd;stroke:none;visibility:visible;display:inline;overflow:visible;enable-background:accumulate" />
      <rect
         style="color:#000000;fill:#ffaaaa;fill-opacity:1;fill-rule:evenodd;stroke:none;visibility:visible;display:inline;overflow:visible;enable-background:accumulate"
         id="rect5125"
         width="70"
         height="40"
         x="-2501.354"
         y="-246.67763" />
      <rect
         y="-336.67764"
         x="-2491.354"
         height="40"
         width="40"
         id="rect5127"
         style="color:#000000;fill:#ffaaaa;fill-opacity:1;fill-rule:evenodd;stroke:none;visibility:visible;display:inline;overflow:visible;enable-background:accumulate" />
      <rect
         y="-456.67764"
         x="-2411.354"
         height="320"
         width="30"
         id="rect5129"
         style="color:#000000;fill:#784421;fill-opacity:1;fill-rule:evenodd;stroke:none;visibility:visible;display:inline;overflow:visible;enable-background:accumulate" />
      <rect
         y="-136.67763"
         x="-2411.354"
         height="40"
         width="220"
         id="rect5101"
         style="color:#000000;fill:#deaa87;fill-opacity:1;fill-rule:evenodd;stroke:none;visibility:visible;display:inline;overflow:visible;enable-background:accumulate" />
      <rect
         style="color:#000000;fill:#deaa87;fill-opacity:1;fill-rule:evenodd;stroke:none;visibility:visible;display:inline;overflow:visible;enable-background:accumulate"
         id="rect5103"
         width="220"
         height="40"
         x="-2421.354"
         y="-106.67763" />
      <rect
         style="color:#000000;fill:#ffaaaa;fill-opacity:1;fill-rule:evenodd;stroke:none;visibility:visible;display:inline;overflow:visible;enable-background:accumulate"
         id="rect5119"
         width="70"
         height="40"
         x="-2181.354"
         y="-356.67764" />
      <path
         style="fill:#ea9680;fill-opacity:1;fill-rule:evenodd;stroke:none"
         d="m -2459.4638,-212.66531 c -0.9298,14.53488 -7.3211,19.99007 -19.9806,19.18026 -10.4283,-0.6671 -14.0357,-1.22389 -16.3692,-11.54568 -2.1169,-6.17953 -6.4931,-35.35332 -2.5539,-39.106 4.2166,-3.5447 15.6491,1.00105 21.2241,1.3577 5.1883,0.33189 14.0913,-0.74406 17.7194,2.83834 5.2246,5.15854 0.5088,18.69747 -0.039,27.27532 z"
         id="path5482"
         inkscape:connector-curvature="0"
         sodipodi:nodetypes="csccsssc" />
      <ellipse
         sodipodi:ry="15.249887"
         sodipodi:rx="19.062359"
         sodipodi:cy="-94.403503"
         sodipodi:cx="-2352.2996"
         id="ellipse5488"
         style="fill:#552200;fill-opacity:1;fill-rule:evenodd;stroke:none"
         cx="-2352.2996"
         cy="-94.403503"
         rx="19.062359"
         ry="15.249887"
         d="m -2333.2372,-94.403503 c 0,8.42228 -8.5345,15.249887 -19.0624,15.249887 -10.5278,0 -19.0623,-6.827607 -19.0623,-15.249887 0,-8.422277 8.5345,-15.249887 19.0623,-15.249887 10.5279,0 19.0624,6.82761 19.0624,15.249887 z" />
      <ellipse
         sodipodi:ry="15.249887"
         sodipodi:rx="19.062359"
         sodipodi:cy="-94.403503"
         sodipodi:cx="-2420.9243"
         style="fill:#552200;fill-opacity:1;fill-rule:evenodd;stroke:none"
         id="ellipse5490"
         cx="-2420.9243"
         cy="-94.403503"
         rx="19.062359"
         ry="15.249887"
         d="m -2401.862,-94.403503 c 0,8.42228 -8.5345,15.249887 -19.0623,15.249887 -10.5279,0 -19.0624,-6.827607 -19.0624,-15.249887 0,-8.422277 8.5345,-15.249887 19.0624,-15.249887 10.5278,0 19.0623,6.82761 19.0623,15.249887 z" />
      <path
         style="fill:#666666;fill-rule:evenodd;stroke:none"
         d="m -2451.4242,-193.52777 0,30.49977 7.6249,68.62449 45.7497,0 10.6749,-68.62449 12.1999,68.62449 45.7497,0 7.6249,-68.62449 0,-30.49977 -129.624,0"
         id="path5492"
         inkscape:connector-curvature="0"
         sodipodi:nodetypes="cccccccccc" />
      <rect
         style="fill:#d7f4ee;fill-opacity:1;fill-rule:evenodd;stroke:none"
         id="rect5494"
         width="74.576065"
         height="128.84128"
         x="-2424.3542"
         y="-347.69424" />
      <path
         style="fill:#008080;fill-opacity:1;fill-rule:evenodd;stroke:none"
         d="m -2391.4864,-330.97097 -8.7797,89.04029 12.8728,21.76668 11.2158,-21.76668 -4.8177,-80.80472"
         id="path5496"
         inkscape:connector-curvature="0"
         sodipodi:nodetypes="ccccc" />
      <path
         style="fill:#999999;fill-rule:evenodd;stroke:none"
         d="m -2424.3545,-347.69422 -48.1771,9.63542 19.2309,74.04441 0.039,31.945 -4.8177,38.54162 67.6538,7.62494 -0.2058,-46.16656"
         id="path5498"
         inkscape:connector-curvature="0"
         sodipodi:nodetypes="ccccccc" />
      <path
         style="fill:#b3b3b3;fill-rule:evenodd;stroke:none"
         d="m -2443.6253,-318.78801 19.2708,-28.90621 33.724,115.62483 -52.9948,-72.26551 9.6354,-4.8177 z"
         id="path5500"
         inkscape:connector-curvature="0"
         sodipodi:nodetypes="cccccc" />
      <path
         inkscape:connector-curvature="0"
         id="path5502"
         d="m -2352.0891,-347.6942 48.1772,9.63541 -19.2709,105.9894 4.8177,38.54162 -72.0596,7.62494 -1.7464,-45.58515 2.5069,-0.19629"
         style="fill:#999999;fill-rule:evenodd;stroke:none"
         sodipodi:nodetypes="ccccccc" />
      <path
         sodipodi:nodetypes="cccccc"
         inkscape:connector-curvature="0"
         id="path5504"
         d="m -2332.8182,-318.78801 -19.2709,-28.90621 -38.1527,115.8174 57.4236,-72.45808 -9.6354,-4.8177 z"
         style="fill:#808080;fill-rule:evenodd;stroke:none" />
      <path
         style="fill:#ea9680;fill-opacity:1;fill-rule:evenodd;stroke:none"
         d="m -2328.0005,-381.41812 c 0,41.2415 -17.0747,57.81241 -52.9947,57.81241 -29.5898,0 -54.1704,-24.24875 -62.6301,-52.99471 -1.8098,-6.1498 -4.8177,-4.77613 -4.8177,-12.04425 0,-23.07974 -13.7814,-38.19407 0.546,-51.89183 11.2744,-10.779 48.6747,-22.78256 64.4929,-22.78256 14.7217,0 39.6856,-4.6498 50.5859,4.8177 15.696,13.63281 4.8177,52.74427 4.8177,77.08324 z"
         id="path5506"
         inkscape:connector-curvature="0"
         sodipodi:nodetypes="ssssssss" />
      <path
         style="fill:#502d16;stroke:none"
         d="m -2462.8961,-391.05353 4.8178,14.45311 4.8175,-9.63541 9.6355,14.45311 0,-14.45311 -4.8177,-9.6354 9.6353,0 -4.8176,-9.63542 4.8176,0 -4.8176,-9.63539 4.8176,0 0,-19.27081 c 0,-14.45309 4.8178,-19.27079 19.2708,-19.27079 l 81.9011,0 c 9.027,-0.60834 -3.3048,30.59498 9.6353,33.7239 l 4.8177,4.8177 -4.8177,4.81769 4.8177,4.8177 -4.8177,4.81771 0,0 0,9.63541 -1.1356,7.36418 1.1356,11.90663 4.8177,-9.6354 14.4532,-9.63541 -4.8178,-14.45312 9.6355,-4.8177 -4.8177,-4.81769 4.8177,-4.8177 -9.6355,-4.8177 9.6355,-9.63541 c -13.0843,-6.74308 -2.4512,-15.76991 -5.5297,-29.45218 l -86.2179,6.35956 c -8.8241,-21.50084 13.2115,4.15868 -15.6946,13.79409 -57.6414,1.36352 -33.5444,-29.69605 -61.1772,-14.78998 l 9.6354,4.81772 0,28.9062 -9.6354,-4.81771 9.6354,19.2708 -9.6354,-4.81769 4.8177,14.4531 -9.6354,14.45311 z"
         id="path5508"
         inkscape:connector-curvature="0"
         sodipodi:nodetypes="ccccccccccccccccccccccccccccccccccccccccccc" />
      <path
         style="fill:#502d16;fill-opacity:1;fill-rule:evenodd;stroke:none"
         d="m -2376.6987,-411.55657 3.3287,13.41324 c 3.6786,12.87551 8.1294,13.02856 12.7064,13.02856 l 26.265,0 c 4.4137,0 6.4756,-2.74313 7.0578,-4.40696 6.1699,-17.62787 6.0726,-15.93397 9.026,-20.34423 0.6694,-0.8092 1.5507,-0.8092 1.5507,-1.69061 l 0,-12.28491 c 0,-0.93597 -0.1388,-0.93597 -0.9405,-0.93597 -14.3917,5.6e-4 -34.4311,-1.22082 -47.536,0 -3.7261,0.3471 -7.9325,0.88137 -8.8139,1.76277 -1.5391,1.53898 -2.6442,2.64418 -4.4069,2.64418 l -4.4071,0 c -1.7627,0 -2.8679,-1.1052 -4.4069,-2.64418 -0.8814,-0.8814 -5.0878,-1.41567 -8.814,-1.76277 -13.1048,-1.22082 -33.1442,5.6e-4 -47.5359,0 -0.8021,0 -0.9408,0 -0.9408,0.93597 l 0,12.28491 c 0,0.88141 0.8815,0.88141 1.551,1.69061 2.9534,4.41026 2.8561,2.71636 9.0258,20.34423 0.5824,1.66383 2.6442,4.40696 7.0579,4.40696 l 26.265,0 c 4.577,0 9.0277,-0.15305 12.7065,-13.02856 l 3.3287,-13.41324 c 0.8813,-1.76277 7.0511,-1.76277 7.9325,0 z"
         id="path5510"
         inkscape:connector-curvature="0"
         sodipodi:nodetypes="ccccsccccssccssccccsccccc" />
      <path
         sodipodi:nodetypes="csccsccccc"
         inkscape:connector-curvature="0"
         id="path5512"
         d="m -2390.112,-419.55955 c -0.774,-0.74222 -4.468,-1.19215 -7.7401,-1.48445 -7.5607,-0.67541 -8.825,-0.22494 -18.5092,0 -15.8651,0 -19.3908,6.16976 -19.3908,14.98369 -0.3277,0.86132 2.5222,8.96518 4.6174,14.70535 0.5114,1.40111 2.322,3.71111 6.198,3.71111 l 23.0652,0 c 4.0194,0 7.9277,-0.12886 11.1583,-10.97141 l 2.9233,-11.29536 c 0.5145,-3.20083 0.5145,-6.72641 -2.3221,-9.64893 z"
         style="fill:#00ffff;fill-opacity:1;fill-rule:evenodd;stroke:none" />
      <path
         style="fill:#00ffff;fill-opacity:1;fill-rule:evenodd;stroke:none"
         d="m -2370.8304,-419.67464 c 0.7741,-0.74223 4.4681,-1.19215 7.7402,-1.48446 7.5606,-0.6754 8.8249,-0.22495 18.5093,0 15.8651,0 19.3907,6.16975 19.3907,14.98369 0.3275,0.86131 -2.5224,8.96518 -4.6173,14.70534 -0.5115,1.40109 -2.3222,3.71112 -6.1981,3.71112 l -23.0653,0 c -4.0193,0 -7.9278,-0.12886 -11.1583,-10.97141 l -2.9231,-11.29536 c -0.5145,-3.20085 -0.5145,-6.72642 2.3219,-9.64892 z"
         id="path5514"
         inkscape:connector-curvature="0"
         sodipodi:nodetypes="csccsccccc" />
      <path
         sodipodi:end="5.3894415"
         sodipodi:start="0"
         d="m -2396.4207,-398.79999 c 0,4.76503 -1.9314,8.62786 -4.3139,8.62786 -2.3825,0 -4.3139,-3.86283 -4.3139,-8.62786 0,-4.76503 1.9314,-8.62785 4.3139,-8.62785 0.983,0 1.9365,0.67142 2.7026,1.90311 l -2.7026,6.72474 z"
         sodipodi:ry="8.6278543"
         sodipodi:rx="4.3139272"
         sodipodi:cy="-398.79999"
         sodipodi:cx="-2400.7346"
         id="path5518"
         style="fill:#000000;fill-opacity:1;stroke:#000000;stroke-width:1.72557092;stroke-miterlimit:4;stroke-opacity:1;stroke-dasharray:none"
         sodipodi:type="arc" />
      <path
         sodipodi:type="arc"
         style="fill:#000000;fill-opacity:1;stroke:#000000;stroke-width:1.72557092;stroke-miterlimit:4;stroke-opacity:1;stroke-dasharray:none"
         id="path5520"
         sodipodi:cx="-2346.5354"
         sodipodi:cy="-398.79999"
         sodipodi:rx="4.3139272"
         sodipodi:ry="8.6278543"
         d="m -2342.2215,-398.79999 c 0,4.76503 -1.9314,8.62786 -4.3139,8.62786 -2.3825,0 -4.3139,-3.86283 -4.3139,-8.62786 0,-4.76503 1.9314,-8.62785 4.3139,-8.62785 0.983,0 1.9365,0.67142 2.7027,1.90311 l -2.7027,6.72474 z"
         sodipodi:start="0"
         sodipodi:end="5.3894415" />
      <path
         style="fill:#000000;fill-opacity:1;fill-rule:evenodd;stroke:none"
         id="path5522"
         sodipodi:type="arc"
         sodipodi:cx="-2390.6301"
         sodipodi:cy="-217.61626"
         sodipodi:rx="4.8177023"
         sodipodi:ry="4.8177023"
         sodipodi:start="0"
         sodipodi:end="5.3894371"
         d="m -2385.8124,-217.61626 c 0,2.66075 -2.157,4.81771 -4.8177,4.81771 -2.6608,0 -4.8177,-2.15696 -4.8177,-4.81771 0,-2.66074 2.1569,-4.8177 4.8177,-4.8177 1.0977,0 2.1626,0.37491 3.0182,1.06266 l -3.0182,3.75504 z" />
      <path
         d="m -2385.8124,-203.16312 c 0,2.66075 -2.157,4.81771 -4.8177,4.81771 -2.6608,0 -4.8177,-2.15696 -4.8177,-4.81771 0,-2.66074 2.1569,-4.8177 4.8177,-4.8177 1.0977,0 2.1626,0.37491 3.0182,1.06266 l -3.0182,3.75504 z"
         sodipodi:end="5.3894371"
         sodipodi:start="0"
         sodipodi:ry="4.8177023"
         sodipodi:rx="4.8177023"
         sodipodi:cy="-203.16312"
         sodipodi:cx="-2390.6301"
         sodipodi:type="arc"
         id="path5524"
         style="fill:#000000;fill-opacity:1;fill-rule:evenodd;stroke:none" />
      <path
         sodipodi:nodetypes="cscccccc"
         inkscape:connector-curvature="0"
         id="path5526"
         d="m -2447.3926,-270.81749 c -6.8809,18.50561 -3.4503,7.96076 -4.0316,16.29017 -0.3598,5.1529 -5.1277,29.81995 -6.1837,36.09777 l -40.9249,-9.79326 3.8236,-63.30799 2.5101,-5.71238 19.0612,-40.74288 c 40.9952,-9.08087 21.0852,22.77037 25.7453,67.16857 z"
         style="fill:#999999;fill-opacity:1;fill-rule:evenodd;stroke:none" />
      <path
         sodipodi:nodetypes="cc"
         inkscape:connector-curvature="0"
         id="path5759"
         d="m -2395.163,-339.79486 c 4.6598,4.12943 9.3195,3.07967 13.9793,2.47132"
         style="fill:none;stroke:#000000;stroke-width:5.47737408;stroke-linecap:round;stroke-linejoin:miter;stroke-miterlimit:4;stroke-opacity:1;stroke-dasharray:none" />
      <path
         style="fill:#ffffff;fill-opacity:1;fill-rule:evenodd;stroke:none"
         d="m -2281.9706,-466.67763 219.8634,0 0,449.00781 -439.2468,0 0,-449.00781 219.6012,0 0.6042,5.00228 c -115.1101,4.2213 -215.0184,101.12834 -215.0184,219.94578 0,121.50264 96.2588,220 215,220 118.7412,0 215,-98.49736 215,-220 0,-121.50264 -96.0802,-219.82143 -214.8214,-219.82143 z"
         id="path4938"
         inkscape:connector-curvature="0"
         sodipodi:nodetypes="cccccccssscc" />
      <path
         sodipodi:nodetypes="ccccccc"
         inkscape:connector-curvature="0"
         id="rect5073"
         d="m -2186.354,-306.67763 120,0 0,10.18431 10,-0.18431 0,80 -130,0 z"
         style="color:#000000;fill:#666666;fill-opacity:1;fill-rule:evenodd;stroke:none;visibility:visible;display:inline;overflow:visible;enable-background:accumulate" />
      <path
         inkscape:connector-curvature="0"
         id="path5075"
         d="m -2161.354,-256.67763 0,27.92308 5.077,0 10.1538,0 0,-27.92308 -5.077,0 0,33 -5.0768,0 0,-33 -5.077,0"
         style="fill:#ffffff;fill-rule:evenodd;stroke:none" />
      <rect
         y="-306.67764"
         x="-2186.354"
         height="10"
         width="120"
         id="rect5090"
         style="color:#000000;fill:#808080;fill-opacity:1;fill-rule:evenodd;stroke:none;visibility:visible;display:inline;overflow:visible;enable-background:accumulate" />
      <path
         style="fill:#ffffff;fill-rule:evenodd;stroke:none"
         d="m -2151.431,-256.60071 0,27.92308 5.077,0 10.1538,0 0,-27.92308 -5.077,0 0,33.00001 -5.0768,0 0,-33.00001 -5.077,0"
         id="path5079"
         inkscape:connector-curvature="0" />
      <path
         style="fill:#ffffff;fill-rule:evenodd;stroke:none"
         d="m -2131.431,-256.60071 0,27.92308 5.077,0 10.1538,0 0,-27.92308 -5.077,0 0,33.00001 -5.0768,0 0,-33.00001 -5.077,0"
         id="path5081"
         inkscape:connector-curvature="0" />
      <path
         inkscape:connector-curvature="0"
         id="path5083"
         d="m -2121.508,-256.52378 0,27.92308 5.077,0 10.1538,0 0,-27.92308 -5.077,0 0,33 -5.0768,0 0,-33 -5.077,0"
         style="fill:#ffffff;fill-rule:evenodd;stroke:none" />
      <path
         inkscape:connector-curvature="0"
         id="path5085"
         d="m -2101.431,-256.60071 0,27.92308 5.077,0 10.1538,0 0,-27.92308 -5.077,0 0,33.00001 -5.0768,0 0,-33.00001 -5.077,0"
         style="fill:#ffffff;fill-rule:evenodd;stroke:none" />
      <path
         style="fill:#ffffff;fill-rule:evenodd;stroke:none"
         d="m -2091.508,-256.52378 0,27.92308 5.077,0 10.1538,0 0,-27.92308 -5.077,0 0,33 -5.0768,0 0,-33 -5.077,0"
         id="path5087"
         inkscape:connector-curvature="0" />
      <path
         sodipodi:nodetypes="ccccccccc"
         inkscape:connector-curvature="0"
         id="rect5092"
         d="m -2161.354,-326.67763 20,0 0,20 -5,0 0,20 -5,0.071 0,19.929 -10,0 z"
         style="color:#000000;fill:#ff0000;fill-opacity:1;fill-rule:evenodd;stroke:none;visibility:visible;display:inline;overflow:visible;enable-background:accumulate" />
      <rect
         y="-326.67764"
         x="-2161.354"
         height="60"
         width="5"
         id="rect5095"
         style="color:#000000;fill:#ff5555;fill-opacity:1;fill-rule:evenodd;stroke:none;visibility:visible;display:inline;overflow:visible;enable-background:accumulate" />
      <path
         sodipodi:nodetypes="ccccccccc"
         inkscape:connector-curvature="0"
         id="rect5064"
         d="m -2261.354,-296.67763 10,0 0,-10 70,0 0,10 10,0 0,80 -90,0 z"
         style="color:#000000;fill:#b3b3b3;fill-opacity:1;fill-rule:evenodd;stroke:none;visibility:visible;display:inline;overflow:visible;enable-background:accumulate" />
      <rect
         y="-286.67764"
         x="-2251.354"
         height="60"
         width="70"
         id="rect5060"
         style="color:#000000;fill:#502d16;fill-opacity:1;fill-rule:evenodd;stroke:none;visibility:visible;display:inline;overflow:visible;enable-background:accumulate" />
      <rect
         y="-296.67764"
         x="-2241.354"
         height="21"
         width="50"
         id="rect5062"
         style="color:#000000;fill:#502d16;fill-opacity:1;fill-rule:evenodd;stroke:none;visibility:visible;display:inline;overflow:visible;enable-background:accumulate" />
      <rect
         y="-276.67764"
         x="-2246.354"
         height="45"
         width="65"
         id="rect5067"
         style="color:#000000;fill:#ffffff;fill-opacity:1;fill-rule:evenodd;stroke:none;visibility:visible;display:inline;overflow:visible;enable-background:accumulate" />
      <path
         sodipodi:nodetypes="ccccccccccccccccccccccccccc"
         inkscape:connector-curvature="0"
         id="path5069"
         d="m -2246.354,-276.67763 5,0 0,10 10,0 0,10 10,0 0,10 10,0 0,10 10,0 0,-10 10,0 0,-10 10,0 0,-5 -5,0 0,10 -10,0 0,10 -20,0 0,-10 -10,0 0,-10 -10,0 0,-10 -10,0 z"
         style="fill:#000000;fill-rule:evenodd;stroke:none" />
      <rect
         y="-226.67763"
         x="-2281.354"
         height="10"
         width="100"
         id="rect5071"
         style="color:#000000;fill:#666666;fill-opacity:1;fill-rule:evenodd;stroke:none;visibility:visible;display:inline;overflow:visible;enable-background:accumulate" />
      <path
         sodipodi:nodetypes="cccssssc"
         inkscape:connector-curvature="0"
         id="path5484"
         d="m -2239.7916,-271.49846 c 13.209,6.13604 15.9759,14.07016 10.6318,25.57475 -6.5497,9.77523 -23.2702,15.31006 -30.866,11.92584 -7.392,-3.43379 -20.9447,-6.0263 -23.2002,-12.65311 -1.775,-5.21484 6.6063,-14.22169 8.9598,-19.28794 2.1903,-4.71511 4.4152,-13.40233 9.0692,-15.48495 6.7017,-2.99899 17.61,6.30421 25.4053,9.92541 z"
         style="fill:#ea9680;fill-opacity:1;fill-rule:evenodd;stroke:none" />
      <path
         style="fill:#999999;fill-opacity:1;fill-rule:evenodd;stroke:none"
         d="m -2303.9119,-338.05879 11.7368,25.37837 45.6661,36.58804 -36.8278,32.05371 -47.2905,-36.19578 -2.1909,-24.10045 z"
         id="path5486"
         inkscape:connector-curvature="0"
         sodipodi:nodetypes="ccccccc" />
    </g>
  </g>
</svg>
