<?xml version="1.0" encoding="UTF-8" standalone="no"?>
<!-- Created with Inkscape (http://www.inkscape.org/) -->

<svg
   xmlns:dc="http://purl.org/dc/elements/1.1/"
   xmlns:cc="http://creativecommons.org/ns#"
   xmlns:rdf="http://www.w3.org/1999/02/22-rdf-syntax-ns#"
   xmlns:svg="http://www.w3.org/2000/svg"
   xmlns="http://www.w3.org/2000/svg"
   xmlns:sodipodi="http://sodipodi.sourceforge.net/DTD/sodipodi-0.dtd"
   xmlns:inkscape="http://www.inkscape.org/namespaces/inkscape"
   width="439.2468"
   height="449.00781"
   id="svg4343"
   version="1.1"
   inkscape:version="0.48.4 r9939"
   sodipodi:docname="reading.svg">
  <defs
     id="defs4345">
    <inkscape:path-effect
       effect="spiro"
       id="path-effect4824-3"
       is_visible="true" />
    <inkscape:path-effect
       effect="spiro"
       id="path-effect4830-8"
       is_visible="true" />
    <inkscape:path-effect
       is_visible="true"
       id="path-effect4788-8"
       effect="spiro" />
    <inkscape:path-effect
       effect="spiro"
       id="path-effect4806-0"
       is_visible="true" />
    <inkscape:path-effect
       effect="spiro"
       id="path-effect4778-3"
       is_visible="true" />
    <inkscape:path-effect
       is_visible="true"
       id="path-effect7123"
       effect="spiro" />
    <inkscape:path-effect
       is_visible="true"
       id="path-effect7127"
       effect="spiro" />
  </defs>
  <sodipodi:namedview
     id="base"
     pagecolor="#ffffff"
     bordercolor="#666666"
     borderopacity="1.0"
     inkscape:pageopacity="0.0"
     inkscape:pageshadow="2"
     inkscape:zoom="0.35"
     inkscape:cx="246.052"
     inkscape:cy="173.07533"
     inkscape:document-units="px"
     inkscape:current-layer="layer1"
     showgrid="false"
     inkscape:window-width="803"
     inkscape:window-height="415"
     inkscape:window-x="290"
     inkscape:window-y="109"
     inkscape:window-maximized="0"
     fit-margin-top="0"
     fit-margin-left="0"
     fit-margin-right="0"
     fit-margin-bottom="0" />
  <metadata
     id="metadata4348">
    <rdf:RDF>
      <cc:Work
         rdf:about="">
        <dc:format>image/svg+xml</dc:format>
        <dc:type
           rdf:resource="http://purl.org/dc/dcmitype/StillImage" />
        <dc:title />
      </cc:Work>
    </rdf:RDF>
  </metadata>
  <g
     inkscape:label="Layer 1"
     inkscape:groupmode="layer"
     id="layer1"
     transform="translate(-128.948,-256.42971)">
    <g
       transform="translate(1828.2173,680.79955)"
       id="g8624">
      <rect
         style="color:#000000;fill:#de87aa;fill-opacity:1;fill-rule:evenodd;stroke:none;visibility:visible;display:inline;overflow:visible;enable-background:accumulate"
         id="rect7053"
         width="434.58878"
         height="344.80566"
         x="-1697.1543"
         y="-420.18735" />
      <rect
         style="opacity:0.81400003;color:#000000;fill:#784421;fill-opacity:1;fill-rule:evenodd;stroke:none;visibility:visible;display:inline;overflow:visible;enable-background:accumulate"
         id="rect7055"
         width="90.431381"
         height="265.86157"
         x="-1692.333"
         y="-396.0098" />
      <rect
         style="color:#000000;fill:#ffb380;fill-opacity:1;fill-rule:evenodd;stroke:none;visibility:visible;display:inline;overflow:visible;enable-background:accumulate"
         id="rect7057"
         width="430"
         height="152.85715"
         x="-1692.333"
         y="-130.14824" />
      <path
         style="color:#000000;fill:#37c8ab;fill-opacity:1;fill-rule:evenodd;stroke:none;visibility:visible;display:inline;overflow:visible;enable-background:accumulate"
         d="m -1393.5483,-118.20063 c 0,58.21216 -34.5294,105.40243 -77.1237,105.40243 -42.5943,-10e-6 -101.3626,-48.65931 -101.3626,-106.87146 0,-26.6565 -15.5294,-92.86898 -3.5895,-111.43017 14.1341,-21.97252 61.2962,-40.2465 84.3857,-40.2465 25.5169,-10e-6 73.8472,14.73211 87.8857,40.82746 9.3955,17.46471 9.8044,88.979 9.8044,112.31824 z"
         id="path7059"
         inkscape:connector-curvature="0"
         sodipodi:nodetypes="sssssss" />
      <rect
         style="color:#000000;fill:#9955ff;fill-opacity:1;fill-rule:evenodd;stroke:none;visibility:visible;display:inline;overflow:visible;enable-background:accumulate"
         id="rect7061"
         width="145.29723"
         height="107.7366"
         x="-1551.749"
         y="-151.29961" />
      <path
         style="fill:#ff796e;fill-opacity:1;fill-rule:evenodd;stroke:none"
         d="m -1391.4345,-155.12549 -26.1767,-13.08833 c -25.3665,31.02593 56.2494,98.45792 30.8457,11.93622"
         id="path7063"
         inkscape:connector-curvature="0"
         sodipodi:nodetypes="ccc" />
      <path
         sodipodi:nodetypes="ccccccccc"
         inkscape:connector-curvature="0"
         id="path7065"
         d="m -1528.2985,-226.10771 -49.2161,21.09258 c -5.287,2.95288 -6.8901,4.55591 -7.6231,10.28435 l -4.0761,40.75945 205.188,0 -7.1972,-43.18315 c -1.3086,-3.30474 -2.6056,-5.22399 -6.4745,-6.79328 l -42.4344,-14.14479 z"
         style="fill:#9955ff;fill-rule:evenodd;stroke:none" />
      <path
         sodipodi:nodetypes="ssssssss"
         inkscape:connector-curvature="0"
         id="path7067"
         d="m -1432.9316,-250.35254 c 0,39.32871 -16.2827,55.13105 -50.5367,55.13105 -28.2174,0 -51.6579,-23.12409 -59.7253,-50.53679 -1.726,-5.86457 -4.5943,-4.55461 -4.5943,-11.48564 0,-22.00928 -9.0686,-58.14849 4.5943,-71.21095 10.7514,-10.27907 42.3435,0 57.4281,0 14.0388,0 37.8449,-4.43414 48.2397,4.59425 14.9681,13.00052 4.5942,50.29797 4.5942,73.50808 z"
         style="fill:#ea9680;fill-opacity:1;fill-rule:evenodd;stroke:none" />
      <path
         sodipodi:nodetypes="ccccccccccccccccccccccccccccccccccccccccccccccc"
         inkscape:connector-curvature="0"
         id="path7069"
         d="m -1561.5706,-259.54105 4.5941,13.78277 4.5943,-9.18852 9.1886,13.78277 0,-13.78277 -4.5943,-9.1885 9.1885,0 -4.5942,-9.18852 4.5942,0 -4.5942,-9.18851 4.5942,0 0,-18.37702 c 0,-13.78275 4.5943,-18.377 18.377,-18.377 l 78.1023,0 c 8.6084,-0.58012 -3.1514,29.17598 9.1885,32.15977 l 4.5943,4.59425 -4.5943,4.59426 4.5943,4.59425 -4.5943,4.59426 4.5943,4.59426 -4.5943,4.59425 -1.0829,7.02263 1.0829,11.35439 4.5943,-9.18851 13.7828,-9.18851 -4.5943,-13.78277 9.1885,-4.59425 -4.5942,-4.59426 4.5942,-4.59425 -9.1885,-4.59425 9.1885,-9.18852 c -12.4773,-6.43032 -1.6585,-19.11209 -4.5942,-32.15977 l -4.5943,-18.37701 c -8.4147,-20.50363 -27.5655,-32.15979 -55.1311,-22.97127 l -59.7252,22.97127 -18.3771,9.18849 -4.5943,-4.59425 0.2776,15.38679 -14.0601,7.58448 9.1885,4.59427 0,27.56552 -9.1885,-4.59427 9.1885,18.37703 -9.1885,-4.59426 4.5943,13.78277 -9.1886,13.78276 z"
         style="fill:#502d16;stroke:none" />
      <g
         transform="matrix(0.84051381,0,0,0.84051381,-1653.3575,-365.12996)"
         id="g7071">
        <path
           style="fill:#502d16;fill-opacity:1;fill-rule:evenodd;stroke:none"
           d="m 207,102.36218 3.77663,15.21822 c 4.17376,14.60814 9.22337,14.78178 14.41622,14.78178 l 29.7995,0 c 5.00765,0 7.34695,-3.11228 8.00765,-5 7,-20 6.88953,-18.07816 10.24045,-23.08189 C 274,103.36218 275,103.36218 275,102.36218 l 0,-13.938057 c 0,-1.06194 -0.15723,-1.06194 -1.06729,-1.061926 -16.32833,6.4e-4 -39.06438,-1.385105 -53.93271,-1.4e-5 -4.22751,0.393823 -9,1 -10,2 -1.74608,1.746077 -3,3 -5,3 l -5,0 c -2,0 -3.25392,-1.253923 -5,-3 -1,-1 -5.77249,-1.606177 -10,-2 -14.86833,-1.385091 -37.60438,6.54e-4 -53.93271,1.4e-5 C 130.15723,87.362183 130,87.362183 130,88.424123 l 0,13.938057 c 0,1 1,1 1.75955,1.91811 3.35092,5.00373 3.24045,3.08189 10.24045,23.08189 0.6607,1.88772 3,5 8.00765,5 l 29.7995,0 c 5.19285,0 10.24246,-0.17364 14.41622,-14.78178 L 198,102.36218 c 1,-2 8,-2 9,0 z"
           id="path7073"
           inkscape:connector-curvature="0"
           sodipodi:nodetypes="ccccsccccssccssccccsccccc" />
        <path
           sodipodi:nodetypes="csccsccccc"
           inkscape:connector-curvature="0"
           id="path7075"
           d="m 191.78169,92.046393 c -0.87816,-0.842105 -5.06922,-1.35257 -8.78169,-1.68421 -8.5781,-0.766293 -10.01245,-0.255225 -21,0 -18,0 -22,7 -22,16.999997 -0.3718,0.97723 2.86165,10.1716 5.23868,16.68421 0.58021,1.58965 2.63451,4.21052 7.03208,4.21052 l 26.16903,0 c 4.56021,0 8.99462,-0.14622 12.6599,-12.44781 l 3.31652,-12.81534 C 195,99.362183 195,95.362183 191.78169,92.046393 z"
           style="fill:#00ffff;fill-opacity:1;fill-rule:evenodd;stroke:none" />
        <path
           style="fill:#00ffff;fill-opacity:1;fill-rule:evenodd;stroke:none"
           d="m 213.6581,93.151666 c 0.87816,-0.842105 5.06922,-1.35257 8.78169,-1.68421 8.5781,-0.766293 10.01245,-0.255225 21,0 18,0 22,7 22,16.999994 0.3718,0.97723 -2.86165,10.1716 -5.23868,16.68421 -0.58021,1.58965 -2.63451,4.21052 -7.03208,4.21052 l -26.16903,0 c -4.56021,0 -8.99462,-0.14622 -12.6599,-12.44781 l -3.31652,-12.81534 c -0.58379,-3.63157 -0.58379,-7.631574 2.63452,-10.947364 z"
           id="path7077"
           inkscape:connector-curvature="0"
           sodipodi:nodetypes="csccsccccc" />
      </g>
      <path
         sodipodi:type="arc"
         style="fill:#000000;fill-opacity:1;stroke:#000000;stroke-width:1.64553797;stroke-miterlimit:4;stroke-opacity:1;stroke-dasharray:none"
         id="path7079"
         sodipodi:cx="-1510.6499"
         sodipodi:cy="-270.28772"
         sodipodi:rx="4.1138453"
         sodipodi:ry="8.2276907"
         d="m -1506.5361,-270.28772 c 0,4.54403 -1.8418,8.22769 -4.1138,8.22769 -2.2505,0 -4.0833,-3.61668 -4.1135,-8.11722 l 4.1135,-0.11047 z"
         sodipodi:start="0"
         sodipodi:end="3.1281655" />
      <path
         sodipodi:end="3.0957393"
         sodipodi:start="0"
         d="m -1454.8505,-270.28772 c 0,4.54403 -1.8418,8.22769 -4.1139,8.22769 -2.1986,0 -4.0087,-3.45779 -4.1095,-7.85055 l 4.1095,-0.37714 z"
         sodipodi:ry="8.2276907"
         sodipodi:rx="4.1138453"
         sodipodi:cy="-270.28772"
         sodipodi:cx="-1458.9644"
         id="path7081"
         style="fill:#000000;fill-opacity:1;stroke:#000000;stroke-width:1.64553797;stroke-miterlimit:4;stroke-opacity:1;stroke-dasharray:none"
         sodipodi:type="arc" />
      <path
         sodipodi:nodetypes="ccc"
         inkscape:connector-curvature="0"
         id="path7087"
         d="m -1584.4047,-153.97133 24.0454,0 c 32.0608,24.04547 -34.2833,96.41522 -27.2474,-0.35715"
         style="fill:#ff796e;fill-opacity:1;fill-rule:evenodd;stroke:none" />
      <path
         style="color:#000000;fill:#d47f2a;fill-opacity:1;fill-rule:evenodd;stroke:none;visibility:visible;display:inline;overflow:visible;enable-background:accumulate"
         d="m -1271.1342,-28.5023 c 0,30.21772 -29.9735,50.11075 -144.205,50.11075 -63.3339,0 -213.9634,0.75579 -251.9038,-11.1046 -30.4905,-9.53147 -7.4585,-24.62153 -7.4585,-38.0855 0,-30.21772 92.6029,-54.71402 206.8344,-54.71402 114.2315,0 196.7329,23.57564 196.7329,53.79337 z"
         id="path7089"
         inkscape:connector-curvature="0"
         sodipodi:nodetypes="ssssss" />
      <ellipse
         d="m -1270.19,-26.095999 c 0,26.036281 -88.5836,47.142857 -197.8571,47.142857 -109.2735,0 -197.8572,-21.106576 -197.8572,-47.142857 0,-26.036281 88.5837,-47.142856 197.8572,-47.142856 109.2735,0 197.8571,21.106575 197.8571,47.142856 z"
         sodipodi:ry="47.142857"
         sodipodi:rx="197.85715"
         sodipodi:cy="-26.095999"
         sodipodi:cx="-1468.0471"
         style="opacity:0.425;color:#000000;fill:#ff9955;fill-opacity:1;fill-rule:evenodd;stroke:none;visibility:visible;display:inline;overflow:visible;enable-background:accumulate"
         id="ellipse7091"
         cx="-1468.0471"
         cy="-26.095999"
         rx="197.85715"
         ry="47.142857" />
      <rect
         y="-290.36981"
         x="-1695.3408"
         height="117.77093"
         width="77.931366"
         id="rect7177"
         style="opacity:0.81400003;color:#000000;fill:#c87137;fill-opacity:1;fill-rule:evenodd;stroke:none;visibility:visible;display:inline;overflow:visible;enable-background:accumulate" />
      <rect
         style="opacity:0.81400003;color:#000000;fill:#c87137;fill-opacity:1;fill-rule:evenodd;stroke:none;visibility:visible;display:inline;overflow:visible;enable-background:accumulate"
         id="rect7175"
         width="65.431358"
         height="117.77093"
         x="-1682.8408"
         y="-422.36978" />
      <path
         sodipodi:nodetypes="sssss"
         inkscape:connector-curvature="0"
         id="path7307"
         d="m -1297.7161,-415.15819 c 0,27.61566 -22.3869,50.00258 -50.0026,50.00255 -27.6156,-3e-5 -50.0025,-22.38692 -50.0025,-50.00255 0,-27.61563 40.5696,20.20308 68.1852,20.20305 27.6157,-3e-5 31.8199,-47.81871 31.8199,-20.20305 z"
         style="opacity:0.81400003;color:#000000;fill:#ff0066;fill-opacity:1;fill-rule:evenodd;stroke:none;visibility:visible;display:inline;overflow:visible;enable-background:accumulate" />
      <path
         sodipodi:nodetypes="sssss"
         inkscape:connector-curvature="0"
         id="circle7309"
         d="m -1308.0733,-415.61681 c 0,22.03672 -17.8643,39.90101 -39.901,39.90103 -22.0367,-2e-5 -39.901,-17.86431 -39.901,-39.90103 0,-22.03672 21.3998,9.09139 43.4365,9.09138 22.0367,10e-6 36.3655,-31.1281 36.3655,-9.09138 z"
         style="color:#000000;fill:#ffeeaa;fill-opacity:1;fill-rule:evenodd;stroke:none;visibility:visible;display:inline;overflow:visible;enable-background:accumulate" />
      <path
         sodipodi:nodetypes="cccccccssscc"
         inkscape:connector-curvature="0"
         id="path7179"
         d="m -1479.886,-424.36984 219.8635,0 0,449.0078 -439.2468,0 0,-449.0078 219.6011,0 0.6042,5.00228 c -115.11,4.2213 -215.0183,101.12833 -215.0183,219.94577 0,121.50264 96.2588,220 214.9999,220 118.7413,0 215.0001,-98.49736 215.0001,-220 0,-121.50264 -96.0802,-219.82142 -214.8215,-219.82142 z"
         style="fill:#ffffff;fill-opacity:1;fill-rule:evenodd;stroke:none" />
      <path
         style="fill:#ff0000;fill-rule:evenodd;stroke:none"
         d="m -1574.8402,-65.98679 0,52.37307 c 0,2.79101 0,2.79101 2.0099,3.75939 17.0425,7.90025 34.0848,7.90285 51.1272,0.007 2.0269,-0.9762 2.0269,-0.9762 2.0269,-3.50406 l 0,-52.63622 c -18.388,-9.19401 -36.776,-9.19401 -55.164,0"
         id="path7093"
         inkscape:connector-curvature="0"
         sodipodi:nodetypes="ccccccc" />
      <ellipse
         d="m -1522.3688,-63.458424 c 0,3.046629 -11.114,5.516409 -24.8238,5.516409 -13.7099,0 -24.8239,-2.46978 -24.8239,-5.516409 0,-3.046628 11.114,-5.516408 24.8239,-5.516408 13.7098,0 24.8238,2.46978 24.8238,5.516408 z"
         sodipodi:ry="5.5164084"
         sodipodi:rx="24.823837"
         sodipodi:cy="-63.458424"
         sodipodi:cx="-1547.1926"
         style="color:#000000;fill:#ff9955;fill-opacity:1;fill-rule:evenodd;stroke:none;visibility:visible;display:inline;overflow:visible;enable-background:accumulate"
         id="ellipse7095"
         cx="-1547.1926"
         cy="-63.458424"
         rx="24.823837"
         ry="5.5164084" />
      <path
         style="fill:#ff0000;fill-rule:evenodd;stroke:none"
         d="m -1573.0014,-59.09127 0,11.4925 c -4.8844,0 -11.0328,0.32145 -11.0328,4.59702 0,4.59701 0,9.194 0,13.79101 0,4.64326 7.5617,4.59701 11.0328,4.59701 l 0,11.49252 c -6.1947,-5.31415 -18.3881,0 -18.3881,-16.08953 l 0,-16.08951 c 0,-13.79102 12.1587,-9.35012 18.3881,-13.79102 z"
         id="path7097"
         inkscape:connector-curvature="0"
         sodipodi:nodetypes="ccssccccc" />
      <g
         id="g7103"
         transform="matrix(1.9076905,0,0,1.9076905,306.7004,-419.04043)">
        <path
           sodipodi:nodetypes="ccc"
           inkscape:connector-curvature="0"
           id="path7105"
           d="m -948,224.36218 1,0 c 1.3327,-3.00818 3,-9 5,-10"
           style="fill:none;stroke:#000000;stroke-width:1px;stroke-linecap:round;stroke-linejoin:miter;stroke-opacity:1" />
        <path
           sodipodi:nodetypes="cccccc"
           inkscape:connector-curvature="0"
           id="path7107"
           d="m -940,197.36218 -10.58188,27.16659 2.80584,0.35673 10.58188,-27.16659 -2.61024,-0.90405 z"
           style="fill:#000080;fill-rule:evenodd;stroke:none" />
        <path
           inkscape:connector-curvature="0"
           id="path7109"
           d="m -946.21651,213.38898 2.51116,0.88169"
           style="fill:#00ffff;fill-rule:evenodd;stroke:#5555ff;stroke-width:1px;stroke-linecap:butt;stroke-linejoin:miter;stroke-opacity:1" />
        <path
           sodipodi:nodetypes="ccccc"
           inkscape:connector-curvature="0"
           id="path7111"
           d="m -939.08594,195.88672 -11.24274,28.67355 0.9986,0.16434 11.17383,-28.47266 z"
           style="font-size:medium;font-style:normal;font-variant:normal;font-weight:normal;font-stretch:normal;text-indent:0;text-align:start;text-decoration:none;line-height:normal;letter-spacing:normal;word-spacing:normal;text-transform:none;direction:ltr;block-progression:tb;writing-mode:lr-tb;text-anchor:start;baseline-shift:baseline;opacity:0.46600001;color:#000000;fill:#2a7fff;fill-opacity:1;fill-rule:evenodd;stroke:none;visibility:visible;display:inline;overflow:visible;enable-background:accumulate;font-family:sans-serif" />
        <ellipse
           sodipodi:ry="0.75892854"
           sodipodi:rx="0.2845982"
           sodipodi:cy="530.88739"
           sodipodi:cx="-796.40894"
           transform="matrix(0.92717981,0.37461661,-0.37461661,0.92717981,0,0)"
           ry="0.75892854"
           rx="0.2845982"
           cy="530.88739"
           cx="-796.40894"
           id="ellipse7113"
           style="color:#000000;fill:#0000ff;fill-opacity:1;fill-rule:evenodd;stroke:none;visibility:visible;display:inline;overflow:visible;enable-background:accumulate"
           d="m -796.12434,530.88739 c 0,0.41914 -0.12742,0.75893 -0.2846,0.75893 -0.15717,0 -0.28459,-0.33979 -0.28459,-0.75893 0,-0.41914 0.12742,-0.75893 0.28459,-0.75893 0.15718,0 0.2846,0.33979 0.2846,0.75893 z" />
        <path
           sodipodi:nodetypes="ccccc"
           inkscape:connector-curvature="0"
           id="path7115"
           d="m -939.82066,196.79455 2.58851,0.94702 c 0.0842,-1.19956 0.2694,-2.55068 0.25254,-3.59867 0,0 -0.55242,-0.25254 -0.67869,-0.22097 -0.12627,0.0316 -2.16236,2.87262 -2.16236,2.87262 z"
           style="fill:#ffd42a;fill-rule:evenodd;stroke:none" />
      </g>
      <path
         style="fill:#ffffff;fill-rule:evenodd;stroke:none"
         d="m -1441.6994,-59.50712 0,-3.33259 3.5548,4.36941 -3.5177,-5.18404 -0.037,-4.14726 c 19.3537,-2.76482 40.9726,-2.13192 58.0612,-8.29446 6.8983,22.43191 27.6482,38.70751 41.4723,58.06127 l 0,8.29447 -58.0612,8.29446 z"
         id="path7117"
         inkscape:connector-curvature="0"
         sodipodi:nodetypes="cccccccccc" />
      <path
         style="fill:#999999;fill-rule:evenodd;stroke:none"
         d="m -1440.0405,-66.14269 39.8135,56.40237 c 0,0 54.4472,-8.11674 56.1061,-8.11674 1.6589,0 -56.1061,4.79895 -56.1061,4.79895 l -39.8135,-53.08458"
         id="path7119"
         inkscape:connector-curvature="0"
         sodipodi:nodetypes="ccscc" />
      <path
         style="fill:none;stroke:#0000ff;stroke-width:1.65889347px;stroke-linecap:butt;stroke-linejoin:miter;stroke-opacity:1"
         d="m -1362.7676,-30.33789 c 0.1582,0.446125 0.2022,0.932208 0.1267,1.399487 -0.075,0.467278 -0.2703,0.914783 -0.5609,1.288414 -0.2906,0.373631 -0.6764,0.672613 -1.1107,0.860802 -0.4343,0.188189 -0.9163,0.265194 -1.3876,0.221707 -0.6454,-0.05955 -1.2546,-0.34011 -1.7872,-0.709455 -0.5326,-0.369345 -0.9973,-0.82656 -1.4592,-1.281283 -0.4618,-0.454723 -0.9267,-0.91184 -1.4594,-1.280938 -0.5328,-0.369099 -1.1423,-0.649253 -1.7877,-0.708204 -0.8558,-0.07816 -1.7228,0.246918 -2.3808,0.799619 -0.658,0.552702 -1.1168,1.318012 -1.3896,2.132921 -0.1614,0.482109 -0.261,0.983001 -0.4189,1.46627 -0.189,0.578576 -0.4678,1.13892 -0.8935,1.573949 -0.4257,0.43503 -1.0115,0.734748 -1.6201,0.730191 -0.425,-0.0032 -0.8397,-0.152314 -1.2043,-0.370842 -0.3646,-0.218528 -0.6837,-0.504685 -0.9877,-0.801797 -0.304,-0.297111 -0.5958,-0.607481 -0.9183,-0.884393 -0.3225,-0.276912 -0.6793,-0.521654 -1.0791,-0.666038 -0.4054,-0.1464 -0.8457,-0.185216 -1.2743,-0.139955 -0.4287,0.04526 -0.8461,0.172935 -1.2393,0.349425 -1.2228,0.548841 -2.1787,1.541137 -3.1486,2.466206 -0.9699,0.925069 -2.0403,1.834173 -3.3448,2.142074 -0.6851,0.161716 -1.4062,0.146813 -2.0947,0 -0.9261,-0.197476 -1.8,-0.634445 -2.5136,-1.25681"
         id="path7121"
         inkscape:path-effect="#path-effect7123"
         inkscape:original-d="m -1362.7676,-30.33789 c -1.1334,1.09968 -0.9609,3.52397 -2.9325,3.77041 -5.0726,0.63407 -5.2747,-4.38612 -6.4935,-3.97988 -1.6065,0.53553 -2.9296,1.46115 -3.7704,2.93254 -0.2522,0.44136 -0.1574,1.03039 -0.4189,1.46627 -0.5132,0.85541 -1.6744,1.74465 -2.5136,2.30414 -1.7087,1.13912 -3.8594,-2.06314 -4.1894,-2.72307 -0.1149,-0.23007 -2.4997,0.20716 -2.5136,0.20947 -3.6611,0.61018 -3.3935,4.99576 -6.4934,4.60828 -0.1488,-0.0185 -1.7665,0.16407 -2.0947,0 -0.8439,-0.42199 -1.6518,-0.91211 -2.5136,-1.25681"
         inkscape:connector-curvature="0" />
      <path
         style="fill:none;stroke:#0000ff;stroke-width:1.65889347px;stroke-linecap:butt;stroke-linejoin:miter;stroke-opacity:1"
         d="m -1372.6775,-42.17759 c 0.1746,0.583035 0.1205,1.231311 -0.1482,1.77738 -0.3052,0.620179 -0.8717,1.090736 -1.5109,1.353751 -0.6392,0.263014 -1.347,0.329912 -2.0361,0.275194 -1.3781,-0.109436 -2.6702,-0.683904 -4.0069,-1.036485 -0.3412,-0.09 -0.6883,-0.165976 -1.0408,-0.181139 -0.3526,-0.01516 -0.7127,0.03273 -1.0328,0.181139 -0.4482,0.207787 -0.7847,0.592978 -1.1082,0.966342 -0.3235,0.373363 -0.6628,0.756857 -1.1135,0.959168 -0.2316,0.103979 -0.4868,0.155666 -0.7406,0.14814 -0.4161,-0.01234 -0.8103,-0.179532 -1.1899,-0.350299 -0.3796,-0.170767 -0.7656,-0.35039 -1.18,-0.390281 -0.3307,-0.03183 -0.6642,0.02753 -0.9832,0.120234 -0.319,0.09271 -0.6273,0.218546 -0.9423,0.324116 -1.3719,0.459815 -2.8403,0.52673 -4.2865,0.571604 -1.4462,0.04487 -2.911,0.07432 -4.3041,0.465206 -1.6742,0.469749 -3.1962,1.466911 -4.2954,2.81419"
         id="path7125"
         inkscape:path-effect="#path-effect7127"
         inkscape:original-d="m -1372.6775,-42.17759 c -0.051,0.18205 0.097,1.65502 -0.1482,1.77738 -2.2431,1.12155 -4.9352,0.59246 -7.5539,0.59246 -0.1289,0 -2.0426,-0.0931 -2.0736,0 -1.0502,3.15054 -0.6713,1.15028 -2.2217,1.92551 -0.039,0.0196 -0.511,0.37772 -0.7406,0.14814 -0.3137,-0.31373 -1.7366,-1.16274 -2.3699,-0.74058 -0.6088,0.40595 -1.8888,0.40774 -1.9255,0.44435 -0.679,0.67901 -7.5223,0.78545 -8.5906,1.03681 -1.5063,0.35441 -3.1305,2.81419 -4.2954,2.81419"
         inkscape:connector-curvature="0" />
      <path
         style="font-size:medium;font-style:normal;font-variant:normal;font-weight:normal;font-stretch:normal;text-indent:0;text-align:start;text-decoration:none;line-height:normal;letter-spacing:normal;word-spacing:normal;text-transform:none;direction:ltr;block-progression:tb;writing-mode:lr-tb;text-anchor:start;baseline-shift:baseline;color:#000000;fill:#666666;fill-opacity:1;fill-rule:evenodd;stroke:none;visibility:visible;display:inline;overflow:visible;enable-background:accumulate;font-family:sans-serif"
         d="m -1392.7717,-16.24771 c -0.9504,-0.007 -1.9618,0.20709 -2.9808,0.53137 -0.4039,0.57099 -0.8606,1.14604 0.5021,1.58112 1.8313,-0.58274 3.2284,-0.61798 4.0987,0.0259 0.8703,0.6439 1.5596,2.22528 1.4807,5.54693 -0.1124,4.72121 -1.2433,6.62897 -2.1384,7.13128 -0.4476,0.25116 -0.8975,0.25887 -1.4192,0.0843 -0.5217,-0.17462 -1.0755,-0.42793 -1.5163,-0.90266 l -1.6634,0.26349 c 0.2467,0.92124 1.7963,1.92641 2.6548,2.21381 0.8586,0.28741 1.8659,0.28964 2.7573,-0.21059 1.7828,-1.00049 2.8661,-3.5789 2.9841,-8.54072 0.085,-3.5602 -0.6213,-5.7829 -2.1547,-6.91745 -0.7666,-0.56727 -1.6545,-0.79944 -2.6049,-0.80677 z"
         id="path7129"
         inkscape:connector-curvature="0"
         sodipodi:nodetypes="cccccscccsssscc" />
      <path
         sodipodi:nodetypes="csc"
         inkscape:connector-curvature="0"
         id="path7131"
         d="m -1389.4613,-15.86695 c 3.8693,-1.23129 6.8237,-0.49966 6.6601,6.38218 -0.2302,9.68303 -4.43,8.96813 -6.512,6.72605"
         style="fill:none;stroke:#666666;stroke-width:1.65889347px;stroke-linecap:round;stroke-linejoin:miter;stroke-opacity:1" />
      <path
         style="fill:none;stroke:#666666;stroke-width:1.65889347px;stroke-linecap:round;stroke-linejoin:miter;stroke-opacity:1"
         d="m -1384.2247,-16.70482 c 3.8693,-1.23129 6.8238,-0.49966 6.6602,6.38218 -0.2302,9.68302 -4.43,8.96813 -6.512,6.72605"
         id="path7134"
         inkscape:connector-curvature="0"
         sodipodi:nodetypes="csc" />
      <path
         sodipodi:nodetypes="csc"
         inkscape:connector-curvature="0"
         id="path7136"
         d="m -1378.8833,-17.33323 c 3.8694,-1.2313 6.8238,-0.49965 6.6602,6.38218 -0.2302,9.68303 -4.43,8.96812 -6.512,6.72605"
         style="fill:none;stroke:#666666;stroke-width:1.65889347px;stroke-linecap:round;stroke-linejoin:miter;stroke-opacity:1" />
      <path
         style="fill:none;stroke:#666666;stroke-width:1.65889347px;stroke-linecap:round;stroke-linejoin:miter;stroke-opacity:1"
         d="m -1373.3324,-18.1711 c 3.8693,-1.2313 6.8237,-0.49965 6.6601,6.38218 -0.2302,9.68302 -4.4299,8.96812 -6.5119,6.72605"
         id="path7138"
         inkscape:connector-curvature="0"
         sodipodi:nodetypes="csc" />
      <path
         sodipodi:nodetypes="csc"
         inkscape:connector-curvature="0"
         id="path7141"
         d="m -1367.4673,-18.38056 c 3.8693,-1.23131 6.8237,-0.49967 6.6601,6.38217 -0.2302,9.68303 -4.43,8.96812 -6.512,6.72604"
         style="fill:none;stroke:#666666;stroke-width:1.65889347px;stroke-linecap:round;stroke-linejoin:miter;stroke-opacity:1" />
      <path
         style="fill:none;stroke:#666666;stroke-width:1.65889347px;stroke-linecap:round;stroke-linejoin:miter;stroke-opacity:1"
         d="m -1361.8117,-19.11371 c 3.8693,-1.23129 6.8237,-0.49965 6.6601,6.38218 -0.2302,9.68304 -4.43,8.96813 -6.512,6.72605"
         id="path7144"
         inkscape:connector-curvature="0"
         sodipodi:nodetypes="csc" />
      <path
         sodipodi:nodetypes="csc"
         inkscape:connector-curvature="0"
         id="path7146"
         d="m -1356.0514,-19.95158 c 3.8693,-1.23129 6.8237,-0.49965 6.6601,6.38218 -0.2301,9.68302 -4.4299,8.96813 -6.5119,6.72605"
         style="fill:none;stroke:#666666;stroke-width:1.65889347px;stroke-linecap:round;stroke-linejoin:miter;stroke-opacity:1" />
      <path
         style="fill:none;stroke:#666666;stroke-width:1.65889347px;stroke-linecap:round;stroke-linejoin:miter;stroke-opacity:1"
         d="m -1349.9768,-20.37051 c 3.8693,-1.23129 6.8237,-0.49966 6.6601,6.38218 -0.2302,9.68302 -4.43,8.96813 -6.512,6.72605"
         id="path7148"
         inkscape:connector-curvature="0"
         sodipodi:nodetypes="csc" />
      <g
         transform="matrix(1.6030306,0,0,1.6030306,-1754.708,304.14184)"
         id="g7150">
        <path
           style="fill:#eef4d7;fill-rule:evenodd;stroke:none"
           d="m 125,-332.63782 c 33.42514,7.62477 54.27593,21.20679 62,34 9.32223,-14.36291 18.68778,-28.17707 29,-30 0.022,1.17594 -0.69954,2.67057 1.52895,2.90088 l -6.75981,29.71779 -56.53078,2.90637 c -10.24612,-10.50835 -27.84855,-19.38196 -30.73836,-31.52504 1.42159,0 2.03837,-0.58382 2.22794,-1.57612 0.0406,-0.21279 19.30732,3.99694 0.0667,-0.693 -0.47819,-0.11656 -0.0422,-1.051 -0.12804,-1.66331 -0.0397,-0.28307 9.22162,1.41284 17.98636,4.6705 -4.76474,-3.25763 -18.21041,-6.05701 -18.25637,-6.31858 -0.13382,-0.76149 -0.27882,-1.57392 -0.39663,-2.41949 z"
           id="path7152"
           inkscape:connector-curvature="0"
           sodipodi:nodetypes="cccccccssscsc" />
        <path
           style="fill:#008000;fill-rule:evenodd;stroke:none"
           d="m 120,-329.30449 60,26.66667 13.33333,0 26.66667,-26.66667 0,80 -26.66667,26.66667 -13.33333,0 -60,-26.66667 0,-80"
           id="path7154"
           inkscape:connector-curvature="0"
           sodipodi:nodetypes="ccccccccc" />
      </g>
      <path
         sodipodi:nodetypes="ccccc"
         inkscape:connector-curvature="0"
         id="path7156"
         d="m -1545.9319,-189.77237 0,38.47274 57.7091,25.64851 0,-36.33536 z"
         style="opacity:0.34800002;fill:#800000;fill-rule:evenodd;stroke:none" />
      <ellipse
         d="m -1465.0093,-116.53613 c 0,34.306507 -0.6622,62.117429 -1.479,62.117429 -0.8168,0 -1.479,-27.810922 -1.479,-62.117429 0,-34.30651 0.6622,-62.11743 1.479,-62.11743 0.8168,0 1.479,27.81092 1.479,62.11743 z"
         sodipodi:ry="62.117432"
         sodipodi:rx="1.4789865"
         sodipodi:cy="-116.53613"
         sodipodi:cx="-1466.4883"
         ry="62.117432"
         rx="1.4789865"
         cy="-116.53613"
         cx="-1466.4883"
         id="ellipse7158"
         style="color:#000000;fill:#00ff00;fill-opacity:1;fill-rule:evenodd;stroke:none;visibility:visible;display:inline;overflow:visible;enable-background:accumulate" />
      <ellipse
         d="m -1442.7439,-116.67107 c 0,34.306514 -0.6622,62.117435 -1.479,62.117435 -0.8168,0 -1.479,-27.810921 -1.479,-62.117435 0,-34.30651 0.6622,-62.11743 1.479,-62.11743 0.8168,0 1.479,27.81092 1.479,62.11743 z"
         sodipodi:ry="62.117432"
         sodipodi:rx="1.4789865"
         sodipodi:cy="-116.67107"
         sodipodi:cx="-1444.2229"
         style="color:#000000;fill:#00ff00;fill-opacity:1;fill-rule:evenodd;stroke:none;visibility:visible;display:inline;overflow:visible;enable-background:accumulate"
         id="ellipse7160"
         cx="-1444.2229"
         cy="-116.67107"
         rx="1.4789865"
         ry="62.117432" />
      <path
         inkscape:transform-center-y="46.991603"
         inkscape:transform-center-x="14.68488"
         sodipodi:nodetypes="csccsssc"
         inkscape:connector-curvature="0"
         id="path7162"
         d="m -1553.8863,-142.04534 c 12.6621,5.69519 15.3918,13.22591 10.4316,24.25424 -4.0863,9.08478 -14.9256,13.28301 -24.9197,11.91068 -4.8918,-0.0765 -8.08,-2.08577 -13.1328,-7.09037 -1.7526,-4.95008 -2.8975,-16.95507 -1.7406,-23.37439 2.4765,-13.74209 13.7041,-12.45326 18.1159,-14.49254 6.3533,-2.93649 3.7729,5.43126 11.2456,8.79237 z"
         style="fill:#ea9680;fill-opacity:1;fill-rule:evenodd;stroke:none" />
      <path
         style="fill:#ea9680;fill-opacity:1;fill-rule:evenodd;stroke:none"
         d="m -1406.6536,-141.38226 c -9.7047,5.09524 -11.7969,11.83268 -7.9951,21.69926 3.1318,8.12774 11.4394,11.88374 19.0991,10.65596 3.7494,-0.0683 6.1928,-1.86605 10.0655,-6.34345 1.3432,-4.42864 2.2207,-15.169 1.334,-20.91207 -1.898,-12.29447 -10.5032,-11.1414 -13.8847,-12.96587 -4.8693,-2.62714 -2.8915,4.85913 -8.6188,7.86615 z"
         id="path7164"
         inkscape:connector-curvature="0"
         sodipodi:nodetypes="csccsssc"
         inkscape:transform-center-x="-11.254953"
         inkscape:transform-center-y="42.041386" />
      <ellipse
         d="m -1603.4095,-300.82507 c 0,7.98343 -6.4947,14.45527 -14.5063,14.45527 -8.0115,0 -14.5062,-6.47184 -14.5062,-14.45527 0,-7.98343 6.4947,-14.45528 14.5062,-14.45528 8.0116,0 14.5063,6.47185 14.5063,14.45528 z"
         sodipodi:ry="14.455277"
         sodipodi:rx="14.506244"
         sodipodi:cy="-300.82507"
         sodipodi:cx="-1617.9158"
         ry="14.455277"
         rx="14.506244"
         cy="-300.82507"
         cx="-1617.9158"
         id="path7313"
         style="color:#000000;fill:#d4aa00;fill-opacity:1;fill-rule:evenodd;stroke:none;visibility:visible;display:inline;overflow:visible;enable-background:accumulate" />
      <circle
         d="m -1608.929,-307.10986 c 0,1.38071 -1.1192,2.5 -2.5,2.5 -1.3807,0 -2.5,-1.11929 -2.5,-2.5 0,-1.38072 1.1193,-2.5 2.5,-2.5 1.3808,0 2.5,1.11928 2.5,2.5 z"
         sodipodi:ry="2.5"
         sodipodi:rx="2.5"
         sodipodi:cy="-307.10986"
         sodipodi:cx="-1611.429"
         r="2.5"
         cy="-307.10986"
         cx="-1611.429"
         id="path7319"
         style="color:#000000;fill:#ffeeaa;fill-opacity:1;fill-rule:evenodd;stroke:none;visibility:visible;display:inline;overflow:visible;enable-background:accumulate" />
      <path
         sodipodi:nodetypes="cc"
         inkscape:connector-curvature="0"
         id="path4732"
         d="m -1505.073,-222.98666 c 1.7403,5.17112 8.7016,7.20258 12.3405,5.221"
         style="fill:none;stroke:#000000;stroke-width:5;stroke-linecap:round;stroke-linejoin:miter;stroke-miterlimit:4;stroke-opacity:1;stroke-dasharray:none" />
    </g>
  </g>
</svg>
